<svg width="324" height="341" viewBox="0 0 324 341" fill="none" xmlns="http://www.w3.org/2000/svg">
<path d="M251.64 252.18C252.18 252.72 252.72 253.26 252.72 253.26V254.34C252.18 254.88 252.18 254.88 252.18 254.34C252.18 253.8 251.1 254.34 251.64 254.34C251.1 254.88 251.1 254.88 251.1 254.88C250.56 254.88 250.02 254.88 250.02 254.88C250.56 255.42 252.18 256.5 250.56 256.5C250.56 257.04 250.56 257.04 250.02 257.58C251.64 257.58 252.18 258.12 251.64 259.74C251.64 260.28 251.64 260.28 252.18 260.28C252.18 260.28 252.18 260.28 252.18 260.82C254.34 260.82 251.64 261.9 251.64 261.9C251.1 261.36 251.1 261.36 251.1 261.36C250.56 261.36 250.56 261.36 251.1 260.82C251.1 260.28 251.1 260.28 250.56 260.82C250.56 260.82 250.56 261.36 250.56 261.9C250.56 261.9 254.88 264.06 252.18 265.68C251.64 266.22 251.1 266.22 251.1 265.14C251.1 264.6 250.56 264.06 250.02 264.06C250.02 264.6 250.02 264.6 250.56 264.6C251.1 265.14 250.56 265.68 250.02 265.68C250.02 265.68 248.94 266.22 248.4 266.22H247.86C247.86 266.76 247.86 266.76 248.4 266.76C249.48 266.76 250.02 267.3 250.02 268.38C250.56 268.92 250.02 269.46 249.48 268.92C248.94 268.92 248.94 268.92 248.94 268.38C248.94 268.38 248.4 268.38 248.4 270.54C248.4 271.08 248.4 271.08 247.86 271.08L247.32 270.54C247.32 270 247.32 269.46 246.78 269.46C245.16 269.46 244.62 268.92 244.08 267.84C243.54 268.38 243 268.92 243 268.92L241.92 267.84C240.84 267.84 240.3 267.84 240.3 267.3V266.76C239.76 266.76 239.22 266.22 238.68 265.68C238.14 266.22 238.14 266.22 238.14 266.76C238.14 267.3 237.6 266.76 237.06 266.22C236.52 266.22 236.52 266.22 237.06 265.68C237.06 265.68 237.06 265.68 236.52 265.68H235.98C235.44 266.22 235.44 266.22 235.44 265.68H234.9C233.82 265.68 233.28 265.14 233.28 264.6C233.28 264.06 232.74 264.06 232.2 264.06C231.66 264.6 231.12 264.6 231.12 263.52C231.12 262.98 231.12 262.98 230.58 262.98C230.04 262.98 230.04 262.98 230.04 262.44C229.5 262.44 229.5 262.44 228.96 262.44C228.42 262.44 227.88 261.9 226.26 260.28C226.26 259.74 226.26 259.74 225.72 259.74C225.18 259.74 224.64 259.74 224.64 259.2C224.64 258.66 224.1 258.66 223.56 258.66H223.02C223.02 258.12 222.48 257.58 221.94 257.58C221.4 257.58 220.86 257.04 220.32 256.5C219.78 255.96 219.24 255.42 218.7 255.42C218.16 255.42 217.62 255.42 217.08 254.88C216.54 254.34 216 254.34 215.46 253.8C214.92 253.8 214.38 253.26 213.84 252.18C213.3 251.64 213.3 251.64 212.76 252.18C212.22 252.18 212.22 251.64 212.22 251.1L212.76 250.56C212.22 250.02 211.68 250.02 211.68 250.56C211.68 251.1 211.14 251.1 210.6 250.56H210.06V249.48C209.52 248.94 209.52 248.94 209.52 248.94C208.98 248.94 207.9 248.94 207.36 248.4C206.82 248.4 206.28 247.86 206.82 247.32L206.28 246.78C205.74 246.78 205.74 246.78 205.2 246.24C204.66 246.24 204.66 246.24 204.12 246.24C203.58 245.7 203.04 245.7 203.04 245.7L202.5 245.16H201.96V244.62L202.5 244.08H200.34C199.8 244.08 199.26 244.08 199.26 243.54C199.26 243.54 199.8 243 200.34 242.46C199.8 241.92 198.72 241.92 198.18 241.92C197.64 241.92 196.56 241.38 196.02 240.84C195.48 239.76 194.94 239.76 194.4 240.3C194.4 238.68 193.86 238.14 192.24 238.14H191.16C191.16 237.6 191.16 237.6 191.16 237.6C190.62 237.6 190.62 237.6 190.62 237.06H191.7C192.24 237.6 192.24 237.6 192.24 237.06C191.7 236.52 191.7 236.52 191.7 236.52C190.62 237.06 189.54 237.06 189 235.44C188.46 235.44 187.92 235.44 187.92 235.44C187.38 234.9 186.84 234.36 186.3 233.82C185.76 233.82 185.76 233.82 185.22 233.28H184.14C182.52 231.66 181.44 231.12 180.36 230.58C179.82 230.04 179.28 230.04 179.28 229.5C178.74 228.96 178.2 228.96 177.66 228.96C177.12 228.42 177.12 228.42 177.12 227.88C176.58 227.34 176.58 227.34 176.04 226.8C176.04 226.26 176.04 226.26 175.5 226.26C175.5 226.26 174.96 226.26 174.42 226.26C174.42 225.72 173.88 225.72 173.34 225.72C172.8 225.72 172.26 225.18 172.26 224.64C172.26 224.1 172.26 224.1 172.26 224.1C171.72 224.1 171.18 223.56 170.64 223.02C170.1 222.48 170.1 222.48 170.1 222.48C169.56 222.48 169.56 222.48 169.56 222.48L169.02 221.94C167.4 222.48 166.86 221.94 166.86 220.86C166.32 220.32 166.32 220.32 166.32 220.32C166.32 220.86 166.32 220.86 165.78 220.86V220.32C165.78 219.78 165.78 219.24 165.78 219.24C165.24 219.24 165.24 219.24 165.24 218.7C164.7 219.24 164.16 219.78 164.7 219.78C164.16 219.78 164.16 219.78 164.16 219.24C164.16 219.24 164.16 219.24 163.62 219.24C163.62 218.7 163.08 218.16 162.54 218.16C162 218.16 161.46 218.16 161.46 217.62C160.92 217.08 160.38 217.08 159.84 216.54C159.84 216 159.84 216 159.3 216C158.76 216 158.22 215.46 157.68 214.92C157.14 214.92 157.68 214.38 158.22 213.84C158.22 213.84 157.68 213.84 157.14 213.84C156.6 214.38 155.52 214.38 154.98 213.3C154.98 212.76 154.98 212.76 154.98 212.76C154.44 212.76 154.44 212.76 154.44 212.22H153.9C152.82 212.22 152.28 211.68 152.28 211.14C152.28 210.6 152.82 210.6 153.9 210.6C153.36 210.06 152.82 210.06 152.28 210.6C151.74 210.06 151.74 210.06 151.2 210.06C150.12 210.06 149.58 210.06 149.58 209.52C149.04 208.98 147.96 208.44 147.42 208.44C146.88 208.44 146.34 207.9 146.34 206.28C146.88 205.74 146.88 205.2 145.8 205.2C144.18 205.2 143.64 204.66 143.1 204.12C142.56 203.58 142.56 204.12 142.02 204.66C142.02 204.66 141.48 204.12 139.86 203.58C139.32 203.58 139.32 203.58 139.32 203.58C138.78 201.96 138.24 201.42 136.62 201.42C136.08 201.42 136.08 201.42 135.54 200.88C135 199.26 133.38 198.72 131.76 200.34C131.76 200.88 131.76 200.88 132.3 200.88C132.3 200.88 132.3 200.88 132.3 201.42H131.22C130.68 201.96 130.14 202.5 130.68 203.04C130.68 203.58 130.68 203.58 130.68 203.58C130.14 204.12 129.6 204.66 129.6 204.66C129.6 205.2 129.06 206.28 128.52 206.82L127.98 207.36C128.52 207.9 128.52 208.44 127.44 208.44C127.98 208.98 127.98 209.52 127.44 209.52C126.9 209.52 126.36 209.52 125.82 210.06C125.82 210.6 125.82 211.14 125.82 211.14C125.82 211.68 125.82 211.68 125.28 212.22C125.28 212.76 125.28 212.76 125.28 212.76C124.74 212.76 124.74 213.3 124.74 213.84V214.38C123.66 214.92 123.12 216 123.12 216.54V217.08C122.58 217.62 122.04 218.16 122.04 218.7C121.5 219.24 121.5 219.24 121.5 219.24C120.96 219.78 120.42 220.32 120.96 220.32L121.5 220.86L120.96 221.4C120.42 221.4 119.88 221.4 119.88 221.94C120.42 222.48 119.88 223.56 119.34 224.1C118.8 224.1 118.8 224.1 118.8 224.64C118.8 226.26 117.18 226.8 117.18 226.8C117.18 227.88 116.64 228.42 115.56 228.96V229.5C116.1 230.58 115.56 231.66 113.94 232.2V232.74C114.48 233.28 113.94 233.82 113.4 234.36C112.86 234.9 112.86 234.9 112.86 234.9C112.86 235.44 112.86 235.98 112.32 235.98C111.78 236.52 111.78 237.06 111.78 237.6C111.24 237.6 111.24 237.6 111.24 237.6C111.24 238.14 111.24 238.68 110.7 238.68C110.16 239.22 110.16 239.22 110.16 239.76C110.16 240.3 110.16 240.3 109.62 240.84C109.08 241.38 108.54 241.92 108.54 242.46C108 243 108 244.08 107.46 244.62V245.7L106.92 246.24C105.3 246.24 105.3 247.32 105.84 248.94C105.84 249.48 105.84 249.48 105.3 250.02C105.84 251.64 105.84 251.64 104.22 251.1C104.76 251.64 104.76 252.18 104.22 252.72C103.68 252.72 103.68 253.26 103.68 253.8C103.68 254.34 103.68 254.34 103.14 253.8C102.6 253.8 102.06 254.34 102.06 254.88C102.6 255.96 102.6 257.04 100.98 257.58C101.52 257.58 102.06 257.58 102.06 257.58C101.52 258.12 100.98 258.66 100.44 258.66C99.9 259.2 99.9 259.2 99.9 259.2C100.44 259.74 100.44 259.74 100.44 259.74C99.9 260.28 99.36 260.28 99.36 260.82C99.36 261.36 99.36 261.36 98.82 261.9C98.82 262.44 98.28 263.52 97.74 264.06C97.74 264.6 97.2 265.14 96.66 266.76C96.66 267.3 96.66 267.3 96.12 267.3C95.04 267.84 95.04 268.38 95.58 268.92V269.46C95.04 270 94.5 270 95.04 270.54C95.04 271.08 94.5 271.62 93.96 272.16C93.42 272.7 93.42 272.7 93.42 273.24C93.42 273.78 92.34 274.86 91.8 274.32C91.8 275.4 91.8 275.94 91.8 275.94C91.26 275.94 91.26 276.48 91.26 277.56C91.26 278.1 90.18 279.18 89.64 279.18C89.1 279.72 89.64 279.72 90.18 280.26C90.72 280.8 90.72 281.34 89.64 281.34C89.1 281.34 88.56 281.88 88.56 282.42H89.64C89.64 282.96 89.1 282.96 88.56 282.96C88.56 283.5 88.56 284.04 88.02 284.04C87.48 284.04 87.48 284.58 87.48 285.12C87.48 285.12 86.94 285.66 86.4 286.2C86.94 286.74 86.94 287.28 86.4 287.28C85.86 287.82 85.86 287.82 85.86 288.36C85.86 288.9 85.32 289.44 84.78 289.98V291.6C84.78 292.14 84.78 292.14 84.78 292.14C84.24 292.14 84.24 292.14 84.24 292.68V293.22H83.7C83.16 293.22 82.62 293.76 83.16 294.3C82.62 294.3 82.62 294.3 82.62 294.84L82.08 295.38C82.62 295.92 82.62 296.46 82.08 296.46C81.54 297 81.54 297.54 81.54 298.08C81.54 298.62 81 298.62 80.46 298.62V299.16C81 299.16 81.54 299.16 81.54 299.7C81.54 299.7 81 300.24 80.46 300.78C78.84 301.32 78.84 302.4 79.38 302.94C79.38 303.48 79.38 303.48 78.84 304.02C78.84 304.56 78.84 304.56 79.38 305.1C79.92 305.1 79.38 306.18 79.38 306.18C78.84 306.18 78.84 306.18 78.3 305.64C78.3 306.18 78.3 306.72 78.3 306.72H78.84C78.84 307.26 78.84 307.26 78.3 307.26C77.76 307.26 77.76 307.26 77.76 307.8C77.76 308.34 77.22 308.88 76.68 308.88C76.68 309.96 76.14 311.04 75.06 312.12C75.6 312.12 76.14 312.12 76.14 312.12C76.68 311.58 76.68 311.58 76.68 311.58C76.68 312.12 76.68 312.66 76.68 312.66H75.6C75.6 313.2 75.6 313.2 76.14 312.66C76.14 312.66 76.14 312.66 76.14 313.2V313.74C75.6 313.74 75.06 313.74 75.06 313.74C75.6 314.28 76.14 314.82 76.14 315.36C75.6 315.9 75.6 316.44 75.6 316.98V317.52L75.06 318.06H73.44C73.98 318.6 73.98 318.6 74.52 318.6C74.52 319.14 74.52 319.14 74.52 319.14C73.98 319.68 73.44 319.68 72.9 319.68C72.36 319.68 71.82 320.22 72.36 320.76L72.9 320.22H73.98C73.98 320.76 73.98 320.76 73.44 320.76C72.9 321.3 72.9 321.3 73.44 321.84C72.9 321.84 72.36 322.38 72.36 322.92H72.9C73.44 323.46 73.44 323.46 72.9 323.46C72.36 324 71.82 325.08 71.28 325.62C71.28 326.16 70.74 326.16 70.2 326.16C70.74 326.7 70.74 326.7 71.28 326.16C71.82 326.16 71.82 326.7 71.82 327.24C71.28 327.78 70.74 327.78 70.2 327.78C71.82 330.48 69.66 331.02 68.04 331.02C67.5 331.56 67.5 331.56 68.04 332.1V332.64C67.5 333.18 66.96 333.72 66.96 335.34C66.96 335.88 66.96 336.42 66.96 336.42C66.42 336.96 66.42 336.96 66.42 337.5C66.42 338.04 66.42 338.04 64.8 339.66C64.26 340.2 63.18 340.2 62.64 339.66C62.1 339.66 61.56 339.66 61.56 339.66C61.56 340.2 59.94 339.66 59.94 339.66C60.48 339.12 59.94 338.58 59.4 338.04C58.86 337.5 58.32 337.5 58.32 336.96C57.24 338.04 56.16 338.04 55.08 337.5C54.54 337.5 54.54 337.5 54.54 338.04C54 338.04 53.46 338.04 53.46 337.5C53.46 336.96 53.46 336.96 53.46 336.42C52.92 336.42 53.46 334.8 53.46 334.8L54 334.26C53.46 333.72 53.46 333.72 53.46 333.72C52.92 333.72 52.38 333.18 52.38 332.1C52.92 331.56 52.92 331.56 52.38 331.56C51.84 331.02 52.38 330.48 52.92 330.48C52.38 329.94 52.38 329.94 52.38 329.94C52.38 330.48 51.3 329.4 51.3 329.4C51.3 328.86 51.3 328.32 51.3 328.32C51.3 327.78 51.3 327.24 51.3 327.24C51.84 327.24 51.84 326.7 51.3 326.16C49.68 326.16 49.68 325.62 50.76 324.54C50.76 324 50.76 324 50.22 324C48.6 323.46 46.98 323.46 45.36 325.08C44.82 325.62 44.82 325.62 44.82 326.16V326.7H44.28C42.66 326.7 42.66 327.78 43.2 328.32C43.74 328.86 43.74 328.86 44.28 328.86C44.28 328.32 44.28 328.32 44.82 328.32H45.36C45.36 328.86 45.36 329.4 45.36 329.4H44.28C43.74 328.86 43.74 328.86 43.74 329.4C42.12 331.02 40.5 332.1 39.96 329.94C39.42 329.4 39.42 329.4 39.42 329.4C38.88 329.94 38.88 329.94 38.34 329.4C38.88 329.4 38.88 328.86 38.34 328.32C37.8 328.32 37.8 328.32 37.8 327.78C37.8 327.24 37.26 327.24 36.72 327.24C37.26 326.7 37.26 326.16 36.72 325.62C36.18 325.62 36.18 325.62 36.18 325.08C36.18 325.08 36.18 324.54 36.18 324C35.1 324 34.56 324 34.56 324.54C34.56 324.54 34.56 325.08 34.56 325.62C34.56 326.16 34.56 326.16 35.1 325.62C35.1 325.08 35.1 325.08 35.64 325.62C35.1 326.16 35.1 326.16 35.1 326.16C33.48 327.78 33.48 326.7 33.48 325.08C34.02 324 33.48 323.46 32.94 323.46C32.4 322.92 32.4 322.92 32.4 322.38C32.94 320.76 32.4 319.68 30.24 319.68H29.16C29.16 319.68 28.08 320.76 26.46 319.14C25.92 319.14 25.92 319.14 25.92 318.6C25.92 318.6 25.92 318.6 25.38 318.6C24.84 318.06 24.84 318.06 25.38 317.52C25.38 316.98 25.38 316.98 25.38 316.98C24.84 317.52 24.84 317.52 24.84 316.98C25.38 316.44 25.92 315.9 25.92 314.28C25.92 313.74 25.92 313.74 26.46 313.74V313.2C25.92 312.66 25.92 312.66 26.46 312.12C27 312.12 27 312.12 27 311.58C27 311.04 27 311.04 27.54 310.5C28.08 309.96 28.08 309.42 27.54 309.42C27 308.88 27 308.34 27.54 308.34C28.62 307.8 28.62 306.72 28.08 306.18V305.64L29.7 304.02C29.16 303.48 29.16 302.94 29.7 302.4C30.24 302.4 30.24 301.86 30.78 301.32C31.32 300.78 31.32 300.78 30.78 300.78C30.24 301.32 30.24 301.32 30.24 300.78C30.78 300.78 31.32 300.24 31.32 299.7C31.32 299.16 31.32 299.16 31.86 298.62C31.32 298.08 31.32 297.54 32.4 297.54C32.4 296.46 32.94 295.92 33.48 295.92V295.38C33.48 294.84 34.02 294.3 34.56 294.3C35.1 293.76 35.1 293.22 34.56 292.68V291.06C34.56 290.52 34.56 289.98 35.1 289.44C35.64 288.9 35.64 288.36 35.64 287.82C35.64 287.28 35.64 287.28 36.18 286.74C36.18 286.74 36.18 286.74 36.18 286.2C36.18 286.2 36.72 285.66 37.26 285.12C37.8 284.58 37.8 284.58 37.8 284.58C38.34 284.58 38.34 284.58 37.8 284.04C37.8 283.5 38.34 281.34 38.88 281.34C39.42 280.8 39.42 280.8 39.96 281.34C40.5 281.34 40.5 281.34 40.5 281.34C40.5 280.8 40.5 280.8 40.5 280.8C39.96 280.26 39.96 279.72 39.96 279.18C40.5 278.64 41.04 277.56 41.04 277.02C41.04 275.94 41.04 275.4 42.66 273.78V273.24C42.66 272.7 42.66 272.16 43.2 272.16C43.74 272.16 44.28 271.62 44.28 271.08C44.28 270.54 44.28 270 44.28 270C44.82 268.38 45.36 267.84 45.36 267.3C45.36 266.76 45.9 266.22 46.44 265.68C46.98 265.14 46.98 264.06 46.98 263.52C46.98 262.98 47.52 262.44 48.06 261.9C48.6 261.9 48.6 261.9 48.6 261.36C48.06 260.82 48.6 259.74 49.14 259.74C49.68 259.74 50.22 259.2 49.68 258.66H50.22C50.76 258.12 51.3 257.58 51.3 256.5V255.42C51.84 255.42 51.84 254.88 51.3 254.34C51.84 253.8 51.84 253.8 51.84 253.26C51.84 252.72 51.84 252.72 52.38 252.18C52.92 251.64 52.92 251.1 52.92 250.56C52.92 250.02 53.46 250.02 54 249.48C54.54 249.48 54.54 249.48 54.54 248.94C54.54 248.4 55.08 247.86 56.7 247.32C57.24 246.78 57.24 246.78 56.7 246.24C55.08 245.7 57.78 242.46 57.78 242.46C57.78 241.92 57.78 241.38 58.32 241.92H58.86V241.38C58.32 240.3 58.86 239.76 59.94 239.22V238.68C59.4 238.14 59.94 237.06 61.02 236.52C61.02 235.98 61.02 235.98 61.56 235.44C61.56 235.44 61.56 235.44 61.56 234.9C62.1 234.36 62.1 233.82 62.1 233.28C62.1 232.74 62.1 232.74 62.64 232.2C63.18 232.2 63.72 231.66 63.72 231.12C63.72 229.5 64.8 228.42 65.34 226.8V226.26C65.34 225.18 65.88 224.64 66.96 225.18C67.5 224.64 67.5 224.64 67.5 224.64V223.56C68.04 223.02 68.58 222.48 69.12 221.94V221.4C69.12 219.78 69.66 219.78 70.74 220.86C69.66 220.32 69.66 219.24 70.74 218.16C70.74 217.62 70.74 217.62 71.28 217.62C71.28 218.16 71.28 218.16 71.28 217.62C71.28 216 72.36 214.92 72.9 216.54C72.36 216 72.36 215.46 72.36 215.46C71.82 214.92 71.82 214.92 72.36 214.38C72.9 212.76 73.98 211.68 74.52 211.14C75.06 211.14 75.6 210.6 75.06 209.52C75.6 208.98 76.14 208.98 75.6 208.44C75.06 207.9 75.06 207.9 75.6 207.36C76.14 206.82 76.68 206.28 76.68 205.74C76.68 205.2 77.76 204.12 77.76 204.12C78.3 204.12 78.3 204.12 78.3 203.58V203.04C77.76 202.5 77.76 202.5 77.76 202.5C78.3 200.88 78.84 199.8 79.38 199.8V199.26H78.84C78.3 199.8 78.3 199.8 78.3 199.26L77.76 198.72C77.22 199.26 77.22 199.8 76.68 199.26C76.14 198.72 75.6 198.72 75.06 199.26C74.52 199.8 73.44 200.34 72.36 199.8C71.28 199.8 70.2 199.8 69.66 199.8C68.04 199.26 66.96 199.26 65.88 199.8C64.26 200.34 63.18 200.34 61.56 200.88H55.62C54.54 200.88 53.46 200.88 52.92 201.42C52.38 201.96 51.84 201.42 51.84 200.34V199.8C51.3 200.88 50.76 201.42 49.14 201.42C49.14 201.96 49.14 201.96 48.6 201.96C48.06 201.96 48.06 201.96 48.6 201.42V200.88H48.06C47.52 201.42 47.52 201.42 46.98 200.88C46.98 200.34 46.44 200.34 45.9 200.88C45.36 201.42 44.28 201.42 42.66 201.42C42.12 201.42 41.58 201.42 41.58 201.42H38.88C37.8 201.42 36.72 201.42 35.64 200.88C34.56 200.88 33.48 200.88 32.4 200.88C31.86 200.88 31.32 200.88 30.78 200.34C29.7 199.8 29.16 199.8 28.62 200.34H28.08C27.54 199.8 27.54 199.8 27 200.34C26.46 200.88 25.92 200.88 25.38 200.34C24.84 199.8 23.76 199.26 23.22 199.8C22.68 200.34 21.6 200.88 21.06 200.34C20.52 199.8 19.44 199.8 18.9 199.8C17.82 199.8 16.74 199.8 16.2 199.26C15.12 198.72 14.04 198.72 12.96 198.18C11.34 198.18 10.26 198.18 9.18 197.64C9.18 198.18 9.72 198.18 10.26 198.18C9.72 198.72 9.18 198.72 9.18 198.72H8.1C7.02 197.64 6.48 197.1 7.02 196.56C7.56 196.02 5.94 194.94 5.4 195.48C4.86 196.02 4.32 195.48 4.32 194.4L3.24 193.32C2.7 193.32 2.7 192.78 2.7 192.24C2.7 191.16 2.16 190.62 0.54 190.62L0 190.08C0.54 189.54 1.08 189 0.54 188.46C0 188.46 0 187.92 0.54 187.38L0 186.84C0.54 186.3 1.08 185.22 1.08 184.68C1.08 184.14 1.08 183.06 1.08 182.52C1.08 181.98 1.08 181.98 1.62 181.44C2.16 181.44 2.16 181.44 2.16 180.9C1.62 180.36 2.16 179.82 2.7 179.28C3.24 178.74 3.24 178.74 3.24 178.74C3.78 179.28 4.32 179.28 4.32 178.2C3.78 178.2 3.78 178.2 4.32 177.66C4.32 177.66 4.32 177.66 4.86 177.66C5.4 177.66 5.4 177.12 4.86 176.58C4.32 174.96 4.86 173.88 5.94 173.34V172.8H5.4L5.94 172.26C5.94 172.26 5.94 171.72 5.4 171.18H5.94C4.32 170.64 4.86 167.94 6.48 167.94C5.94 167.4 5.4 166.86 5.94 166.86C6.48 166.86 6.48 166.86 7.02 166.32C7.02 165.78 7.02 165.78 7.02 165.78C6.48 166.32 6.48 166.32 6.48 165.78C6.48 165.24 6.48 165.24 7.02 165.24C7.56 164.7 7.56 164.7 7.02 164.7C6.48 164.7 6.48 164.16 6.48 163.62C7.02 163.08 7.02 162.54 6.48 162.54C5.94 162 5.94 162 6.48 161.46C7.02 161.46 7.56 160.92 8.1 159.3V158.76C8.64 158.22 9.72 157.14 10.8 157.14C11.34 157.14 11.88 157.14 12.42 156.6C12.42 156.06 11.88 154.98 11.88 155.52C11.34 155.52 11.88 153.9 12.42 154.44H14.04C14.58 154.44 14.58 154.44 14.58 154.98C14.04 155.52 14.58 156.06 15.12 156.06V155.52C15.12 154.98 15.66 154.44 16.2 154.44C17.28 154.44 18.36 154.44 19.44 154.98C19.98 155.52 21.06 156.06 22.14 156.06C22.68 156.6 22.68 156.6 23.22 156.6C23.76 156.6 23.76 157.14 23.76 157.68C23.76 158.22 24.3 158.22 24.84 157.68C25.38 158.22 25.38 158.22 25.38 158.76C25.92 158.22 26.46 158.22 26.46 158.22C25.92 157.68 26.46 156.6 27 154.98L27.54 154.44C28.08 154.44 28.08 154.98 28.08 155.52C27.54 156.06 28.08 156.06 28.62 156.06C29.7 156.06 30.78 156.06 31.86 156.06C32.94 156.6 34.02 156.6 34.56 156.06C35.64 155.52 36.18 156.06 36.18 157.14C36.18 157.68 37.26 158.22 37.8 157.68C38.34 157.68 38.88 157.68 39.42 158.22C39.96 158.22 39.96 158.22 39.96 158.22C40.5 157.68 40.5 157.68 41.04 158.22C41.04 157.68 41.04 157.14 41.58 157.68H43.2C43.74 157.68 43.74 157.68 43.74 157.68L44.28 158.22C44.28 157.68 44.28 157.14 44.82 157.68C44.82 158.22 44.82 158.22 45.36 158.22C45.9 158.76 46.44 158.76 47.52 157.68C48.06 157.14 51.3 155.52 51.3 157.68C50.76 157.68 50.76 157.68 50.76 157.68C50.76 158.22 50.76 158.22 51.3 158.22C51.84 158.22 51.84 158.22 51.84 157.68H52.38C54 157.68 55.08 157.14 55.62 156.6C56.16 156.06 57.24 156.06 57.78 157.68C57.78 156.06 59.4 156.06 59.4 156.6C60.48 157.14 61.56 157.14 62.1 156.6C62.64 156.6 62.64 156.6 63.18 157.14C63.72 157.68 64.26 157.68 65.34 157.68C65.88 157.68 66.42 157.68 66.42 157.68L66.96 158.22C66.96 157.68 66.96 157.68 66.96 157.68C66.96 157.14 68.58 156.6 69.66 156.6C70.2 156.6 70.2 156.06 70.2 155.52L70.74 154.98C71.28 155.52 71.82 155.52 71.82 154.98C71.82 154.44 71.82 154.44 72.36 154.44C71.82 153.9 71.28 153.36 71.28 151.74V151.2C70.74 152.82 69.66 152.82 69.12 151.2C68.58 150.66 68.04 150.12 67.5 150.12C66.96 150.12 66.96 150.12 66.96 149.58C66.96 149.58 66.96 149.58 66.96 149.04H65.88V147.96C66.42 147.96 66.42 147.96 66.42 147.42H65.34C63.72 147.96 63.18 147.42 63.72 145.8C63.72 145.26 62.64 144.72 62.1 144.72C61.56 145.26 61.56 144.72 61.56 144.18C60.48 144.18 60.48 143.64 61.02 143.1V142.56C61.02 142.02 61.02 141.48 61.02 141.48C60.48 141.48 60.48 142.02 60.48 142.56C60.48 143.1 60.48 143.1 59.94 143.1C59.94 142.56 59.94 142.02 59.4 142.02C58.86 142.56 58.32 142.02 57.78 141.48V140.94C57.78 140.4 57.78 140.4 58.32 140.4H58.86C58.32 139.86 57.24 139.32 56.7 138.78C56.16 138.24 55.08 138.24 54.54 137.7H52.92C52.38 137.7 52.38 137.7 52.38 137.16C52.38 137.16 52.38 137.16 52.92 137.16C52.92 136.62 52.92 136.08 52.38 136.08C51.84 136.08 51.84 136.08 51.84 136.08C51.84 136.62 51.84 136.62 51.3 136.62V135.54L51.84 135V133.92C51.3 133.38 51.3 133.38 51.3 133.38H49.68C49.68 133.92 49.68 133.92 50.22 133.92C50.76 133.92 50.22 133.92 49.68 134.46C49.14 133.92 49.14 133.92 48.6 133.92V133.38C48.06 133.92 48.06 133.38 48.06 132.84C48.06 132.3 48.06 132.3 48.06 132.3C48.6 132.3 48.6 132.3 49.14 131.76C48.6 131.76 48.06 131.76 47.52 131.22C46.98 130.68 46.44 130.68 45.9 130.14C45.36 130.14 45.36 130.14 45.36 129.6C45.36 129.06 44.82 128.52 44.28 128.52C43.74 128.52 43.74 128.52 43.74 127.98C43.2 127.44 43.2 127.44 42.66 126.9C42.12 126.9 42.12 126.9 41.58 126.36C41.04 125.82 39.96 125.28 39.42 125.28C38.88 124.74 38.88 124.74 38.88 124.74L39.42 124.2C38.88 124.2 38.34 123.66 37.8 123.12H37.26C36.72 123.12 36.18 123.12 36.18 122.58C36.18 122.04 35.64 121.5 35.1 120.96C34.56 120.96 34.56 120.96 35.1 120.42C35.64 119.88 35.64 119.88 35.1 119.34V118.8H34.02C34.02 118.8 33.48 118.8 32.94 118.8C32.94 118.26 32.94 118.26 33.48 118.26C33.48 118.26 33.48 118.26 33.48 117.72C32.94 118.26 32.4 118.26 32.4 117.72C32.4 117.72 31.86 117.72 31.32 117.72C31.32 116.64 30.78 116.1 30.24 115.56C29.7 115.02 29.16 114.48 28.62 113.94C28.62 113.4 28.62 112.86 28.62 112.86C29.16 112.32 29.16 112.32 28.62 111.78C28.08 111.24 28.08 110.16 28.08 108.54C28.62 108.54 28.62 108.54 28.62 108C28.62 108 28.62 108 28.08 108C27 106.92 27.54 106.38 29.16 106.38C29.7 106.38 29.7 106.38 30.24 105.84H28.62C28.08 105.84 28.62 105.3 28.62 105.3C29.16 104.76 29.7 104.22 29.7 104.22C29.16 103.14 29.16 102.6 30.24 102.6C30.78 102.06 31.32 101.52 31.32 100.98V100.44C31.32 99.9 31.32 99.36 31.86 99.36L32.4 99.9V100.44C32.4 100.44 32.4 100.98 32.4 101.52C32.4 100.98 32.94 100.98 33.48 100.98C33.48 100.98 33.48 100.44 33.48 99.9C33.48 99.36 33.48 98.82 32.94 98.82C33.48 98.28 33.48 98.28 34.02 98.28C34.56 98.28 34.56 98.28 34.56 97.74H34.02C34.02 97.2 34.02 97.2 33.48 97.2C34.02 97.2 34.56 97.2 35.1 96.66C35.1 96.66 35.64 96.66 36.18 97.2C36.72 97.2 37.26 96.66 36.72 96.12C36.72 95.58 36.72 95.58 37.26 95.58C37.8 95.58 37.8 95.58 37.8 95.04V94.5C38.34 93.96 38.88 93.42 39.42 92.88C39.42 92.34 39.96 92.34 40.5 92.34C41.58 91.8 41.58 91.26 41.04 90.72C40.5 90.18 40.5 89.64 41.04 89.1V87.48C41.04 86.94 42.12 87.48 42.12 87.48C42.12 88.02 42.66 88.02 43.74 88.02C44.28 87.48 44.28 87.48 44.28 87.48V84.78C44.28 83.7 44.28 83.16 44.28 83.16C43.74 82.62 43.2 82.08 43.74 82.08C44.28 82.08 44.28 82.08 44.82 81.54C44.28 81 44.82 80.46 45.36 80.46L46.44 79.38C46.98 78.84 47.52 78.84 48.06 79.38L48.6 78.84C49.14 78.3 49.14 78.3 49.68 78.3C50.22 78.3 50.22 77.76 50.76 77.22C51.3 77.76 51.84 77.22 52.38 76.68C52.92 76.14 53.46 76.68 52.92 77.22C52.92 77.76 53.46 78.3 54.54 78.3C55.08 78.3 55.62 78.84 55.62 79.92C55.62 80.46 55.62 80.46 56.16 81C56.7 80.46 56.7 80.46 56.16 79.92C55.62 79.92 56.7 79.38 56.7 79.92C56.7 80.46 56.7 80.46 57.24 80.46C57.78 81 57.78 81 57.78 81.54C57.78 82.08 57.78 82.08 58.32 82.62C58.86 83.16 58.86 83.16 58.86 83.7C58.86 84.24 58.86 84.24 58.32 84.24C57.78 84.24 57.24 83.16 57.24 82.62C56.7 82.08 56.7 82.08 56.7 82.62C56.7 83.16 56.7 83.16 56.7 83.16C58.32 84.78 58.86 85.32 60.48 86.94C60.48 87.48 61.02 87.48 61.56 86.94C59.94 86.94 61.02 85.86 61.02 85.86C61.56 85.86 62.1 86.4 62.1 86.94L63.18 85.86C63.72 86.4 63.72 86.4 63.18 86.94V87.48C64.8 87.48 64.8 88.56 64.8 89.64C64.8 90.18 65.34 90.72 65.88 90.72C66.42 90.72 66.96 91.26 66.96 91.8C66.42 91.8 66.42 91.8 66.42 91.26C65.88 91.26 65.34 91.26 64.8 91.8C65.34 91.8 65.88 91.8 65.88 92.34C65.34 92.88 65.34 92.88 65.88 92.88C67.5 93.42 68.04 93.96 68.04 93.96H66.96C68.04 94.5 68.58 95.04 68.58 94.5C69.12 95.04 69.12 95.58 69.66 95.58C69.66 95.58 69.66 95.58 70.2 96.12C70.74 95.58 70.74 95.58 70.2 95.58C69.66 95.58 69.66 95.58 70.2 95.04C70.74 95.58 71.28 96.12 70.74 96.66V97.2H71.28C71.82 96.66 72.9 96.12 73.44 96.66C72.9 96.66 72.36 97.2 72.36 97.2C72.36 97.74 72.36 97.74 71.82 97.74V98.28C72.36 98.28 72.9 98.82 72.9 99.9H73.44C73.98 99.36 74.52 98.82 75.6 98.82C76.14 98.82 76.14 99.36 76.68 99.9V101.52C76.68 102.06 76.68 102.06 77.22 102.06H77.76C77.76 102.6 77.76 102.6 77.22 102.6L77.76 103.14C78.3 103.14 78.84 103.68 78.84 104.22C79.38 104.76 79.38 105.3 79.92 104.76C79.92 104.76 82.08 105.3 80.46 105.84C80.46 106.38 81 106.92 81.54 106.92C81.54 106.92 81.54 106.92 81.54 106.38C81.54 105.84 81.54 105.84 82.08 105.84C82.08 106.92 82.62 107.46 83.16 106.92C84.24 106.92 84.78 106.92 84.78 107.46V108C84.78 108 84.24 108 83.16 108H82.62C83.16 108.54 83.16 108.54 83.7 108.54C84.24 108.54 84.24 109.08 84.78 109.62V109.08C84.78 108.54 84.78 108.54 85.32 108.54C85.32 108.54 85.32 109.08 85.32 109.62H85.86C86.4 109.62 86.4 109.62 86.4 110.16C86.94 110.16 86.94 110.16 86.94 109.62C86.94 109.08 86.94 109.08 87.48 109.08C88.02 109.08 88.02 109.08 88.02 109.08C88.02 109.62 88.02 109.62 87.48 109.62C88.02 110.16 88.02 110.16 88.02 110.16C88.02 110.16 88.56 110.7 89.1 112.32V112.86C89.1 113.4 88.56 112.86 89.1 112.86C89.64 113.4 89.64 113.4 90.18 113.4L90.72 113.94C91.8 115.02 92.34 115.56 91.8 115.56C92.34 115.56 92.88 115.56 92.88 115.56C92.88 116.1 94.5 116.64 95.04 116.1C95.04 115.56 95.04 115.02 95.58 115.02C96.12 115.02 96.12 115.56 96.66 116.1C96.66 116.64 96.66 116.64 97.2 116.64C97.2 116.64 97.2 116.64 97.2 117.18C98.28 118.26 98.82 118.8 98.28 118.8C99.36 118.8 99.36 119.34 98.82 119.88C98.82 120.42 98.82 120.42 99.36 120.42C99.9 120.42 100.44 120.96 100.44 121.5C100.98 122.04 100.98 122.58 101.52 122.04C102.06 121.5 102.06 120.96 102.06 121.5C102.06 122.04 102.06 122.58 102.6 122.58C102.6 122.58 103.14 123.12 103.68 123.66V124.74C104.22 124.74 104.22 124.74 104.22 124.2L105.3 124.74C105.84 125.28 105.84 125.82 104.76 125.82C105.3 125.82 105.3 125.82 105.84 125.82C105.84 126.36 105.84 126.36 106.38 126.36C106.92 126.9 106.38 126.9 105.84 127.44C106.38 127.98 106.38 127.98 106.38 127.44H107.46C109.08 127.44 108 128.52 108 128.52C108.54 129.06 109.62 129.06 110.16 127.98C109.62 128.52 110.16 129.06 110.7 129.06C111.24 129.6 111.78 130.14 111.78 130.68C111.78 131.22 112.32 131.22 112.86 131.22C113.94 131.22 114.48 131.22 112.86 132.84C112.86 133.38 113.4 133.38 113.94 133.38H114.48C114.48 133.38 115.02 133.38 115.56 133.92C116.1 133.92 116.1 133.92 116.1 133.92C116.64 133.38 117.72 132.3 118.26 131.76C118.8 131.22 118.8 130.68 118.8 129.6C118.8 128.52 119.34 127.98 120.42 128.52V127.98C120.42 127.44 120.42 127.44 120.96 126.9C121.5 126.9 121.5 126.36 121.5 125.82C121.5 125.28 121.5 124.74 122.04 124.74C122.58 124.2 123.12 124.2 123.66 123.66C123.66 123.12 124.2 123.12 124.74 122.58V122.04H124.2C123.66 122.04 123.66 122.04 124.2 121.5H125.28C125.82 120.96 125.82 120.96 125.28 120.96C124.74 119.88 125.28 118.8 125.82 117.18C126.36 116.64 126.36 115.56 126.9 115.02C126.9 113.94 128.52 112.86 129.06 112.86C129.06 113.4 130.14 112.86 129.6 112.86C129.06 112.86 129.06 112.86 129.06 112.32C131.22 111.78 131.22 110.7 129.06 109.62C129.6 109.62 130.14 109.08 130.68 108.54C130.68 108 131.22 108 131.76 108C131.76 107.46 131.76 107.46 131.76 107.46C131.76 105.3 132.3 104.76 133.92 105.3C133.92 105.84 133.92 105.84 134.46 105.84C134.46 105.84 135 105.3 135 104.76H133.92C133.38 104.76 133.38 104.22 133.38 103.68C133.38 103.14 133.92 103.14 134.46 103.14H135.54C135 102.6 135 102.6 135 102.6C134.46 102.6 134.46 102.6 134.46 102.06C135 101.52 135 100.44 135.54 99.9C135.54 98.82 135.54 98.82 137.16 97.2C137.7 97.2 137.7 96.66 137.7 96.12C137.7 94.5 138.24 93.96 139.32 93.96C139.86 93.42 139.86 92.88 139.86 92.88C139.86 91.8 140.4 91.26 141.48 91.26C140.4 90.72 140.4 90.18 141.48 89.1C142.02 88.56 142.56 88.02 142.56 87.48C142.56 86.94 143.1 86.4 143.64 86.4V85.86C143.1 84.78 143.1 84.24 144.72 84.24C145.26 83.7 145.8 83.16 145.26 82.62V82.08C144.72 81.54 144.72 81.54 145.26 81.54C145.8 81.54 146.34 81 146.34 80.46V79.38C146.34 78.84 146.34 78.84 146.88 78.3C146.88 78.3 146.88 78.3 146.88 77.76H147.96C147.96 78.84 148.5 78.84 149.04 78.3C149.04 77.76 149.04 77.76 149.04 77.76C148.5 77.76 148.5 77.76 148.5 77.22V76.68C148.5 76.14 148.5 76.14 149.04 76.14H149.58C149.04 75.6 149.04 75.6 148.5 75.6C149.58 74.52 150.12 73.98 150.66 73.98C150.12 73.98 149.58 73.44 149.58 72.9V72.36L150.12 72.9C150.66 72.36 151.2 71.28 151.2 70.74C150.66 70.2 151.2 70.2 151.74 70.2H152.28C152.28 68.04 152.28 65.88 154.98 66.42C154.44 65.88 153.36 65.34 152.82 65.34C153.36 64.8 153.36 64.8 153.36 64.8C153.9 64.8 154.44 64.8 154.44 64.26C154.44 63.72 154.98 63.18 155.52 63.18V62.1C156.06 62.1 156.06 61.56 156.06 60.48C156.6 59.94 156.6 59.94 156.6 59.4C156.6 59.4 157.14 58.32 157.68 58.32C158.22 57.78 158.22 57.78 158.22 57.24C158.22 56.7 158.22 56.7 158.22 56.7L158.76 56.16C159.3 55.62 159.3 55.08 159.3 54C159.3 53.46 159.84 52.38 160.38 51.84C161.46 51.84 162 51.3 162.54 50.76C162 50.76 161.46 50.76 161.46 51.3C161.46 51.84 160.92 51.3 160.38 50.76C160.92 50.22 161.46 50.22 161.46 49.68C161.46 49.14 162 48.6 162.54 48.06H161.46C161.46 47.52 161.46 47.52 162 47.52C162 47.52 162 47.52 162 46.98H162.54C162.54 46.44 163.08 45.9 163.62 45.36C164.16 44.82 164.16 44.28 163.62 43.74C163.08 43.74 163.08 43.74 163.62 43.2C163.62 43.2 163.62 43.2 164.16 43.2C164.7 42.66 165.24 42.66 165.24 42.12C165.24 41.58 165.78 41.58 166.32 41.04V40.5C166.32 38.34 166.32 37.26 167.94 36.72H168.48L167.94 36.18V35.64C168.48 35.1 168.48 34.56 168.48 34.02C168.48 33.48 168.48 33.48 169.02 33.48V32.94C169.02 32.4 169.56 31.32 170.1 30.78C170.1 30.24 170.1 30.24 170.64 29.7C170.64 29.16 170.64 29.16 170.64 28.62C171.18 28.08 171.18 28.08 171.18 27.54C170.64 27 171.18 27 171.72 27C172.8 27 172.8 26.46 171.72 25.38C172.8 25.38 172.8 24.84 172.26 23.22C172.8 23.22 172.8 23.22 172.8 23.22C173.34 22.68 173.34 22.14 173.34 21.6C173.34 21.06 173.88 21.06 174.42 20.52V19.98C174.42 18.9 174.42 18.36 174.96 17.82C175.5 17.28 175.5 17.28 174.96 16.74C175.5 16.2 175.5 15.66 175.5 15.12C175.5 14.04 176.04 13.5 177.66 13.5C178.2 13.5 178.2 13.5 178.2 12.96H177.66C176.58 12.96 176.04 12.42 176.58 11.88L178.2 8.64002C178.2 7.56 178.2 7.02001 178.2 7.02001C178.2 6.48001 178.74 5.93999 179.28 5.39999V3.78002C179.28 3.23999 179.28 2.7 179.82 2.7C180.36 2.7 180.36 2.16 180.9 1.62001C181.44 2.7 181.98 3.23999 183.06 2.7C182.52 2.16 182.52 2.16 183.06 1.62001C183.6 1.62001 184.14 1.62001 184.68 1.07999C184.68 1.07999 185.22 1.07999 185.76 1.07999V1.62001C186.3 2.16 186.3 2.16 186.3 1.62001C186.84 1.07999 186.84 1.07999 187.38 0.539993C187.92 0.539993 187.92 0.539993 188.46 0L189 0.539993L189.54 0C190.08 0.539993 190.62 1.07999 190.08 1.07999C190.62 1.07999 190.62 0.539993 190.62 0C191.16 0.539993 191.7 1.07999 191.7 1.62001C192.78 1.62001 193.32 1.62001 193.32 1.62001L193.86 2.16C193.32 2.7 193.32 3.23999 193.32 3.23999H192.78C192.24 3.23999 192.24 3.23999 192.24 3.23999V2.7C191.7 3.23999 191.7 3.23999 191.7 3.23999C192.24 3.78002 192.24 4.32001 191.7 5.93999C192.24 5.4 192.24 5.39999 192.24 5.39999C192.24 4.32001 192.78 3.78002 193.32 3.78002C193.32 3.23999 193.32 3.23999 193.86 3.23999C193.86 3.23999 193.86 3.23999 193.86 3.78002L194.4 4.32001C194.94 4.32001 195.48 4.32001 195.48 4.86C195.48 5.39999 195.48 5.93999 196.02 6.48001V7.02001C196.02 7.56 196.02 8.09999 196.56 8.64002C196.56 7.56 196.56 7.02001 197.1 7.02001C197.1 7.56 197.1 7.56 197.64 7.56L198.18 8.09999C198.72 8.64002 199.26 9.18001 199.26 9.72H199.8C200.88 10.26 202.5 10.26 204.66 10.26C205.2 9.72 205.74 10.26 206.82 11.34C207.36 11.88 207.36 12.42 206.82 11.88C206.28 11.88 206.28 11.88 206.28 12.42C206.82 12.96 207.36 13.5 207.9 14.04C208.44 14.58 208.98 15.12 209.52 16.2C209.52 14.04 211.14 15.12 211.14 16.74C211.68 16.2 211.68 16.2 211.14 15.66V14.04L212.22 15.12C213.84 16.74 213.84 16.2 213.84 19.98C213.84 20.52 214.38 21.06 214.92 21.06C215.46 21.06 215.46 20.52 215.46 19.98V19.44C216 18.9 216.54 19.98 216.54 19.98C216 21.6 214.92 22.14 214.38 22.14V22.68C214.38 23.22 214.38 23.22 214.92 23.22C214.92 23.22 214.92 23.22 214.92 23.76C214.38 23.22 214.38 23.22 213.84 23.76C213.3 24.3 213.3 24.3 212.76 23.76V24.84C212.22 25.38 212.76 25.92 213.3 26.46C213.84 25.92 214.38 25.38 214.38 25.38C214.38 25.92 214.38 25.92 214.92 26.46C215.46 26.46 216 26.46 216 26.46V25.92C215.46 25.38 215.46 24.84 216 24.3C217.62 23.76 218.7 24.84 218.16 26.46V27C217.08 27.54 217.08 28.08 217.62 28.62C217.62 29.7 217.62 30.24 217.08 30.24C216.54 30.24 216.54 30.24 216.54 30.78C216.54 32.4 216 31.32 216 31.32C216 30.78 216 30.78 215.46 30.78C216 31.32 216 31.86 215.46 32.4C214.92 32.94 214.92 32.94 215.46 32.94C216 32.94 216 32.94 216 33.48C215.46 33.48 214.92 33.48 215.46 33.48C215.46 34.02 214.92 35.64 214.38 35.64C214.38 36.18 214.92 36.18 215.46 36.18V36.72C215.46 37.26 215.46 37.26 214.92 37.26H214.38C214.92 36.72 214.92 36.72 214.92 36.72H213.84C213.84 37.26 213.84 37.26 214.38 37.8C214.92 38.34 214.92 38.88 213.84 39.42H213.3C213.3 39.96 213.3 39.96 213.84 39.96V40.5C213.3 41.04 213.3 42.12 213.84 42.66V43.74C213.3 43.2 212.76 42.66 212.76 42.66V43.2C212.76 43.74 212.76 43.74 212.76 44.28C212.22 44.82 212.22 44.82 212.22 45.36C212.76 45.9 212.76 45.9 212.22 45.9C211.68 45.9 211.14 46.44 211.14 46.98V47.52H212.22C212.22 48.06 211.68 48.06 211.14 48.06C210.6 48.06 210.06 48.6 210.06 49.14C210.06 50.22 210.06 50.76 209.52 51.3V51.84C210.06 52.38 210.06 52.92 210.06 52.92C209.52 52.92 208.98 53.46 208.98 54C209.52 55.62 208.98 56.16 208.98 56.16C208.44 56.7 207.9 57.24 207.9 56.7C207.36 56.7 207.36 56.7 207.36 57.24C207.9 57.24 207.9 57.78 207.9 58.32C207.36 58.32 207.36 58.32 207.36 58.32C206.82 58.32 206.82 58.86 206.82 59.4C206.82 59.4 206.82 59.94 206.82 60.48C206.28 61.02 206.28 61.02 206.28 61.56C206.28 62.1 206.28 62.64 205.74 63.18C205.74 63.72 205.2 64.8 203.58 65.34C204.12 65.88 204.12 65.88 203.58 66.42C203.04 66.96 202.5 67.5 202.5 68.58C203.04 69.12 203.04 69.12 202.5 69.12C201.96 69.12 201.96 69.12 202.5 69.66C203.04 70.2 203.04 70.2 203.04 70.2V70.74C202.5 70.2 201.96 70.2 201.42 71.28V71.82C201.42 72.9 200.88 73.44 199.8 72.9V73.44C200.34 73.44 200.34 73.44 200.88 73.44C200.88 73.98 200.88 73.98 200.34 73.98C199.8 74.52 199.8 74.52 199.8 75.06C199.8 75.6 199.26 76.14 198.72 75.6H198.18C198.18 76.14 198.18 76.14 198.72 76.68C198.72 76.68 198.72 77.22 198.72 77.76C198.18 78.3 198.18 78.3 198.18 78.84C198.18 79.38 197.64 81 197.1 81C197.1 81.54 196.56 82.08 195.48 82.08C194.94 82.08 194.94 82.62 194.94 83.16C195.48 83.7 195.48 83.7 195.48 83.7C194.94 84.24 194.94 84.24 195.48 84.78H194.94C193.32 84.78 193.32 86.94 193.32 89.1C193.32 89.64 193.32 90.18 192.78 90.72C191.7 90.72 191.16 91.26 191.16 91.8C191.16 92.34 190.62 93.42 190.08 93.96H189.54C190.08 95.58 189.54 96.12 187.92 96.12C188.46 96.66 188.46 96.66 188.46 96.66C190.08 98.28 188.46 98.28 188.46 98.28C187.92 97.74 187.92 97.74 188.46 97.2C189 97.2 189 97.2 188.46 97.2C187.92 97.2 187.38 97.74 187.38 98.28C187.38 99.36 186.84 100.44 186.3 100.98C186.3 101.52 186.3 101.52 185.76 102.06C184.68 102.06 184.68 102.6 185.76 103.68C185.76 104.22 185.76 104.22 185.76 104.22C185.22 104.76 184.68 104.76 184.68 104.76C184.14 105.3 184.14 105.3 184.14 105.3C183.6 105.3 183.6 105.3 183.6 105.84C184.14 106.38 184.14 106.92 183.6 106.92C183.06 106.92 183.06 106.92 183.06 107.46C183.06 108.54 182.52 108.54 181.44 108C181.98 108.54 182.52 109.08 181.98 109.62C181.44 109.62 180.9 110.7 180.36 112.32C179.82 112.86 179.28 113.4 179.28 113.4C179.82 113.94 179.82 113.94 179.82 113.94H180.36C180.36 114.48 180.36 114.48 179.82 114.48C178.74 113.94 178.74 114.48 179.28 115.56V116.64C179.28 116.64 178.74 116.64 177.66 116.64C178.2 117.72 178.2 118.8 176.58 119.34C176.04 119.88 176.04 119.88 176.04 119.88C176.04 120.96 175.5 121.5 174.42 121.5C174.96 122.04 175.5 122.58 175.5 122.58C174.42 123.66 173.88 124.2 174.42 124.2C173.88 124.2 173.34 124.74 173.34 125.28C173.88 125.82 173.34 126.36 172.8 126.9C172.8 126.36 171.72 126.9 172.26 127.44C171.18 128.52 170.64 129.6 170.64 130.68C170.64 131.22 170.64 131.22 170.1 131.22C169.56 131.22 169.02 131.76 169.02 132.84V133.92C169.02 133.92 169.02 133.92 169.02 134.46H168.48C169.02 135 169.02 135 169.02 135.54C168.48 136.08 168.48 136.08 169.02 136.62C169.02 137.16 169.02 137.16 168.48 137.16C167.94 137.7 167.4 137.7 166.32 137.7C167.94 138.24 169.02 138.24 170.64 136.62C170.64 136.08 170.64 136.08 171.18 136.08C171.72 136.08 171.72 136.62 172.26 137.16C172.26 137.7 172.26 137.7 172.8 137.16C172.8 137.16 173.34 137.16 174.42 137.16C174.96 137.7 175.5 137.7 175.5 137.16C175.5 136.62 176.04 136.08 176.58 136.08C177.12 136.08 178.2 136.08 178.74 135.54C178.74 135 178.74 135 179.28 135C179.28 135.54 179.28 135.54 179.28 136.08H179.82V135.54C179.28 135.54 179.28 135.54 179.28 135H180.36C180.9 135.54 180.9 136.08 181.44 135.54C181.98 135.54 181.98 135.54 182.52 136.08H183.6C183.6 135.54 183.6 135.54 183.06 135.54C183.06 135 183.06 135 183.6 134.46C185.22 134.46 186.84 133.92 188.46 132.84L189 133.38C189.54 133.92 190.08 133.92 190.62 133.38C190.62 132.84 191.7 133.38 191.7 133.92C191.7 134.46 192.24 134.46 192.78 134.46C192.24 133.92 191.7 133.38 191.7 132.84L192.24 132.3C192.78 132.3 193.32 131.76 193.86 131.22C194.94 131.22 195.48 131.76 195.48 132.3C196.02 133.38 196.56 133.38 197.1 132.3C197.64 131.76 198.18 131.76 198.72 131.76C199.26 132.3 199.26 132.3 199.8 132.3C200.34 132.3 200.34 132.3 200.34 131.76C200.34 131.22 200.88 131.22 201.42 131.76C202.5 131.76 203.04 131.22 203.04 130.68C203.58 130.14 204.12 129.6 204.66 130.14C205.2 130.68 205.74 130.68 205.74 130.14C205.74 130.14 206.28 130.14 206.82 130.14C207.36 130.68 207.9 130.14 209.52 129.6C210.06 129.06 210.6 129.06 211.14 129.06C211.68 129.6 212.22 129.6 212.76 129.6V130.14C212.76 130.68 212.76 130.68 213.3 130.68C213.84 130.14 213.84 130.14 213.84 130.14L213.3 129.6C212.76 129.06 213.3 128.52 213.84 128.52H214.38C214.92 129.06 216 129.06 217.08 128.52C217.62 127.98 218.7 127.98 219.24 127.98H220.32C220.86 127.98 221.94 127.98 222.48 127.44C222.48 127.44 223.02 127.44 223.56 127.98C224.1 128.52 224.1 127.98 224.64 127.44H225.18C227.88 127.44 230.04 126.9 230.58 126.36L231.12 126.9C231.66 126.9 231.66 126.9 231.66 126.9C231.66 127.44 231.66 127.44 232.2 127.44C232.2 126.9 232.74 126.36 233.28 125.82C233.28 125.28 233.28 125.28 233.82 125.82C234.36 125.82 234.9 125.82 234.9 125.28C235.44 124.74 235.44 124.74 235.44 124.74H237.06C236.52 125.28 236.52 125.82 235.98 125.82C235.44 125.82 235.44 126.36 234.9 126.9C236.52 126.9 237.6 126.9 238.14 126.36C237.6 126.36 237.6 126.36 237.6 126.36H237.06C237.06 125.82 237.06 125.82 237.06 125.82C237.6 125.28 238.68 125.28 239.76 125.28C240.3 125.28 241.38 125.28 242.46 124.74C243.54 124.74 244.62 124.74 245.7 124.74C246.24 124.74 246.24 124.74 246.24 124.2H246.78C247.32 124.74 246.78 124.74 246.24 124.74C246.78 125.28 246.78 125.28 247.32 124.74C247.32 124.74 247.32 124.74 247.86 125.28C248.4 125.28 248.4 125.28 248.4 124.74C248.94 123.66 250.02 123.12 250.56 123.66C251.1 123.66 251.64 123.66 251.64 123.12C251.64 122.58 252.18 122.58 252.72 122.58H253.26C253.26 123.12 253.26 123.66 253.8 123.12C253.8 123.12 253.8 123.12 254.34 123.12C254.88 121.5 255.42 121.5 255.42 123.12C255.96 123.66 256.5 124.2 257.04 124.2C257.58 123.66 257.58 123.66 257.58 123.66C256.5 122.58 256.5 122.04 257.58 122.04C258.12 122.04 258.66 122.04 258.66 122.58C258.66 123.12 258.66 123.12 259.2 123.12V122.58C259.74 122.04 259.74 122.04 259.74 122.04C260.28 122.04 260.28 122.58 260.28 123.12V123.66C260.82 122.04 264.06 119.34 264.06 123.66C264.6 123.12 264.6 122.58 264.6 122.04V121.5C265.14 122.04 265.68 122.04 266.22 121.5C266.22 121.5 267.3 122.04 267.3 122.58C267.84 121.5 268.38 120.96 268.92 120.96C269.46 120.96 270 121.5 270 122.04C270 122.58 271.62 122.04 272.16 121.5C272.7 121.5 274.86 120.42 274.86 122.04C275.4 122.04 275.4 122.04 275.4 122.04C274.86 122.58 274.86 122.58 275.4 122.58C275.4 120.96 277.02 119.88 278.64 121.5C279.18 121.5 279.18 121.5 279.72 122.04C280.26 122.04 280.26 122.04 279.72 121.5V120.96H281.88C282.42 120.96 282.96 120.96 282.96 120.96C282.42 121.5 282.42 122.04 281.88 122.58C283.5 122.04 284.04 121.5 284.04 121.5H284.58C285.12 122.04 285.66 122.04 286.2 121.5C286.74 120.96 286.74 120.96 287.28 121.5C287.82 120.96 287.82 120.96 288.36 121.5C288.36 122.04 288.9 122.04 289.44 121.5C291.06 121.5 291.6 121.5 291.6 121.5C292.14 121.5 292.14 121.5 292.14 121.5C292.68 120.96 293.76 120.96 294.3 121.5C294.84 121.5 295.38 121.5 295.38 121.5H296.46C296.46 122.04 295.92 123.66 295.38 124.2C295.92 124.2 296.46 123.66 296.46 123.12C297 122.04 298.08 121.5 299.16 122.04C300.78 122.58 301.86 123.12 302.4 122.58H302.94C302.94 123.12 303.48 123.66 304.02 123.66C305.1 123.66 305.64 123.66 305.64 124.2V124.74C306.18 124.74 306.18 124.74 306.18 124.2C306.18 123.66 306.72 123.66 307.26 124.2C308.88 124.2 309.96 125.28 311.58 125.82C312.12 125.82 312.12 125.82 312.66 126.36C313.2 126.9 313.2 126.9 313.74 126.36C313.74 126.9 314.28 127.44 314.82 126.9C315.36 126.9 315.36 126.9 315.36 127.44C315.36 127.98 315.9 128.52 316.44 127.98C317.52 127.98 318.06 128.52 318.06 130.14C318.6 130.68 318.6 130.68 318.6 130.68H319.14C319.68 131.22 319.68 131.22 320.22 131.22C320.76 131.22 321.3 131.76 321.3 132.3C321.84 132.84 322.38 133.38 322.38 134.46C321.84 135 321.84 135.54 322.92 136.08C323.46 136.62 323.46 137.16 322.38 137.16C322.38 137.16 322.38 137.16 321.84 137.16C321.3 137.16 321.3 137.16 321.84 137.7C322.38 137.7 322.38 138.24 322.38 138.78C321.84 140.4 321.3 140.94 320.22 140.4C320.76 140.94 320.76 140.94 320.76 140.94V141.48C320.22 141.48 320.22 142.02 320.22 142.56C320.22 143.1 320.22 143.64 320.76 144.18C320.76 144.72 320.76 146.34 319.14 146.34C318.6 145.8 318.6 145.8 318.6 145.8C318.6 144.18 315.9 144.18 315.36 144.72C315.36 145.26 315.36 145.26 314.82 145.26C314.28 145.8 314.28 145.8 314.28 146.34C313.74 146.88 313.2 147.42 313.2 147.42C313.2 147.96 313.2 147.96 313.74 147.96C314.28 147.96 314.28 148.5 314.28 149.58C314.28 150.66 314.28 151.2 314.82 151.74C314.82 152.28 314.82 152.82 314.28 153.36C314.28 153.9 314.28 154.44 314.82 154.44C315.9 154.44 316.44 154.98 316.44 155.52C316.44 155.52 316.44 156.06 316.44 157.14C314.82 157.68 314.82 158.22 315.9 159.3C316.44 159.84 316.98 160.38 316.98 161.46C316.44 161.46 315.9 161.46 315.9 162C315.9 162.54 315.36 163.08 314.82 163.62L313.74 164.7C313.74 165.24 313.74 165.24 313.74 164.7C313.2 164.7 313.2 164.7 313.2 164.16C313.2 164.7 313.2 164.7 313.2 164.7C313.2 164.7 313.2 165.24 313.2 166.86C313.2 167.94 313.2 168.48 313.2 168.48C312.66 168.48 312.12 168.48 311.58 169.02C311.04 169.56 310.5 169.02 309.96 168.48C309.96 167.94 309.96 167.94 309.42 167.94C307.8 168.48 306.18 167.4 305.1 165.78C304.02 166.32 302.4 165.78 300.78 165.24C300.24 165.24 299.7 165.24 299.16 164.7C298.62 164.7 297.54 164.7 297 164.7C296.46 164.16 295.38 164.16 293.76 164.16C293.22 163.62 293.22 163.62 292.68 163.62C292.68 163.08 292.14 163.08 291.6 163.08C291.06 163.62 290.52 163.62 288.9 163.62H286.2C285.66 163.08 285.66 163.08 285.12 163.08C284.58 163.08 284.04 163.08 283.5 162.54C283.5 163.08 283.5 163.62 283.5 163.08C282.96 163.08 282.42 162.54 280.8 162.54C280.26 162.54 279.18 162.54 278.64 162.54C277.56 163.08 276.48 163.08 275.94 163.08H271.08C270.54 163.62 269.46 164.16 268.92 163.62H265.68C265.14 164.16 264.06 164.16 263.52 163.62C262.98 163.62 261.9 163.62 261.36 164.16C260.82 163.62 260.82 163.62 261.36 163.08V162.54C260.82 163.08 260.82 163.08 260.82 163.08C259.74 164.16 258.66 164.7 257.58 164.7H253.26C251.64 165.24 250.02 165.24 247.32 165.24H244.62C244.08 165.78 244.08 165.78 244.08 165.24C243.54 165.24 243.54 165.24 243 165.78C243 165.78 242.46 165.78 241.92 165.78C241.92 165.24 241.92 165.24 241.92 165.24C241.38 165.24 241.38 165.24 241.38 164.7C240.84 165.24 240.84 165.24 240.84 165.24C240.84 165.78 240.84 165.78 240.3 166.32C239.76 166.86 237.06 166.86 238.68 165.24C238.68 164.7 238.68 164.16 238.68 164.16C238.14 164.7 237.6 165.24 237.6 165.24C237.6 166.32 237.06 166.86 236.52 166.32H235.44L232.2 167.94C231.12 167.94 230.04 167.94 229.5 167.94C228.42 168.48 227.34 168.48 226.26 168.48C225.72 168.48 225.18 168.48 224.64 169.02C224.1 169.56 223.56 169.56 223.02 169.02C222.48 169.02 222.48 169.02 222.48 169.56C221.94 170.1 221.4 170.1 220.86 170.1C220.32 170.1 220.32 170.1 219.78 170.64C219.24 170.1 219.24 170.1 219.24 169.56C218.7 170.1 217.62 170.64 216.54 170.64C216 170.64 214.92 170.64 214.38 170.64C213.84 171.18 212.76 171.18 212.22 171.18C211.68 171.72 210.6 172.26 209.52 172.26C208.98 172.26 208.98 172.26 208.44 172.26C207.9 172.8 204.12 172.8 206.28 170.64C205.74 170.1 205.74 170.1 205.74 170.1C205.2 170.64 204.66 170.64 204.66 170.64C204.66 172.26 202.5 172.26 202.5 172.26C201.96 172.26 201.96 172.26 201.96 172.8C201.96 173.34 200.88 172.8 200.88 172.8C200.88 172.26 200.88 172.26 200.34 172.26C200.34 173.34 199.8 173.88 199.26 173.88C198.72 173.88 198.18 173.88 197.64 173.88C197.1 174.42 196.02 174.42 195.48 174.42H194.94C193.32 175.5 192.24 176.04 191.16 175.5H190.62C190.08 176.04 189.54 176.58 189 176.04C188.46 176.58 187.92 176.58 187.92 176.58C187.38 177.12 186.84 177.12 186.3 177.12C184.68 176.58 183.6 177.12 183.6 177.66C183.06 178.2 183.06 178.2 182.52 178.2C181.98 177.66 181.44 177.66 180.9 178.2C181.44 178.2 181.98 178.74 183.06 179.82V180.36C183.06 180.9 183.6 180.9 185.22 180.9C185.76 180.9 185.76 181.44 185.76 181.98H186.3C186.84 182.52 187.38 182.52 187.92 182.52C188.46 182.52 189.54 183.6 189.54 183.6C190.08 183.6 191.16 184.14 191.7 185.22C191.7 186.3 192.24 186.3 193.86 185.76C193.86 186.84 194.4 187.38 194.94 186.84C195.48 186.3 196.02 186.84 196.56 187.38C196.02 187.92 196.02 187.92 196.02 187.38C195.48 187.38 195.48 187.92 195.48 188.46H196.56C197.1 188.46 197.1 189 197.1 189.54C197.64 189.54 198.18 189.54 198.72 190.08C199.26 190.62 199.26 190.62 199.8 190.62C200.34 191.16 200.34 191.16 200.88 191.7C201.42 191.7 201.96 191.7 201.96 192.24C201.42 192.78 201.96 193.32 203.04 193.32C204.12 193.32 204.66 193.86 205.2 194.4H205.74L206.28 194.94C206.82 194.94 207.36 195.48 207.9 196.02C207.9 196.56 208.44 197.1 209.52 197.64C208.98 198.18 208.98 198.18 208.44 197.64C207.9 197.64 207.9 197.64 207.9 198.18H209.52C211.14 197.64 211.68 197.64 211.68 199.26C211.68 199.8 211.68 199.8 212.22 199.8C212.22 199.8 212.76 200.34 214.38 200.88C214.38 201.42 214.92 201.42 215.46 201.42C216.54 201.96 217.08 203.04 216.54 203.58C217.08 204.12 217.62 204.12 218.16 203.58C218.7 203.58 220.32 204.66 220.32 205.2C219.78 205.74 219.78 205.74 219.78 205.2C219.78 205.2 219.78 205.2 219.24 205.74C219.78 205.74 220.32 205.74 220.32 205.74C220.32 205.74 220.86 205.74 221.4 205.74C221.94 205.74 223.02 206.28 224.1 207.36H224.64C225.18 207.36 225.72 207.9 226.8 208.98C226.8 209.52 226.8 209.52 227.34 208.98C227.88 208.98 227.88 209.52 227.88 210.06H228.96C229.5 209.52 229.5 210.06 229.5 210.6C229.5 211.68 230.04 211.68 231.12 211.14C231.66 211.14 234.36 213.3 232.2 213.3C232.74 213.3 233.28 213.3 233.28 213.3H233.82C233.82 213.84 234.36 213.84 235.44 213.84C235.98 213.3 236.52 213.3 236.52 213.84C235.98 214.38 235.98 214.38 236.52 214.92C235.98 214.92 235.98 214.92 235.98 214.38C235.98 214.38 235.98 214.38 235.44 214.38C234.9 214.38 234.9 214.38 234.9 214.92C234.36 214.92 234.36 214.92 234.9 214.92C234.9 215.46 234.9 215.46 235.44 215.46C235.98 215.46 236.52 215.46 237.06 215.46C237.06 216 237.06 216 237.6 216C238.14 216.54 238.14 216.54 238.14 216.54C238.14 217.08 238.14 217.08 238.14 217.08C237.6 217.08 237.6 217.08 237.6 216.54H237.06C237.6 217.08 238.14 217.08 238.68 217.08C239.22 217.08 239.22 217.08 239.76 217.62C239.76 218.16 240.3 218.16 241.38 218.16C241.92 217.62 241.92 217.62 241.92 218.16C241.38 218.7 241.92 219.24 242.46 218.7C243 218.16 243 218.7 242.46 219.24C243 219.24 243 219.24 243 219.78C243 220.32 243.54 220.32 244.08 220.32L244.62 220.86C245.16 221.94 245.7 222.48 246.78 222.48C247.86 222.48 247.86 223.02 247.32 223.56C247.86 223.02 248.4 223.56 250.02 224.1C250.56 225.72 251.64 226.26 253.26 226.26C253.26 226.8 254.34 227.34 254.88 227.34C255.42 227.88 256.5 228.42 257.58 228.42H258.66C258.12 228.96 257.58 228.96 257.04 228.42C256.5 228.42 256.5 228.42 255.96 228.96C257.04 228.96 258.12 229.5 258.66 230.58H259.74C260.28 230.58 260.82 231.66 260.82 231.66C261.36 231.66 261.36 231.66 261.36 231.66C261.36 232.2 261.36 232.2 261.9 232.2C262.44 232.74 262.44 233.82 262.98 234.36C262.98 234.9 263.52 235.44 264.6 235.44C264.06 235.44 263.52 235.44 263.52 235.98C263.52 235.98 264.06 235.98 264.6 235.98C265.14 235.98 265.68 236.52 265.68 237.06C265.68 237.6 265.14 237.6 264.6 237.6C264.6 237.6 264.06 237.6 263.52 237.6C263.52 238.14 263.52 238.14 264.06 238.14C264.06 238.14 264.06 238.14 264.06 238.68C265.14 238.68 265.68 239.22 265.14 240.3C264.6 240.84 264.6 240.84 265.14 240.84C265.68 240.84 265.68 240.84 265.68 241.38C265.14 241.38 264.6 241.38 264.06 240.84V240.3C263.52 240.3 262.98 240.3 263.52 240.84C263.52 241.38 261.9 241.92 261.9 241.92H261.36C261.9 242.46 261.9 242.46 261.9 242.46C262.98 242.46 263.52 243 263.52 244.08C263.52 244.08 263.52 244.62 263.52 245.16C263.52 245.16 262.98 245.7 262.44 247.32C261.9 247.86 261.9 247.86 261.36 247.86C261.9 248.4 261.9 248.4 261.36 248.94L260.82 249.48C261.36 250.02 261.36 250.56 260.82 250.56C260.28 251.1 259.74 251.1 259.74 251.64C259.74 252.18 259.74 252.18 259.74 252.18C259.2 252.18 259.2 252.18 259.2 251.64C258.66 251.64 258.66 251.1 258.66 250.56C258.66 250.02 258.66 250.02 258.12 250.02C257.58 250.02 257.04 250.02 257.04 249.48C256.5 248.94 255.96 248.94 254.88 248.94C254.88 248.4 254.34 248.4 253.8 248.4C253.26 248.4 253.26 248.4 253.26 247.86C253.26 247.32 253.26 246.78 253.26 246.78C252.72 246.78 252.72 246.78 252.18 247.32C252.18 247.86 252.72 248.94 253.26 249.48V250.02C252.72 250.56 252.72 250.56 252.72 250.02C252.72 249.48 252.72 249.48 252.18 250.02C252.18 250.56 252.18 250.56 251.64 250.02C251.1 250.02 251.1 250.56 251.64 251.1H252.18C252.18 251.64 252.18 251.64 252.72 251.1C252.72 250.56 252.72 250.56 252.72 251.1V252.18H251.64ZM96.66 223.56C96.66 223.02 96.66 223.02 97.2 222.48C97.2 222.48 97.2 222.48 97.2 221.94C96.12 220.86 96.12 220.32 97.74 220.32C98.82 219.78 98.82 218.7 98.28 218.16C98.28 217.62 98.28 217.08 98.82 217.08C99.9 216.54 100.44 216 99.9 214.92C99.36 214.38 99.36 213.3 99.9 212.22C100.44 211.68 100.98 211.14 100.98 210.6C100.98 210.06 100.98 209.52 101.52 209.52C102.06 209.52 103.14 208.98 103.68 208.44V207.9C103.68 207.36 103.68 207.36 104.22 206.82C104.76 206.28 104.76 205.74 104.76 205.2C104.22 205.2 104.76 204.66 105.3 204.12L108.54 202.5C108 202.5 106.92 201.96 106.38 200.88C106.92 200.34 108 199.8 108.54 199.26C108.54 198.72 109.08 198.18 110.16 198.18C109.62 198.18 109.62 197.1 109.62 195.48C109.62 194.94 109.08 194.94 108.54 194.94H105.3C104.76 194.94 104.76 194.94 104.76 195.48C104.76 196.02 104.76 196.56 104.76 196.56C104.22 196.56 103.68 196.56 103.68 196.02C103.68 195.48 103.68 195.48 103.68 195.48C103.14 195.48 103.14 195.48 103.14 196.02L100.44 198.72C99.9 199.26 99.9 199.26 99.9 199.8C100.44 199.8 100.98 200.34 100.98 201.42C101.52 201.96 101.52 201.96 101.52 201.96C103.14 203.58 102.6 204.12 100.98 204.12C100.44 204.12 99.9 204.66 99.9 205.2C99.9 205.74 99.36 205.74 98.82 205.74C97.74 205.74 97.2 206.28 97.2 207.36C96.66 207.9 96.66 207.9 96.66 207.9C95.58 207.9 95.04 208.44 95.58 208.98C95.58 209.52 95.58 210.06 95.04 210.6V211.14C95.58 211.68 95.58 213.3 93.96 213.3C93.42 213.84 92.88 214.38 92.88 214.92C92.88 215.46 92.34 216 91.8 216C90.72 216 90.18 216.54 90.18 217.62C90.18 218.16 90.18 218.16 89.64 218.7L88.56 219.78C88.02 220.32 88.56 220.86 89.1 221.4C90.72 221.4 90.72 221.94 89.1 222.48C89.1 223.02 89.1 223.02 89.1 223.02C88.56 223.56 88.56 224.1 89.1 224.64C89.1 225.72 88.56 225.72 88.02 225.18H86.94C87.48 225.72 88.02 226.26 87.48 226.8C86.94 228.42 85.86 228.96 85.32 228.96V229.5C84.78 230.04 84.78 230.04 84.78 230.58C84.78 231.12 84.78 231.12 84.24 231.66C83.7 233.28 82.62 233.82 81.54 233.82C81 233.82 81.54 234.9 82.08 234.9H82.62C83.16 235.44 83.16 235.44 83.16 235.44C83.16 235.98 82.08 236.52 82.08 236.52C82.08 237.06 82.08 237.6 81.54 238.14C81 238.14 81 238.68 81 239.22C81 239.76 81 239.76 81.54 239.76V239.22C81.54 239.22 82.08 238.68 82.62 238.14C83.16 238.14 83.7 238.14 83.16 238.68C83.16 239.22 83.16 239.76 83.7 239.76C84.24 239.76 84.24 239.76 84.78 240.3C84.78 241.92 85.32 241.92 86.4 240.84C86.4 240.3 86.94 240.3 87.48 239.76C88.02 239.76 87.48 239.22 86.94 238.68C88.02 238.68 88.56 238.14 88.56 237.6C88.56 236.52 89.1 235.98 89.64 235.44C90.72 235.44 91.26 235.44 91.26 234.9C91.26 234.36 91.26 233.82 91.8 233.28C92.34 231.66 92.88 230.58 92.88 230.04C92.88 229.5 92.88 228.96 93.42 228.42C93.96 228.42 93.96 228.42 93.96 227.88C93.42 227.34 93.96 226.8 94.5 225.72C94.5 225.72 95.04 225.18 95.58 223.56C95.58 223.02 95.58 222.48 96.12 222.48C95.58 222.48 96.12 223.02 96.66 223.56ZM145.26 117.72C145.8 117.18 145.8 117.18 145.8 117.18C145.8 116.64 145.8 116.64 146.34 116.1C146.34 116.1 146.34 116.1 146.34 116.64C146.88 116.64 146.88 117.18 146.88 117.72C146.88 117.18 146.34 117.72 145.26 118.8V119.34H146.34C147.42 120.42 147.42 120.96 146.34 120.96C145.8 120.96 145.26 120.96 145.8 121.5C145.8 122.04 145.26 123.66 144.72 123.12C144.18 123.12 143.64 124.2 144.18 124.2C144.18 124.74 144.18 124.74 143.64 125.28C142.56 125.82 142.02 126.9 142.02 127.98V129.06C140.4 129.6 139.86 130.68 139.86 131.22C139.86 131.76 139.86 132.3 139.32 132.84C138.78 132.84 138.24 133.38 138.24 134.46C138.24 136.62 137.16 138.24 135.54 140.4C135.54 140.94 135 140.94 134.46 140.94V140.4C134.46 139.86 134.46 139.86 135 139.86C135.54 139.86 135.54 139.86 135.54 139.32H135C134.46 139.32 133.92 139.32 133.92 139.86V141.48C133.92 142.02 133.92 142.56 133.92 142.56C133.92 142.56 135 142.02 136.62 142.56C136.62 142.56 136.62 143.1 136.62 144.18C136.08 144.18 136.08 144.18 136.08 144.18C136.08 144.72 136.08 144.72 136.62 144.72C137.16 144.72 137.16 144.72 137.16 144.18C137.16 144.18 138.78 142.02 139.32 141.48C139.86 141.48 139.86 140.94 140.4 140.4C140.4 139.86 140.94 139.32 141.48 139.32C142.02 139.86 142.02 139.86 142.02 139.32C142.02 138.78 142.56 138.78 143.64 138.78L144.18 138.24C144.18 136.62 144.18 135.54 144.72 135C145.26 134.46 145.26 133.92 145.26 132.3C145.26 131.76 145.26 131.22 145.8 131.22C146.88 131.22 147.42 130.68 147.42 129.6C146.88 129.06 147.42 128.52 147.96 127.98C149.04 127.44 149.58 126.36 149.04 125.82C149.04 125.28 149.04 125.28 149.58 124.74C150.66 124.2 151.2 123.12 150.66 122.58C150.66 121.5 150.66 120.96 151.2 120.42C151.74 119.88 151.2 117.72 150.66 117.18C150.12 116.64 150.12 116.64 150.66 116.64C151.2 116.64 151.74 116.64 152.28 116.1C152.28 116.1 152.82 116.1 153.36 116.1C153.9 116.64 154.44 116.1 154.44 115.56V113.94C154.44 113.4 154.44 113.4 154.98 113.4V115.02L155.52 115.56V115.02C156.06 114.48 156.06 114.48 156.6 114.48C158.22 114.48 158.22 113.4 158.22 112.86C157.68 111.78 157.68 111.24 158.22 110.7C158.76 110.16 158.76 110.16 158.22 109.62C157.68 109.08 158.22 109.08 158.76 109.08V108.54C158.76 106.92 158.76 106.38 158.76 106.38C159.3 105.84 159.3 105.84 159.3 105.84C157.68 103.68 160.92 103.68 161.46 104.22C162 104.22 162.54 104.22 162.54 104.22C162.54 104.22 162.54 103.68 162.54 103.14C162 103.14 161.46 102.6 161.46 102.06H162C162.54 102.06 162.54 102.06 162.54 101.52C162 101.52 161.46 101.52 161.46 100.98C161.46 100.44 162 99.9 163.08 99.9C163.08 99.36 163.08 99.36 163.62 99.36C163.62 99.9 163.62 99.9 163.62 99.36C163.08 98.82 163.08 98.82 163.08 98.82C162.54 98.82 162.54 98.82 162.54 98.82C162 99.36 162 99.36 161.46 99.36C160.38 99.36 159.84 99.9 159.3 100.98L158.76 101.52C158.76 102.06 158.76 102.06 158.22 102.06C158.22 102.06 158.22 101.52 158.22 100.98C158.22 100.44 158.22 100.44 158.76 99.9C158.76 99.9 158.76 99.9 158.76 99.36C158.22 99.9 158.22 99.9 158.22 100.44C156.6 102.06 156.06 103.14 155.52 104.22C155.52 104.76 154.98 105.84 153.36 107.46H152.82L153.36 108C153.9 107.46 154.98 108 155.52 108.54V109.62C155.52 110.16 155.52 110.16 155.52 109.62C154.98 109.62 154.98 109.62 154.98 109.08H153.36C153.36 109.08 153.36 109.62 153.36 110.16C153.36 110.7 153.36 111.24 153.36 111.24C152.82 111.24 152.82 111.24 152.82 111.24L152.28 110.7C151.74 110.7 151.74 110.7 151.74 110.7C151.74 111.24 151.2 112.32 150.66 113.94C150.12 113.94 150.12 113.94 150.66 114.48C150.66 115.02 150.12 115.56 149.58 115.56C149.04 115.56 149.04 115.56 148.5 115.02C147.42 115.02 146.34 115.02 145.8 114.48C146.34 115.56 146.34 116.1 145.8 116.1C145.26 116.64 145.26 117.18 145.26 117.72ZM69.12 264.06C68.04 264.6 67.5 265.68 68.04 266.22V267.84C68.58 267.84 68.58 267.84 68.58 267.3V265.68C69.12 265.14 69.12 265.14 69.12 265.14C69.66 265.14 69.66 265.14 69.66 265.68C69.66 267.3 70.2 267.84 70.74 268.38C71.28 268.92 71.28 268.92 71.28 268.38C71.82 267.84 72.36 267.3 72.36 266.76L73.44 265.68C73.98 265.68 73.98 265.68 74.52 265.14C74.52 264.6 74.52 264.6 75.06 264.6C75.6 264.06 75.6 263.52 75.06 262.98H74.52C73.98 262.44 73.98 262.44 73.98 261.9C73.98 261.9 74.52 261.9 75.06 261.9C75.6 261.9 75.6 261.9 75.6 261.36C76.14 260.28 77.22 260.28 77.76 260.82C77.76 261.36 78.3 261.36 79.38 261.36C79.38 261.36 79.92 260.82 80.46 260.28C80.46 259.74 79.92 259.74 79.38 259.74C78.84 259.74 78.3 259.2 77.76 258.66C77.22 258.66 77.22 258.66 77.22 258.12C76.68 258.12 76.68 258.12 76.14 258.12C75.6 258.12 75.6 258.12 76.14 257.58C76.68 256.5 76.68 255.42 76.14 253.8C76.14 253.26 76.14 252.72 76.14 252.72C76.68 252.18 77.76 252.18 78.3 252.72V254.34C77.76 254.88 77.22 255.42 77.76 255.96L77.22 256.5V257.58C77.76 258.12 78.3 258.66 78.84 258.12H79.38C79.38 257.58 79.38 257.04 79.92 256.5C80.46 255.96 79.92 255.42 79.38 254.88C79.38 254.88 79.38 254.88 79.38 254.34V253.8C79.38 253.8 79.92 253.8 80.46 253.8C80.46 254.34 80.46 254.34 81 254.34C81.54 254.34 81.54 254.34 81.54 253.8C81.54 253.26 81.54 253.26 81 252.72C80.46 252.72 80.46 252.72 80.46 252.18C80.46 251.64 81 251.64 81.54 251.64C82.08 251.64 82.62 251.1 82.08 250.56C82.62 250.02 82.62 250.02 82.62 249.48C83.16 248.94 83.7 248.4 83.7 248.4C83.7 247.86 84.24 247.32 84.78 247.32C85.32 247.32 85.86 246.78 85.32 245.7C84.24 245.7 84.24 245.16 85.32 244.08C85.86 242.46 85.32 241.92 83.7 241.92H78.84C78.84 242.46 78.84 242.46 78.84 242.46H79.38C81 243 78.84 244.08 78.84 244.08C78.3 244.08 77.22 244.62 77.22 245.16C77.22 245.16 77.22 245.16 77.76 245.16C78.3 245.16 78.3 245.16 78.3 245.7V247.32C78.3 247.86 78.3 248.4 78.3 248.4C78.3 248.94 78.3 248.94 78.84 248.4C79.38 248.4 79.38 248.4 79.92 248.94C79.38 249.48 78.84 250.02 78.3 250.02C77.76 250.56 77.22 251.1 77.22 252.18C76.68 251.64 76.14 251.1 75.6 251.64C75.06 252.18 74.52 252.72 73.98 252.18V252.72C75.6 254.34 75.6 255.42 73.98 255.96C73.44 256.5 72.9 257.04 73.44 257.58V258.12C72.9 258.12 72.36 258.66 72.36 259.2H71.82C71.28 259.74 70.74 260.28 71.28 260.82C71.28 261.9 70.74 262.44 70.2 261.9C69.66 262.44 69.66 262.44 69.66 262.44C70.2 262.44 70.2 262.44 70.2 262.98C69.66 263.52 69.12 263.52 68.58 262.98C68.04 262.98 67.5 262.98 66.96 263.52C67.5 263.52 68.04 263.52 68.04 263.52C68.04 264.06 68.58 264.06 69.12 264.06ZM172.8 70.74C173.34 70.74 173.88 70.74 173.88 70.74C174.42 70.2 174.42 70.2 174.42 70.2V71.82C174.42 72.36 173.88 72.9 172.8 72.9C172.26 72.9 172.26 72.9 171.72 73.44C171.18 73.98 171.18 74.52 170.64 75.06C170.1 76.14 169.56 78.84 170.1 79.38V79.92H169.56C167.4 79.92 167.4 80.46 167.4 81C166.86 81.54 166.86 81.54 166.32 82.08C165.78 82.62 165.78 82.62 165.78 82.62C166.32 83.16 166.32 83.7 166.32 83.7C165.78 83.7 165.78 83.7 165.78 84.24C165.78 85.32 165.78 85.86 166.32 85.86C166.86 85.86 167.4 85.32 167.4 84.78C167.4 84.24 167.94 83.7 168.48 83.7C169.02 83.7 169.02 83.7 169.56 83.16C170.1 82.62 170.64 82.62 171.18 83.16C171.18 83.16 171.72 82.62 172.26 82.62C172.26 82.62 172.26 82.62 172.26 83.16C172.8 83.16 172.8 83.16 172.8 82.62C173.34 81 173.88 80.46 173.88 79.92V79.38C174.42 78.84 174.96 78.3 174.96 77.76C174.42 77.22 174.42 77.22 174.96 76.68C174.96 76.14 174.96 76.14 175.5 76.14C176.04 76.14 176.04 76.14 176.04 76.68V77.22H177.12C177.66 76.68 177.66 76.68 177.66 76.68C176.58 76.14 176.58 75.6 177.12 73.98H176.58C176.04 73.44 176.04 72.9 176.58 72.36C177.12 71.82 177.66 71.82 178.2 71.28C178.2 70.74 178.74 70.74 179.28 70.2C180.36 70.2 180.36 69.66 179.82 69.12V68.58C179.28 68.58 179.28 68.58 179.28 69.12C178.74 69.66 178.74 69.66 178.74 69.66C178.2 69.66 178.2 69.66 178.2 70.2C177.66 69.66 177.66 69.12 177.12 69.12C176.58 69.12 176.58 69.12 176.04 68.58C175.5 68.04 174.96 68.04 174.96 69.12C174.96 69.66 174.96 69.66 174.42 69.12C173.88 69.12 173.88 69.12 173.88 69.66L172.8 70.74ZM59.94 284.58C61.02 284.58 61.56 285.12 62.1 285.66C62.64 286.2 62.64 286.2 62.1 286.2C61.56 286.74 61.56 286.74 61.56 287.28C61.56 287.82 61.56 287.82 61.56 287.82C62.1 288.36 62.64 288.9 62.64 288.36C63.18 287.28 63.72 286.74 64.8 286.74C65.34 286.2 65.88 286.2 65.34 285.66C64.8 284.58 63.72 284.04 63.18 284.04C62.64 284.58 62.64 284.58 62.64 284.04V283.5C63.18 282.96 64.26 283.5 64.26 283.5C64.8 284.04 65.88 283.5 65.34 281.88C64.8 281.88 64.8 281.34 65.34 280.8C65.34 280.26 66.42 279.72 68.04 279.18C68.58 279.18 69.12 278.64 68.58 277.56H68.04C67.5 278.1 66.96 278.1 66.42 277.56C65.88 278.1 65.88 278.1 65.88 277.56L66.42 277.02C66.96 276.48 66.96 276.48 67.5 276.48C68.04 276.48 68.04 276.48 68.04 275.94C68.58 275.4 68.58 275.4 68.58 275.4C68.04 274.86 68.04 274.86 68.04 274.86C66.96 274.86 65.88 274.32 65.34 273.78C64.8 273.78 64.8 273.78 64.8 274.32C64.8 275.94 62.64 275.94 62.1 275.94C61.56 275.94 62.1 276.48 62.64 277.02V277.56C63.18 278.1 63.18 278.64 63.18 279.72C63.18 280.26 62.64 280.8 62.1 280.8C61.56 280.8 61.56 280.8 61.56 281.34C62.1 282.42 61.56 282.96 60.48 282.96C60.48 283.5 60.48 283.5 61.02 283.5C61.02 284.04 60.48 284.04 59.94 284.58ZM175.5 66.42C176.04 66.96 176.58 66.96 177.12 66.42C177.66 65.88 178.2 65.34 179.28 65.34C180.9 65.34 181.44 64.26 179.28 64.26V63.18H180.36C180.9 62.64 181.44 61.56 181.44 60.48C180.9 61.56 179.82 62.1 179.28 61.56C178.74 61.56 178.2 61.56 178.2 62.1C177.66 62.64 177.12 62.64 176.58 63.18C176.04 63.72 176.58 63.72 177.12 63.72H177.66C178.2 63.72 178.2 63.72 178.2 64.26L177.66 64.8C177.12 64.8 176.58 65.34 175.5 66.42ZM57.78 299.16C58.32 298.62 58.32 298.62 58.32 298.62V298.08C57.78 298.08 57.24 297.54 55.62 297C55.62 297 55.08 297 54 297C53.46 297 53.46 297 53.46 297C53.46 297.54 53.46 297.54 54 297.54C54.54 298.62 54 299.16 52.92 299.16H57.78ZM60.48 292.68C59.94 292.68 59.4 292.68 58.86 292.14C57.24 290.52 56.16 291.06 56.16 292.68C55.62 293.22 55.62 293.22 55.62 293.22C55.62 293.76 55.62 293.76 55.08 294.3C55.62 294.3 56.16 294.3 56.7 294.84C56.7 295.38 57.78 296.46 57.78 294.84V293.76C57.78 293.22 57.78 292.68 57.78 292.68H60.48ZM167.94 89.1C167.4 88.56 167.4 88.56 166.86 88.56C166.32 88.56 165.78 89.1 165.78 89.64C165.78 90.18 165.78 90.18 165.24 90.18C164.7 89.64 164.16 89.64 163.62 90.18C163.08 90.72 162.54 91.26 162 91.8C161.46 91.8 162 92.34 162.54 92.88C163.08 92.34 163.08 91.8 163.62 91.8C163.62 91.8 163.62 91.8 164.16 91.26C165.24 91.26 165.78 90.72 165.78 90.18C166.32 89.64 167.4 89.1 167.94 89.64C168.48 89.64 168.48 89.64 168.48 89.1H167.94ZM182.52 58.32C183.06 58.32 183.6 58.32 183.6 58.32C183.6 57.78 183.6 57.78 183.6 57.78C183.06 57.78 182.52 57.24 182.52 56.7C182.52 56.16 181.44 55.08 180.9 55.62C180.9 56.16 180.9 56.16 180.9 56.7C180.36 57.24 180.9 57.24 181.44 57.24C181.44 57.78 181.98 58.32 182.52 58.32ZM186.3 45.9L185.76 45.36H184.68C184.14 45.9 184.14 45.9 184.14 46.44C184.68 46.98 184.68 46.98 184.14 47.52V48.06C184.68 48.06 184.68 48.06 184.68 48.06H185.76V47.52C185.22 47.52 185.76 46.98 186.3 46.44V45.9ZM70.74 270.54C70.2 270 70.2 270 69.66 270C69.12 270 69.12 269.46 69.12 268.92H67.5C66.96 268.92 66.96 268.92 66.96 269.46C67.5 270 67.5 270 67.5 270C67.5 270.54 67.5 270.54 68.04 271.08C69.12 271.08 70.2 271.08 70.74 270.54ZM256.5 239.76C257.04 239.76 257.58 239.76 258.12 240.3C258.66 241.92 259.74 239.22 259.2 239.22C258.66 238.68 258.66 238.68 258.66 238.68C259.2 238.14 259.2 237.6 258.12 237.6C258.66 238.14 258.12 239.22 256.5 239.76ZM253.8 245.16C253.26 245.7 253.26 246.24 253.8 246.24C254.34 246.24 254.34 246.24 254.88 246.78C254.88 247.32 255.42 247.86 255.96 247.86H256.5V247.32C255.96 246.78 255.96 246.78 255.96 246.78V246.24L255.42 245.7C254.88 245.7 254.34 245.7 253.8 245.16Z" fill="#F5F2EE"/>
</svg>
