<svg width="711" height="540" viewBox="0 0 711 540" fill="none" xmlns="http://www.w3.org/2000/svg">
<path d="M182.849 537.229C183.361 539.341 179.711 541.792 180.711 538.084C181.737 538.17 181.795 537.485 182.849 537.229Z" fill="#EF3537"/>
<path d="M245.845 447.361C245.589 446.305 246.273 446.363 246.957 446.42C247.982 446.507 247.212 447.476 246.87 447.447C246.442 448.446 245.816 447.704 245.845 447.361Z" fill="#EF3537"/>
<path fill-rule="evenodd" clip-rule="evenodd" d="M433.128 1.77695C432.115 -2.28105 445.286 1.26938 444.779 5.83463C445.286 8.87768 439.714 6.34184 437.687 7.35609C439.714 9.38501 442.753 10.3997 446.299 10.3997C452.378 22.5736 453.392 34.2408 467.069 40.835V42.3565H465.549C464.03 47.9359 472.135 43.8785 471.122 48.4437C469.602 47.9365 468.589 48.4435 468.589 49.9651C469.095 51.9936 471.121 49.9653 471.122 48.4437C490.372 47.9364 499.49 53.0087 520.767 55.545C529.378 59.6029 544.069 64.1685 557.24 67.212C558.76 69.748 561.8 70.2556 565.853 70.2556C567.372 72.7915 571.425 72.7918 573.451 74.8207C574.971 74.3134 574.464 72.7916 573.451 71.7771C577.504 71.2698 578.011 74.8207 582.063 74.8207C577.504 79.893 587.129 80.4002 590.675 81.9219C592.195 83.4435 593.715 83.9511 595.234 84.9655C597.261 83.9511 595.235 83.4435 595.234 81.9219C603.846 82.4292 600.807 85.4725 608.406 86.487C607.899 87.5012 608.912 87.5018 609.925 87.5018C609.925 91.5593 610.938 89.5305 612.965 89.0232V87.5018C613.978 88.0089 615.497 88.009 615.497 89.0232C620.057 91.5594 624.616 93.0813 627.149 96.6319C628.162 96.6319 629.175 96.6323 628.669 98.154H627.149C628.162 102.212 632.721 102.212 636.267 103.734C636.267 102.212 634.748 102.212 634.748 100.69C642.853 102.212 644.373 110.328 651.971 112.357V113.879C656.024 115.908 657.037 119.966 662.61 119.966C662.103 117.937 660.077 117.429 659.571 115.4C661.596 114.893 660.584 112.357 659.571 111.343H662.61C662.103 112.864 662.61 113.879 663.623 113.879C663.623 115.4 664.636 115.4 665.142 115.4C665.143 116.922 665.649 116.922 666.663 116.922C667.169 115.908 666.156 115.4 665.142 115.4C665.649 114.386 664.636 113.879 663.623 113.879V111.343C671.728 116.415 675.274 125.546 684.393 130.111C684.899 133.661 685.913 136.198 688.446 137.212C688.446 140.255 690.472 140.256 689.965 143.299C688.952 142.792 688.446 141.777 687.432 141.777C687.432 140.256 686.926 139.242 685.913 138.734C685.913 137.72 685.406 137.719 684.393 137.212C683.886 138.734 684.9 138.734 685.913 138.734C685.407 140.763 685.913 141.27 687.432 141.777C686.926 144.313 688.446 145.328 689.965 146.343V148.879C691.992 148.879 691.485 146.343 689.965 146.343V143.299C691.485 143.299 691.485 144.821 693.005 144.821C696.044 152.937 699.59 161.56 700.097 172.213C703.136 164.097 698.577 149.893 693.005 144.821C692.498 141.27 691.485 138.227 688.446 137.212C687.939 134.169 686.926 131.125 684.393 130.111C683.38 125.546 682.366 120.98 678.314 119.966C678.82 118.444 677.807 118.444 676.794 118.444V119.966C676.288 119.966 675.275 119.458 675.275 118.444C673.248 117.429 671.728 115.908 671.222 113.879C672.235 113.879 674.261 113.878 674.261 112.357C682.367 121.995 699.59 135.183 703.136 153.444C703.643 155.473 701.11 155.981 701.617 159.531C708.202 180.836 717.32 238.662 704.656 261.488C705.163 264.531 707.189 260.981 707.695 263.01C709.215 267.575 704.15 265.546 701.617 266.053C702.63 267.575 703.643 269.097 706.176 269.097C706.176 270.111 705.162 270.619 704.656 271.633C702.63 271.633 701.616 271.126 700.097 270.112C700.603 272.14 700.604 273.662 703.136 273.155C700.604 279.242 698.577 285.836 694.524 290.909C693.005 290.402 693.005 291.416 693.005 292.43H694.524C695.031 296.488 690.978 296.996 691.485 301.054C689.459 301.561 688.952 303.59 687.432 304.097V301.054C688.445 301.054 688.446 300.546 688.446 299.532C689.965 299.531 689.965 298.01 689.965 296.489C688.446 296.489 688.952 298.517 688.446 299.532C687.433 299.532 687.432 300.039 687.432 301.054C685.406 301.561 684.899 303.59 682.873 304.097V301.054C681.354 301.054 681.86 302.576 681.353 304.097C680.34 303.59 679.834 304.604 679.834 305.619C678.821 305.112 678.314 306.126 678.314 306.634H676.794C677.301 308.662 678.313 307.648 678.314 306.634C679.833 307.141 679.834 306.126 679.834 305.619C681.353 305.619 681.353 304.605 681.353 304.097H682.873C683.38 309.677 676.794 308.663 676.794 314.242C672.235 316.779 670.208 321.851 665.142 324.387C665.142 325.401 664.13 325.908 663.623 324.387C661.09 325.909 659.57 327.431 658.051 330.474C656.531 329.967 656.531 330.981 656.531 331.488C655.518 331.488 655.011 332.503 655.011 333.011C653.998 333.011 653.491 333.518 653.491 334.532C652.478 334.532 652.478 335.04 651.971 336.054C648.425 336.054 647.413 338.083 646.4 340.619C639.814 342.648 636.774 348.735 630.189 350.764C630.189 351.778 629.175 352.286 627.149 352.286C626.643 350.257 625.63 349.749 627.149 347.72C629.682 347.72 631.202 346.706 631.708 344.677C635.254 344.17 638.293 343.155 638.8 340.619C643.359 340.619 644.373 337.068 646.4 334.532C647.412 335.039 647.919 334.025 647.919 333.011C651.972 331.996 656.024 330.981 656.531 325.909C658.05 325.909 658.051 325.401 658.051 324.387C662.61 321.344 666.662 318.3 668.182 312.72C669.702 313.227 669.702 312.213 669.702 311.199C670.715 311.705 671.221 310.691 671.222 309.677C672.741 309.677 672.235 308.155 672.742 306.634C671.222 307.141 671.728 308.663 671.222 309.677C669.702 309.677 669.702 310.184 669.702 311.199C668.689 311.199 668.182 311.706 668.182 312.72C667.169 313.227 666.662 314.242 665.142 314.242C665.142 310.184 664.129 312.213 662.61 312.72C661.597 308.155 666.156 308.662 666.663 305.619C668.182 304.604 669.196 304.097 669.702 302.575C670.209 301.054 669.195 301.054 668.182 301.054V298.01C665.649 299.532 663.623 301.561 662.61 304.097C664.129 304.097 665.142 303.59 665.142 302.575H666.663V305.619C661.09 307.648 657.037 311.199 653.491 315.764C648.932 316.271 648.426 321.343 643.36 321.344V319.822H641.84C639.813 313.735 651.465 315.764 655.011 311.199C648.932 308.155 657.037 306.633 658.051 302.575C660.583 302.575 661.596 301.56 662.61 299.532C662.103 295.982 658.557 301.053 658.051 302.575H655.011V301.054C656.53 301.054 656.531 300.546 656.531 299.532C658.05 300.039 658.051 299.025 658.051 298.01C656.531 298.01 656.531 298.517 656.531 299.532C655.518 299.532 655.011 300.039 655.011 301.054C653.998 300.547 653.492 301.561 653.491 302.575H655.011C655.011 303.59 655.011 304.097 653.491 304.097C653.491 305.619 651.972 306.126 650.959 306.634V304.097C649.439 304.605 647.919 305.112 647.919 306.634H644.879C645.386 305.619 646.399 305.619 646.4 304.097C647.412 304.097 647.919 303.589 647.919 302.575C650.452 302.575 651.465 301.56 651.971 299.532C653.491 300.039 653.491 299.025 653.491 298.01C654.504 298.01 655.517 298.01 655.011 296.489H658.051V293.952C660.583 293.952 661.597 292.43 662.61 290.909C663.623 290.909 663.623 290.401 663.623 289.387C665.143 289.387 665.142 288.88 665.142 287.865C664.13 287.358 664.129 288.372 663.623 289.387C662.61 288.88 662.61 289.894 662.61 290.909C660.077 290.909 658.557 291.924 658.051 293.952C656.531 294.46 655.517 294.967 655.011 296.489C653.998 296.489 653.491 296.996 653.491 298.01C652.478 298.01 652.478 298.517 651.971 299.532C649.439 299.532 648.426 300.546 647.919 302.575C646.399 302.068 646.4 303.083 646.4 304.097H643.36C644.88 299.532 650.451 299.024 651.971 294.967C656.024 292.43 653.492 291.923 656.531 287.865C659.064 288.372 659.064 286.85 659.571 284.822H663.623C665.649 277.213 672.235 274.677 674.261 267.575C675.274 267.575 675.275 267.068 675.275 266.053C677.807 265.039 679.327 263.517 679.834 261.488C679.327 258.445 674.768 263.01 675.275 266.053C674.262 265.546 674.261 266.561 674.261 267.575C667.169 270.619 665.649 279.749 659.571 283.3C660.077 277.72 655.517 283.3 655.011 284.822C653.998 284.822 653.492 285.329 653.491 286.343H650.959C664.13 271.126 682.367 260.474 688.446 238.155C689.965 238.155 689.965 236.633 689.965 235.111C691.991 235.111 691.485 232.575 691.485 231.053C689.965 231.053 690.472 233.59 689.965 235.111C688.446 235.111 688.952 237.14 688.446 238.155C685.406 239.169 686.926 245.256 682.873 245.256C682.873 242.72 684.393 242.212 684.393 239.676H682.873C682.873 238.662 682.873 238.155 684.393 238.155C684.393 235.112 688.445 236.125 687.432 232.575C688.952 232.068 688.446 229.532 688.446 228.01C690.472 227.503 689.965 225.473 689.965 223.444C691.991 222.937 691.485 219.893 691.485 217.864C689.459 218.372 690.472 221.415 689.965 223.444C689.745 223.518 689.569 223.635 689.425 223.784C693.358 199.531 670.797 169.251 655.011 153.444C625.123 123.517 574.971 102.719 538.497 86.487C485.813 74.313 430.595 63.6613 373.351 70.2556C267.476 72.2847 187.942 122.502 121.073 173.734C91.1849 194.531 66.869 220.908 48.1255 252.865C49.1387 252.865 49.6453 253.88 48.1255 254.387C48.1253 256.923 46.6062 257.43 46.6061 259.966C45.5929 259.966 45.0861 258.445 43.5665 258.445C32.4217 285.836 19.7571 352.286 51.1651 372.576C51.6717 374.098 52.1786 375.112 54.2047 375.62C56.2307 375.112 53.6987 374.098 54.2047 372.576C56.738 381.706 70.9215 376.634 75.9873 385.764C79.5333 382.214 95.7446 387.286 99.2906 392.866C100.81 392.358 100.81 389.822 103.85 390.33C103.85 392.358 107.902 390.837 107.902 392.866C113.115 393.114 119.544 395.066 125.938 396.398L126.806 399.164C126.853 399.243 126.894 399.325 126.929 399.413C126.915 399.416 126.901 399.418 126.887 399.421L127.084 400.045C127.054 399.841 127.004 399.63 126.929 399.413C130.86 401.813 129.751 398.616 129.297 395.819C129.639 395.848 129.981 395.876 130.323 395.905C130.096 394.507 130.467 394.193 131.18 393.908C133.001 396.821 133.369 400.645 135.561 403.243C135.446 404.613 134.931 406.639 137.353 406.498C136.785 405.071 136.187 403.986 135.561 403.243C136.475 400.562 134.423 400.389 134.966 398.021C136.932 399.221 137.785 401.362 138.297 403.474C137.955 403.445 137.213 404.073 138.21 404.501C138.239 404.159 138.268 403.816 138.297 403.474C141.089 403.019 136.734 397.48 140.607 400.565C140.891 401.279 140.435 402.619 141.46 402.706C141.176 401.992 141.633 400.652 140.607 400.565C141.607 396.856 138.53 396.597 139.217 392.517C141.524 393.745 140.524 397.455 142.831 398.684C143.975 393.263 144.314 397.429 144.883 398.856C145.967 398.258 145.513 395.461 147.849 396.347C149.128 401.627 150.064 406.879 152.854 410.562C152.739 411.932 152.282 413.273 153.621 413.73C153.563 414.415 153.448 415.785 154.132 415.842C154.218 414.815 154.305 413.788 153.621 413.73C153.394 412.332 153.851 410.991 152.854 410.562C153.371 404.399 149.754 402.37 149.901 396.52C155.624 402.175 154.679 409.337 159.204 416.96C158.002 423.065 163.074 424.182 164.097 428.406C164.381 429.12 163.924 430.461 164.95 430.547C165.008 429.862 165.065 429.178 165.123 428.493C166.12 428.922 165.663 430.262 165.889 431.661C166.231 431.689 166.574 431.718 166.916 431.747C166.372 434.115 168.452 433.946 167.538 436.627C167.196 436.599 166.854 436.57 166.513 436.541C166.228 435.827 166.685 434.486 165.659 434.4C165.573 435.427 165.487 436.454 166.513 436.541C166.398 437.91 165.941 439.251 167.279 439.709C167.222 440.394 167.107 441.763 167.791 441.821C167.877 440.794 167.963 439.767 167.279 439.709C167.366 438.682 167.452 437.655 167.538 436.627C173.057 448.817 173.758 465.083 181.13 475.704C192.057 460.417 203.269 445.844 215.477 431.699C215.42 432.384 216.046 433.127 216.503 431.786C216.161 431.757 215.819 431.728 215.477 431.699C224.884 421.221 233.706 409.68 246.144 402.788L246.857 401.791C312.87 398.338 384.266 384.622 443.767 372.576C443.26 374.097 440.727 373.591 440.727 375.62C435.661 374.605 433.635 376.634 430.595 377.141C431.609 378.155 433.128 379.17 434.648 379.677C434.648 382.72 430.089 380.692 430.595 384.242C433.635 383.735 435.661 382.214 440.727 382.721C440.22 385.764 434.141 383.228 434.648 387.286C442.753 385.257 450.352 383.228 457.95 381.199C455.924 377.141 452.378 383.228 447.819 381.199C448.832 378.156 454.911 380.184 455.418 377.141C449.339 376.127 441.233 381.706 434.648 379.677C434.141 376.127 440.22 378.662 440.727 375.62C449.339 376.127 454.911 373.083 462.51 372.576C463.016 376.126 458.457 374.098 457.95 377.141C457.951 378.155 458.458 378.155 459.471 378.663C459.471 376.634 463.523 376.634 464.03 378.663H472.642C471.122 380.691 466.563 380.184 464.03 381.199C464.03 383.735 467.576 382.721 469.602 382.721C468.589 389.822 457.444 386.272 455.418 388.808C453.898 383.736 459.977 386.778 460.99 384.242C453.391 381.706 439.714 389.315 434.648 390.33H426.036V388.808C428.568 388.301 431.608 389.315 432.115 387.286C432.621 384.75 426.542 387.286 426.036 388.808H419.957C420.464 390.836 424.01 389.822 426.036 390.33C424.516 394.387 421.983 397.431 418.944 400.474C415.398 400.982 416.917 395.91 414.385 395.909C414.891 394.895 415.904 394.387 415.904 392.866C412.865 392.359 411.851 393.88 409.825 394.387C410.332 396.416 412.865 395.909 414.385 395.909C414.385 397.431 413.371 397.939 412.865 398.953C411.345 399.46 410.838 400.475 409.825 401.997C405.773 400.475 412.358 397.938 408.305 395.909C406.786 395.909 406.279 397.938 404.253 397.431C404.253 399.46 404.76 400.981 407.292 400.474C399.187 404.025 395.641 402.503 388.042 407.576C388.043 406.054 389.055 406.054 389.562 404.533C385.003 403.011 388.549 409.604 383.483 407.576C383.483 406.561 383.483 404.533 382.47 404.533C384.496 401.997 391.588 404.532 391.082 398.953C391.082 397.431 390.575 397.431 389.562 397.431C390.068 396.416 389.055 395.909 388.042 395.909C386.016 396.924 388.042 397.431 389.562 397.431C387.536 401.489 385.002 401.996 380.95 400.474C380.443 402.503 380.444 404.533 382.47 404.533C383.482 408.59 375.378 403.518 376.391 407.576C363.22 409.097 348.529 411.634 339.917 413.663C324.72 414.677 327.252 416.707 319.654 417.721C317.627 415.185 299.897 414.677 306.483 420.764H300.403C299.391 423.3 307.495 423.3 306.483 420.764C311.042 422.793 307.496 416.2 312.055 417.721C311.549 424.822 328.266 419.75 335.358 417.721C335.358 416.2 333.331 416.199 331.305 416.199C337.384 415.185 342.45 418.228 353.088 416.199C352.581 417.721 352.075 418.228 350.048 417.721C348.529 417.721 348.529 420.257 350.048 420.764C344.476 424.822 337.384 418.228 332.825 423.808C332.825 422.286 333.838 421.779 334.344 420.764C329.279 419.243 332.824 425.329 328.265 423.808C325.732 426.851 322.693 424.315 325.226 429.388C319.147 430.909 319.654 429.388 313.575 430.91C313.068 425.33 326.745 429.895 321.173 423.808H323.706C323.706 421.779 321.173 422.286 321.173 423.808H315.095C314.588 424.316 313.575 430.401 312.055 423.808C310.029 425.837 310.535 430.91 308.002 432.431C304.963 428.881 301.923 434.46 298.884 430.91C299.391 429.388 301.923 429.895 303.443 429.388C303.443 428.373 301.924 428.373 301.924 426.851C300.91 425.33 290.778 427.359 287.232 427.866C288.246 434.46 297.364 428.374 298.884 430.91C294.831 432.432 285.713 434.967 281.66 432.431C282.673 429.895 284.193 432.431 286.219 432.431C285.206 425.837 279.127 429.388 274.061 429.388C275.581 431.924 279.127 431.924 281.66 432.431C278.114 435.982 275.074 434.46 270.009 433.953C273.554 438.011 259.371 438.011 263.93 442.576C264.436 446.126 258.864 443.591 256.838 444.098V442.374C254.77 443.56 253.417 445.199 252.338 447.255C257.981 446.785 263.611 445.94 266.969 447.141C261.003 447.639 256.5 448.461 252.557 449.184C252.436 449.595 252.094 449.513 251.846 449.315C251.315 449.412 250.793 449.507 250.278 449.598C249.844 450.01 249.471 450.426 248.692 450.36C248.708 450.174 248.721 450.013 248.734 449.864C248.069 449.974 247.413 450.076 246.76 450.167C246.657 450.461 246.588 450.806 246.554 451.214C245.157 451.441 244.7 452.782 243.304 453.009C243.361 452.325 242.706 451.925 242.278 452.923C242.192 453.95 241.195 453.522 241.252 452.837C241.31 452.152 241.367 451.467 241.424 450.782C241.843 450.817 242.156 450.728 242.43 450.592C242.102 450.608 241.773 450.62 241.44 450.628C241.434 450.678 241.429 450.73 241.424 450.782C240.37 451.038 239.599 452.008 239.455 453.72C238.059 453.947 237.289 454.917 237.174 456.286C236.461 456.571 236.119 456.543 236.062 457.227C235.349 457.512 234.949 458.168 234.863 459.195C233.808 459.451 232.696 460.392 232.552 462.104C232.21 462.075 231.527 462.018 231.783 463.074C232.153 462.76 232.837 462.818 232.552 462.104C233.949 461.877 234.719 460.907 234.863 459.195C235.547 459.252 236.288 458.626 236.062 457.227C236.746 457.285 237.088 457.313 237.174 456.286C238.57 456.059 239.312 455.432 239.455 453.72C240.481 453.806 240.539 453.122 241.252 452.837C241.195 453.522 242.192 453.95 242.278 452.923C242.62 452.952 242.962 452.981 243.304 453.009C243.27 453.413 243.235 453.816 243.201 454.219C243.651 454.237 244.115 454.271 244.584 454.308C245.108 453.873 245.597 453.396 246.381 453.269C246.348 453.66 246.315 454.051 246.282 454.442C246.684 454.469 247.079 454.489 247.46 454.495C247.61 454.314 247.871 454.264 248.347 454.469C248.346 454.473 248.346 454.476 248.345 454.48C248.861 454.45 249.335 454.38 249.745 454.243C249.189 456.19 246.958 456.306 244.555 456.097C244.203 456.495 243.996 457.067 243.927 457.89C243.214 458.174 242.815 458.83 241.789 458.744C241.904 457.372 242.823 456.953 243.081 455.944C242.518 455.879 241.961 455.813 241.431 455.765C241.305 455.824 241.162 455.877 240.993 455.918C240.998 455.855 240.996 455.792 240.991 455.73C240.763 455.714 240.541 455.703 240.327 455.698C240.321 455.748 240.314 455.803 240.309 455.861C240.645 455.889 240.982 455.917 240.993 455.918C240.507 457.601 238.74 458.143 238.881 460.568C237.826 460.824 237.455 461.138 237.682 462.536C236.998 462.478 236.257 463.106 236.483 464.504C235.799 464.446 235.457 464.418 235.4 465.103C233.975 465.672 232.862 466.613 232.063 467.925C233.431 468.04 234.486 467.784 235.227 467.157C235.17 467.842 235.113 468.527 235.055 469.212C233.659 469.439 232.888 470.408 232.744 472.12C232.402 472.091 232.06 472.063 231.719 472.034C232.748 467.983 228.328 471.403 228.839 473.515C228.126 473.8 227.385 474.428 227.64 475.484C226.244 475.711 225.473 476.681 225.329 478.393C224.646 478.335 224.304 478.306 224.217 479.333C223.576 479.279 223.185 479.853 223.068 480.771L223.048 480.959L223.232 480.967C224.121 480.962 224.457 480.323 224.217 479.333C224.93 479.048 225.614 479.106 225.329 478.393C225.671 478.422 226.013 478.45 226.355 478.479C226.298 479.164 226.24 479.849 226.211 480.191C225.499 480.476 225.1 481.132 225.013 482.159C224.33 482.102 223.959 482.415 223.901 483.1C222.847 483.356 221.734 484.297 221.932 486.038C221.59 486.009 221.249 485.98 220.907 485.951C221.05 484.239 219.74 483.439 219.88 485.864C219.196 485.807 217.829 485.692 217.742 486.719C218.455 486.434 219.794 486.892 219.88 485.864C220.222 485.893 220.565 485.922 220.907 485.951C220.849 486.636 220.791 487.321 220.734 488.006C220.05 487.948 219.366 487.89 219.65 488.604C218.225 489.173 217.484 489.801 217.34 491.513C216.627 491.798 216.256 492.111 216.141 493.481C215.457 493.423 215.115 493.394 215.029 494.422C214.003 494.335 213.946 495.02 212.891 495.276C212.949 494.591 213.006 493.906 213.063 493.221C213.747 493.279 214.46 492.995 214.176 492.281C215.201 492.367 215.687 490.684 214.349 490.226C214.291 490.911 214.233 491.596 214.176 492.281C213.834 492.252 213.15 492.194 213.063 493.221C212.038 493.135 211.609 494.134 211.181 495.132C208.899 497.699 205.649 499.494 204.307 503.174C207.784 502.777 207.787 498.639 210.951 497.871C210.893 498.556 210.836 499.241 210.778 499.926C209.724 500.182 209.353 500.496 209.58 501.894C208.554 501.808 207.784 502.777 207.384 503.433C206.716 503.7 206.323 504.294 206.206 505.213L206.186 505.401L206.315 505.404C206.959 505.377 207.597 504.744 207.384 503.433C208.068 503.491 208.752 503.548 209.436 503.606C206.697 507.513 204.613 511.821 200.65 513.901C200.708 513.216 200.766 512.531 200.823 511.846C201.878 511.59 202.961 510.991 203.105 509.28C203.447 509.308 204.16 509.023 203.875 508.31C203.533 508.281 202.849 508.224 203.105 509.28C201.708 509.507 200.967 510.134 200.823 511.846C199.797 511.759 199.369 512.758 198.685 512.7C198.771 511.673 198.544 510.275 196.777 510.815C197.944 513.327 192.757 513.581 195.435 514.496C196.831 514.269 197.288 512.928 198.685 512.7C198.627 513.385 198.57 514.07 198.512 514.755C197.8 515.04 197.429 515.354 197.314 516.723C196.63 516.666 196.288 516.637 196.202 517.664C195.147 517.92 194.064 518.518 194.262 520.259C192.837 520.829 192.095 521.456 191.951 523.168C190.555 523.395 189.784 524.365 189.64 526.077C188.956 526.02 188.557 526.676 188.471 527.703C187.046 528.272 186.304 528.899 186.16 530.611C185.105 530.867 183.994 531.809 184.192 533.549C183.166 533.463 182.766 534.119 183.022 535.174C181.596 535.744 180.855 536.372 180.711 538.084C179.998 538.369 179.599 539.025 178.573 538.938C178.519 535.485 181.967 535.431 182.226 532.349C180.83 532.576 180.372 533.917 178.975 534.144C177.496 531.261 174.358 535.824 172.932 536.394C173.047 535.024 173.163 533.655 173.249 532.627C173.591 532.656 173.933 532.685 174.275 532.714C174.246 533.056 174.872 533.798 175.3 532.8C174.959 532.771 174.617 532.743 174.275 532.714C174.019 531.658 174.447 530.659 173.421 530.573C173.364 531.257 173.307 531.942 173.249 532.627C170.056 533.738 168.116 536.333 163.955 536.672C161.99 535.472 161.136 533.331 158.4 533.101C158.573 531.046 157.633 529.932 155.553 530.102C155.725 528.048 155.041 527.99 153.587 528.902C152.961 528.16 153.476 526.134 152.137 525.677C151.564 528.387 149.797 528.928 148.628 530.553C148.088 528.784 150.142 524.819 148.12 524.303C146.723 524.53 147.519 527.356 145.809 527.213C145.128 523.017 148.177 523.618 148.436 520.537C149.148 520.252 149.548 519.596 149.634 518.569C148.922 518.854 148.522 519.51 148.436 520.537C147.752 520.479 147.324 521.478 146.298 521.391C153.661 507.528 136.579 485.4 138.219 465.882C134.458 465.565 135.286 463.911 137.424 463.057C132.352 461.94 135.806 453.61 132.358 453.664C132.943 451.473 132.959 448.88 132.593 446.035C120.061 443.696 107.878 438.065 96.251 432.431C100.304 431.417 100.304 434.46 103.85 433.953C102.33 429.895 96.251 430.909 93.2114 427.866C92.7052 431.416 96.251 430.402 96.251 432.431C86.1194 431.417 80.0401 425.33 71.4282 422.286C67.8822 418.736 63.3228 416.199 58.2571 413.663C58.257 411.634 56.7372 411.127 55.2175 410.619C51.6715 408.59 49.1389 405.04 46.6061 409.098C41.5403 405.547 45.5923 401.996 39.5134 400.474V403.518C33.9413 401.996 33.4344 395.909 29.3819 392.866C22.7963 381.199 6.07909 372.575 10.1315 354.822C-4.55892 336.561 3.03938 306.126 0 284.822C2.53276 285.836 1.01386 289.386 4.55974 286.343C4.05284 283.807 -2.02587 279.242 3.0396 276.198C2.53314 277.72 3.04007 278.735 4.55974 279.242C5.57319 278.227 9.62474 271.633 4.55974 273.155C4.5597 270.619 4.05258 268.59 3.0396 267.575C8.10523 268.59 5.06626 261.488 6.0792 258.445C10.1318 259.459 10.6383 248.807 8.61209 248.3C12.6647 246.271 13.1718 244.242 17.7309 239.676V236.633C15.7047 237.14 15.1978 238.155 14.6913 239.676C10.6388 237.14 17.2234 233.082 16.2107 228.01C21.2765 229.024 18.2373 222.43 21.7832 221.923V226.488C20.2636 226.488 20.7702 228.517 20.2638 229.531C21.7831 229.531 21.7832 227.502 21.7832 226.488C23.303 225.981 22.7965 223.444 24.8228 223.444C24.8226 221.923 22.7964 222.43 21.7832 221.923C23.303 216.85 27.3557 214.821 27.8624 208.734C29.3818 208.734 28.8756 207.213 29.3819 206.198C30.395 206.198 30.3955 205.69 30.902 204.676C32.4215 204.169 33.4348 202.647 33.4349 200.111C35.9676 199.096 37.9939 198.082 37.994 194.531C39.007 194.531 39.5133 194.024 39.5134 193.01C42.0463 190.981 45.0857 189.966 45.0859 185.401C46.6053 185.908 46.6061 184.894 46.6061 184.386C48.1251 184.386 48.1255 183.372 48.1255 182.865C50.1518 181.343 52.6845 180.328 52.6846 176.778C55.2173 177.285 55.2175 175.763 55.2175 173.734C56.7369 174.241 56.7376 173.227 56.7376 172.213C55.7244 172.213 55.724 173.227 55.2175 173.734C54.2043 174.748 52.6846 175.256 52.6846 176.778C50.6583 178.299 48.1255 178.807 48.1255 182.865C47.1124 182.358 46.6061 183.372 46.6061 184.386C45.5929 183.879 45.0859 184.894 45.0859 185.401C42.5531 187.43 39.5134 188.445 39.5134 193.01C37.994 192.503 37.994 193.517 37.994 194.531C35.9677 195.546 33.435 196.56 33.4349 200.111C31.9152 200.618 30.3956 202.14 30.902 204.676C29.3823 204.169 29.3819 205.184 29.3819 206.198C27.8622 206.198 27.8624 207.72 27.8624 208.734C25.8362 209.749 25.329 211.778 23.3027 211.778C25.329 205.691 29.8884 201.633 31.9148 196.053C36.4739 192.503 39.5136 187.43 42.553 182.865C33.9413 182.865 37.994 187.43 33.4349 193.01C32.4218 192.502 31.915 191.488 30.902 191.488C33.4347 187.937 33.9414 181.85 39.5134 181.343C39.0069 179.314 39.0066 177.792 36.4738 178.299C39.5133 177.285 39.5138 172.72 43.5665 172.213V173.734C45.5925 173.734 44.5795 172.213 43.5665 172.213C44.073 170.691 45.5924 170.69 45.0859 168.154C46.6055 168.154 46.6061 167.647 46.6061 166.633C48.1253 167.14 48.1255 166.125 48.1255 165.111C52.178 165.618 55.7239 158.517 54.2047 158.009C56.2312 153.952 64.336 155.473 64.3363 146.343C65.3493 146.343 65.3493 145.835 65.8557 144.821C66.8689 140.763 74.4672 143.806 74.4678 138.734H77.5074V140.256H75.9873C75.9875 141.777 77.5071 141.27 77.5074 140.256C78.5202 140.763 78.5206 139.748 79.0269 138.734C80.5465 139.241 81.5596 138.734 81.5598 137.212C83.0794 136.705 84.0928 136.197 84.5994 134.676H81.5598V133.154C80.0405 133.155 81.0531 134.675 81.5598 134.676V137.212H79.0269C78.5202 133.661 73.9612 137.213 74.4678 138.734C71.9349 134.169 81.5602 128.589 86.1195 125.546V127.067C87.6387 127.067 87.1324 125.546 86.1195 125.546C86.6261 122.502 90.1717 123.009 90.6786 119.966H93.2114C95.2377 114.386 102.836 114.386 104.862 109.821C106.382 109.821 106.889 110.835 107.902 111.343V113.879C109.928 113.879 109.422 111.343 107.902 111.343V108.299C113.474 106.777 116.514 100.69 122.593 103.734V105.255C121.58 104.748 121.073 105.763 121.073 106.777H119.554C120.06 108.298 121.073 107.285 121.073 106.777C122.593 106.777 122.593 106.27 122.593 105.255H125.633C125.126 106.27 124.113 106.777 124.113 108.299C126.646 108.299 127.659 107.284 128.166 105.255H131.205V106.777C133.231 106.777 133.738 106.27 134.244 105.255C135.257 105.762 135.764 104.748 135.764 103.734C134.245 103.734 134.244 104.241 134.244 105.255H131.205C131.205 103.734 132.725 103.733 132.725 102.212H135.764C135.765 101.198 137.284 100.69 137.284 99.1688C146.909 100.691 150.455 94.0959 156.028 87.5018C158.054 88.0089 158.561 87.5013 159.067 86.487C181.863 79.3855 196.555 64.6755 220.364 58.5886C219.351 62.139 215.298 62.6466 214.285 65.6899C222.896 63.1536 232.015 55.0383 239.107 57.0671C239.106 58.5881 236.574 58.0816 236.574 60.11C231.508 60.1101 228.469 62.1394 225.936 64.1684H223.403C223.403 66.1968 225.935 65.6898 225.936 64.1684C231.001 64.1684 234.041 62.139 236.574 60.11C240.12 60.11 242.653 59.0959 243.667 57.0671C248.732 58.0812 257.344 49.4582 258.357 55.545C261.903 56.0522 257.344 48.9509 262.41 50.9799C258.358 55.5448 266.462 54.0232 266.969 50.9799C268.995 51.4873 268.488 55.0379 265.449 54.0235C267.475 58.5881 272.541 53.516 274.061 52.5014C273.555 50.9797 272.541 49.4581 270.009 49.9651C280.647 47.4289 283.18 45.9072 293.311 42.3565C293.311 45.3996 288.246 43.3712 288.752 46.9215C291.792 46.9214 292.298 45.4001 294.831 45.4001C297.364 44.8929 294.325 43.371 294.831 40.835C298.884 37.7916 305.469 37.2841 310.535 35.2552C308.509 31.7044 302.43 37.2839 297.871 36.7767C297.871 34.748 300.403 35.2545 300.403 33.7331C304.963 32.2114 311.042 32.2114 313.575 29.168C316.107 29.168 319.147 29.6751 319.654 27.6465C320.16 23.0814 315.095 31.7036 315.095 26.1244C321.174 19.0233 328.266 21.0523 338.397 17.5017C328.772 13.4437 318.64 22.0667 308.002 22.0667C308.002 20.0378 310.535 20.5445 310.535 19.0231C326.239 14.9651 338.904 6.84896 359.167 10.3997C354.101 13.4431 344.476 12.4288 339.917 15.9795C357.647 13.4432 378.417 10.9069 402.733 10.3997C401.213 12.4286 399.187 13.4433 395.641 13.4433C401.72 18.5156 407.292 10.9071 418.944 13.4433C416.917 10.9071 413.878 10.3997 409.825 10.3997C413.371 5.83446 419.45 11.4142 424.516 10.3997C426.036 4.82034 416.918 9.38493 415.904 5.83463C403.747 4.31292 431.608 3.80565 434.648 5.83463C436.674 5.32741 437.181 3.29837 439.207 2.79103C438.7 0.762276 435.661 1.77688 433.128 1.77695ZM181.718 526.099C181.05 526.366 180.657 526.959 180.539 527.879L180.519 528.067L180.644 528.07C181.252 528.04 181.61 527.383 181.718 526.099ZM206.656 487.509C205.573 488.108 204.489 488.706 204.687 490.447C203.291 490.674 202.52 491.644 202.376 493.356C200.98 493.583 200.238 494.211 200.095 495.923C201.491 495.695 202.232 495.068 202.376 493.356C203.431 493.1 204.543 492.159 204.687 490.447C205.742 490.191 206.512 489.221 206.656 487.509ZM211.699 488.969C210.274 489.538 209.532 490.165 209.388 491.877C210.443 491.621 211.555 490.681 211.699 488.969ZM211.076 484.089C210.338 480.578 208.938 484.943 207.912 484.856C208.679 488.025 210.05 484.002 211.076 484.089ZM217.062 482.523C215.665 482.751 214.895 483.721 214.751 485.433C216.148 485.206 216.918 484.236 217.062 482.523ZM187.481 482.101C186.084 482.329 185.314 483.298 185.17 485.01C186.595 484.44 187.337 483.813 187.481 482.101ZM195.24 471.72C194.07 473.345 192.303 473.887 191.731 476.597C190.676 476.853 189.593 477.451 189.45 479.163C190.846 478.936 191.587 478.309 191.731 476.597C193.527 475.714 195.323 474.83 195.24 471.72ZM222.939 474.053C221.514 474.622 220.715 475.935 220.542 477.989C220.884 478.018 221.226 478.047 221.568 478.076C222.025 476.735 223.108 476.136 222.939 474.053ZM206.953 471.672C205.87 472.27 205.128 472.898 204.985 474.61C206.039 474.354 207.151 473.413 206.953 471.672ZM229.414 466.667C228.73 466.61 228.017 466.895 228.302 467.608C227.618 467.551 226.934 467.493 227.189 468.549C225.822 468.434 226.02 470.175 224.965 470.431C225.419 473.227 228.043 470.689 227.189 468.549C227.873 468.606 228.215 468.635 228.302 467.608C228.986 467.666 229.328 467.694 229.414 466.667ZM193.419 468.808C192.393 468.721 192.648 469.778 192.249 470.434C193.275 470.52 193.019 469.464 193.419 468.808ZM200.603 465.275C200.261 465.246 199.578 465.189 199.491 466.216C198.437 466.472 197.666 467.442 197.522 469.154C198.606 468.555 199.689 467.957 199.491 466.216C200.175 466.273 200.859 466.331 200.603 465.275ZM199.296 460.337C197.928 460.222 198.126 461.962 197.101 461.876C197.212 464.644 200.149 462.478 199.296 460.337ZM207.506 456.891C206.865 456.837 206.199 457.084 206.352 457.703L206.394 457.832L206.537 457.842C206.898 457.858 207.43 457.789 207.506 456.891ZM203.489 455.518C202.848 455.464 202.482 455.736 202.391 456.335L202.377 456.459L202.632 456.478C203.217 456.513 203.713 456.442 203.489 455.518ZM211.843 450.359C210.817 450.273 211.044 451.671 210.645 452.328C211.671 452.414 211.444 451.015 211.843 450.359ZM244.506 450.438C244.251 450.463 243.994 450.485 243.737 450.506C243.96 450.814 244.333 450.931 244.506 450.438ZM211.22 445.479C210.165 445.735 209.082 446.334 208.938 448.045C210.335 447.818 211.076 447.191 211.22 445.479ZM246.381 444.267C245.57 444.864 244.928 445.968 244.818 447.275C244.456 447.244 244.191 447.223 244.008 447.361C244.291 447.391 244.577 447.417 244.867 447.438C244.856 447.389 244.842 447.334 244.818 447.275C245.16 447.304 245.503 447.333 245.845 447.361C245.841 447.4 245.847 447.444 245.86 447.49C246.183 447.501 246.51 447.508 246.84 447.511C246.85 447.49 246.861 447.469 246.87 447.447C247.212 447.476 247.982 446.507 246.957 446.42C247.072 445.051 248.753 445.537 249.181 444.539C249.403 444.557 249.766 444.586 250.019 444.327C249.727 444.34 249.43 444.348 249.129 444.351C249.139 444.41 249.155 444.472 249.181 444.539C249.124 444.471 249.064 444.409 249.005 444.351C248.157 444.355 247.276 444.32 246.381 444.267ZM253.149 443.83C252.777 443.949 252.383 444.044 251.971 444.119C251.953 444.336 251.934 444.552 251.916 444.769C251.233 444.712 251.203 445.054 250.804 445.71C250.022 445.9 249.397 446.483 249.067 447.469C249.53 447.45 249.995 447.424 250.462 447.394C250.741 446.98 250.888 446.448 250.804 445.71C251.488 445.767 252.172 445.825 251.916 444.769C252.64 444.594 253.041 444.391 253.149 443.83ZM131.631 440.967C130.117 440.833 128.742 441.231 128.166 442.576C129.877 442.576 130.999 443.165 132.213 443.662C132.047 442.781 131.851 441.881 131.631 440.967ZM214.643 441.63C214.002 441.576 213.36 441.522 213.493 442.385L213.531 442.571L213.771 442.588C214.296 442.618 214.567 442.528 214.643 441.63ZM255.056 441.242C254.471 441.202 253.979 441.236 254.227 441.86C253.639 442.095 253.304 442.117 253.172 442.502C253.518 442.527 253.868 442.545 254.22 442.557C254.295 442.411 254.307 442.189 254.227 441.86C254.911 441.918 255.253 441.947 255.311 441.262L255.056 441.242ZM250.877 438.986C250.552 439.213 250.39 439.75 250.488 440.605L250.523 440.859L251.207 440.916C251.184 441.195 251.141 441.701 251.095 442.249C251.427 442.31 251.768 442.36 252.115 442.402C252.163 441.829 252.209 441.293 252.233 441.003C252.946 440.718 253.63 440.775 253.345 440.062C253.9 439.84 254.35 439.608 254.703 439.308C254.245 439.39 253.813 439.41 253.401 439.393C253.382 439.616 253.364 439.839 253.345 440.062C252.69 439.662 252.29 440.318 252.233 441.003C251.891 440.974 251.549 440.945 251.207 440.916C251.259 440.305 251.309 439.694 251.361 439.082C251.198 439.049 251.037 439.016 250.877 438.986ZM245.151 439.464C244.486 439.618 243.994 439.891 243.667 440.381V441.055C243.563 441.055 243.464 441.043 243.371 441.022C243.291 441.28 243.234 441.576 243.203 441.917C243.375 441.676 243.532 441.392 243.667 441.055C244.679 441.561 245.186 440.547 245.186 440.04C245.186 439.817 245.173 439.627 245.151 439.464ZM112.462 435.475C111.449 438.518 114.488 438.011 116.514 438.518V436.996C115.501 436.996 115.501 436.489 115.501 435.475H112.462ZM222.192 432.27C221.587 432.259 221.258 432.575 221.204 433.217C219.808 433.444 219.037 434.413 218.893 436.125C220.29 435.898 221.06 434.929 221.204 433.217C221.888 433.274 222.572 433.332 222.316 432.276L222.192 432.27ZM308.002 425.33C305.976 425.33 303.95 424.823 303.443 426.851C306.482 426.344 306.483 428.88 308.002 429.388V425.33ZM89.1584 426.851C89.1584 423.301 87.6388 421.779 84.5994 422.286C85.6125 424.315 87.1323 425.837 89.1584 426.851ZM288.752 422.286C285.713 422.794 282.673 425.329 280.14 422.286C278.115 426.851 290.778 426.851 288.752 422.286ZM293.311 417.721C292.298 415.185 289.765 417.214 290.272 419.243C291.792 419.243 291.792 417.721 293.311 417.721V419.243C295.844 419.243 296.857 420.257 297.871 422.286C298.377 419.75 301.923 419.75 303.443 417.721H293.311ZM116.514 410.619C115.501 411.126 113.981 410.62 113.981 412.141C114.994 411.634 116.514 412.141 116.514 410.619ZM133.96 410.006C132.934 409.919 133.16 411.317 132.761 411.973C133.787 412.059 133.56 410.662 133.96 410.006ZM344.476 409.098C342.956 409.605 341.436 409.098 341.436 410.619C342.449 410.112 344.476 410.619 344.476 409.098ZM140.089 406.729C139.945 408.441 140.201 409.496 140.799 410.581C143.221 410.44 141.115 406.815 140.089 406.729ZM131.457 402.898C131.115 402.869 130.773 402.84 130.431 402.812C130.287 404.524 130.514 405.922 131.141 406.665C134.247 406.581 130.63 404.553 131.457 402.898C132.483 402.984 132.969 401.301 131.63 400.843C131.572 401.528 131.515 402.213 131.457 402.898ZM369.299 404.533C367.272 405.04 365.246 404.533 364.74 406.054C366.259 406.054 368.792 406.561 369.299 404.533ZM128.635 403.695C128.49 403.682 128.355 403.683 128.23 403.695L128.532 404.658C128.639 404.423 128.683 404.113 128.635 403.695ZM104.862 397.431C103.849 397.938 102.33 397.431 102.33 398.953C103.343 398.446 104.862 398.952 104.862 397.431ZM91.6913 395.909C90.6782 396.416 89.1585 395.909 89.1584 397.431C90.1715 396.924 91.691 397.431 91.6913 395.909ZM392.601 390.33C389.562 390.837 386.016 390.837 386.522 394.387C390.068 394.894 391.082 392.359 392.601 390.33ZM351.569 392.866C350.049 393.373 347.516 392.866 347.009 394.387C349.035 394.387 351.568 394.894 351.569 392.866ZM396.654 388.808C396.655 391.344 398.174 392.359 399.693 392.866C399.187 390.837 401.213 390.329 401.214 388.808H396.654ZM418.944 388.808C416.918 389.823 414.891 390.837 411.345 390.33C411.346 392.358 420.969 392.865 418.944 388.808ZM376.391 387.286C375.884 389.315 372.338 387.793 371.832 390.33C373.351 390.33 373.352 391.851 374.871 391.344C374.871 390.33 381.456 388.808 376.391 387.286ZM366.259 390.33C365.246 390.33 363.22 390.33 363.22 391.344C364.233 391.344 366.259 391.344 366.259 390.33ZM370.818 390.33C369.299 390.33 367.779 390.33 367.779 391.344C368.792 391.344 370.311 391.344 370.818 390.33ZM415.904 387.286C414.891 387.793 412.865 387.286 412.865 388.808C413.878 388.301 415.904 388.807 415.904 387.286ZM429.075 377.141C426.542 376.634 426.036 378.156 426.036 379.677H424.516C424.009 383.228 419.957 383.228 418.944 385.764C422.996 386.779 421.477 386.779 426.036 385.764V379.677H429.075V377.141ZM398.174 384.242C396.654 384.75 394.121 384.243 394.121 385.764C395.641 385.764 398.174 385.764 398.174 384.242ZM402.733 385.764H405.773V382.721H402.733V385.764ZM676.794 277.72C676.794 280.763 673.248 279.75 674.261 283.3C672.742 283.3 672.742 283.807 672.742 284.822C671.222 284.822 671.222 285.329 671.222 286.343C669.702 286.343 669.702 286.851 669.702 287.865C668.689 287.358 668.182 288.372 668.182 289.387C667.169 288.88 666.663 289.894 666.663 290.909C668.182 290.909 668.182 290.401 668.182 289.387C669.702 289.387 669.702 288.88 669.702 287.865C670.715 288.372 671.222 287.357 671.222 286.343C672.235 286.85 672.742 285.836 672.742 284.822C673.754 285.328 673.755 284.314 674.261 283.3C675.781 282.793 680.847 278.735 676.794 277.72ZM675.275 284.822C675.275 286.85 673.248 287.358 672.742 289.387C677.807 290.401 680.34 285.836 675.275 284.822ZM662.61 156.488C662.61 154.966 660.077 154.459 659.571 156.488C661.09 156.488 661.597 158.516 662.61 156.488ZM75.9873 153.444C74.4679 153.444 74.4678 153.951 74.4678 154.966C75.4809 154.966 75.9872 154.459 75.9873 153.444ZM99.2906 141.777C98.2774 142.284 96.251 141.778 96.251 143.299C97.2642 142.792 99.2904 143.299 99.2906 141.777ZM83.0799 140.256C82.0668 140.256 81.5598 140.763 81.5598 141.777C83.0793 142.284 83.0799 141.27 83.0799 140.256ZM91.6913 133.154C90.6783 132.647 90.6786 133.661 90.6786 134.676C91.6913 134.676 91.6913 133.662 91.6913 133.154ZM137.284 119.966C135.764 119.459 135.764 120.473 135.764 121.487C136.777 121.487 137.284 120.98 137.284 119.966ZM116.514 113.879C113.981 113.879 107.903 116.922 112.462 118.444C112.462 115.401 117.02 117.429 116.514 113.879ZM151.975 111.343C149.949 110.835 148.936 111.343 148.936 112.357C150.455 112.864 151.469 112.357 151.975 111.343ZM170.718 99.1688C168.186 99.1689 167.172 100.69 166.159 102.212C168.692 102.212 170.211 101.197 170.718 99.1688ZM201.113 83.4434C200.1 83.4434 198.581 83.4438 198.581 84.9655C199.594 84.4584 201.113 84.9648 201.113 83.4434ZM179.33 78.8783C177.811 80.9071 178.824 81.4148 179.33 83.4434C181.356 83.4434 181.863 82.9363 182.37 81.9219C180.85 81.4147 181.357 78.8783 179.33 78.8783ZM208.712 78.8783C206.179 78.8783 205.166 79.893 204.153 81.9219C206.686 81.9219 208.206 80.9071 208.712 78.8783ZM192.501 73.2985C189.969 72.7914 188.956 74.3131 188.449 75.8347C190.982 76.3418 191.995 74.8202 192.501 73.2985ZM218.844 65.6899C218.337 67.2113 215.804 66.7046 215.804 68.7335C214.284 68.7335 213.271 69.2411 213.271 70.2556C211.245 69.7484 210.232 70.7626 210.232 71.7771C208.206 71.2699 207.699 71.7771 207.193 73.2985C208.712 73.2984 209.725 72.7913 210.232 71.7771C211.751 71.7771 212.765 71.2697 213.271 70.2556C214.791 70.2556 215.804 69.7478 215.804 68.7335C218.844 70.2551 222.896 66.1971 218.844 65.6899ZM213.271 65.6899C209.725 65.1827 207.699 66.1973 207.193 68.7335C210.738 69.2406 212.765 68.2258 213.271 65.6899ZM245.186 62.6463C244.173 63.1534 242.146 63.1539 242.146 64.1684C243.159 64.1684 245.186 64.1677 245.186 62.6463ZM401.214 62.6463C400.2 63.1534 398.174 63.1539 398.174 64.1684C399.694 64.1684 401.213 64.1677 401.214 62.6463ZM419.957 58.5886C417.931 59.0957 412.865 56.5597 412.865 60.11C414.891 59.0956 420.463 61.6316 419.957 58.5886ZM399.693 58.5886C398.68 59.0956 396.655 58.5887 396.654 60.11C398.174 59.603 399.693 60.1098 399.693 58.5886ZM485.813 55.545C484.8 56.0522 482.773 55.5454 482.773 57.0671C484.293 56.5599 485.813 57.0664 485.813 55.545ZM301.924 40.835C300.91 41.3422 299.391 40.8349 298.884 42.3565C300.403 42.3565 301.923 42.3562 301.924 40.835ZM318.134 32.2116C316.614 32.2116 314.081 32.2116 313.575 33.7331C315.601 33.2259 317.627 33.7329 318.134 32.2116ZM322.693 30.6901C321.174 31.1973 319.654 30.6899 319.654 32.2116C320.667 31.7045 322.187 32.2113 322.693 30.6901Z" fill="#EF3537"/>
<path d="M176.607 537.738C176.809 535.341 177.266 534 178.975 534.144C178.832 535.856 178.033 537.168 176.607 537.738Z" fill="#EF3537"/>
<path d="M184.047 535.261C183.932 536.631 183.533 537.287 182.849 537.229C182.907 536.544 182.964 535.859 183.022 535.174C183.364 535.203 183.705 535.232 184.047 535.261Z" fill="#EF3537"/>
<path d="M185.988 532.666C185.844 534.378 185.102 535.005 184.047 535.261C184.105 534.576 184.134 534.234 184.192 533.549C184.875 533.607 185.304 532.609 185.988 532.666Z" fill="#EF3537"/>
<path d="M188.298 529.757C188.154 531.469 187.384 532.439 185.988 532.666C186.045 531.981 186.102 531.296 186.16 530.611C187.186 530.698 187.585 530.042 188.298 529.757Z" fill="#EF3537"/>
<path d="M155.553 530.102C156.064 532.214 153.642 532.355 153.415 530.956C154.441 531.043 154.869 530.045 155.553 530.102Z" fill="#EF3537"/>
<path d="M153.587 528.902C153.53 529.587 153.473 530.272 153.415 530.956C152.418 530.528 152.562 528.816 153.587 528.902Z" fill="#EF3537"/>
<path d="M189.497 527.789C189.381 529.158 188.982 529.815 188.298 529.757C188.355 529.072 188.413 528.388 188.471 527.703C188.813 527.732 189.155 527.76 189.497 527.789Z" fill="#EF3537"/>
<path d="M191.779 525.223C191.635 526.935 190.893 527.562 189.497 527.789C189.554 527.104 189.583 526.762 189.64 526.077C190.666 526.163 190.753 525.136 191.779 525.223Z" fill="#EF3537"/>
<path d="M194.089 522.313C193.945 524.025 192.833 524.966 191.779 525.223C191.836 524.538 191.894 523.853 191.951 523.168C192.977 523.254 193.034 522.569 194.089 522.313Z" fill="#EF3537"/>
<path d="M196.058 519.376C195.914 521.088 195.144 522.057 194.089 522.313C194.146 521.629 194.204 520.944 194.262 520.259C194.946 520.317 195.345 519.661 196.058 519.376Z" fill="#EF3537"/>
<path d="M198.34 516.809C198.196 518.521 197.455 519.149 196.058 519.376C196.087 519.034 196.144 518.348 196.202 517.664C196.886 517.721 197.598 517.437 197.314 516.723C197.656 516.752 197.998 516.78 198.34 516.809Z" fill="#EF3537"/>
<path d="M200.65 513.901C200.507 515.612 199.737 516.582 198.34 516.809C198.398 516.124 198.455 515.44 198.512 514.755C199.538 514.841 199.596 514.157 200.65 513.901Z" fill="#EF3537"/>
<path d="M210.606 501.981C210.519 503.008 210.12 503.663 209.436 503.606C209.465 503.263 209.522 502.579 209.58 501.894C209.922 501.923 210.264 501.952 210.606 501.981Z" fill="#EF3537"/>
<path d="M212.574 499.043C212.773 500.784 211.66 501.725 210.606 501.981C210.663 501.296 210.721 500.611 210.778 499.926C211.804 500.012 211.862 499.327 212.574 499.043Z" fill="#EF3537"/>
<path d="M214.885 496.134C214.741 497.846 213.971 498.815 212.574 499.043C212.632 498.358 212.69 497.673 212.747 496.988C213.773 497.074 214.173 496.419 214.885 496.134Z" fill="#EF3537"/>
<path d="M212.891 495.276C212.834 495.961 212.805 496.303 212.747 496.988C212.035 497.273 211.977 497.957 210.951 497.871C211.037 496.844 211.123 495.817 211.181 495.132C211.865 495.19 212.549 495.247 212.891 495.276Z" fill="#EF3537"/>
<path d="M217.167 493.567C217.023 495.279 216.282 495.907 214.885 496.134C214.914 495.792 214.971 495.106 215.029 494.422C215.713 494.479 216.426 494.194 216.141 493.481C216.483 493.509 216.825 493.538 217.167 493.567Z" fill="#EF3537"/>
<path d="M219.478 490.659C219.334 492.371 218.563 493.34 217.167 493.567C217.224 492.882 217.282 492.198 217.34 491.513C218.366 491.599 218.423 490.915 219.478 490.659Z" fill="#EF3537"/>
<path d="M221.76 488.092C221.645 489.461 220.532 490.403 219.478 490.659C219.535 489.974 219.593 489.289 219.65 488.604C220.334 488.661 220.676 488.69 220.734 488.006C221.076 488.035 221.418 488.063 221.76 488.092Z" fill="#EF3537"/>
<path d="M223.728 485.154C223.584 486.866 222.843 487.493 221.76 488.092C221.818 487.407 221.875 486.722 221.932 486.038C222.616 486.095 223.044 485.097 223.728 485.154Z" fill="#EF3537"/>
<path d="M226.039 482.245C225.895 483.957 225.125 484.927 223.728 485.154C223.786 484.47 223.844 483.785 223.901 483.1C224.585 483.157 225.269 483.215 225.013 482.159C225.355 482.188 225.697 482.216 226.039 482.245Z" fill="#EF3537"/>
<path d="M228.321 479.679C228.177 481.391 227.436 482.018 226.039 482.245C226.097 481.561 226.154 480.876 226.211 480.191C227.209 480.62 227.295 479.593 228.321 479.679Z" fill="#EF3537"/>
<path d="M230.632 476.77C230.488 478.482 229.404 479.081 228.321 479.679C228.378 478.994 228.436 478.309 228.494 477.624C229.519 477.711 229.577 477.026 230.632 476.77Z" fill="#EF3537"/>
<path d="M226.355 478.479C226.413 477.794 226.47 477.11 227.467 477.538C227.41 478.223 227.039 478.536 226.355 478.479Z" fill="#EF3537"/>
<path d="M228.666 475.57C228.609 476.255 228.551 476.94 228.494 477.624C228.152 477.595 227.809 477.567 227.467 477.538C227.525 476.853 227.583 476.168 227.64 475.484C227.982 475.512 228.324 475.541 228.666 475.57Z" fill="#EF3537"/>
<path d="M231.488 474.773C231.715 476.171 231.344 476.485 230.632 476.77C230.689 476.085 230.746 475.4 230.804 474.716C231.146 474.744 231.146 474.744 231.488 474.773Z" fill="#EF3537"/>
<path d="M231.574 473.746C230.89 473.688 230.861 474.031 230.804 474.716C229.778 474.629 229.35 475.628 228.666 475.57C228.724 474.885 228.781 474.2 228.839 473.515C230.207 473.63 230.664 472.29 231.719 472.034C231.661 472.719 231.632 473.061 231.574 473.746Z" fill="#EF3537"/>
<path d="M232.601 473.833C232.856 474.888 232.172 474.831 231.488 474.773C231.517 474.431 231.545 474.088 231.574 473.746C231.916 473.775 232.259 473.804 232.601 473.833Z" fill="#EF3537"/>
<path d="M233.77 472.207C234.026 473.263 233.626 473.919 232.601 473.833C232.658 473.148 232.687 472.805 232.744 472.12C233.086 472.149 233.428 472.178 233.77 472.207Z" fill="#EF3537"/>
<path d="M233.77 472.207C233.827 471.522 234.227 470.866 234.882 471.266C235.167 471.979 234.483 471.922 233.77 472.207Z" fill="#EF3537"/>
<path d="M236.081 469.298C235.994 470.325 235.595 470.981 234.882 471.266C234.94 470.581 234.998 469.896 235.055 469.212C235.397 469.24 235.739 469.269 236.081 469.298Z" fill="#EF3537"/>
<path d="M236.081 469.298C236.138 468.613 236.167 468.271 237.193 468.357C237.107 469.384 236.765 469.356 236.081 469.298Z" fill="#EF3537"/>
<path d="M238.392 466.389C238.277 467.758 237.906 468.072 237.193 468.357C237.251 467.672 237.308 466.987 237.365 466.302C237.707 466.331 238.05 466.36 238.392 466.389Z" fill="#EF3537"/>
<path d="M237.509 464.591C237.48 464.933 237.423 465.618 237.365 466.302C236.311 466.558 236.253 467.243 235.227 467.157C235.285 466.472 235.342 465.787 235.4 465.103C236.084 465.16 236.426 465.189 236.483 464.504C236.825 464.533 237.167 464.562 237.509 464.591Z" fill="#EF3537"/>
<path d="M239.561 464.763C239.475 465.79 239.075 466.446 238.392 466.389C238.449 465.704 238.507 465.02 238.535 464.677C238.877 464.706 239.219 464.734 239.561 464.763Z" fill="#EF3537"/>
<path d="M240.331 463.794C240.615 464.507 239.932 464.45 239.561 464.763C239.59 464.421 239.619 464.078 239.648 463.736C239.989 463.765 240.331 463.794 240.331 463.794Z" fill="#EF3537"/>
<path d="M241.616 460.798C240.961 460.399 240.903 461.083 240.504 461.739C239.791 462.024 239.421 462.338 239.648 463.736C238.964 463.678 238.28 463.621 238.535 464.677C238.193 464.648 237.851 464.619 237.509 464.591C237.567 463.906 237.624 463.221 237.682 462.536C238.394 462.251 238.794 461.595 238.881 460.568C239.935 460.312 240.392 458.971 241.789 458.744C241.731 459.429 241.673 460.113 241.616 460.798Z" fill="#EF3537"/>
<path d="M242.642 460.885C242.498 462.597 241.757 463.224 240.331 463.794C240.389 463.109 240.446 462.424 240.504 461.739C241.188 461.797 241.9 461.512 241.616 460.798C241.958 460.827 242.3 460.856 242.642 460.885Z" fill="#EF3537"/>
<path d="M258.357 457.287C258.357 458.808 256.331 458.301 255.318 458.808C255.318 457.287 257.344 457.794 258.357 457.287Z" fill="#EF3537"/>
<path d="M244.952 457.976C244.495 459.317 243.869 458.574 243.927 457.89C244.269 457.918 244.61 457.947 244.952 457.976Z" fill="#EF3537"/>
<path d="M255.318 454.243C255.317 455.764 253.798 455.765 252.278 455.765C252.278 454.243 254.304 454.75 255.318 454.243Z" fill="#EF3537"/>
<path d="M261.397 454.243C260.89 455.764 259.37 455.765 258.357 455.765C258.357 454.243 259.877 454.75 261.397 454.243Z" fill="#EF3537"/>
<path d="M249.545 452.501C249.459 453.528 249.059 454.184 248.347 454.469C248.404 453.784 248.462 453.099 248.519 452.414C248.861 452.443 249.204 452.472 249.545 452.501Z" fill="#EF3537"/>
<path d="M248.519 452.414C247.465 452.67 247.407 453.355 246.381 453.269C246.439 452.584 246.496 451.899 246.554 451.214C247.579 451.3 247.637 450.616 248.692 450.36C248.635 451.045 248.577 451.729 248.519 452.414Z" fill="#EF3537"/>
<path d="M250.315 451.531C250.571 452.587 249.888 452.53 249.545 452.501C249.261 451.787 249.973 451.502 250.315 451.531Z" fill="#EF3537"/>
<path d="M259.877 450.185C259.877 451.199 257.851 451.2 256.838 451.707C256.838 450.185 258.358 450.185 259.877 450.185Z" fill="#EF3537"/>
<path d="M273.048 445.62C272.035 447.649 271.021 448.663 268.489 448.663C267.982 445.62 270.515 445.62 273.048 445.62Z" fill="#EF3537"/>
<path d="M281.66 445.62C281.66 447.141 279.633 446.634 278.62 447.141C278.62 445.62 280.647 446.127 281.66 445.62Z" fill="#EF3537"/>
<path d="M300.403 444.098C300.403 446.126 297.871 445.62 296.351 445.62C296.351 444.098 298.884 444.605 300.403 444.098Z" fill="#EF3537"/>
<path d="M316.614 442.576C316.614 444.605 314.081 444.098 312.055 444.098C312.562 442.577 315.094 443.083 316.614 442.576Z" fill="#EF3537"/>
<path d="M281.66 441.055C281.659 442.576 279.633 442.576 278.62 442.576C278.62 441.055 280.647 441.562 281.66 441.055Z" fill="#EF3537"/>
<path d="M334.344 441.055C334.344 438.011 340.424 440.547 342.956 440.04C342.45 443.083 336.877 440.547 334.344 441.055Z" fill="#EF3537"/>
<path d="M309.522 440.04C309.522 438.011 312.055 438.518 313.575 438.518C313.574 440.039 311.042 439.533 309.522 440.04Z" fill="#EF3537"/>
<path d="M361.7 436.996C361.7 438.518 360.18 438.011 359.167 438.518C359.167 436.997 360.687 436.996 361.7 436.996Z" fill="#EF3537"/>
<path d="M280.14 436.996C280.141 433.953 285.206 435.982 287.232 435.475C286.219 438.011 282.167 439.025 280.14 436.996Z" fill="#EF3537"/>
<path d="M304.962 433.953C304.962 435.474 302.937 434.968 301.924 435.475C301.924 433.953 303.949 434.46 304.962 433.953Z" fill="#EF3537"/>
<path d="M345.996 433.953C345.996 435.474 343.97 434.968 342.956 435.475C342.956 433.953 344.476 434.46 345.996 433.953Z" fill="#EF3537"/>
<path d="M369.299 430.91C368.792 432.938 366.259 432.431 364.74 432.431C365.246 430.91 367.272 431.417 369.299 430.91Z" fill="#EF3537"/>
<path d="M328.265 429.388C326.746 425.33 331.305 426.851 334.344 426.851C333.838 429.387 331.811 429.895 328.265 429.388Z" fill="#EF3537"/>
<path d="M336.877 427.866C340.93 425.837 343.463 422.793 350.048 423.808C352.074 429.387 343.463 423.808 345.996 429.388C342.45 429.388 341.437 426.852 336.877 427.866Z" fill="#EF3537"/>
<path d="M164.097 428.406C164.525 427.408 165.151 428.15 165.123 428.493C164.781 428.464 164.439 428.435 164.097 428.406Z" fill="#EF3537"/>
<path d="M395.641 426.851C395.641 424.822 399.187 425.33 401.214 425.33C400.707 427.358 397.667 426.344 395.641 426.851Z" fill="#EF3537"/>
<path d="M360.18 420.764C364.232 422.286 359.674 426.851 356.128 425.33C353.595 419.75 361.193 424.315 360.18 420.764Z" fill="#EF3537"/>
<path d="M367.779 422.286C367.778 423.807 365.753 423.301 364.74 423.808C364.74 422.286 366.765 422.793 367.779 422.286Z" fill="#EF3537"/>
<path d="M161.68 420.272C161.623 420.957 161.508 422.326 160.824 422.269C160.882 421.584 160.997 420.215 161.68 420.272Z" fill="#EF3537"/>
<path d="M427.556 419.243C427.556 420.764 425.529 420.257 424.516 420.764C424.516 419.243 426.543 419.75 427.556 419.243Z" fill="#EF3537"/>
<path d="M359.167 416.199C359.167 412.141 369.298 412.142 367.779 417.721C366.765 417.721 364.74 417.72 364.74 416.199C362.713 416.706 363.726 420.257 360.18 419.243C360.18 418.228 360.18 416.706 359.167 416.199Z" fill="#EF3537"/>
<path d="M383.483 412.141C379.431 413.156 377.91 417.214 373.351 417.721C370.819 422.792 369.805 414.171 369.299 412.141H383.483Z" fill="#EF3537"/>
<path d="M394.121 417.721C394.12 419.242 392.095 419.243 391.082 419.243C391.082 417.721 392.601 418.228 394.121 417.721Z" fill="#EF3537"/>
<path d="M436.168 417.721C436.168 419.242 434.648 419.243 433.128 419.243C433.128 417.721 435.155 418.228 436.168 417.721Z" fill="#EF3537"/>
<path d="M407.292 415.185C406.785 416.199 405.266 416.199 404.253 416.199C404.253 415.185 405.772 415.185 407.292 415.185Z" fill="#EF3537"/>
<path d="M388.042 410.619C388.043 407.576 394.122 410.112 396.654 409.098C397.161 411.127 399.187 412.142 398.174 415.185C395.135 413.156 390.069 413.155 388.042 410.619Z" fill="#EF3537"/>
<path d="M396.654 409.098C400.707 407.069 404.253 404.025 408.305 406.054V410.619C406.279 410.619 405.266 411.127 404.253 412.141C404.252 412.649 402.733 413.662 402.733 412.141C401.213 412.141 399.187 411.127 401.214 410.619C401.213 409.098 399.187 409.098 396.654 409.098Z" fill="#EF3537"/>
<path d="M364.74 410.619C364.74 412.141 363.22 411.634 361.7 412.141C361.7 410.62 363.727 411.126 364.74 410.619Z" fill="#EF3537"/>
<path d="M492.905 409.098C491.892 411.127 488.346 411.127 485.813 412.141C486.319 409.098 489.359 409.098 492.905 409.098Z" fill="#EF3537"/>
<path d="M415.904 404.533C415.904 406.561 413.878 407.069 415.904 407.576C415.398 408.59 414.384 409.605 412.865 409.098C412.865 408.083 412.865 407.576 411.345 407.576C411.852 406.054 413.371 404.533 415.904 404.533Z" fill="#EF3537"/>
<path d="M443.767 407.576C443.26 409.604 440.727 409.098 439.207 409.098C439.207 407.576 441.74 408.083 443.767 407.576Z" fill="#EF3537"/>
<path d="M477.201 407.576C477.201 409.097 475.174 408.591 474.161 409.098C474.161 407.576 476.188 408.083 477.201 407.576Z" fill="#EF3537"/>
<path d="M447.819 406.054C447.819 407.576 446.299 407.576 444.779 407.576C445.286 406.054 446.806 406.561 447.819 406.054Z" fill="#EF3537"/>
<path d="M490.372 404.533C489.359 406.561 488.345 407.576 485.813 407.576C486.32 406.054 487.839 404.533 490.372 404.533Z" fill="#EF3537"/>
<path d="M419.957 400.474C424.01 400.982 425.53 405.04 430.595 404.533C427.049 410.112 424.516 401.996 418.944 406.054C418.437 403.518 420.464 403.01 419.957 400.474Z" fill="#EF3537"/>
<path d="M457.95 403.518C457.95 406.561 454.404 406.561 450.859 406.054C451.872 404.025 455.418 404.025 457.95 403.518Z" fill="#EF3537"/>
<path d="M437.687 400.474H442.246C441.74 404.532 436.167 403.011 434.648 406.054C430.595 405.04 433.128 404.025 433.128 400.474C432.115 401.489 428.063 403.517 429.075 398.953H437.687V400.474Z" fill="#EF3537"/>
<path d="M509.116 404.533C510.635 401.997 513.674 401.489 517.727 401.997C516.207 404.025 513.168 404.533 509.116 404.533Z" fill="#EF3537"/>
<path d="M465.549 401.997C465.548 403.01 463.522 403.011 462.51 403.518C462.51 401.996 464.536 401.997 465.549 401.997Z" fill="#EF3537"/>
<path d="M443.767 401.997C446.299 399.968 454.404 390.33 455.418 395.909H452.378C452.378 397.431 453.898 396.924 455.418 397.431C455.924 402.503 447.313 398.446 446.299 401.997H443.767Z" fill="#EF3537"/>
<path d="M517.727 401.997C518.234 399.968 520.26 400.474 522.287 400.474C522.287 401.996 520.26 401.997 517.727 401.997Z" fill="#EF3537"/>
<path d="M477.201 397.431C481.76 398.953 475.681 401.489 472.642 400.474C472.642 397.938 476.694 399.459 477.201 397.431Z" fill="#EF3537"/>
<path d="M533.938 395.909C531.405 398.953 527.352 399.967 522.287 400.474C524.82 397.431 528.872 396.417 533.938 395.909Z" fill="#EF3537"/>
<path d="M440.727 395.909C444.779 396.417 440.727 400.474 437.687 398.953C437.687 396.924 440.22 397.431 440.727 395.909Z" fill="#EF3537"/>
<path d="M513.675 397.431C513.168 398.952 511.142 398.953 509.116 398.953C509.622 397.431 511.648 397.431 513.675 397.431Z" fill="#EF3537"/>
<path d="M464.03 391.344C462.004 394.388 462.51 394.894 467.069 394.387C464.536 396.923 458.457 399.967 455.418 397.431V395.909H460.99C460.99 394.388 458.964 394.387 456.431 394.387C457.951 392.358 460.484 391.344 464.03 391.344Z" fill="#EF3537"/>
<path d="M487.332 395.909C487.332 395.402 490.372 393.373 491.891 394.387C492.904 395.402 485.813 398.445 487.332 395.909Z" fill="#EF3537"/>
<path d="M434.648 390.33C442.753 394.895 447.312 385.257 455.418 388.808C449.339 393.88 438.194 393.88 429.075 395.909C427.556 390.837 435.661 394.894 434.648 390.33Z" fill="#EF3537"/>
<path d="M538.497 395.909C533.938 394.388 540.017 391.851 542.55 392.866C542.55 395.402 538.497 393.88 538.497 395.909Z" fill="#EF3537"/>
<path d="M143.32 392.862C142.921 393.518 143.148 394.917 142.122 394.831C142.522 394.175 142.295 392.776 143.32 392.862Z" fill="#EF3537"/>
<path d="M526.846 392.866C526.339 394.894 524.313 394.894 522.287 394.387C522.793 392.866 524.82 392.866 526.846 392.866Z" fill="#EF3537"/>
<path d="M475.681 392.866C475.681 389.822 479.227 389.822 482.773 390.33C482.773 391.851 480.746 391.852 478.72 391.344C480.747 393.88 483.279 394.894 477.201 394.387C477.201 393.373 476.694 392.866 475.681 392.866Z" fill="#EF3537"/>
<path d="M474.161 391.344C473.655 393.373 472.135 394.387 469.602 394.387C470.615 392.866 471.628 391.344 474.161 391.344Z" fill="#EF3537"/>
<path d="M542.55 392.866C544.07 390.837 546.602 389.822 550.148 390.33C548.629 392.358 546.602 393.373 542.55 392.866Z" fill="#EF3537"/>
<path d="M487.332 391.344C487.332 392.866 485.306 392.866 484.293 392.866C484.293 391.851 486.319 391.851 487.332 391.344Z" fill="#EF3537"/>
<path d="M492.905 387.286C493.411 389.315 492.398 390.33 491.891 391.344C488.346 392.358 488.345 388.808 484.293 390.33C486.319 387.793 489.359 387.286 492.905 387.286Z" fill="#EF3537"/>
<path d="M530.898 391.344C532.418 388.808 535.458 388.301 540.017 388.808C538.497 391.344 535.457 391.852 530.898 391.344Z" fill="#EF3537"/>
<path d="M487.332 384.242C484.799 388.807 477.2 388.808 471.122 390.33C474.668 386.272 482.267 386.271 487.332 384.242Z" fill="#EF3537"/>
<path d="M550.148 390.33C550.148 388.808 551.162 388.301 553.188 388.808C552.681 389.822 551.668 390.33 550.148 390.33Z" fill="#EF3537"/>
<path d="M498.984 379.677C503.543 379.677 505.063 382.214 506.076 385.764H505.063C505.062 386.779 503.543 387.285 503.543 385.764C501.517 385.764 498.984 391.851 497.464 387.286C501.01 385.257 499.997 383.735 498.984 379.677Z" fill="#EF3537"/>
<path d="M547.109 385.764C546.096 387.793 543.563 388.808 540.017 388.808C541.03 386.272 543.563 385.765 547.109 385.764Z" fill="#EF3537"/>
<path d="M578.011 378.663C571.425 383.735 561.8 386.272 553.188 388.808C559.774 383.736 568.386 380.692 578.011 378.663Z" fill="#EF3537"/>
<path d="M490.372 382.721C494.424 384.242 493.918 380.692 497.464 381.199C496.451 384.749 491.891 384.75 488.852 385.764C488.852 384.243 489.865 384.242 490.372 382.721Z" fill="#EF3537"/>
<path d="M551.669 384.242C551.162 385.764 549.135 385.764 547.109 385.764C547.615 384.243 549.642 384.242 551.669 384.242Z" fill="#EF3537"/>
<path d="M478.72 382.721C478.72 383.735 478.214 384.749 477.201 384.242C477.201 383.228 477.201 382.721 478.72 382.721Z" fill="#EF3537"/>
<path d="M554.202 382.721C554.201 383.735 553.188 384.749 551.669 384.242C551.669 383.228 552.682 382.721 554.202 382.721Z" fill="#EF3537"/>
<path d="M478.72 382.721C478.214 379.17 480.747 378.155 484.293 378.663C483.786 380.691 482.266 382.213 481.253 384.242C480.24 384.242 479.733 383.228 478.72 382.721Z" fill="#EF3537"/>
<path d="M440.727 382.721C440.22 379.677 445.793 382.213 447.819 381.199C448.325 384.749 442.753 382.214 440.727 382.721Z" fill="#EF3537"/>
<path d="M558.761 381.199C558.76 383.227 556.734 382.721 554.202 382.721C554.708 381.199 556.734 381.199 558.761 381.199Z" fill="#EF3537"/>
<path d="M490.372 382.721C488.346 382.721 488.852 379.17 491.891 379.677C491.891 381.199 490.372 381.706 490.372 382.721Z" fill="#EF3537"/>
<path d="M513.675 379.677C513.675 377.648 517.221 378.663 519.247 378.663C519.247 380.691 515.701 379.678 516.714 382.721H515.194C514.688 381.706 515.194 380.185 513.675 379.677Z" fill="#EF3537"/>
<path d="M561.8 379.677C561.294 381.199 560.28 381.706 558.761 381.199C559.267 380.184 560.281 379.677 561.8 379.677Z" fill="#EF3537"/>
<path d="M561.8 379.677C561.8 378.156 563.826 378.155 565.853 378.663C565.852 380.184 563.826 380.184 561.8 379.677Z" fill="#EF3537"/>
<path d="M519.247 378.663C520.767 376.126 523.3 375.112 526.846 375.62C526.845 377.141 524.82 377.648 526.846 378.663C526.339 379.677 525.326 380.184 523.806 379.677C523.3 378.156 521.273 378.155 519.247 378.663Z" fill="#EF3537"/>
<path d="M510.635 377.141C510.128 379.677 508.102 380.185 505.063 379.677C505.569 378.156 508.102 377.141 510.635 377.141Z" fill="#EF3537"/>
<path d="M472.642 378.663C473.148 376.634 475.175 376.634 477.201 377.141C476.694 378.663 474.668 378.663 472.642 378.663Z" fill="#EF3537"/>
<path d="M495.944 371.054C495.944 373.083 493.412 372.576 492.905 374.097C498.477 373.083 495.944 379.17 492.905 375.62C493.411 377.141 491.892 377.141 491.891 378.663H484.293C483.28 374.605 491.384 379.676 490.372 375.62C489.865 372.576 485.306 377.141 481.253 375.62C484.799 372.576 490.879 372.068 495.944 371.054Z" fill="#EF3537"/>
<path d="M565.853 378.663C566.359 377.141 567.372 376.634 568.892 377.141C568.892 378.155 567.879 378.663 565.853 378.663Z" fill="#EF3537"/>
<path d="M478.72 372.576C475.681 375.619 471.121 377.141 465.549 377.141C468.589 374.605 473.148 373.083 478.72 372.576Z" fill="#EF3537"/>
<path d="M477.201 377.141C477.201 375.112 479.227 375.62 481.253 375.62C481.253 377.141 479.227 377.141 477.201 377.141Z" fill="#EF3537"/>
<path d="M579.024 372.576C576.491 375.112 573.958 377.141 568.892 377.141C571.425 374.605 574.464 372.576 579.024 372.576Z" fill="#EF3537"/>
<path d="M545.589 368.01C546.602 372.068 534.951 371.054 540.017 374.097C537.991 378.662 534.951 372.576 530.898 374.097C535.457 371.054 538.497 370.546 545.589 368.01Z" fill="#EF3537"/>
<path d="M558.761 344.677C558.761 347.213 559.774 348.735 561.8 349.243V353.808C559.774 351.779 553.188 353.807 553.188 357.865C549.642 355.836 545.589 354.822 541.536 357.865C536.978 357.866 537.484 361.924 535.458 363.953C533.938 363.953 533.938 362.431 532.418 362.431C532.418 360.909 530.898 361.416 529.379 360.909C529.885 362.43 531.405 361.924 532.418 362.431C530.392 364.46 527.352 365.982 523.806 366.996C524.313 364.967 526.339 364.46 526.846 362.431C526.846 360.91 526.339 360.909 525.326 360.909V359.388C523.807 359.895 524.313 360.909 525.326 360.909C524.82 362.938 523.299 363.953 520.767 363.953C521.273 364.967 522.287 366.489 523.806 366.996C522.286 371.053 518.74 365.982 517.727 365.474C515.195 365.981 520.26 369.532 513.675 368.01C514.181 371.054 511.648 371.054 510.635 372.576C509.115 372.576 507.089 372.068 507.595 369.532C505.063 371.054 505.569 376.127 500.503 375.62C499.49 371.562 503.543 372.575 505.063 371.054C504.556 370.04 503.543 369.532 502.023 369.532C502.023 368.011 499.997 368.517 498.984 368.01C498.984 369.532 501.01 369.532 502.023 369.532C501.516 372.068 498.477 371.054 495.944 371.054C491.892 365.474 505.062 362.938 507.595 365.474C505.063 364.967 504.05 366.489 503.543 368.01C517.727 368.01 516.714 353.807 529.379 357.865H526.846C526.846 359.894 529.378 359.387 529.379 357.865C531.405 357.865 531.405 359.895 533.938 359.388C533.431 355.837 534.445 353.3 538.497 353.808C537.991 354.822 536.977 354.822 536.977 356.344H540.017C540.017 354.822 539.51 353.808 538.497 353.808C538.497 352.286 539.51 351.778 540.017 350.764C545.589 350.257 540.524 351.779 541.536 354.822C553.188 354.822 552.175 348.228 558.761 344.677Z" fill="#EF3537"/>
<path d="M598.274 375.62C598.274 374.605 599.287 373.59 601.314 374.097C600.807 375.112 599.794 375.62 598.274 375.62Z" fill="#EF3537"/>
<path d="M544.069 372.576C544.069 374.097 542.549 373.59 541.536 374.097C541.536 372.576 543.056 373.083 544.069 372.576Z" fill="#EF3537"/>
<path d="M602.326 372.576C602.326 373.59 602.326 374.097 601.314 374.097C601.314 373.083 601.313 372.576 602.326 372.576Z" fill="#EF3537"/>
<path d="M482.773 369.532C487.839 371.561 481.76 374.098 478.72 372.576C478.72 370.04 482.773 371.561 482.773 369.532Z" fill="#EF3537"/>
<path d="M582.063 371.054C582.063 372.068 581.05 373.083 579.024 372.576C579.53 371.561 580.543 371.054 582.063 371.054Z" fill="#EF3537"/>
<path d="M459.471 368.01C468.589 366.996 473.655 361.924 484.293 362.431C480.747 362.939 484.292 372.575 478.72 368.01C479.733 368.01 479.734 366.489 480.24 365.474H475.681C475.681 366.488 477.201 366.489 478.72 366.996V368.01C471.122 371.054 476.187 367.503 471.122 366.996C470.614 369.025 465.549 366.996 465.549 369.532C466.562 369.532 467.069 370.039 467.069 371.054C465.043 371.054 465.042 373.083 462.51 372.576C466.562 368.518 460.484 371.053 459.471 368.01Z" fill="#EF3537"/>
<path d="M525.326 371.054C524.82 373.083 522.793 372.576 520.767 372.576C521.273 371.054 523.3 371.561 525.326 371.054Z" fill="#EF3537"/>
<path d="M52.6846 369.532C52.6847 371.054 53.6982 371.562 54.2047 372.576H51.1651C51.6717 371.562 51.1651 369.533 52.6846 369.532Z" fill="#EF3537"/>
<path d="M598.274 368.01C597.261 370.546 595.741 371.562 593.715 372.576C590.675 369.533 594.728 368.518 598.274 368.01Z" fill="#EF3537"/>
<path d="M467.069 371.054C468.589 371.054 470.108 368.518 471.122 371.054C469.602 371.561 468.082 373.59 467.069 371.054Z" fill="#EF3537"/>
<path d="M492.905 368.01C491.892 370.546 489.359 371.561 485.813 371.054C487.333 369.025 489.359 368.01 492.905 368.01Z" fill="#EF3537"/>
<path d="M563.32 369.532C562.813 371.561 560.28 371.054 558.761 371.054C559.267 369.532 561.293 370.04 563.32 369.532Z" fill="#EF3537"/>
<path d="M457.95 369.532C457.95 371.054 456.431 371.054 455.418 371.054C455.418 369.532 456.937 370.039 457.95 369.532Z" fill="#EF3537"/>
<path d="M547.109 371.054C551.668 369.532 546.096 364.967 554.202 365.474C555.214 370.546 551.161 371.054 547.109 371.054Z" fill="#EF3537"/>
<path d="M590.675 362.431C593.208 362.431 592.195 365.981 595.234 365.474C591.688 368.01 588.142 371.054 582.063 371.054C584.09 369.025 587.129 367.503 590.675 366.996C590.675 365.475 589.662 364.967 588.142 365.474C588.143 363.446 590.675 363.952 590.675 362.431Z" fill="#EF3537"/>
<path d="M611.445 368.01C610.939 370.039 609.419 371.054 606.886 371.054C607.393 369.532 608.912 368.01 611.445 368.01Z" fill="#EF3537"/>
<path d="M535.458 368.01C535.458 369.532 533.431 369.532 532.418 369.532C532.418 368.011 534.445 368.517 535.458 368.01Z" fill="#EF3537"/>
<path d="M571.932 368.01C572.945 364.967 574.971 361.923 578.011 365.474C577.504 368.01 575.478 368.517 571.932 368.01Z" fill="#EF3537"/>
<path d="M617.018 365.474C616.511 366.996 615.497 368.517 612.965 368.01C613.471 366.489 614.485 365.474 617.018 365.474Z" fill="#EF3537"/>
<path d="M540.017 366.996C540.016 368.01 537.99 368.01 536.977 368.01C536.978 366.996 538.497 366.996 540.017 366.996Z" fill="#EF3537"/>
<path d="M558.761 362.431C558.761 364.967 560.28 365.981 563.32 365.474C561.8 367.503 558.254 367.503 555.721 368.01C555.721 367.503 556.228 366.489 557.24 366.996C557.24 365.475 556.228 364.967 554.202 365.474C555.215 363.445 556.228 362.431 558.761 362.431Z" fill="#EF3537"/>
<path d="M598.274 368.01C598.781 365.474 600.807 364.967 603.846 365.474C602.833 367.503 600.807 368.01 598.274 368.01Z" fill="#EF3537"/>
<path d="M485.813 366.996C487.333 364.46 489.359 363.445 492.905 363.953C492.905 366.996 489.359 366.996 485.813 366.996Z" fill="#EF3537"/>
<path d="M494.424 363.953C495.944 361.416 498.984 360.402 503.543 360.909C502.023 363.445 498.983 363.953 494.424 363.953Z" fill="#EF3537"/>
<path d="M512.155 362.431C512.155 363.952 510.129 363.446 509.116 363.953C509.116 362.431 511.142 362.938 512.155 362.431Z" fill="#EF3537"/>
<path d="M560.28 363.953C561.8 361.416 562.813 358.88 567.373 359.388C567.372 360.402 565.853 360.91 565.853 362.431C564.839 361.924 564.84 362.938 564.84 363.953H560.28Z" fill="#EF3537"/>
<path d="M576.491 354.822C578.01 355.329 577.504 357.865 579.024 357.865C575.984 361.416 572.438 363.445 565.853 363.953V362.431C569.398 363.446 572.945 358.373 567.373 359.388C566.866 356.851 573.958 357.358 571.932 360.909C574.971 360.402 574.971 356.851 576.491 354.822Z" fill="#EF3537"/>
<path d="M517.727 356.344C516.207 360.909 508.102 357.866 506.076 362.431C502.53 358.373 513.168 356.344 517.727 356.344Z" fill="#EF3537"/>
<path d="M551.669 362.431C551.669 359.895 554.201 358.88 557.24 359.388C556.227 361.416 554.201 361.924 551.669 362.431Z" fill="#EF3537"/>
<path d="M603.846 360.909C603.846 361.923 602.833 362.431 601.314 362.431C601.314 361.417 602.327 360.909 603.846 360.909Z" fill="#EF3537"/>
<path d="M609.925 362.431C609.925 361.417 609.925 360.402 611.445 360.909C611.445 361.923 610.938 362.431 609.925 362.431Z" fill="#EF3537"/>
<path d="M544.069 357.865C550.148 359.387 539.004 363.952 541.536 357.865C543.056 357.865 543.563 359.894 544.069 357.865Z" fill="#EF3537"/>
<path d="M491.891 360.909C491.891 358.373 494.425 357.358 497.464 357.865C496.451 359.894 494.424 360.909 491.891 360.909Z" fill="#EF3537"/>
<path d="M609.925 356.344H605.366C605.873 357.865 606.886 358.373 608.406 357.865C607.899 359.894 606.379 360.909 603.846 360.909C603.846 359.894 603.846 357.865 602.326 357.865C602.326 356.344 603.846 356.343 603.846 354.822C605.366 354.822 606.886 354.822 606.886 353.808H609.925V356.344Z" fill="#EF3537"/>
<path d="M620.057 356.344C618.537 359.387 616.004 360.909 611.445 360.909V359.388C615.498 359.895 616.005 356.344 620.057 356.344Z" fill="#EF3537"/>
<path d="M630.189 357.865C630.189 358.88 629.175 359.895 627.149 359.388C627.656 358.373 628.669 357.865 630.189 357.865Z" fill="#EF3537"/>
<path d="M561.8 357.865C561.293 359.894 559.267 359.388 557.24 359.388C557.747 357.866 559.774 357.865 561.8 357.865Z" fill="#EF3537"/>
<path d="M609.925 356.344C610.938 356.851 611.445 357.866 611.445 359.388C610.432 358.88 609.419 358.373 609.925 356.344Z" fill="#EF3537"/>
<path d="M506.076 354.822C505.063 357.865 501.516 358.373 497.464 357.865C499.49 355.836 502.53 355.329 506.076 354.822Z" fill="#EF3537"/>
<path d="M631.708 356.344C631.708 357.358 631.708 358.372 630.189 357.865C630.189 356.851 630.695 356.344 631.708 356.344Z" fill="#EF3537"/>
<path d="M568.892 354.822C567.879 357.358 565.346 358.373 561.8 357.865C562.813 355.837 565.346 354.822 568.892 354.822Z" fill="#EF3537"/>
<path d="M585.103 353.808H588.142C587.636 354.822 586.622 355.329 585.103 354.822C584.09 356.851 582.063 357.865 579.024 357.865C579.53 355.837 581.557 355.329 580.544 352.286H585.103V353.808Z" fill="#EF3537"/>
<path d="M623.096 354.822C622.59 356.343 621.577 356.851 620.057 356.344V354.822H623.096Z" fill="#EF3537"/>
<path d="M634.748 354.822C634.241 356.343 633.228 356.851 631.708 356.344C632.215 355.329 633.228 354.822 634.748 354.822Z" fill="#EF3537"/>
<path d="M627.149 354.822C627.149 355.836 627.149 356.851 626.136 356.344V354.822H627.149Z" fill="#EF3537"/>
<path d="M568.892 354.822C569.399 353.807 570.412 353.3 571.932 353.808C571.425 354.822 570.918 355.329 568.892 354.822Z" fill="#EF3537"/>
<path d="M614.485 354.822C614.485 354.314 614.485 353.301 615.497 353.808C615.497 354.315 615.497 355.329 614.485 354.822Z" fill="#EF3537"/>
<path d="M506.076 354.822C508.609 352.793 512.155 351.778 516.714 352.286C514.181 354.314 510.635 355.329 506.076 354.822Z" fill="#EF3537"/>
<path d="M526.846 354.822H523.806V352.286H526.846V354.822Z" fill="#EF3537"/>
<path d="M620.057 354.822C619.044 354.822 617.018 354.822 617.018 353.808H620.057V354.822Z" fill="#EF3537"/>
<path d="M627.149 353.808C626.136 353.301 626.136 354.314 626.136 354.822H623.096V353.808C624.109 353.3 624.616 353.3 624.616 352.286H627.149V353.808Z" fill="#EF3537"/>
<path d="M628.669 331.488C617.017 340.619 603.34 347.721 588.142 353.808C588.142 352.286 586.116 352.286 585.103 352.286C599.287 346.706 605.366 342.648 620.057 334.532C625.123 332.503 623.097 332.503 628.669 331.488Z" fill="#EF3537"/>
<path d="M603.846 353.808C604.353 352.286 605.366 351.778 606.886 352.286V353.808H603.846Z" fill="#EF3537"/>
<path d="M615.497 353.808C616.004 352.793 616.004 351.778 617.018 352.286V353.808H615.497Z" fill="#EF3537"/>
<path d="M620.057 353.808C620.564 352.286 621.07 351.778 623.096 352.286V353.808H620.057Z" fill="#EF3537"/>
<path d="M530.898 352.286C531.912 349.242 541.03 346.706 542.55 349.243C541.537 349.75 540.017 349.242 540.017 350.764C535.458 349.75 534.444 352.286 530.898 352.286Z" fill="#EF3537"/>
<path d="M606.886 352.286C607.393 350.764 608.406 350.257 609.925 350.764V352.286H606.886Z" fill="#EF3537"/>
<path d="M617.018 352.286C617.018 351.271 617.524 350.257 618.537 350.764C618.537 351.778 618.537 352.286 617.018 352.286Z" fill="#EF3537"/>
<path d="M638.8 352.286C639.307 351.271 639.307 350.257 640.32 350.764C640.32 351.778 640.32 352.286 638.8 352.286Z" fill="#EF3537"/>
<path d="M523.806 349.243C523.806 350.764 521.78 350.257 520.767 350.764C520.767 349.242 522.793 349.75 523.806 349.243Z" fill="#EF3537"/>
<path d="M612.965 349.243C612.458 350.257 611.445 350.764 609.925 350.764C610.432 349.75 610.938 349.243 612.965 349.243Z" fill="#EF3537"/>
<path d="M643.36 349.243C643.36 350.257 642.346 350.764 640.32 350.764C640.827 349.75 641.84 349.243 643.36 349.243Z" fill="#EF3537"/>
<path d="M614.485 347.72C613.978 348.735 613.978 349.75 612.965 349.243C612.965 348.228 612.965 347.72 614.485 347.72Z" fill="#EF3537"/>
<path d="M644.879 347.72C644.879 348.735 644.879 349.75 643.36 349.243C643.36 348.228 643.866 347.721 644.879 347.72Z" fill="#EF3537"/>
<path d="M528.365 347.72C528.365 349.242 526.339 348.736 525.326 349.243C525.326 347.721 526.846 348.228 528.365 347.72Z" fill="#EF3537"/>
<path d="M589.662 337.576C588.142 341.126 581.05 339.097 582.063 344.677C577.504 343.155 579.024 344.677 573.451 344.677C573.451 343.155 575.984 343.662 576.491 342.141C570.918 341.126 570.918 345.184 565.853 344.677C568.892 347.72 568.892 346.199 565.853 349.243H561.8C564.333 341.127 573.958 339.605 582.063 337.576V339.097H579.024C579.53 340.619 582.063 340.618 582.063 339.097C584.089 339.097 584.596 338.59 585.103 337.576H589.662Z" fill="#EF3537"/>
<path d="M646.4 346.199C646.399 347.213 645.892 348.228 644.879 347.72C644.879 346.706 644.88 346.199 646.4 346.199Z" fill="#EF3537"/>
<path d="M624.616 347.72C624.11 345.184 626.136 344.17 628.669 344.677C628.668 346.198 627.149 346.199 627.149 347.72H624.616Z" fill="#EF3537"/>
<path d="M649.438 344.677C648.932 346.198 647.919 346.706 646.4 346.199C646.906 345.185 647.412 344.677 649.438 344.677Z" fill="#EF3537"/>
<path d="M536.977 344.677C536.471 346.706 534.445 346.199 532.418 346.199C532.925 344.677 534.951 344.677 536.977 344.677Z" fill="#EF3537"/>
<path d="M582.063 344.677C583.076 345.184 585.103 344.677 585.103 346.199C584.09 346.199 582.063 346.198 582.063 344.677Z" fill="#EF3537"/>
<path d="M644.879 343.155C644.879 344.17 644.879 345.184 643.36 344.677C643.36 344.17 643.866 343.155 644.879 343.155Z" fill="#EF3537"/>
<path d="M650.959 343.155C650.452 344.17 650.451 345.184 649.438 344.677C649.438 344.17 649.439 343.155 650.959 343.155Z" fill="#EF3537"/>
<path d="M536.977 344.677C537.99 342.648 540.523 341.634 544.069 342.141C543.056 344.17 540.523 345.184 536.977 344.677Z" fill="#EF3537"/>
<path d="M628.669 344.677C629.682 343.155 630.695 341.633 633.228 342.141C633.228 343.155 632.215 343.663 631.708 344.677H628.669Z" fill="#EF3537"/>
<path d="M553.188 343.155C554.201 341.126 556.734 340.112 560.28 340.619C557.747 342.141 555.721 346.198 553.188 343.155Z" fill="#EF3537"/>
<path d="M644.879 343.155C644.879 342.648 644.88 341.633 646.4 342.141C646.399 342.648 645.892 343.662 644.879 343.155Z" fill="#EF3537"/>
<path d="M650.959 343.155C650.959 342.648 650.958 341.634 651.971 342.141C651.971 342.648 651.971 343.662 650.959 343.155Z" fill="#EF3537"/>
<path d="M630.189 339.097C629.176 342.14 626.642 342.648 623.096 343.155C624.109 340.619 626.643 339.604 630.189 339.097Z" fill="#EF3537"/>
<path d="M544.069 342.141C544.576 340.112 546.603 340.112 548.629 340.619C548.122 342.141 546.096 342.141 544.069 342.141Z" fill="#EF3537"/>
<path d="M643.36 334.532C642.853 337.575 639.307 337.576 638.8 340.619C636.268 340.112 635.761 342.14 633.228 342.141C634.242 338.083 639.814 338.59 640.32 334.532H643.36Z" fill="#EF3537"/>
<path d="M651.971 342.141C653.491 339.604 654.504 337.068 658.051 337.576C656.531 339.605 656.024 342.141 651.971 342.141Z" fill="#EF3537"/>
<path d="M548.629 340.619C549.136 339.097 549.642 338.59 551.669 339.097C551.162 340.111 550.149 340.619 548.629 340.619Z" fill="#EF3537"/>
<path d="M567.373 336.054C570.411 337.069 567.879 338.59 567.373 340.619C564.84 339.605 567.372 337.576 567.373 336.054Z" fill="#EF3537"/>
<path d="M640.32 334.532C635.761 334.532 635.761 339.604 630.189 339.097C633.228 336.054 635.761 333.01 640.32 331.488V334.532Z" fill="#EF3537"/>
<path d="M551.669 339.097C551.669 337.068 553.695 337.576 555.721 337.576C555.721 339.097 553.695 339.097 551.669 339.097Z" fill="#EF3537"/>
<path d="M650.959 339.097C650.959 338.083 650.958 337.069 651.971 337.576C651.971 338.59 651.972 339.097 650.959 339.097Z" fill="#EF3537"/>
<path d="M558.761 336.054C558.254 337.068 557.747 337.576 555.721 337.576C556.228 336.561 557.241 336.054 558.761 336.054Z" fill="#EF3537"/>
<path d="M582.063 337.576C582.57 335.039 584.596 334.025 588.142 334.532C587.636 336.053 585.103 335.547 585.103 337.576H582.063Z" fill="#EF3537"/>
<path d="M606.886 328.952C606.886 330.474 605.873 330.474 605.366 331.488C599.287 333.01 598.78 336.561 589.662 337.576C589.662 336.054 592.195 336.561 592.195 334.532C594.221 335.039 594.728 334.532 595.234 333.011C596.754 333.518 597.767 333.01 598.274 331.488C599.794 331.996 600.807 331.489 601.314 330.474C602.327 329.967 603.846 329.966 603.846 328.952H606.886Z" fill="#EF3537"/>
<path d="M612.965 333.011C612.964 334.532 611.445 335.04 611.445 336.054C608.406 335.547 607.899 337.576 605.366 337.576C606.379 334.532 609.419 333.518 612.965 333.011Z" fill="#EF3537"/>
<path d="M653.491 336.054C653.491 337.068 653.491 337.576 651.971 337.576V336.054H653.491Z" fill="#EF3537"/>
<path d="M662.61 333.011C663.622 337.068 659.57 336.054 658.051 337.576C657.544 334.532 660.077 334.532 661.09 333.011H662.61Z" fill="#EF3537"/>
<path d="M561.8 334.532C561.294 335.546 560.28 336.561 558.761 336.054C559.267 335.04 560.28 334.532 561.8 334.532Z" fill="#EF3537"/>
<path d="M655.011 334.532C655.011 335.546 655.011 336.561 653.491 336.054V334.532H655.011Z" fill="#EF3537"/>
<path d="M656.531 333.011C656.531 334.025 656.53 335.039 655.011 334.532V333.011H656.531Z" fill="#EF3537"/>
<path d="M565.853 333.011C565.852 335.039 563.826 334.532 561.8 334.532C561.8 333.01 563.826 333.011 565.853 333.011Z" fill="#EF3537"/>
<path d="M603.846 328.952C602.327 328.445 601.314 328.953 601.314 330.474C599.287 329.967 598.274 330.474 598.274 331.488C596.754 331.488 595.741 331.996 595.234 333.011C593.715 333.011 592.701 333.518 592.195 334.532H588.142C592.702 331.489 596.754 327.431 603.846 327.431V328.952Z" fill="#EF3537"/>
<path d="M650.959 328.952C650.452 330.981 648.426 331.489 647.919 333.011C646.399 333.011 646.4 333.518 646.4 334.532H643.36V331.488C645.893 331.995 647.412 330.474 647.919 328.952H650.959Z" fill="#EF3537"/>
<path d="M568.892 331.488C568.892 333.01 567.879 333.518 565.853 333.011C566.359 331.996 567.372 331.488 568.892 331.488Z" fill="#EF3537"/>
<path d="M658.051 331.488C658.051 332.503 658.05 333.517 656.531 333.011V331.488H658.051Z" fill="#EF3537"/>
<path d="M675.275 318.3C676.794 322.358 672.742 321.344 672.742 324.387C667.169 325.402 668.689 333.011 662.61 333.011C665.142 327.431 670.715 323.88 674.261 318.3H675.275Z" fill="#EF3537"/>
<path d="M614.485 330.474C615.498 327.938 618.031 326.923 621.577 327.431C620.563 330.474 617.018 333.517 614.485 330.474Z" fill="#EF3537"/>
<path d="M661.09 330.474C660.583 331.489 659.57 331.996 658.051 331.488V330.474H661.09Z" fill="#EF3537"/>
<path d="M568.892 331.488C570.412 329.46 572.945 328.445 576.491 328.952C574.971 330.981 572.438 331.996 568.892 331.488Z" fill="#EF3537"/>
<path d="M633.228 328.952C632.722 330.474 631.201 331.996 628.669 331.488C629.682 329.967 630.695 328.952 633.228 328.952Z" fill="#EF3537"/>
<path d="M588.142 331.488C584.09 330.981 588.142 326.923 590.675 328.952C590.675 330.474 588.143 329.967 588.142 331.488Z" fill="#EF3537"/>
<path d="M644.879 328.952C644.373 329.966 643.36 330.474 643.36 331.488H640.32C641.333 329.967 642.347 328.952 644.879 328.952Z" fill="#EF3537"/>
<path d="M576.491 328.952C576.491 327.431 577.504 326.923 579.024 327.431C579.023 328.445 578.01 328.952 576.491 328.952Z" fill="#EF3537"/>
<path d="M606.886 328.952C607.393 327.431 608.405 326.924 609.925 327.431C609.418 328.445 608.405 328.952 606.886 328.952Z" fill="#EF3537"/>
<path d="M637.787 325.909C636.774 327.937 635.761 328.952 633.228 328.952V327.431C634.241 327.431 634.748 326.923 634.748 325.909H637.787Z" fill="#EF3537"/>
<path d="M662.61 312.72C662.61 313.735 662.61 315.764 663.623 315.764C663.116 319.821 657.544 319.315 658.051 324.387C656.531 323.88 656.531 324.894 656.531 325.909H653.491C652.985 326.923 652.478 328.445 650.959 328.952V325.909C649.439 326.416 647.919 326.923 647.919 328.952H644.879C648.425 321.851 656.024 318.807 661.09 312.72H662.61Z" fill="#EF3537"/>
<path d="M614.485 321.344C613.978 323.372 611.952 324.387 615.497 324.387C615.497 326.923 612.964 327.938 609.925 327.431C609.925 325.402 607.393 325.908 606.886 324.387C609.925 323.88 610.432 321.344 614.485 321.344Z" fill="#EF3537"/>
<path d="M579.024 327.431C579.53 326.416 580.544 325.401 582.063 325.909C582.063 326.923 581.05 327.431 579.024 327.431Z" fill="#EF3537"/>
<path d="M630.189 321.344C627.656 323.373 626.642 327.431 621.577 327.431C621.577 322.358 625.63 321.851 630.189 321.344Z" fill="#EF3537"/>
<path d="M598.274 318.3C593.715 321.851 589.155 324.894 582.063 325.909C586.622 322.865 591.182 319.314 598.274 318.3Z" fill="#EF3537"/>
<path d="M601.314 322.866C600.3 324.894 599.287 325.909 596.754 325.909C597.26 323.88 598.781 322.866 601.314 322.866Z" fill="#EF3537"/>
<path d="M633.228 325.909C633.228 324.894 633.228 323.88 634.748 324.387V325.909H633.228Z" fill="#EF3537"/>
<path d="M641.84 319.822C641.84 321.343 642.347 321.344 643.36 321.344C642.347 323.372 641.333 325.909 637.787 325.909V324.387C638.8 324.894 638.8 323.88 638.8 322.866H637.787C637.787 321.851 637.787 321.344 638.8 321.344C639.307 320.329 640.32 319.822 641.84 319.822Z" fill="#EF3537"/>
<path d="M618.537 322.866C618.537 323.88 617.523 324.387 615.497 324.387C616.004 323.373 617.017 322.866 618.537 322.866Z" fill="#EF3537"/>
<path d="M637.787 324.387H634.748C634.748 323.373 635.761 322.866 637.787 322.866V324.387Z" fill="#EF3537"/>
<path d="M621.577 321.344C621.07 322.358 620.563 323.373 618.537 322.866C619.044 321.851 620.057 321.344 621.577 321.344Z" fill="#EF3537"/>
<path d="M618.537 312.72C615.498 317.285 609.419 319.315 605.366 322.866C602.833 318.3 613.471 314.242 618.537 312.72Z" fill="#EF3537"/>
<path d="M633.228 319.822C632.722 321.344 632.215 321.851 630.189 321.344C630.695 320.329 631.709 319.822 633.228 319.822Z" fill="#EF3537"/>
<path d="M623.096 319.822C623.096 320.836 622.59 321.851 621.577 321.344C621.577 320.329 621.577 319.822 623.096 319.822Z" fill="#EF3537"/>
<path d="M634.748 311.199C632.215 311.199 630.695 312.213 630.189 314.242C629.176 313.735 628.669 314.749 628.669 315.764C627.149 315.257 626.136 315.764 626.136 317.286C624.11 316.779 623.096 317.286 623.096 318.3C618.537 318.3 618.537 321.851 614.485 321.344C619.551 316.271 626.136 312.213 634.748 309.677V311.199Z" fill="#EF3537"/>
<path d="M634.748 318.3C634.748 319.314 634.241 320.329 633.228 319.822C633.228 319.315 633.228 318.3 634.748 318.3Z" fill="#EF3537"/>
<path d="M633.228 314.242C631.202 317.793 628.668 320.329 623.096 319.822V318.3C624.616 318.807 625.629 318.3 626.136 317.286C627.655 317.286 628.668 316.778 628.669 315.764C629.682 315.764 630.695 315.256 630.189 314.242H633.228Z" fill="#EF3537"/>
<path d="M675.275 318.3C675.781 317.793 675.781 316.779 676.794 317.286C676.794 317.793 676.794 318.807 675.275 318.3Z" fill="#EF3537"/>
<path d="M598.274 318.3C603.34 314.242 612.965 307.141 618.537 308.155C612.458 312.72 606.379 316.271 598.274 318.3Z" fill="#EF3537"/>
<path d="M641.84 312.72C640.32 315.256 638.8 318.3 634.748 318.3C636.774 316.271 637.787 312.72 641.84 312.72Z" fill="#EF3537"/>
<path d="M682.873 309.677C682.873 314.242 679.327 315.257 676.794 317.286V314.242C679.834 313.735 679.834 310.184 682.873 309.677Z" fill="#EF3537"/>
<path d="M663.623 315.764C664.129 314.749 664.13 313.735 665.142 314.242C665.142 315.256 665.143 315.764 663.623 315.764Z" fill="#EF3537"/>
<path d="M637.787 311.199C636.774 313.227 635.761 314.242 633.228 314.242C633.228 312.721 634.241 312.213 634.748 311.199H637.787Z" fill="#EF3537"/>
<path d="M634.748 309.677C636.774 307.141 637.787 303.083 643.36 304.097C641.84 305.619 642.347 307.141 644.879 306.634C644.879 308.662 645.386 309.677 646.4 309.677C646.399 311.198 645.386 311.706 644.879 312.72H641.84C642.346 307.141 640.827 312.213 637.787 311.199C637.787 309.677 635.761 310.184 634.748 309.677Z" fill="#EF3537"/>
<path d="M631.708 304.097C631.201 308.155 626.643 308.663 624.616 311.199C624.11 309.17 622.59 308.662 624.616 306.634C627.149 307.141 628.162 305.619 628.669 304.097H631.708Z" fill="#EF3537"/>
<path d="M647.919 308.155C647.919 309.169 647.412 310.184 646.4 309.677C646.4 308.663 646.399 308.155 647.919 308.155Z" fill="#EF3537"/>
<path d="M684.393 308.155C684.393 309.169 683.886 310.184 682.873 309.677C682.873 308.663 682.873 308.155 684.393 308.155Z" fill="#EF3537"/>
<path d="M650.959 306.634C650.452 308.155 649.439 308.662 647.919 308.155V306.634H650.959Z" fill="#EF3537"/>
<path d="M685.913 306.634C685.406 307.648 685.406 308.662 684.393 308.155C684.393 307.648 684.393 306.634 685.913 306.634Z" fill="#EF3537"/>
<path d="M618.537 308.155C619.044 305.619 621.07 305.112 624.616 305.619V306.634C621.577 306.634 621.07 308.662 618.537 308.155Z" fill="#EF3537"/>
<path d="M687.432 304.097C686.926 305.112 686.926 306.633 685.913 306.634C685.913 305.619 685.913 304.097 687.432 304.097Z" fill="#EF3537"/>
<path d="M624.616 305.619C624.616 304.604 624.616 303.59 626.136 304.097C626.135 305.111 625.123 305.112 624.616 305.619Z" fill="#EF3537"/>
<path d="M630.189 301.054C630.189 302.575 629.175 302.576 628.669 304.097H626.136C626.642 302.068 627.656 301.054 630.189 301.054Z" fill="#EF3537"/>
<path d="M644.879 294.967C642.346 299.532 637.787 302.576 631.708 304.097C633.228 301.561 637.281 301.561 637.787 298.01C640.32 298.01 641.333 296.995 641.84 294.967H644.879Z" fill="#EF3537"/>
<path d="M666.663 302.575C666.663 301.561 667.169 300.547 668.182 301.054C668.688 302.068 667.676 302.575 666.663 302.575Z" fill="#EF3537"/>
<path d="M633.228 299.532C632.722 300.546 632.215 301.054 630.189 301.054V299.532H633.228Z" fill="#EF3537"/>
<path d="M634.748 298.01C634.748 299.531 634.241 299.532 633.228 299.532V298.01H634.748Z" fill="#EF3537"/>
<path d="M633.228 298.01H630.189C630.695 296.996 631.709 296.489 633.228 296.489V298.01Z" fill="#EF3537"/>
<path d="M638.8 292.43C640.32 287.865 641.334 290.401 643.36 292.43C643.36 293.445 641.84 293.952 641.84 294.967H638.8C638.8 296.488 637.787 296.488 637.787 298.01H634.748C634.748 296.996 634.241 296.489 633.228 296.489C634.242 294.46 635.254 291.923 638.8 292.43Z" fill="#EF3537"/>
<path d="M644.879 294.967C644.879 294.459 644.88 293.445 646.4 293.952C646.399 294.46 645.892 295.473 644.879 294.967Z" fill="#EF3537"/>
<path d="M650.959 293.952C651.465 293.952 652.478 293.952 651.971 294.967C651.465 294.967 650.453 294.966 650.959 293.952Z" fill="#EF3537"/>
<path d="M651.971 289.387C651.971 291.415 650.452 291.416 650.959 293.952H646.4C646.4 292.431 647.919 292.43 647.919 290.909C648.932 290.909 649.438 290.401 649.438 289.387H651.971Z" fill="#EF3537"/>
<path d="M643.36 292.43C643.36 291.416 643.866 290.402 644.879 290.909C645.386 291.923 644.373 291.923 643.36 292.43Z" fill="#EF3537"/>
<path d="M644.879 289.387C647.919 289.387 646.906 285.329 650.959 286.343C650.452 287.357 649.439 287.865 649.438 289.387C647.919 288.88 647.919 289.894 647.919 290.909H644.879V289.387Z" fill="#EF3537"/>
<path d="M651.971 289.387C652.478 288.372 652.478 287.358 653.491 287.865C653.998 288.88 652.984 289.387 651.971 289.387Z" fill="#EF3537"/>
<path d="M658.051 284.822C657.544 286.343 656.531 286.344 656.531 287.865H653.491V286.343C654.505 286.343 655.517 286.343 655.011 284.822H658.051Z" fill="#EF3537"/>
<path d="M659.571 284.822H658.051C658.051 283.807 658.051 283.3 659.571 283.3V284.822Z" fill="#EF3537"/>
<path d="M704.656 280.764C704.655 281.778 703.136 281.778 701.617 281.778C701.617 280.764 703.643 280.764 704.656 280.764Z" fill="#EF3537"/>
<path d="M4.55974 273.155C4.5597 275.183 4.05272 275.691 3.0396 276.198C3.0396 275.184 3.0401 273.155 4.55974 273.155Z" fill="#EF3537"/>
<path d="M675.275 255.908C675.275 256.923 675.274 258.445 674.261 258.445C674.261 257.43 674.262 255.908 675.275 255.908Z" fill="#EF3537"/>
<path d="M675.275 255.908C675.781 254.894 675.781 253.88 676.794 254.387C676.794 255.401 676.794 255.908 675.275 255.908Z" fill="#EF3537"/>
<path d="M676.794 254.387C677.301 253.373 677.301 252.358 678.314 252.865C678.314 253.879 678.314 254.387 676.794 254.387Z" fill="#EF3537"/>
<path d="M679.834 249.821C679.327 250.836 679.833 252.865 678.314 252.865C678.82 251.85 678.314 249.821 679.834 249.821Z" fill="#EF3537"/>
<path d="M682.873 245.256C682.873 247.792 681.86 249.314 679.834 249.821C679.834 247.285 680.847 246.271 682.873 245.256Z" fill="#EF3537"/>
<path d="M16.2107 228.01H14.6913C15.1979 226.996 14.6911 224.967 16.2107 224.966V228.01Z" fill="#EF3537"/>
<path d="M689.425 223.784C689.204 225.146 688.899 226.488 688.505 227.808C688.85 226.506 688.615 224.621 689.425 223.784Z" fill="#EF3537"/>
<path d="M17.7309 221.923C17.2244 223.445 17.7304 224.966 16.2107 224.966C16.2107 223.952 16.2111 221.923 17.7309 221.923Z" fill="#EF3537"/>
<path d="M20.2638 216.343C20.2637 218.879 19.2504 221.415 17.7309 221.923C17.2243 219.387 17.7306 217.358 18.7436 216.343H20.2638Z" fill="#EF3537"/>
<path d="M23.3027 211.778C23.3026 214.314 22.2898 215.836 20.2638 216.343C20.2638 214.314 21.2766 213.299 21.7832 211.778H23.3027Z" fill="#EF3537"/>
<path d="M30.902 194.531C31.4087 194.531 32.4213 194.532 31.9148 196.053C31.4082 195.546 30.3957 195.545 30.902 194.531Z" fill="#EF3537"/>
<path d="M46.6061 166.633H45.0859C45.0859 165.618 45.5929 165.111 46.6061 165.111V166.633Z" fill="#EF3537"/>
<path d="M48.1255 165.111H46.6061C46.6062 164.096 47.1125 163.589 48.1255 163.589V165.111Z" fill="#EF3537"/>
<path d="M49.645 162.068C49.645 163.082 49.6449 164.096 48.1255 163.589C48.1255 162.575 48.632 162.068 49.645 162.068Z" fill="#EF3537"/>
<path d="M62.8161 146.343C62.816 148.879 61.8032 149.893 59.7772 150.401C59.7772 148.372 60.2837 147.357 61.2967 146.343H62.8161Z" fill="#EF3537"/>
<path d="M62.8161 146.343C62.8161 145.328 62.8165 144.313 64.3363 144.821V146.343H62.8161Z" fill="#EF3537"/>
<path d="M79.0269 138.734H77.5074C77.5074 137.72 77.5073 137.212 79.0269 137.212V138.734Z" fill="#EF3537"/>
<path d="M658.051 113.879C659.064 113.879 659.571 114.386 659.571 115.4C658.558 115.4 657.544 115.4 658.051 113.879Z" fill="#EF3537"/>
<path d="M656.531 112.357C657.544 112.864 658.051 112.864 658.051 113.879C657.038 113.879 656.531 113.878 656.531 112.357Z" fill="#EF3537"/>
<path d="M655.011 111.343C656.024 111.343 657.038 111.343 656.531 112.357C655.518 112.357 655.011 112.357 655.011 111.343Z" fill="#EF3537"/>
<path d="M672.742 111.343C673.249 111.343 674.261 111.343 674.261 112.357C673.248 112.357 672.235 112.357 672.742 111.343Z" fill="#EF3537"/>
<path d="M647.919 106.777C652.478 106.27 653.998 108.299 655.011 111.343C651.465 111.342 650.452 108.806 647.919 108.299V106.777Z" fill="#EF3537"/>
<path d="M650.959 100.69C656.024 101.705 658.557 104.748 661.09 108.299C659.57 108.299 659.571 109.821 659.571 111.343C655.011 109.821 655.518 103.734 650.959 102.212V100.69Z" fill="#EF3537"/>
<path d="M662.61 109.821C663.116 109.821 664.13 109.821 663.623 111.343H662.61V109.821Z" fill="#EF3537"/>
<path d="M671.222 109.821C672.235 109.821 672.742 109.821 672.742 111.343C671.729 110.835 670.716 110.835 671.222 109.821Z" fill="#EF3537"/>
<path d="M661.09 108.299C661.597 108.299 662.61 108.299 662.61 109.821C661.597 109.314 660.584 109.313 661.09 108.299Z" fill="#EF3537"/>
<path d="M668.182 106.777C670.208 106.777 671.728 107.285 671.222 109.821C669.702 109.314 668.689 107.792 668.182 106.777Z" fill="#EF3537"/>
<path d="M646.4 105.255C647.412 105.255 647.919 105.256 647.919 106.777C646.906 106.777 645.893 106.27 646.4 105.255Z" fill="#EF3537"/>
<path d="M135.764 95.1104C136.271 96.1248 136.778 96.6319 138.804 96.6319C138.804 98.1534 137.284 98.1544 137.284 99.1688C134.751 99.1688 133.232 100.69 132.725 102.212C130.192 102.212 129.179 103.226 128.166 105.255H125.633V103.734H122.593C123.1 102.719 123.607 102.212 125.633 102.212C125.634 101.197 130.192 98.1542 129.685 100.69C131.712 99.6758 132.725 97.1394 134.244 95.1104H135.764Z" fill="#EF3537"/>
<path d="M633.228 99.1688C634.241 99.6758 634.748 99.6759 634.748 100.69C633.735 100.69 632.722 100.69 633.228 99.1688Z" fill="#EF3537"/>
<path d="M649.438 99.1688C649.945 99.6759 650.959 99.6758 650.959 100.69C649.946 100.69 648.932 100.69 649.438 99.1688Z" fill="#EF3537"/>
<path d="M647.919 98.154C648.932 98.154 649.438 98.1543 649.438 99.1688C648.425 99.1688 647.413 99.1682 647.919 98.154Z" fill="#EF3537"/>
<path d="M646.4 96.6319C647.412 96.6319 647.919 96.6324 647.919 98.154C646.906 97.6468 645.893 97.6462 646.4 96.6319Z" fill="#EF3537"/>
<path d="M138.804 96.6319C138.804 95.1104 139.817 94.6032 141.337 95.1104C141.337 96.1247 140.324 96.6318 138.804 96.6319Z" fill="#EF3537"/>
<path d="M644.879 95.1104C645.893 95.1104 646.399 95.1105 646.4 96.6319C645.386 96.6319 644.373 96.1248 644.879 95.1104Z" fill="#EF3537"/>
<path d="M141.337 95.1104C141.843 94.096 141.843 93.0818 142.856 93.589C142.856 94.6031 142.856 95.1104 141.337 95.1104Z" fill="#EF3537"/>
<path d="M643.36 93.589C644.373 93.589 645.386 93.5888 644.879 95.1104C643.866 95.1104 643.36 94.6031 643.36 93.589Z" fill="#EF3537"/>
<path d="M150.455 89.0232C149.442 92.0665 146.402 93.0817 142.856 93.589V92.0668C144.376 92.5739 144.376 91.5597 144.376 90.5454C147.415 91.0526 147.922 89.0233 150.455 89.0232Z" fill="#EF3537"/>
<path d="M152.988 87.5018C152.988 89.0232 151.468 89.0232 150.455 89.0232C150.455 88.0089 151.468 87.5018 152.988 87.5018Z" fill="#EF3537"/>
<path d="M157.547 83.4434C158.56 83.4434 159.067 84.4582 159.067 86.487C157.547 85.9797 156.534 86.4873 156.028 87.5018H152.988C152.988 86.4874 154.508 85.9798 154.508 84.9655C156.028 84.4585 157.547 84.9648 157.547 83.4434Z" fill="#EF3537"/>
<path d="M609.925 86.487C610.938 86.487 612.965 86.4873 612.965 87.5018H609.925V86.487Z" fill="#EF3537"/>
<path d="M170.718 77.3569C169.198 80.4 166.666 81.9219 162.107 81.9219C164.133 79.3859 167.172 78.3713 170.718 77.3569Z" fill="#EF3537"/>
<path d="M176.797 74.8207C176.797 73.2989 177.811 72.7914 179.33 73.2985C179.33 74.3129 178.317 74.8207 176.797 74.8207Z" fill="#EF3537"/>
<path d="M192.501 65.6899C189.968 69.7477 184.396 71.2695 179.33 73.2985C182.37 69.2406 187.436 67.7188 192.501 65.6899Z" fill="#EF3537"/>
<path d="M557.24 67.212C553.694 62.6468 560.28 65.1826 563.32 65.6899C562.813 68.2258 559.773 67.212 557.24 67.212Z" fill="#EF3537"/>
<path d="M198.581 62.6463C198.074 65.6895 196.047 66.1971 192.501 65.6899C193.515 63.6609 195.541 63.1535 198.581 62.6463Z" fill="#EF3537"/>
<path d="M554.202 62.6463C554.201 64.1676 552.682 64.1684 551.669 64.1684C551.669 63.1539 553.188 63.1534 554.202 62.6463Z" fill="#EF3537"/>
<path d="M198.581 62.6463C198.581 61.6319 199.594 61.125 201.113 61.6322C201.113 62.6464 200.1 63.1534 198.581 62.6463Z" fill="#EF3537"/>
<path d="M201.113 61.6322C202.633 59.0959 205.166 58.0813 208.712 58.5886C207.192 60.6174 205.166 61.6322 201.113 61.6322Z" fill="#EF3537"/>
<path d="M223.403 57.0671C222.896 58.0812 221.883 58.5885 220.364 58.5886C220.87 57.5742 221.377 57.0672 223.403 57.0671Z" fill="#EF3537"/>
<path d="M227.456 55.545C227.456 57.0665 225.429 57.0671 223.403 57.0671C223.403 55.5454 225.429 55.545 227.456 55.545Z" fill="#EF3537"/>
<path d="M246.705 54.0235C246.705 56.052 244.173 55.5455 243.667 57.0671H239.107C239.613 54.0237 243.159 54.0235 246.705 54.0235Z" fill="#EF3537"/>
<path d="M529.379 55.545C531.405 56.0522 533.938 55.5454 533.938 57.0671C532.418 57.0671 529.885 57.0664 529.379 55.545Z" fill="#EF3537"/>
<path d="M217.324 54.0235C217.324 55.0378 216.311 56.0521 214.285 55.545C214.791 54.5305 215.805 54.0235 217.324 54.0235Z" fill="#EF3537"/>
<path d="M252.278 50.9799C251.265 53.0086 249.238 54.0235 246.705 54.0235C246.705 51.4873 249.239 50.9799 252.278 50.9799Z" fill="#EF3537"/>
<path d="M516.714 50.9799C516.208 52.5013 514.688 52.5014 513.675 52.5014C513.675 51.4871 515.195 51.4871 516.714 50.9799Z" fill="#EF3537"/>
<path d="M503.543 49.9651C503.037 47.429 511.141 47.9364 507.595 50.9799C508.102 50.4727 503.544 49.4582 503.543 49.9651Z" fill="#EF3537"/>
<path d="M294.831 36.7767C294.831 37.7909 292.804 37.7916 291.791 38.2988C291.791 36.7771 293.818 36.7767 294.831 36.7767Z" fill="#EF3537"/>
<path d="M301.924 30.6901C301.924 31.7044 301.923 32.7187 300.403 32.2116C300.403 31.1971 300.91 30.6901 301.924 30.6901Z" fill="#EF3537"/>
<path d="M374.871 7.35609C373.351 11.4138 364.74 8.37114 361.7 11.9218C358.154 7.86383 369.805 7.35609 374.871 7.35609Z" fill="#EF3537"/>
</svg>
