<svg width="377" height="324" viewBox="0 0 377 324" fill="none" xmlns="http://www.w3.org/2000/svg">
<path d="M67.0157 212.95C64.9837 211.507 64.7684 211.218 62.2631 210.862L63.5694 209.771C64.7077 210.223 66.4242 211.108 67.5842 211.658L67.0157 212.95Z" fill="#F5F2EE"/>
<path d="M81.3032 218.326C83.3978 219.361 89.4606 222.107 90.4451 223.755L88.7115 223.773C86.658 223.004 80.6073 220.515 79.98 218.481L81.3032 218.326Z" fill="#F5F2EE"/>
<path d="M95.706 225.073C97.4245 225.954 99.313 226.588 99.8538 228.242L98.847 229.021C97.3069 228.168 94.8985 227.233 94.4607 225.871L95.706 225.073Z" fill="#F5F2EE"/>
<path d="M101.673 228.63C103.298 229.049 105.968 230.526 107.186 231.707L106.808 232.652C104.902 231.761 101.914 230.834 101.673 228.63Z" fill="#F5F2EE"/>
<path fill-rule="evenodd" clip-rule="evenodd" d="M176.386 114.277C176.366 115.349 175.697 115.95 175.002 116.979L175.466 117.347L177.927 116.461C179.307 117.511 178.565 119.751 179.536 119.865C180.86 120.02 180.555 118.952 182.377 120.22C182.866 121.629 183.016 122.604 184.164 123.498C184.711 123.431 185.558 123.25 186.077 123.463C190.184 125.149 188.72 127.13 188.933 127.803C189.3 128.965 196.779 131.723 198.605 138.881C195.328 148.347 196.415 151.236 194.886 160.477C191.713 179.662 189.819 196.538 185.553 215.658C188.815 215.181 203.381 211.587 204.997 212.425C205.155 213.292 205.101 213.34 205.568 214.07C208.319 213.827 209.551 211.557 212.137 211.12C221.313 209.568 224.44 210.733 233.359 207.079C235.624 208 234.345 208.876 237.14 207.061C238.463 206.202 239.194 205.661 240.832 205.607L242.034 207.225C245.188 208.203 248.217 204.551 250.845 204.513C252.17 206.098 252.23 206.113 254.054 205.543C256.96 200.944 257.434 206.169 261.435 204.721C268.631 202.116 272.724 201.596 280.333 201.065C285.058 200.735 290.865 201.367 295.132 199.878C296.161 199.518 296.01 199.556 297.141 199.519C297.499 200.864 297.468 201.146 298.431 202.056C302.757 202.838 304.217 204.728 303.628 209.011L303.551 209.553C304.503 209.375 304.499 209.297 305.405 209.579C305.163 217.238 311.792 218.581 308.842 224.834C309.574 226.501 310.735 225.107 312.36 226.732C311.431 227.447 310.091 227.05 308.611 226.959C307.543 228.509 308.142 231.966 308.333 233.952C306.211 236.024 300.332 238.908 297.582 240.783C288.438 247.017 279.755 253.57 269.583 258.081C269.627 258.061 268.305 261.386 267.539 262.002C261.691 266.706 255.176 270.514 248.8 274.454L248.743 276.114C247.715 276.998 247.546 276.976 246.194 277.331L245.519 276.837L245.556 274.348C243.137 275.252 241.801 281.826 238.73 285.865C240.176 287.932 241.184 289.839 242.383 292.037C239.797 294.378 238.74 295.822 237.241 298.956C237.576 300.74 238.02 298.979 239.232 300.352C237.768 302.762 233.596 301.981 232.933 306.149C234.139 306.411 234.817 306.433 235.756 307.174C235.465 310.12 228.861 312.026 227.599 313.154C228.498 314.926 229.882 313.792 230.993 315.413C229.359 317.161 227.015 315.811 226.279 317.209C225.206 319.247 224.65 321.491 222.927 323.382C220.396 323.848 213.989 321.881 211.292 320.977C208.491 320.026 205.755 318.892 203.102 317.581C193.008 312.552 182.383 306.02 172.369 300.747C169.691 299.337 151.771 290.547 151.094 289.193C148.771 289.019 136.236 282.382 133.311 280.938L99.0128 264.025C80.1505 254.794 61.3509 245.435 42.6151 235.948C31.0837 230.067 5.23403 218.744 0.00086877 207.278C1.32032 203.459 6.06177 204.124 7.39272 200.547C15.2419 179.45 19.5591 156.43 22.7185 134.191C23.2927 130.149 24.9414 122.171 23.768 118.619C23.3431 117.333 23.263 117.678 23.4075 115.988C30.2724 110.49 28.6581 80.1333 31.9435 79.3997L31.8977 81.2327C32.9128 80.5435 32.846 80.5492 34.0616 80.5105L35.9328 82.406C37.4463 82.3302 36.8634 82.5187 38.1277 81.4751C38.3987 80.5328 38.4971 79.6882 39.2155 79.0836C39.2666 80.6432 39.0287 80.5477 39.7274 81.6988C44.0734 80.2376 46.9214 85.4522 51.5629 85.4919C53.561 85.5093 57.2441 85.7214 58.7855 86.8441C59.3506 87.2558 59.4153 87.2217 60.1112 87.3793C60.4065 86.417 60.4083 86.3594 60.9203 85.5002L62.9331 87.6009C64.9514 87.7582 64.7747 87.3859 66.8784 86.0483C69.0394 86.8445 68.3749 88.4312 70.0716 89.0815L73.2945 87.1725C81.1954 96.4524 87.1129 114.391 90.1909 126.228C90.3208 126.731 88.271 129.13 89.4902 131.71C90.8337 131.657 91.0075 131.599 92.2604 132.001C92.975 133.076 92.8471 133.318 92.7495 134.692L92.1195 135.093L91.2281 132.785L90.5394 132.659L90.278 133.222C90.415 134.889 90.3284 135.266 91.1726 136.633L92.5981 136.881C93.8476 138.752 92.0065 138.365 92.8979 140.636C94.1176 141.044 93.5171 141.008 94.7658 140.773C95.5728 143.199 94.8003 142.592 94.5186 144.581C94.3864 145.515 97.1832 149.143 96.9314 150.685L95.8983 150.729L95.6531 151.122C97.7875 152.659 104.258 163.995 106.023 167.059C126.931 153.047 146.356 137.724 163.255 118.991C164.941 117.122 167.287 119.424 169.417 114.56C172.444 114.729 173.513 115.496 176.386 114.277ZM74.6936 217.092C73.4218 215.802 70.075 214.252 68.3005 213.392C69.0299 217.229 70.797 217.349 74.2549 217.926L74.6936 217.092ZM166.495 166.412C152.319 175.619 136.457 194.833 123.406 199.808C119.996 199.075 118.025 193.746 114.847 191.706C112.196 190.004 110.585 191.404 108.306 189.595C106.859 188.446 107.052 188.288 105.533 188.106C104.069 190.142 106.372 191.205 104.494 191.957C99.6503 190.857 99.0076 187.92 95.6826 187.061L95.2963 187.508L96.3158 190C94.0923 189.713 94.0132 188.028 92.1184 187.932L92.2536 187.764L91.8372 187.929C91.9353 187.926 92.0289 187.927 92.1184 187.932L91.2725 188.991C88.959 186.776 87.5164 183.111 85.3954 181.801L84.9348 182.271C84.9938 183.34 85.3266 185.313 84.8381 185.986C81.5629 184.293 79.3089 177.517 77.8431 176.399C69.7604 170.228 52.907 122.641 47.478 120.699L46.2802 122.133L44.8678 122.014C44.0325 123.394 44.1797 122.668 44.414 124.267C46.8724 125.587 46.0548 123.567 47.6621 125.285C47.5735 126.964 47.8275 126.39 46.8783 127.649L45.9876 127.743L44.754 126.596L43.8189 126.9C44.2016 128.403 46.0177 129.031 46.4504 129.9C47.1635 131.333 47.1406 139.157 46.8803 140.526C43.7687 142.767 44.9943 143.079 46.5704 147.325C46.6437 147.39 46.7177 147.455 46.7913 147.52C47.2649 146.339 47.3412 145.76 48.4611 145.102C50.6401 148.805 46.6119 167.724 45.4327 172.05C45.0244 173.548 47.306 172.651 47.3359 174.961L46.8015 175.54L45.6826 175.121C44.8285 177.24 42.2076 186.704 42.4623 188.654C43.2511 194.685 44.4713 192.102 42.6183 199.066C49.0159 203.211 56.5992 206.584 63.5686 209.77L62.2631 210.862L61.957 211.348C61.9914 211.385 62.0265 211.422 62.062 211.459C62.1334 211.531 62.2071 211.603 62.2831 211.673C62.3591 211.743 62.4375 211.811 62.5178 211.878C62.8794 212.18 63.2829 212.45 63.7109 212.68C64.567 213.14 65.5215 213.441 66.436 213.513L67.0157 212.95L67.5842 211.658C70.6765 213.015 75.5476 214.967 78.1584 216.807C77.6993 217.684 77.0123 218.045 76.1975 218.631L76.1288 219.416C78.4529 221.012 83.9813 223.517 86.8266 224.823C96.7012 229.359 111.472 239.45 121.832 240.969C119.419 239.358 110.612 235.021 109.962 233.512C115.244 234.205 118.256 237.844 121.203 238.306L121.391 237.817C121.644 237.176 121.736 237.043 122.146 236.465C123.873 236.637 129.34 240.059 131.393 241.214C132.61 240.637 134.161 239.694 135.467 240.274C161.036 251.609 188.321 262.75 212.774 276.209C223.068 266.557 236.648 252.793 244.239 240.903C220.536 243.013 199.03 250.842 175.423 244.627C175.504 242.265 175.764 238.778 174.2 236.916C172.393 235.999 169.896 236.465 169.355 235.38C167.767 232.197 169.067 230.97 165.015 230.986C162.45 229.251 162.2 226.958 160.848 224.413C160.077 222.962 159.578 224.675 158.267 223.313C158.606 219.949 160.866 216.648 159.46 214.706C158.39 215.308 157.839 217.083 157.301 218.302L156.941 218.074C157.728 212.225 159.464 205.256 160.607 199.336C162.665 188.378 164.628 177.403 166.495 166.412Z" fill="#F5F2EE"/>
<path fill-rule="evenodd" clip-rule="evenodd" d="M70.7762 1.42049C79.4113 4.62369 85.9426 19.5126 90.4474 26.545L92.0429 26.8819C91.8724 30.419 90.6619 28.1118 92.0238 32.4995C95.4051 43.3936 93.5887 55.994 84.3417 63.7693C84.059 63.7374 82.4227 63.5962 82.2878 63.7206C73.7505 71.6359 60.8673 80.4643 49.2842 73.3361C46.9084 71.8738 44.9206 69.9304 42.9345 67.9634C33.9448 56.8797 27.8938 42.4846 27.5339 28.1192L27.7588 27.7262C31.3333 21.3351 31.7597 16.7503 34.4393 10.1104C35.2643 8.06612 39.4994 6.46861 40.2167 4.46297C39.1855 4.16619 39.0782 4.16601 38.1066 3.61635C38.1513 2.96483 38.1889 2.80333 38.5793 2.26653C42.6356 -3.30898 49.6382 2.81008 53.1723 5.61665L52.6384 5.45974C54.7281 7.02848 56.0863 8.54253 58.7549 8.01898L58.9613 7.24047L57.3655 5.78715C57.799 3.71708 59.1837 5.05292 60.0447 1.6963C62.2028 1.35829 63.7498 3.35803 66.0176 3.02524C66.5953 2.24258 66.6292 2.12232 67.4234 1.51078C68.1184 1.78783 68.7421 2.07391 69.3694 2.48815L70.7762 1.42049ZM63.3214 30.5095C61.7824 30.5502 60.0639 30.4426 58.8153 31.4768C56.0767 33.7446 53.3467 35.7544 54.269 39.6802C57.1829 37.6833 62.3735 34.5895 63.9625 31.5688C63.6497 30.7159 63.9202 30.9712 63.3214 30.5095Z" fill="#F5F2EE"/>
<path fill-rule="evenodd" clip-rule="evenodd" d="M356.528 152.101C359.625 153.633 367.795 160.085 368.902 163.071L367.676 163.439L367.387 163.977C369.045 165.356 367.443 164.092 369.631 164.21C370.007 164.703 370.518 165.409 370.759 165.974C376.714 179.9 379.206 186.335 374.31 200.602C377.518 203.224 372.458 205.794 371.236 208.489C370.222 210.728 371.57 209.844 370.56 211.99C369.534 212.4 369.108 212.597 368.138 213.121L367.932 213.952C368.995 214.292 369.102 214.261 370.009 214.967C369.814 216.238 368.709 217.317 367.725 218.106C355.057 228.262 331.994 227.763 321.263 215.104C317.889 208.72 310.296 194.132 310.484 186.889C310.548 184.435 312.127 182.084 312.815 180C313.174 178.911 311.552 176.738 312.713 175.48C314.807 173.211 319.732 170.153 320.357 167.214L319.912 166.847C317.2 167.805 318.236 169.79 314.986 169.798L314.686 169.207C319.324 163.292 321.188 166.759 324.693 165.161C324.148 164.55 323.751 164.445 323.005 164.045L323.339 163.271C327.71 160.227 330.481 161.576 335.46 160.017L335.629 159.558C334.863 159.184 334.418 159.05 333.88 158.38C338.126 155.904 341.916 156.612 346.919 155.82L346.569 155.449L346.473 155.844L346.09 155.323C344.195 154.794 341.747 154.798 339.733 154.71C346.129 152.555 351.01 154.378 356.528 152.101ZM354.907 183.361C350.109 184.871 334.754 188.713 335.101 194.59L335.348 194.888C339.546 194.256 358.041 190.362 354.907 183.361Z" fill="#F5F2EE"/>
<path fill-rule="evenodd" clip-rule="evenodd" d="M212.511 39.8942C226.85 48.5945 217.77 54.1838 227.677 60.2768L228.474 59.9104C228.804 58.6486 229.066 57.4743 229.337 56.1988L229.943 55.9217C235.589 58.6995 244.63 69.0718 248.077 74.5844C253.228 82.8195 254.36 92.9999 251.763 102.285C251.419 103.517 251.629 104.96 251.291 106.195C249.457 109.952 246.131 109.443 243.392 108.109C243.442 107.359 243.582 106.892 243.755 106.162C242.257 106.618 241.341 107.253 240.548 108.552C240.643 109.63 240.681 109.892 240.971 110.942L241.044 111.2C239.794 111.945 238.495 112.832 237.123 113.24C236.322 112.459 235.972 112.164 235.082 111.482L234.342 111.987C234.563 113.379 234.557 113.444 234.298 114.821C230.394 118.308 230.845 113.036 228.708 111.483C224.596 111.713 225.687 113.855 223.357 115.979C222.012 116.771 220.606 117.453 219.153 118.021C200.137 125.459 177.871 100.573 171.649 84.648C170.768 82.3936 172.204 80.2971 171.209 77.6413C168.505 75.2208 167.913 74.8602 170.037 72.7721C171.402 71.431 171.911 61.1897 172.373 60.4633C180.865 47.1134 195.508 33.2514 212.511 39.8942ZM228.567 66.6019C228.404 66.3197 225.277 65.1061 224.675 64.875L223.828 65.0216C221.884 70.0055 219.066 63.9489 215.963 66.7488L216.062 67.9494C210.186 71.155 195.091 78.9734 195.63 86.8394C196.939 88.1996 199.428 88.3538 201.266 88.4233C207.441 87.2473 238.608 83.968 228.567 66.6019ZM250.188 101.068C248.993 103.056 248.58 103.67 247.045 105.397C247.169 105.658 247.38 106.167 247.547 106.361C248.906 105.164 250.393 103.986 250.629 102.153L250.188 101.068Z" fill="#F5F2EE"/>
</svg>
