<svg width="570" height="369" viewBox="0 0 570 369" fill="none" xmlns="http://www.w3.org/2000/svg">
<path d="M0 199.26C0.54 199.26 1.08 198.72 1.08 198.18C1.62 196.02 2.7 196.02 3.24 196.02C3.78 196.02 4.32 195.48 4.86 194.94C5.4 194.4 5.94 194.4 7.02 194.94C9.18 195.48 10.8 195.48 12.42 194.4C12.96 193.86 14.04 193.86 15.66 193.86C16.74 194.4 17.82 194.4 19.44 193.86C19.98 193.32 19.98 193.32 19.98 193.86C21.6 194.4 22.68 194.4 23.76 193.86C24.84 193.32 25.92 193.86 27 194.4C27.54 194.4 28.08 194.4 28.08 193.86C28.62 193.32 29.16 193.32 29.16 193.32C30.78 193.86 33.48 193.86 36.72 193.86C37.8 194.4 38.88 194.4 39.96 193.86C40.5 193.32 41.58 193.32 42.66 193.86H43.74C44.28 193.86 44.82 194.4 44.28 194.94H45.36C45.9 194.4 46.44 194.4 46.98 194.94C46.98 195.48 47.52 195.48 48.06 195.48C48.06 195.48 48.06 194.94 48.06 194.4L48.6 193.86C50.22 193.86 52.38 193.86 54 193.32C55.62 193.32 57.24 193.32 58.86 193.86C59.4 194.4 60.48 194.4 61.02 193.86C61.56 193.86 62.64 193.86 63.18 193.86C63.72 193.86 64.26 193.86 64.8 194.4C65.34 194.94 65.88 194.4 66.42 193.86C66.96 194.4 67.5 194.4 67.5 194.4C68.04 193.86 69.12 193.32 69.66 193.86C70.2 194.4 70.74 193.86 71.28 193.32C71.82 193.86 72.36 193.86 72.9 193.32C72.9 192.78 73.44 193.32 73.98 193.86C74.52 193.86 74.52 193.86 74.52 193.86C75.6 193.32 76.68 192.78 77.22 193.32H78.3C78.84 192.78 79.92 192.24 81 192.24C81.54 192.78 82.62 192.78 83.16 192.78C83.7 193.32 83.7 193.32 83.7 193.32C83.7 193.86 83.7 194.4 84.24 194.94C84.24 193.32 86.94 192.24 87.48 192.24C88.02 192.78 89.1 192.78 89.64 192.24C90.18 192.24 91.26 192.24 91.8 192.78C92.34 192.24 93.42 192.24 93.96 192.24C94.5 192.78 95.04 192.24 95.58 191.7H96.66C100.44 191.16 102.06 190.62 105.84 191.16H108.54C109.62 191.16 110.7 191.16 111.24 191.7C112.32 191.7 112.86 191.16 113.4 190.62C113.94 190.08 113.94 190.08 113.94 190.08H116.64C117.18 190.08 117.18 190.62 117.18 191.16C117.18 191.7 116.64 192.24 115.02 192.24C115.02 192.78 115.56 193.32 116.1 193.32C117.18 192.78 118.26 192.78 119.34 193.86C119.88 194.4 119.88 194.4 119.88 193.86C119.88 193.32 119.88 193.32 120.42 193.32C120.96 193.32 120.96 193.32 120.96 193.32C120.96 192.78 120.96 192.78 120.42 192.78H119.34L118.8 192.24C119.34 191.7 119.34 191.16 118.8 190.62C118.26 190.62 119.88 187.92 119.88 190.08C120.42 190.62 120.96 191.16 121.5 190.62C122.04 190.62 122.58 191.16 123.12 191.7C123.12 189.54 124.2 189 126.36 189.54C126.9 189.54 126.9 189.54 127.44 189L127.98 190.08C127.44 190.08 127.44 190.08 127.44 190.62C125.82 192.24 127.98 192.24 128.52 191.7C128.52 191.16 128.52 191.16 129.06 190.62C129.6 190.62 129.6 190.08 129.06 189.54C128.52 189 128.52 188.46 129.6 188.46C130.14 188.46 130.14 188.46 130.68 187.92C131.22 187.92 131.76 187.92 132.3 187.92C132.84 187.92 133.38 187.92 133.92 187.92C134.46 188.46 135 188.46 135.54 188.46C136.08 188.46 137.7 187.92 139.86 187.38C140.4 186.84 140.4 186.84 140.94 186.84C141.48 187.38 142.56 187.38 143.64 186.84C144.18 186.3 145.26 186.3 145.8 186.3H149.58C150.12 186.3 150.12 186.3 150.12 185.76C150.66 185.22 152.28 184.68 153.9 185.22H154.98C155.52 184.68 156.6 185.22 157.68 186.3C158.22 185.76 159.3 185.22 159.84 185.22C160.38 185.22 160.92 185.22 161.46 185.22C163.08 185.22 164.16 184.68 164.7 184.14C165.78 183.06 166.86 183.06 167.94 183.6H168.48C169.02 183.06 169.02 183.06 169.56 183.06C170.64 183.6 171.72 183.06 172.8 182.52C173.34 181.98 174.42 181.98 174.96 181.98C175.5 181.98 176.04 181.98 176.58 182.52C177.12 182.52 177.66 182.52 178.2 181.98C178.2 181.98 178.74 181.98 179.82 181.98C180.36 182.52 180.9 183.06 182.52 183.06H183.6C184.68 183.06 185.22 183.6 184.68 184.14C184.14 184.68 184.68 185.22 185.22 185.22C186.84 184.68 187.92 183.6 187.92 183.06C187.92 181.98 188.46 181.98 189 182.52L189.54 183.06C189.54 185.22 191.7 185.76 191.7 184.14V183.6C191.16 183.06 190.62 182.52 191.16 181.98C191.7 181.44 191.7 180.9 192.24 180.36C192.24 179.82 192.78 179.82 193.32 179.82C194.4 179.28 194.94 179.28 195.48 179.82C196.02 180.36 196.56 180.36 197.1 179.82C197.64 178.2 199.26 178.2 200.88 178.74V179.28C200.88 179.82 201.42 180.36 201.96 180.36C203.04 180.36 201.42 181.44 201.42 181.44C200.88 181.44 199.26 181.98 199.26 181.98C199.26 182.52 198.72 182.52 198.18 183.06C198.18 183.06 198.72 183.06 199.8 183.06C200.88 182.52 201.96 181.98 203.04 182.52C204.12 183.06 205.2 182.52 206.28 181.98C206.82 181.98 206.82 181.98 207.36 182.52C207.36 183.06 207.9 183.6 208.44 183.6C208.98 183.6 208.98 183.6 209.52 184.14C210.06 184.68 211.14 184.14 211.68 183.06C210.6 183.06 210.06 183.06 209.52 182.52C208.98 181.98 209.52 181.44 210.06 181.44C211.68 181.44 212.22 180.9 212.76 180.36H213.84C214.38 179.82 214.38 179.82 213.84 179.28C213.3 179.28 213.3 179.28 213.3 178.74C213.84 178.2 214.38 178.2 214.92 178.2C216 178.2 216.54 178.2 216.54 178.74C217.08 179.28 217.08 179.28 216.54 179.28C216 179.28 216 179.28 216 179.82C216 180.36 216.54 180.36 217.08 180.36C218.16 180.36 218.7 180.36 219.24 180.9C219.78 181.44 220.32 181.44 220.32 180.36C220.86 179.82 221.94 179.28 222.48 179.82C223.02 180.36 224.1 179.82 224.64 179.28C225.18 177.66 226.26 177.66 227.88 178.2C229.5 178.74 231.12 178.2 232.74 177.12C233.28 176.58 234.36 176.58 235.44 177.12H237.06C238.14 177.12 239.22 177.12 239.76 177.66C240.3 178.2 240.84 178.2 241.38 177.12C241.38 176.04 241.92 176.04 243 177.12V177.66H244.08C243.54 177.12 243.54 176.58 244.08 176.04C244.62 175.5 244.62 174.96 244.62 174.42C244.62 172.8 246.24 171.72 246.24 173.88C246.24 174.96 246.78 174.96 247.86 174.42C248.4 174.42 248.4 174.42 248.4 174.42C248.4 174.96 248.4 174.96 248.94 174.96C249.48 175.5 250.56 175.5 252.18 175.5C252.72 175.5 252.72 175.5 253.26 174.96C253.8 174.42 254.34 173.88 254.88 174.42C255.42 174.96 255.96 174.42 256.5 173.88C256.5 173.34 257.04 173.34 257.58 173.34C258.12 173.88 259.2 173.88 260.82 173.88C260.82 173.88 261.36 173.88 261.9 174.42C261.9 176.04 262.44 176.04 262.98 176.04C263.52 175.5 263.52 175.5 263.52 174.96L262.98 174.42C262.98 173.88 263.52 173.34 264.06 172.8C265.68 172.8 266.76 172.8 267.3 172.26H267.84V173.34C267.3 173.34 266.76 173.34 266.76 173.88C268.38 174.96 268.92 174.96 269.46 173.34C270 172.8 270.54 172.26 271.08 172.26C271.62 172.26 272.16 172.26 272.16 171.72C272.16 171.72 272.7 171.72 273.24 172.26C273.24 172.8 272.7 173.34 272.16 173.34C271.62 173.88 271.08 174.42 270.54 175.5C270.54 176.04 271.08 176.04 271.62 176.04C272.16 176.04 272.16 176.04 272.16 175.5C271.62 174.96 271.62 174.42 272.7 174.42C273.78 173.88 274.86 173.88 276.48 174.42C276.48 174.96 276.48 174.96 277.02 174.96C277.02 174.42 277.56 173.88 278.64 173.34C279.18 173.34 279.18 173.34 279.18 173.88C279.18 174.42 279.18 174.42 279.18 174.42C278.64 174.96 278.64 174.96 278.64 175.5C278.64 175.5 278.1 176.04 277.56 176.58C278.64 177.12 279.18 177.12 279.18 176.04C279.72 175.5 280.26 174.96 280.26 174.42C280.26 172.8 280.26 171.72 280.26 171.72C280.8 171.18 280.8 171.18 281.34 171.18C281.88 171.18 281.88 171.18 282.42 170.64H282.96C283.5 171.18 284.04 171.18 284.58 170.64C284.58 170.1 284.58 170.1 285.12 170.64C285.66 170.64 286.74 170.1 287.28 169.56C287.82 169.02 288.36 169.02 288.9 169.56C289.44 170.1 289.98 170.1 289.98 169.56C290.52 169.02 291.06 169.02 291.06 169.02C291.6 168.48 292.14 168.48 292.68 168.48C293.22 169.02 294.3 169.02 294.84 168.48C295.38 168.48 296.46 168.48 297 168.48C297.54 168.48 298.08 169.02 298.08 170.1C298.62 170.64 298.62 170.64 299.16 170.64C299.7 170.64 299.7 170.64 299.7 170.1C299.7 169.56 299.7 169.02 300.24 169.02C300.78 169.02 301.32 169.02 301.32 169.56C302.4 171.18 303.48 170.64 304.02 169.02C304.56 167.4 305.64 167.4 306.18 169.02C306.72 169.56 307.26 169.56 307.26 169.02C307.8 168.48 307.8 168.48 308.34 168.48C308.34 168.48 308.34 168.48 308.88 167.94C310.5 167.94 311.04 167.4 311.58 166.32C312.12 165.78 312.66 165.78 313.74 165.78C315.36 165.78 316.98 165.24 319.14 164.7C319.68 164.7 320.22 164.16 320.76 163.62V162.54H319.68C319.14 163.08 318.06 163.08 317.52 162.54C317.52 162 316.98 162 316.44 162C315.9 162 314.82 161.46 314.82 160.92H315.36C316.44 160.92 318.06 160.38 320.22 159.84C322.92 159.84 324 159.84 324.54 159.3C324 159.84 324 160.92 324 161.46C323.46 162 322.92 162.54 322.38 163.08C321.84 163.62 321.84 163.62 321.84 163.62C322.38 163.62 323.46 163.62 324 164.16C324.54 164.7 325.08 165.24 325.62 165.24H326.7C327.24 165.24 327.24 165.24 327.24 164.7C327.24 164.16 327.24 164.16 326.7 164.16V163.62C327.24 163.62 327.24 163.62 327.78 163.08C328.32 163.08 328.86 163.08 329.4 163.08C329.94 163.08 330.48 163.08 330.48 163.62C330.48 164.16 330.48 164.16 331.02 164.7C331.02 164.7 331.56 165.24 332.1 165.78C332.64 165.78 333.18 165.78 333.72 165.24C334.26 165.24 334.26 165.24 333.72 164.7C333.72 164.7 331.02 164.16 332.64 162.54C333.18 162.54 333.72 162.54 334.26 163.08C335.34 163.62 335.88 163.62 335.88 162.54C335.88 162 335.88 162 336.42 162C336.42 162 336.42 162 336.42 161.46C336.42 160.38 335.88 159.84 334.8 159.84H332.1C332.1 159.3 332.64 159.84 333.18 160.38C331.56 160.92 330.48 160.92 329.94 160.38C329.4 159.84 328.86 159.84 328.32 159.84L327.78 159.3C328.32 158.76 328.32 158.76 328.32 158.76C329.94 158.22 331.02 157.68 331.56 157.68C332.1 157.68 333.18 157.68 333.72 157.14C334.26 157.14 334.8 157.68 335.34 158.22C335.34 157.68 335.34 157.68 335.88 157.68C336.42 157.14 339.12 157.68 339.12 158.22C339.66 159.84 339.12 160.38 337.5 160.38C337.5 160.92 338.04 161.46 338.58 161.46H339.12C340.2 160.92 341.28 161.46 342.9 162C344.52 163.62 344.52 161.46 344.52 160.92C344.52 160.38 344.52 160.38 345.06 160.92C345.6 161.46 346.14 161.46 346.14 160.92C346.68 160.38 347.22 159.3 347.76 158.76C348.3 158.22 348.3 157.68 348.3 157.14C348.3 155.52 348.84 154.98 350.46 154.98C351.54 154.44 353.16 154.44 355.86 154.44C356.4 154.44 357.48 154.44 358.56 153.9C359.1 153.36 360.18 153.36 361.26 153.9C360.72 154.44 360.18 154.44 359.64 154.44C359.1 154.44 359.1 154.98 358.56 155.52C359.1 155.52 359.64 155.52 360.18 154.98C360.18 154.44 360.18 154.44 360.72 154.98C360.18 156.06 360.72 157.14 361.26 157.68C361.8 158.22 361.8 159.3 361.26 159.84C361.26 160.38 361.26 160.92 361.8 160.92C362.34 160.92 362.88 160.92 362.88 160.38V159.3C363.42 158.22 363.96 157.68 364.5 157.14C365.04 157.14 365.04 156.6 365.04 156.06C363.42 154.44 366.12 153.9 367.74 155.52V156.06C368.82 153.36 370.44 151.74 372.6 151.74H373.14C375.84 151.2 378 150.66 379.08 150.66C380.7 150.66 381.78 150.12 382.32 149.04C382.86 148.5 382.86 148.5 383.4 148.5C383.94 148.5 384.48 148.5 385.02 147.96C385.56 147.96 385.56 147.96 385.56 147.42C385.56 146.88 386.1 146.34 386.64 146.88C387.18 146.88 387.18 146.88 387.18 146.34C387.18 145.8 387.72 145.26 388.8 145.26C389.88 145.26 390.42 144.72 390.42 144.18C390.42 144.18 390.96 143.64 391.5 143.1C390.96 142.56 390.96 141.48 391.5 140.4C391.5 139.86 392.04 139.32 392.58 139.32C393.66 138.78 394.74 137.7 396.36 136.08C397.44 134.46 399.06 133.38 401.76 133.38C402.3 132.84 402.3 132.84 402.84 132.84C403.38 132.84 403.38 132.3 403.92 131.76C404.46 130.14 405.54 129.06 407.16 129.06C407.7 129.06 408.24 128.52 408.24 127.98C408.78 126.36 409.86 125.82 411.48 124.2C412.02 123.66 412.56 123.12 412.56 122.58C412.56 120.96 413.64 120.42 415.26 120.42C415.8 120.42 416.34 119.88 416.88 119.34C417.42 119.34 417.42 119.34 417.42 118.8C417.42 118.8 417.42 118.8 417.96 118.8C419.04 118.26 419.58 117.72 419.58 116.64C420.12 116.1 420.12 116.1 420.66 116.64C420.66 117.72 421.74 116.64 421.74 116.1C421.74 115.56 422.28 115.56 422.82 115.56C423.36 115.56 423.36 115.56 422.82 115.02C422.28 114.48 422.28 113.94 422.82 113.4C422.82 112.86 422.82 112.32 422.82 111.78C422.82 110.7 423.36 110.7 423.9 111.24C424.44 111.78 424.44 111.78 424.98 111.24C425.52 110.7 425.52 110.7 426.06 110.7C426.6 110.7 427.14 110.16 427.68 109.08C427.68 109.08 428.22 108.54 428.76 108C429.3 108 429.84 107.46 429.3 106.92C429.84 106.38 429.84 106.38 429.84 106.38C430.38 105.84 430.92 105.84 430.38 105.3C430.38 104.76 430.38 104.22 430.38 104.22H431.46V104.76C432 104.22 432.54 104.22 432.54 104.22C432.54 103.68 432.54 103.68 432 103.68C430.38 103.14 430.92 102.6 432.54 102.6C432.54 102.06 433.08 101.52 433.62 100.98H434.7C435.24 100.98 435.78 100.98 435.78 100.98C437.4 99.36 437.94 99.36 438.48 99.36C439.02 99.9 439.56 100.44 439.56 99.9C439.56 99.36 440.1 99.36 440.64 98.82H440.1C439.56 98.28 439.56 98.28 439.56 98.82C439.02 99.36 439.02 98.82 439.02 98.28C439.02 97.74 439.02 97.74 439.56 97.2C440.1 97.2 440.1 97.2 440.1 96.66C440.1 96.66 440.1 96.66 440.64 96.66C440.64 96.12 441.18 96.12 441.72 96.12C442.26 96.66 442.8 96.12 443.34 95.58C443.88 95.04 444.42 94.5 445.5 94.5C446.58 93.96 447.12 93.42 446.58 92.88H446.04C445.5 92.88 445.5 92.88 445.5 92.88C445.5 93.42 445.5 93.42 444.96 93.42C444.42 93.96 443.88 92.88 444.42 92.34C444.96 92.34 445.5 91.8 446.04 91.26H446.58C446.04 90.18 446.58 89.64 447.66 89.1C448.2 88.56 448.74 88.02 449.28 87.48L450.36 86.4C450.9 85.86 451.44 85.32 452.52 85.86C451.98 85.32 451.98 84.24 452.52 83.16V82.62C451.98 82.62 451.98 82.62 451.98 82.08C452.52 81.54 452.52 81.54 452.52 81C452.52 81 453.06 81 453.6 80.46C453.6 81 453.6 81 454.14 81C454.14 80.46 454.68 81 455.76 82.08C455.76 82.08 455.76 81.54 455.76 81C455.76 79.92 455.76 79.38 456.3 78.84C456.84 78.3 456.84 78.3 456.84 77.76C456.84 77.22 457.38 75.6 457.92 76.14C458.46 76.14 459 75.6 459.54 75.06C459.54 74.52 459.54 74.52 460.08 74.52C460.08 74.52 459 73.98 460.62 72.36C461.16 72.36 461.16 72.36 461.7 71.82C462.78 71.82 463.32 71.28 463.32 70.2C463.32 69.66 463.86 69.66 464.4 69.66H464.94C466.56 69.12 467.1 68.58 467.1 66.96C467.64 66.96 468.18 67.5 468.18 68.04C468.72 68.58 469.26 68.58 469.8 68.58C469.8 68.04 469.8 68.04 470.34 68.04C470.88 68.04 471.96 66.96 470.34 66.96C470.34 66.96 468.72 67.5 468.18 66.96C468.18 66.42 468.18 65.88 468.72 65.88L469.8 64.8C469.8 64.26 469.8 64.26 470.34 63.72C470.34 63.72 470.34 63.18 469.8 62.64C469.8 62.1 469.8 62.1 470.34 62.1C470.88 62.64 471.96 62.1 473.58 60.48L474.66 59.4C475.2 58.86 475.74 58.86 475.74 58.32C475.74 57.78 475.74 57.78 476.28 57.24L478.44 55.08C478.98 54.54 479.52 54 479.52 54C477.36 52.38 479.52 50.76 481.14 51.3C481.68 51.3 482.22 50.76 482.22 50.22C482.22 49.68 482.22 49.14 482.76 48.6C483.3 48.6 483.84 48.06 484.38 47.52C485.46 47.52 486 47.52 486 47.52C486.54 47.52 486.54 47.52 486.54 47.52C487.08 46.98 487.08 46.98 487.08 46.44C487.62 45.9 488.16 45.36 488.7 45.9C488.7 46.44 488.7 46.44 489.24 45.9C489.24 45.9 489.24 45.9 489.24 45.36C489.24 44.28 489.24 43.74 488.7 43.2C488.16 42.66 488.7 42.66 489.24 42.12C489.78 41.58 490.86 40.5 491.4 38.88C491.94 38.88 491.94 38.34 491.94 37.8C491.4 37.8 491.4 37.8 491.4 37.26C491.4 36.72 494.1 33.48 494.64 33.48C496.8 33.48 497.88 32.4 497.88 30.78C497.88 28.62 498.96 28.08 500.58 26.46C501.12 25.92 501.66 26.46 502.2 27C502.2 26.46 502.2 26.46 502.74 25.92C503.28 25.92 502.74 25.38 502.2 24.84H502.74C503.28 24.3 503.28 24.3 503.82 24.3C503.82 23.22 503.82 22.68 503.82 22.68C504.36 22.14 504.36 22.14 504.9 21.6C504.9 21.06 505.44 20.52 505.98 19.98C506.52 19.98 507.06 19.98 507.06 19.98C508.14 19.98 508.68 19.44 508.68 18.36C508.14 17.28 508.68 16.74 509.76 16.2C510.3 16.2 510.3 16.2 510.84 15.66C512.46 15.12 513 14.58 513.54 14.58C514.08 14.58 514.62 14.04 514.08 12.96C514.08 12.42 514.08 11.88 514.62 11.34C515.16 10.8 515.7 10.8 516.24 10.26C516.24 9.72 516.78 9.72 517.32 9.18001C517.86 8.64002 518.4 7.56003 517.86 7.02001L518.94 5.94002C519.48 5.40003 520.02 4.86 520.02 4.86H521.64C522.72 4.86 523.26 4.86 523.26 4.86C523.8 5.40003 524.34 5.40003 524.88 5.40003H525.42C525.42 4.86 525.42 4.32001 525.96 3.78002C526.5 3.78002 526.5 3.24002 526.5 2.70003C526.5 1.62001 527.04 1.62001 527.58 2.16C528.12 2.16 528.66 1.62001 529.2 1.08002V0.540025C530.28 0.540025 530.82 0.540025 530.82 0.540025C530.82 0.540025 530.82 1.08002 530.82 1.62001C531.36 1.62001 531.36 1.62001 531.36 1.08002C531.36 0.540025 531.9 0.540025 532.44 1.08002C532.98 1.08002 532.98 1.08002 532.98 1.08002C532.98 0.540025 533.52 0 534.6 0L535.14 0.540025C534.6 1.08002 534.6 1.08002 535.14 1.08002C535.68 0.540025 536.22 1.08002 536.22 1.62001V2.16C537.3 3.24002 537.3 4.32001 536.76 5.40003C536.22 7.02001 536.22 8.64002 537.3 9.18001V9.72C537.3 10.26 537.3 10.26 537.84 10.26C538.38 10.26 538.38 10.26 538.38 10.8C537.84 11.34 537.84 11.34 538.38 11.88L538.92 12.42C539.46 12.96 540.54 14.04 541.08 15.66C541.62 16.2 541.62 16.74 541.08 16.74C540.54 17.28 540.54 17.82 541.08 17.82C541.62 19.44 541.62 19.98 541.08 20.52C540.54 21.06 540.54 21.6 541.08 22.14C541.62 22.68 542.16 22.68 542.16 23.22C542.16 23.76 542.16 24.84 542.7 25.38C543.24 25.92 543.78 28.08 543.24 29.7C543.24 30.24 543.24 30.24 543.24 30.24C542.7 30.24 542.7 30.24 542.7 30.78C543.24 31.32 542.7 31.86 542.16 32.4C541.62 32.94 541.08 34.02 541.08 34.56C541.08 36.18 540.54 37.8 538.92 39.96C538.38 39.96 538.38 39.96 538.38 40.5C538.38 40.5 538.38 41.04 538.38 42.12C537.84 42.66 537.84 42.66 537.84 42.66C537.84 43.2 537.3 44.28 536.22 45.36C534.6 46.98 532.98 49.14 530.82 51.84C530.82 53.46 528.66 54 528.66 54C528.66 54.54 528.66 55.08 528.12 55.08C527.58 55.08 527.58 55.62 527.58 56.16C527.04 55.62 526.5 55.62 527.04 55.08C527.58 55.08 527.58 54.54 527.58 54C527.04 54 526.5 54.54 526.5 55.08C526.5 56.16 525.96 56.7 525.42 56.7C524.34 57.24 523.8 58.32 523.8 58.86L522.18 60.48C521.64 62.64 520.02 63.72 518.4 65.34H517.32C516.78 65.34 516.24 65.34 515.7 65.88C515.16 66.42 514.62 67.5 513.54 68.58C513.54 69.12 513.54 69.12 514.08 69.12C514.62 69.12 515.16 69.66 515.16 70.2C515.16 71.82 511.92 73.44 511.92 69.66C511.92 69.12 511.92 69.12 511.92 69.12C511.38 69.12 511.38 69.12 511.38 68.58C510.84 69.12 510.3 69.66 510.3 70.2C510.3 71.28 508.14 73.44 507.6 73.98V74.52C507.06 76.14 505.98 77.22 504.36 78.84C503.28 80.46 502.2 81.54 500.58 82.62C500.04 82.62 499.5 83.16 499.5 83.7C498.96 84.24 498.96 84.24 498.96 83.7C498.42 83.7 498.42 83.7 497.88 84.24C497.88 85.32 497.88 85.86 497.34 85.86C497.34 86.4 497.34 86.4 496.8 86.4C496.26 86.94 495.72 86.94 495.72 87.48C495.18 88.02 494.64 88.02 494.1 88.56C494.1 89.1 494.1 89.64 494.1 89.64C494.1 90.18 493.56 90.72 492.48 90.18C491.94 90.72 491.94 90.72 491.94 91.26C491.4 91.8 490.86 91.8 490.86 92.34C490.32 92.88 489.78 93.42 489.24 93.96C488.7 94.5 488.16 95.58 486.54 97.2L483.3 100.44C481.68 100.98 481.14 102.06 481.14 103.14C481.14 103.68 481.14 103.68 480.6 104.22C480.06 104.76 478.98 105.3 478.44 105.84C477.9 106.38 476.82 107.46 476.28 108V108.54C476.28 109.08 475.74 109.08 475.2 109.08C474.66 109.08 474.66 109.62 474.66 110.16C475.2 110.7 474.66 110.7 474.12 110.7C473.04 110.7 472.5 111.24 473.04 112.32H472.5C469.8 113.94 468.18 115.56 467.64 117.18C467.1 117.72 467.1 117.72 467.1 117.72C466.02 118.8 465.48 119.34 466.02 119.88C466.56 119.88 466.56 119.88 466.56 119.88C466.02 120.42 466.02 120.42 465.48 120.42C464.4 120.42 463.32 120.96 462.78 122.58C462.24 123.12 461.7 123.66 461.16 124.2C460.62 124.74 460.08 125.82 460.08 126.36C459.54 126.36 459 126.9 458.46 127.44C457.92 127.98 457.38 128.52 456.84 127.98C456.84 128.52 456.84 129.06 456.3 129.06C455.76 129.6 455.22 130.14 454.68 130.68C454.68 131.22 453.06 133.92 450.9 133.92C450.9 134.46 450.9 134.46 450.9 134.46C450.36 134.46 450.36 134.46 450.36 135C449.82 135.54 449.28 136.62 448.74 137.16C448.2 137.7 447.12 138.78 446.58 139.32C447.12 139.86 447.66 139.86 448.74 139.86C449.28 139.32 449.82 139.32 450.9 139.32C452.52 139.32 453.6 138.78 454.14 138.24H455.22C456.84 138.78 458.46 138.24 460.08 137.16C460.62 137.16 461.16 137.16 461.7 136.62C462.78 136.62 463.32 137.16 463.86 138.24C463.86 138.78 463.86 138.78 464.4 138.78C464.94 139.32 464.94 139.32 464.94 139.86C465.48 140.4 466.02 140.4 466.02 139.86C466.02 139.32 466.56 138.78 467.1 138.78C467.64 138.78 468.18 138.78 468.18 138.24C468.18 138.24 468.18 138.24 467.64 138.24C467.1 137.7 466.56 137.16 467.1 136.62C467.1 136.08 467.1 136.08 467.64 136.08H468.18C468.72 136.08 469.8 136.08 470.34 135.54C470.88 135.54 471.96 135.54 472.5 135.54C473.04 135.54 473.04 135.54 473.04 135C473.04 135 473.58 135 474.12 135C474.66 135 474.66 135.54 474.66 136.08C474.66 136.62 475.2 137.16 475.74 137.16H478.98C480.6 138.78 481.68 138.24 482.76 136.62C483.3 136.08 483.84 136.08 484.92 136.08C485.46 136.62 486 136.62 486.54 136.08C487.08 135.54 487.62 135.54 487.62 135.54C488.16 135.54 489.24 135 490.86 134.46C491.4 133.92 492.48 133.92 494.1 133.92H494.64C494.64 134.46 495.18 135 496.26 135C497.88 134.46 498.96 133.92 499.5 133.92H500.04C500.58 133.38 500.58 132.84 501.12 132.84C501.66 132.84 501.66 132.84 502.2 132.3C502.74 131.76 503.28 131.76 503.82 132.3H504.36C504.9 131.76 505.44 131.22 505.98 131.22C506.52 131.76 506.52 131.76 507.06 131.76H511.38C511.92 131.76 511.92 131.76 511.92 131.22C511.92 131.22 511.92 131.22 512.46 131.22C513 131.76 513 131.76 513.54 131.22C513.54 131.22 514.08 131.22 514.62 131.76C515.16 131.76 515.16 131.76 515.16 131.22C515.16 130.68 515.7 130.68 516.24 130.68C516.78 130.14 517.86 130.14 519.48 130.14C520.02 130.68 521.1 130.68 521.64 130.14C522.18 128.52 523.26 128.52 524.34 129.06C524.34 129.6 524.34 129.6 524.88 129.6C524.88 129.6 524.88 129.6 524.88 129.06C525.42 128.52 526.5 127.98 527.04 127.98C527.58 127.44 527.58 127.44 527.58 127.44L524.88 126.9C524.88 126.36 525.42 125.82 525.96 125.82C526.5 126.36 527.04 126.36 527.58 125.82C528.12 125.28 528.66 125.28 529.2 125.28C530.82 124.74 532.44 124.74 534.6 124.74H535.14C535.68 124.2 536.76 123.66 537.84 123.66C538.38 124.2 539.46 124.2 540 123.66H542.16C543.78 123.12 545.94 122.58 549.72 122.04H552.96C554.04 121.5 555.12 120.96 556.74 120.96C557.82 121.5 558.9 120.96 560.52 120.42C562.14 120.42 563.22 121.5 564.84 122.04L565.38 122.58C564.84 123.12 564.84 123.66 565.38 124.2C565.92 124.74 565.92 125.28 565.92 125.82C566.46 127.98 565.92 129.6 564.3 130.14C565.92 130.14 566.46 130.14 567 130.68L566.46 131.22C565.38 131.76 565.38 132.3 566.46 132.84C567 133.38 567 133.38 567 133.38C567 133.92 567 134.46 567 134.46H566.46C564.84 134.46 564.84 135 565.38 136.08V137.16C564.3 136.62 563.22 136.62 562.68 138.24C562.68 138.78 562.68 138.78 562.14 138.78C561.6 138.24 561.06 138.24 561.06 138.78C561.06 139.32 561.06 139.86 560.52 139.86V140.4C560.52 140.94 559.98 141.48 558.9 141.48H558.36C556.2 143.64 557.28 144.18 557.82 144.72V145.26C558.36 145.8 558.9 146.34 559.44 146.34C560.52 146.34 561.06 146.34 561.6 145.8C561.6 145.8 561.06 145.26 561.06 144.72C561.06 144.72 561.06 144.72 561.6 144.72L562.14 144.18C563.22 144.18 563.76 144.18 563.76 143.64C564.84 143.1 565.92 143.64 566.46 144.18L567 144.72C567.54 145.26 568.08 145.26 568.62 145.26C569.16 145.26 569.16 145.8 568.62 146.34C568.08 146.88 568.62 146.88 569.16 146.88C569.7 147.42 569.7 147.96 569.16 148.5C568.62 149.04 568.62 149.58 569.16 150.66C569.7 152.82 568.62 153.36 567 154.98C566.46 154.98 566.46 155.52 566.46 156.6C565.38 156.06 564.3 156.6 563.76 157.14C563.22 157.14 563.22 157.14 563.22 157.68C563.22 158.22 563.22 158.76 562.68 158.22C562.14 158.22 561.6 158.22 561.06 158.22C560.52 158.22 559.98 158.22 559.44 157.68C558.9 157.14 558.36 157.14 557.82 157.68H556.74C554.58 157.68 552.96 157.68 551.88 158.22H548.64C548.1 158.76 547.02 158.76 546.48 158.76C545.94 158.76 544.86 158.76 544.32 159.3C542.7 159.84 540.54 159.84 537.84 159.84C537.3 159.84 537.3 159.84 536.76 159.84C536.22 160.38 535.68 160.38 535.14 160.38C534.6 160.92 534.6 160.92 534.6 160.38C534.06 160.38 534.06 160.38 533.52 160.92C532.44 161.46 530.82 161.46 528.66 161.46C528.12 161.46 527.58 161.46 527.04 162H526.5C524.34 162 522.72 162.54 520.56 163.08H518.94C517.32 163.08 516.24 163.62 514.62 164.16C514.08 164.7 514.08 164.7 513.54 164.7C513 164.7 511.92 164.7 511.38 164.7C510.3 165.24 509.22 165.24 508.14 165.24C505.44 165.24 504.36 165.78 503.28 165.78C502.74 166.32 501.66 166.32 501.12 165.78H500.58C499.5 166.32 498.42 166.86 497.34 166.86C495.72 166.86 494.64 167.4 493.02 167.94C490.86 168.48 487.62 169.02 484.92 169.02C483.3 169.02 482.76 169.02 482.22 168.48C481.68 169.02 481.68 169.02 481.68 169.56C481.68 170.1 481.14 170.1 480.6 169.56C480.06 170.1 479.52 170.64 478.98 170.1C478.44 170.1 477.36 170.1 476.82 170.64C476.28 171.18 474.66 171.18 473.04 171.18C471.42 171.18 470.34 171.18 469.8 171.72C468.18 172.26 466.02 172.8 463.32 172.8C462.78 172.8 462.24 172.8 461.7 173.34H461.16C459.54 173.34 458.46 173.34 457.38 173.88C456.3 174.42 455.22 174.96 453.6 174.42C452.52 174.42 451.98 174.42 451.44 174.96H450.36C448.74 174.96 447.66 174.96 446.58 175.5C445.5 176.04 444.42 176.04 442.8 176.04C440.64 176.58 439.02 177.12 436.86 177.12C436.32 177.12 435.78 177.12 435.24 177.66C434.7 178.2 433.08 178.74 431.46 178.74C429.84 178.2 428.76 178.74 427.14 179.28C426.6 179.82 425.52 179.82 424.44 179.82C423.9 179.28 423.36 179.28 422.82 179.28C422.28 179.82 421.2 179.82 420.66 179.82C418.5 180.36 416.34 181.44 413.64 180.9C412.02 180.9 410.94 181.44 410.94 182.52C410.94 183.06 410.4 183.6 409.86 183.6C409.32 183.6 409.32 183.6 408.78 184.14C408.24 184.68 407.7 184.68 407.16 184.14C406.62 183.6 406.08 185.22 406.08 185.22C406.08 185.76 406.08 185.76 405.54 186.3H405C404.46 185.22 403.92 185.22 403.38 186.3C403.38 186.84 403.38 186.84 403.38 186.84C402.84 187.38 401.76 187.92 401.76 187.92V187.38C402.3 185.76 402.84 185.22 403.38 184.68C403.92 184.14 403.92 183.6 403.92 183.6C403.92 183.06 403.92 183.06 403.38 182.52H402.84C401.76 183.6 400.68 184.14 400.14 183.6C400.14 183.6 399.6 183.6 399.06 183.6C398.52 184.14 397.98 185.22 397.44 185.76C396.9 186.3 395.82 186.84 395.28 186.84C394.2 187.38 393.66 187.92 393.12 189C392.58 189 392.58 189 392.58 189C392.58 189.54 392.58 189.54 392.04 189.54C391.5 190.08 390.42 190.62 389.88 192.24C389.34 192.78 388.8 193.32 388.8 193.32C388.8 193.32 388.26 193.86 387.18 194.94C387.18 195.48 387.18 196.02 386.64 196.02C386.1 196.02 385.56 196.56 385.02 197.1C384.48 197.64 383.94 198.72 383.4 199.26C380.7 201.96 379.08 203.58 377.46 204.66C376.92 205.74 376.38 206.28 375.84 206.28C374.76 206.82 373.68 207.9 372.6 208.98C372.6 209.52 372.06 209.52 371.52 209.52C370.98 210.06 370.98 210.6 370.98 211.14L370.44 211.68C369.36 211.68 368.82 212.22 368.82 212.76C367.74 213.84 367.2 214.38 367.2 214.38C366.12 213.84 365.58 214.38 365.58 215.46C365.04 216.54 363.96 217.08 363.42 217.08C362.88 217.62 362.88 217.62 363.42 218.16C363.42 218.7 362.88 218.7 362.34 218.16C361.8 218.7 361.26 219.24 360.72 219.24C360.18 219.78 359.1 220.86 358.56 221.4C358.02 222.48 356.94 223.56 356.4 224.1H355.32C353.7 224.64 352.62 225.72 351.54 227.34C351 227.88 351 227.88 350.46 227.34C349.92 227.34 349.38 227.88 348.84 228.42C348.3 229.5 347.76 230.04 346.68 230.58C346.14 231.12 345.6 231.12 345.06 231.66C344.52 232.2 343.98 232.2 343.44 232.74L342.9 233.28C342.36 234.36 341.82 235.44 340.2 235.98C339.66 236.52 339.12 237.06 339.12 237.06C338.58 238.14 337.5 238.68 336.96 238.68C336.42 238.68 335.88 238.68 335.88 239.22C335.88 239.76 335.88 239.76 335.34 240.3L332.1 241.92C331.02 241.92 331.02 242.46 331.56 243.54C331.56 244.08 331.56 244.08 331.02 244.62C330.48 244.62 325.08 247.32 328.86 248.94C329.4 249.48 329.4 249.48 329.94 249.48C329.94 249.48 329.94 249.48 330.48 250.02C331.02 250.56 331.02 250.56 331.56 250.02H332.1V250.56C332.1 251.64 331.56 252.18 330.48 252.72H329.94C329.4 252.18 328.86 251.64 328.86 252.18C328.32 252.72 327.78 252.72 327.24 252.18C326.7 252.18 326.7 252.72 326.7 253.26C327.24 253.8 327.24 253.8 327.24 253.8H328.32C328.32 253.8 328.86 253.8 329.4 254.34C329.94 254.88 330.48 254.88 331.02 254.88C332.1 253.8 333.72 253.26 335.34 253.8C336.96 253.8 336.96 253.26 335.34 252.72V251.64H336.42C336.96 252.18 336.96 252.72 337.5 252.72C338.04 253.26 338.04 253.8 337.5 254.34C337.5 254.88 338.58 255.42 339.12 255.42C339.66 255.42 340.2 255.42 340.2 255.96C340.2 256.5 340.74 257.04 342.36 257.04H342.9C343.44 257.58 344.52 258.12 345.6 257.58C346.14 257.58 346.68 258.12 346.68 258.66C346.68 259.2 346.68 259.74 346.68 259.74H348.3C348.84 259.74 349.38 260.28 349.38 260.82C349.92 261.36 349.92 261.36 349.92 260.82C350.46 260.82 351.54 261.36 353.16 261.9V262.44C353.7 262.44 354.78 262.44 355.32 262.98C355.86 263.52 356.4 264.06 356.94 264.6C358.56 265.14 359.1 265.68 359.64 266.22C361.8 268.38 363.42 270 364.5 270.54C365.04 271.08 366.12 271.62 367.2 272.7C368.82 273.24 369.36 271.08 369.36 268.92C369.36 267.84 369.9 266.76 370.44 266.22C370.98 265.68 370.98 265.14 370.98 264.6C370.44 264.06 370.44 263.52 370.98 262.98C371.52 262.44 371.52 261.9 371.52 261.36C371.52 260.82 371.52 260.28 372.06 259.74V258.12C372.06 256.5 372.6 256.5 373.14 254.88C373.14 254.88 373.68 254.34 374.76 253.26C375.3 253.26 375.84 253.26 375.84 253.8C375.84 254.34 375.84 254.88 375.3 255.42C374.76 255.96 374.22 257.04 374.22 257.58C374.22 258.66 373.68 259.74 373.14 260.28V260.82C373.14 261.36 373.14 262.44 373.14 262.98C372.6 264.06 372.6 265.14 372.6 265.68C372.6 266.22 372.6 266.22 372.6 266.22C372.06 266.76 372.06 267.3 372.06 267.84C370.98 267.84 370.98 268.38 371.52 268.92C372.06 269.46 372.06 270.54 370.98 271.08C370.98 271.62 370.98 271.62 371.52 271.62C372.6 272.7 373.14 272.7 373.14 271.08C373.14 270.54 373.14 270 373.68 269.46C374.22 268.92 374.22 268.38 373.68 267.84C374.22 267.84 374.22 267.84 374.22 267.3C374.22 266.76 374.22 266.76 374.76 266.76C375.84 267.3 376.38 267.84 375.84 268.38C375.3 268.92 375.3 269.46 375.3 270C375.3 270.54 375.3 270.54 374.76 271.08C374.76 272.7 374.22 273.78 372.6 273.78C373.68 274.32 374.22 274.86 374.22 275.94C373.68 277.56 373.68 278.64 375.3 280.26C375.84 280.8 376.38 281.34 376.92 281.34C377.46 281.88 377.46 282.42 378 282.96C378 283.5 378 283.5 378.54 283.5C379.08 283.5 379.62 284.04 379.62 284.58C379.62 285.66 380.16 286.2 381.24 286.2C380.7 286.74 380.7 286.74 380.7 286.74C380.7 287.28 380.7 287.82 381.24 287.82C381.78 287.82 381.78 287.82 382.32 288.36C382.32 288.9 382.32 289.44 382.86 289.44C382.86 289.98 382.86 290.52 382.86 291.06C383.94 292.68 383.94 294.3 383.4 297V298.08C383.94 298.62 384.48 299.7 383.94 300.24C383.4 302.4 382.86 304.02 383.4 306.72L382.86 307.8C382.32 308.34 382.32 308.88 382.86 308.88C382.86 310.5 382.86 311.04 382.32 311.04C381.78 311.58 381.78 312.12 382.32 312.66V314.82C382.32 314.82 382.32 315.9 382.32 317.52V318.06C382.86 318.06 383.4 318.06 383.94 318.6C383.4 319.14 382.86 319.68 383.4 320.22C383.94 320.76 383.94 320.76 383.94 320.76C384.48 319.14 385.02 319.14 385.02 320.76C385.56 321.3 386.1 322.38 386.1 323.46L386.64 324C386.64 324.54 386.64 324.54 386.1 324.54C385.56 324.54 385.56 324.54 385.56 325.08C385.56 325.62 385.56 325.62 386.1 325.62C386.64 325.62 386.64 325.62 386.1 326.16V326.7C385.56 327.24 385.02 327.24 384.48 327.24C386.1 328.86 383.4 329.94 383.4 329.94C382.86 331.02 382.32 331.02 381.78 329.94C380.16 331.56 379.08 331.56 378 330.48C377.46 329.94 377.46 329.94 376.92 329.94C376.38 329.94 375.84 329.94 375.3 329.4C374.76 328.86 374.22 328.86 373.68 328.32C373.14 327.78 372.6 326.7 372.6 326.16C372.06 325.62 372.06 325.08 371.52 324.54C370.98 322.38 370.44 320.76 369.9 320.22C367.2 315.9 365.04 312.66 362.34 310.5C361.8 309.96 361.26 309.96 361.26 309.42C360.72 308.88 359.1 306.72 358.56 306.18C358.02 306.18 357.48 305.64 356.94 305.1C354.78 302.94 352.62 301.32 349.92 299.7C348.84 299.16 347.76 298.08 347.22 297.54C346.14 297 345.06 296.46 343.98 295.92C343.44 295.38 342.9 294.84 342.36 294.3C341.82 293.76 340.74 293.22 340.2 292.68C338.58 292.14 337.5 291.06 335.88 290.52C335.34 290.52 334.8 289.98 334.8 289.44C333.18 288.9 332.1 287.82 330.48 287.28C329.94 287.28 329.4 287.28 329.4 286.74C328.86 286.2 327.24 284.58 325.62 284.04C325.08 284.04 324 283.5 323.46 282.96L316.98 279.72C315.36 279.18 314.28 278.64 313.2 278.1C312.12 277.56 311.04 277.56 309.42 277.02C308.88 276.48 308.34 276.48 307.8 276.48C307.26 276.48 306.72 275.94 306.18 275.4C306.18 275.4 305.64 275.4 304.56 275.4C304.02 275.4 303.48 274.86 302.94 274.32C302.94 273.78 302.4 273.24 301.32 273.24C299.7 273.24 298.62 272.7 297.54 271.62C296.46 270.54 295.38 270.54 294.84 272.16C294.84 272.7 294.84 273.24 294.3 273.24C293.76 273.24 293.76 273.24 293.22 273.78C292.68 274.32 292.68 274.32 292.14 274.32C291.6 274.86 291.6 275.4 291.6 275.94H289.44C288.9 276.48 288.36 277.02 288.36 277.02C287.82 278.1 287.28 278.64 286.2 279.18C284.58 280.8 282.42 282.42 280.26 283.5C277.56 286.2 276.48 287.82 274.32 287.82L273.78 288.36C272.16 290.52 270.54 292.14 268.92 292.14C268.38 292.68 267.3 293.22 266.76 293.76C265.68 294.3 264.6 295.38 264.06 296.46C264.06 297 264.06 297.54 263.52 297.54C262.98 297.54 262.44 297.54 261.9 298.08C261.36 298.62 259.74 299.7 259.2 299.7H258.66C259.2 300.24 259.2 300.78 258.66 300.78C258.12 301.32 257.58 301.32 257.04 301.86L254.88 304.02C254.34 304.02 254.34 304.02 254.34 304.02C253.8 304.56 253.26 304.56 252.72 304.56V305.64C252.18 305.64 251.64 305.64 251.64 306.18C251.1 306.72 250.56 306.72 250.02 306.72C249.48 306.72 248.94 307.26 248.94 307.8C248.94 308.34 248.4 308.88 247.86 309.42C247.32 309.96 246.78 309.96 246.24 310.5C245.7 311.04 243.54 313.2 243 311.58C243 312.66 242.46 313.2 241.38 313.2C240.84 312.66 240.3 312.66 240.3 314.28C240.3 314.82 240.3 314.82 239.76 314.82C238.14 316.44 237.06 316.98 235.98 316.98C235.44 316.98 235.44 316.98 235.44 317.52C234.9 318.06 234.9 318.06 234.36 317.52V318.06C234.36 318.6 233.82 319.14 233.28 319.68C231.66 321.3 229.5 322.92 226.8 324C226.26 324.54 225.72 324.54 225.72 324.54C224.1 326.7 222.48 327.78 221.94 326.16C221.4 327.24 221.4 327.78 220.86 328.32C220.32 328.86 219.24 329.4 218.7 329.94C217.62 329.94 217.08 330.48 217.08 331.02C216.54 331.56 216 331.56 215.46 332.1C214.92 332.64 214.38 332.64 213.84 332.64L211.68 334.8C211.14 334.8 210.06 334.8 209.52 335.34C208.98 335.88 207.9 336.42 207.36 336.96C206.82 336.96 206.28 337.5 205.2 338.58C200.88 340.2 198.72 341.28 196.56 343.44C194.94 343.98 194.4 345.06 193.86 345.6H193.32C191.7 346.14 189 347.76 186.3 349.92C184.68 350.46 183.6 351 183.06 351C182.52 351.54 182.52 351.54 182.52 351.54C180.9 352.62 178.74 353.7 176.04 355.32L174.42 356.94C173.88 356.94 173.88 356.94 173.34 357.48C171.72 358.02 170.64 358.56 169.56 359.1C167.4 360.72 165.24 362.34 163.08 362.34C162 362.88 160.92 363.42 160.38 363.96L153.9 367.2C152.28 367.74 151.74 368.28 151.74 368.28C150.12 369.9 149.04 368.28 147.42 367.74C146.88 367.2 145.8 366.66 145.26 366.12C143.64 366.12 141.48 363.96 143.1 363.42C143.64 362.88 143.64 362.34 143.64 361.8C143.64 361.26 143.64 361.26 144.18 361.26C144.72 360.72 145.26 359.64 145.26 359.1C144.72 358.56 144.72 357.48 145.26 356.94C145.26 356.94 145.26 356.94 145.26 356.4H144.72C144.18 356.94 144.18 356.94 143.64 356.94H143.1C142.56 356.4 142.56 356.4 142.56 355.86C142.56 355.32 142.56 354.78 142.56 354.78C143.1 354.24 143.64 353.16 143.64 352.62C143.64 352.08 144.18 351.54 144.72 351C145.26 350.46 144.18 349.38 143.64 349.92H142.56V349.38C143.1 348.84 143.1 347.76 142.56 347.22C142.02 346.68 142.02 346.14 142.02 345.6C143.1 344.52 143.1 343.44 141.48 341.82C140.94 341.28 140.4 340.2 140.4 339.66C138.78 338.04 139.32 336.96 140.94 336.42L145.8 333.18C146.34 333.18 146.34 333.18 146.34 332.64C145.8 332.1 145.8 331.56 147.42 331.56C147.96 331.02 148.5 330.48 148.5 330.48C148.5 329.94 149.04 329.4 149.58 329.4C150.66 329.4 151.2 329.4 151.74 328.86C152.28 328.32 152.28 328.32 152.28 328.32C154.44 327.78 156.06 326.7 156.6 326.16C157.14 325.62 159.84 323.46 164.16 321.84C164.7 321.84 164.7 321.84 164.7 321.3C165.24 321.3 165.78 320.76 166.32 320.22C166.32 319.68 166.32 319.68 166.86 319.14C167.4 319.68 167.94 319.68 168.48 319.14C169.02 318.6 171.18 316.98 171.72 316.98C172.26 316.98 172.8 316.44 173.34 315.9H174.42C174.96 315.9 175.5 315.36 175.5 314.82C174.96 314.28 175.5 314.28 176.04 314.28C177.12 314.28 178.2 313.74 178.74 312.66L179.28 312.12C179.82 311.58 180.9 311.04 181.98 309.96C182.52 309.42 183.6 308.88 184.68 308.88C185.22 308.34 185.22 308.34 185.76 308.34C185.76 308.88 185.76 308.34 185.76 307.8C185.76 307.26 187.92 306.72 188.46 306.72C189 307.26 189.54 306.72 189.54 306.18C189.54 305.1 190.08 304.56 190.62 304.56C192.24 304.02 192.78 303.48 192.24 303.48C192.78 302.94 193.32 302.94 193.86 302.4C194.4 302.4 194.4 302.4 194.94 301.86C195.48 301.32 196.02 300.78 196.56 301.32C197.1 301.32 197.64 301.32 198.18 300.78C198.72 300.24 198.72 300.24 199.26 300.24C199.8 299.16 200.34 299.16 200.88 299.7V298.62C200.88 297.54 201.42 297 201.96 297C201.96 297 202.5 297 204.12 297C204.12 295.92 204.66 295.38 205.2 295.38C207.36 293.22 207.36 293.22 208.98 292.68H209.52C210.06 292.14 210.6 291.6 211.14 291.06C211.68 291.06 212.22 290.52 212.76 289.98C214.92 288.36 216.54 287.28 217.08 286.74C217.62 286.2 218.7 285.66 219.24 285.66C219.78 285.66 219.78 285.12 220.32 284.58C220.86 284.04 220.86 284.04 221.4 284.58C221.4 285.12 221.4 285.12 221.94 285.12C221.94 284.58 221.94 284.04 221.94 284.04C221.94 283.5 221.94 282.96 222.48 282.96C222.48 283.5 222.48 283.5 223.02 282.96C223.56 282.42 224.1 281.88 225.18 281.34C225.72 281.34 226.26 280.8 226.8 280.26C228.42 278.64 229.5 278.1 230.04 277.56C230.58 277.56 230.58 277.56 230.58 277.02C231.12 276.48 231.66 275.94 231.66 275.94C232.2 275.94 233.28 275.4 233.82 274.32C234.36 273.78 234.36 273.78 234.36 273.78C234.9 274.32 235.44 273.78 235.98 273.24C235.98 272.7 235.98 272.7 236.52 272.7L238.14 271.08C238.68 270.54 239.22 270 239.76 270C240.3 269.46 240.3 269.46 240.84 269.46C240.84 269.46 240.84 268.92 241.38 268.38C241.38 268.92 241.92 268.38 242.46 267.84C243 267.3 243.54 266.76 244.08 266.76C244.62 266.76 244.62 266.22 245.16 265.68V265.14C246.78 264.6 247.86 263.52 248.94 262.44C249.48 261.9 250.56 260.82 251.1 260.28C251.64 259.74 251.64 259.74 251.1 259.2C251.1 258.66 251.1 258.66 251.1 258.66C251.1 258.66 248.94 260.28 248.94 258.66C248.4 258.12 247.86 257.58 246.24 257.58C245.7 257.58 245.16 257.58 244.62 257.04C244.08 256.5 244.08 256.5 243.54 257.04C243 257.58 242.46 257.04 241.92 256.5C241.38 255.96 240.84 255.42 240.3 255.42H236.52C235.44 255.96 234.36 255.42 232.74 254.88C232.2 254.34 231.66 253.8 231.12 254.34H230.58C230.04 253.8 229.5 253.8 228.42 253.8C226.8 253.26 225.18 253.26 223.56 253.26C221.94 253.26 219.78 252.72 218.16 252.18C217.62 251.64 216.54 251.64 214.92 251.64C213.84 251.64 212.76 251.64 212.22 251.1C212.22 251.1 211.68 251.1 211.14 251.1H210.6C210.06 250.56 208.98 250.02 207.9 250.02C206.82 250.02 205.74 250.02 205.2 250.02C204.12 250.02 203.58 250.02 203.04 249.48C202.5 248.94 201.96 248.94 201.42 248.94C200.88 248.94 200.88 248.94 200.34 248.4C199.8 248.4 199.26 248.4 198.72 248.4C196.02 248.4 193.32 248.4 191.7 246.78C190.62 246.24 190.08 246.24 189.54 246.78C187.92 247.32 186.3 247.32 185.76 246.24C185.22 245.7 185.22 245.7 184.68 245.7C184.14 246.24 184.14 245.7 183.6 245.16H183.06C183.06 246.24 182.52 246.24 181.44 245.7C180.9 245.7 180.9 245.7 180.36 246.24L179.82 245.7C178.74 244.62 177.12 244.08 174.96 244.62C174.42 245.16 174.42 245.16 173.88 245.16C173.34 245.16 173.34 245.16 173.34 244.62C172.8 244.08 172.8 244.08 172.26 244.62C171.72 245.16 171.18 245.16 170.1 245.16C168.48 245.16 167.4 244.62 166.86 244.08C166.32 244.08 165.78 244.08 165.78 244.08C164.7 244.62 163.62 244.62 162.54 244.08C161.46 243.54 160.38 243.54 158.76 243.54C158.22 243.54 158.22 243.54 157.68 243C157.68 241.92 157.14 241.92 156.6 242.46C156.06 244.08 154.98 243 154.98 242.46C154.44 241.92 153.9 241.92 152.82 241.92C152.28 241.92 151.74 241.92 151.74 241.38H151.2C150.66 241.38 149.58 241.38 149.04 240.84C147.96 240.84 146.88 240.84 146.34 240.84C145.8 240.84 144.72 240.84 144.18 240.3C143.1 240.3 142.02 240.3 141.48 240.3C140.94 239.76 139.86 239.76 138.24 239.76C137.7 240.3 137.16 240.3 136.62 239.76C135.54 239.76 135 239.76 135 240.3H134.46C133.92 239.76 132.84 239.22 132.3 239.22C131.76 239.22 130.68 239.22 130.14 238.68C128.52 238.68 126.9 238.68 125.28 238.68C123.66 238.68 122.58 238.68 120.96 238.14C120.42 238.14 119.88 238.14 119.88 238.68C119.88 239.22 119.88 239.22 119.34 239.22C118.8 239.22 118.8 239.22 118.8 238.68C118.26 238.14 117.72 238.14 116.64 238.14C116.1 237.6 116.1 237.6 116.1 238.14C115.56 238.68 115.02 239.22 115.02 238.68C114.48 238.14 114.48 238.14 113.94 238.14C112.32 237.6 111.24 237.06 110.7 237.06C110.16 237.06 109.62 237.06 109.08 237.06C108.54 237.6 108 237.6 107.46 237.06C107.46 237.6 107.46 237.6 108 237.06C108 237.06 108 237.06 108 237.6C107.46 237.6 106.92 237.6 106.92 237.6C106.38 238.14 105.84 237.6 105.3 237.06C105.3 236.52 105.3 236.52 104.76 236.52C104.22 236.52 103.68 236.52 103.68 237.06C103.14 237.6 102.6 237.6 102.06 237.6C100.98 237.6 100.44 237.6 100.44 237.06L99.9 236.52H99.36C97.74 237.06 96.66 237.06 95.58 236.52C94.5 235.98 93.96 235.98 93.42 236.52C92.34 237.06 91.26 237.06 90.18 236.52C89.64 236.52 90.18 235.44 90.72 235.44C90.72 235.98 90.72 235.98 90.72 235.44H86.4C85.86 235.98 85.32 235.98 84.78 235.44C84.24 234.9 83.7 234.9 83.16 235.44C82.62 236.52 81.54 236.52 80.46 235.44C79.92 234.9 79.92 234.9 79.92 235.44C79.92 235.98 79.38 235.98 78.84 235.98C78.3 235.44 77.76 235.44 77.22 235.44C76.68 235.98 76.14 235.98 75.6 235.44H73.98C72.36 235.44 72.36 234.36 72.36 234.36C71.82 234.9 71.28 235.44 70.74 234.9C70.2 234.9 69.12 234.9 68.58 234.9C68.58 234.36 69.12 233.82 69.66 233.82H67.5C66.96 234.36 66.42 234.9 65.88 234.9C64.26 234.9 62.64 234.36 61.56 233.82C61.02 232.2 59.94 231.66 58.32 233.28C57.78 233.82 54.54 234.9 52.38 234.36C51.3 233.82 50.22 233.82 48.6 233.82C46.98 233.82 44.28 233.28 41.58 232.74C40.5 232.2 38.88 232.2 37.26 232.2C36.72 232.74 36.18 232.74 35.64 232.2C35.1 232.2 34.56 232.2 34.02 232.2C33.48 232.2 33.48 232.2 32.94 231.66C32.4 231.12 32.4 231.12 31.86 231.66C31.32 232.2 30.78 232.2 30.24 231.66C29.7 231.66 29.7 231.66 29.16 231.66L28.62 231.12C29.16 230.58 29.16 230.58 28.62 230.58C28.08 230.58 28.08 230.58 28.08 231.12C28.08 231.66 27.54 231.66 27 231.66C26.46 231.66 25.38 231.66 24.84 231.66C23.76 232.2 22.68 232.2 22.14 231.66C21.6 231.66 21.6 231.66 21.6 232.2C21.06 232.74 20.52 232.74 19.98 232.2C19.44 232.2 18.9 232.2 18.36 232.2C15.66 232.2 14.04 232.2 12.42 232.74C10.26 233.28 9.18 232.74 9.18 232.2C8.64 232.2 8.1 232.2 7.56 232.2C7.02 230.58 5.94 229.5 4.86 228.96C3.24 228.42 2.7 227.34 2.16 225.72C1.62 225.18 1.62 224.1 2.16 223.56C2.16 223.02 2.16 223.02 1.62 222.48C1.62 221.94 1.62 221.4 1.62 221.4C2.16 220.86 2.16 219.78 2.16 219.24C1.62 218.7 1.62 218.16 2.16 217.62C2.7 217.08 2.16 216.54 1.62 215.46C1.08 214.92 1.08 214.92 1.62 214.38C1.62 214.38 1.62 214.38 1.08 213.84C0.54 213.3 0.54 212.76 1.62 212.76C1.62 212.76 2.16 212.22 2.7 211.68C1.08 211.14 1.08 209.52 1.62 206.82C2.16 206.28 2.16 205.74 1.62 205.2C1.08 204.66 1.08 204.66 1.62 204.66C2.16 204.12 1.62 203.58 1.08 202.5C1.08 201.96 1.08 200.88 1.62 200.34C1.62 199.8 1.08 199.8 0 199.8V199.26ZM163.62 227.34C164.16 226.8 164.16 226.26 163.62 226.26C163.08 226.26 163.08 225.72 163.08 225.18H168.48C167.94 224.64 167.4 224.1 166.86 224.1H163.62C163.08 224.1 162.54 224.1 162 223.56C161.46 222.48 160.92 221.94 159.84 222.48C159.3 223.56 158.76 223.56 158.22 223.02C157.68 223.02 157.68 223.02 157.14 223.56C157.14 223.56 156.6 223.56 154.98 223.56C153.9 223.56 153.36 224.1 152.82 224.64H152.28C151.74 224.64 151.2 224.64 150.66 224.64C150.12 225.18 149.58 225.18 149.04 224.64C148.5 224.1 147.42 224.1 146.88 224.1C145.8 224.64 144.72 224.64 144.18 224.64C142.56 224.64 142.02 224.64 142.02 224.1H140.94C140.94 224.64 140.94 225.18 140.94 225.18C141.48 225.72 142.02 225.72 141.48 225.72C140.94 226.26 140.94 226.26 140.94 226.8C141.48 227.34 142.02 227.34 142.56 227.34H143.64C144.18 227.88 145.26 228.42 146.34 228.42C146.88 228.42 147.96 228.42 148.5 228.96H149.04C149.58 228.96 149.58 228.96 149.58 228.42C149.58 227.88 149.58 227.34 147.96 227.34L147.42 226.8C147.96 226.26 147.96 226.26 147.96 226.26C148.5 226.26 149.58 226.26 150.12 226.8C150.66 227.34 151.74 227.34 152.28 226.8C152.82 227.34 152.82 227.34 152.82 227.34C152.82 227.88 152.82 227.88 152.28 227.88C151.74 227.88 151.74 227.88 151.74 228.42C151.74 228.96 152.28 228.96 152.82 228.96C153.36 229.5 153.9 229.5 154.98 229.5H156.6C157.14 230.04 158.22 230.58 159.3 230.04C159.84 230.04 160.92 230.04 162 230.58C162.54 230.58 162.54 230.58 162.54 230.04V228.96H160.38C159.84 228.96 159.84 228.96 159.3 228.42C159.84 227.88 160.92 227.88 161.46 227.88C162 228.42 163.08 228.42 164.16 228.42C164.7 228.42 165.24 227.88 165.24 227.34H166.32C167.94 227.34 169.02 228.96 167.4 230.58C168.48 230.58 169.02 230.58 169.02 230.04C169.02 229.5 169.56 228.96 170.1 228.96C171.72 229.5 172.8 229.5 174.42 229.5C175.5 229.5 176.58 230.04 177.66 230.58H178.74C181.44 230.04 184.14 230.04 185.76 231.66C186.3 231.66 187.92 229.5 185.76 228.96H184.68C183.06 228.42 180.9 227.88 178.2 227.88C176.04 227.88 174.42 227.34 173.88 225.72C173.88 225.18 173.88 225.18 173.34 225.18C172.8 224.64 171.72 224.64 170.64 224.64H170.1C169.56 224.64 169.56 224.64 169.56 225.18C169.56 225.72 169.56 225.72 170.1 225.72H172.8C173.34 226.26 173.34 226.26 173.34 226.8C173.34 227.34 173.34 227.34 172.8 227.34C171.18 227.34 170.1 227.34 170.1 227.34C168.48 227.34 167.4 227.34 166.86 226.8C166.86 226.26 166.32 226.26 165.24 227.34H163.62ZM234.9 226.26C234.36 226.8 233.28 227.34 232.74 226.8C232.2 226.8 231.12 226.8 230.58 227.34C229.5 227.34 228.96 226.8 229.5 225.72H228.96C228.42 225.72 228.42 225.72 228.42 226.26C227.88 226.8 227.34 226.8 226.8 226.8C226.26 226.8 225.72 227.34 224.64 228.42C223.02 229.5 221.94 229.5 220.32 227.88C219.78 226.8 219.24 226.8 218.7 227.34C218.16 226.8 217.08 226.26 216 226.8C215.46 226.8 214.92 226.8 214.92 226.26C214.38 225.72 213.3 225.18 212.22 225.18C211.68 225.18 211.68 225.18 211.68 225.72C212.22 226.26 211.68 226.8 210.6 226.8C210.06 226.26 209.52 226.26 208.98 226.26C207.36 226.26 207.36 224.1 207.36 224.1C206.82 224.1 206.28 223.56 206.28 222.48C206.28 221.94 206.28 221.4 205.74 220.86C205.2 221.4 205.2 221.94 205.2 222.48C204.66 223.56 204.12 223.56 202.5 223.02C201.96 223.02 201.96 223.02 201.96 222.48C200.88 222.48 200.34 223.02 200.34 224.1C200.34 224.64 200.34 224.64 199.8 224.64C199.26 225.18 198.72 225.18 198.18 224.64C197.64 224.1 197.1 224.1 196.02 224.1H194.94C194.94 223.56 194.94 223.56 195.48 223.56C195.48 223.56 195.48 223.56 195.48 223.02H196.02C196.56 222.48 196.56 222.48 196.02 221.94L194.94 221.4C193.86 221.94 192.24 221.94 190.62 220.86C191.16 221.94 191.7 222.48 192.24 222.48C192.78 222.48 193.32 222.48 193.86 223.02C193.32 223.56 192.78 223.56 192.78 223.56C191.16 223.02 189.54 223.02 188.46 222.48C187.38 222.48 185.76 222.48 184.14 221.94C183.06 221.94 183.06 221.4 183.6 220.86C184.14 220.32 183.6 220.32 183.06 220.32C181.98 219.78 179.82 219.78 177.12 219.78C176.58 219.78 176.04 219.78 175.5 220.32C175.5 220.86 174.96 220.86 174.42 220.86H171.18C169.56 220.86 168.48 221.4 166.86 223.02C167.4 223.56 167.4 223.56 167.94 223.02C167.94 221.94 169.02 223.02 169.56 223.02C169.56 223.56 169.56 223.56 170.1 223.56C170.64 223.56 170.64 223.56 170.64 223.02C170.64 223.02 170.64 223.02 171.18 223.02C171.72 222.48 172.8 223.02 173.34 224.1C174.42 224.1 174.96 224.1 174.96 224.1C175.5 224.1 175.5 224.1 176.04 224.1C176.04 224.64 176.58 224.64 177.12 224.64C177.66 225.18 178.74 225.72 179.82 225.72C180.9 225.72 181.98 226.26 182.52 226.8C182.52 227.34 183.06 227.34 183.6 227.34C184.14 226.8 185.22 226.26 185.76 226.26C186.3 226.8 186.84 226.26 187.92 225.72C188.46 225.18 188.46 225.72 188.46 226.26C188.46 226.8 189 227.34 189.54 226.8C190.08 226.8 191.16 226.8 191.7 226.8C192.24 227.34 193.32 227.34 193.86 227.34C194.4 227.34 194.94 227.88 194.4 228.42C194.4 228.96 194.94 229.5 195.48 229.5H197.64V228.96C197.64 228.42 197.64 228.42 197.64 228.42C197.1 228.42 197.1 228.42 197.1 227.88C197.1 227.34 197.64 227.34 198.18 227.34H199.8C201.42 226.8 201.42 227.34 200.88 227.88C200.88 229.5 201.42 230.04 202.5 230.58C203.04 231.12 203.04 231.12 202.5 231.66H201.42C199.26 230.58 197.1 230.04 194.94 230.58H193.86C193.32 230.04 192.78 230.04 192.24 230.04C191.7 230.04 191.16 230.04 190.62 229.5C188.46 229.5 187.92 231.12 189.54 232.74C190.08 233.28 190.08 233.28 190.62 232.74C191.16 232.2 191.7 231.66 191.7 231.66C194.4 232.2 197.1 232.74 198.72 233.28C199.26 233.82 199.26 233.82 199.26 233.82C199.26 234.9 199.8 235.44 201.42 235.44C201.96 235.98 202.5 235.98 203.04 235.44C203.04 235.44 203.58 235.44 204.66 235.44C205.74 236.52 206.82 237.06 207.36 236.52H211.14C212.76 235.98 213.3 237.06 213.84 238.68C214.38 238.68 214.38 238.68 214.92 238.14C214.92 238.14 214.92 238.14 215.46 238.14C216.54 238.14 217.08 238.14 217.62 238.68C218.16 239.22 218.7 239.22 219.24 238.68C219.78 238.68 219.78 238.68 219.78 239.22V240.3L220.32 240.84C220.86 240.3 220.86 240.3 220.86 240.3C221.4 239.76 221.94 239.22 223.02 239.22C223.56 239.22 223.56 239.22 223.56 239.22C223.56 239.76 223.56 239.76 224.1 239.76C224.64 240.3 225.72 240.84 227.34 240.84C229.5 240.84 231.66 243 231.66 243.54C231.66 244.08 231.66 244.62 232.2 244.62H232.74C233.28 245.16 234.36 245.16 234.9 244.62C235.44 244.62 235.98 244.62 236.52 245.16C237.06 245.16 237.06 245.16 237.06 244.62C237.06 244.08 237.6 244.08 238.14 244.08C238.68 244.08 238.68 244.08 239.22 243.54C239.22 243.54 239.22 243.54 239.76 243.54C240.84 243.54 241.38 243.54 241.38 244.08C242.46 244.62 243.54 244.08 244.08 243.54C244.62 243.54 245.16 243.54 245.7 244.08C246.24 244.62 246.78 245.16 247.86 245.16L247.32 244.62C246.78 244.08 246.78 243.54 246.78 243.54C248.4 243.54 248.4 244.08 248.4 244.08C248.94 243.54 249.48 243.54 250.56 243.54C250.02 243 249.48 242.46 248.94 242.46C248.4 242.46 248.4 241.92 247.86 241.38C248.4 240.84 249.48 240.84 250.56 241.38C251.1 241.92 251.1 241.92 251.64 241.38V240.84C251.64 240.3 251.1 240.3 250.56 240.3C250.56 240.3 250.02 240.3 249.48 240.3C247.32 240.3 248.94 238.68 250.56 238.68C251.1 239.22 252.18 239.22 252.72 238.68C253.26 238.68 253.8 238.68 254.34 238.68C254.88 238.68 255.42 238.68 255.96 239.22C255.96 239.76 256.5 240.3 257.58 240.3C258.66 240.3 259.2 240.3 259.2 240.84C259.2 241.38 258.66 241.92 258.12 241.92C256.5 241.92 257.58 243.54 258.12 243.54C258.66 244.08 259.2 244.08 259.74 244.08C260.82 244.08 261.36 244.08 261.36 244.08C261.36 244.08 261.36 243.54 260.82 243C260.28 241.92 260.28 241.38 260.82 240.84C260.82 240.84 260.82 240.3 260.82 239.76C260.28 239.22 259.74 238.68 258.66 238.68C258.12 239.22 258.12 239.22 257.58 239.22C257.04 238.68 257.04 238.14 256.5 238.14C255.96 238.14 254.88 238.14 254.34 237.6C253.8 237.6 253.8 237.6 253.8 237.06C253.8 237.06 253.8 237.06 253.26 237.06C252.72 235.98 251.64 235.98 251.1 236.52C250.56 236.52 250.02 236.52 250.02 235.98C249.48 235.44 248.94 235.44 247.86 235.44C247.32 235.44 246.78 235.44 246.24 234.9C246.24 234.36 245.7 234.36 244.62 234.36C244.08 234.36 243 234.36 242.46 234.36C241.92 234.9 240.84 234.36 240.3 233.82C241.92 232.2 242.46 231.12 242.46 230.04H241.92C241.92 230.58 241.38 231.12 240.84 231.12C240.3 230.58 239.76 230.58 240.3 230.58C240.84 230.58 240.84 230.58 240.3 230.04V229.5C239.76 228.96 238.68 228.42 238.14 227.88C237.6 227.34 237.06 227.34 237.06 228.42C237.06 229.5 236.52 230.04 235.44 230.04C234.9 229.5 234.36 229.5 233.28 230.04C232.74 230.04 232.2 230.04 231.66 229.5V228.96C233.28 228.42 233.82 227.88 234.36 227.88C234.9 228.42 235.44 227.88 235.44 226.8L234.9 226.26C235.44 225.72 236.52 225.18 237.06 225.18C237.6 225.72 238.68 225.72 239.22 225.18C238.68 224.64 238.14 224.1 237.6 224.1C235.98 224.64 235.44 225.72 234.9 226.26ZM334.8 194.94C333.18 194.4 332.1 194.4 330.48 194.94C329.94 195.48 328.86 196.02 328.32 196.02C327.78 196.02 326.7 196.02 326.16 195.48C325.62 195.48 324.54 196.02 324 196.56H322.38C321.84 197.1 321.3 197.1 320.76 196.56C320.22 196.56 319.68 196.56 319.14 197.1C318.6 197.64 318.06 197.64 317.52 197.1C316.98 197.1 316.44 197.64 315.9 198.18H314.82C314.82 198.18 314.28 198.18 313.74 198.18C313.2 198.72 312.12 198.72 311.04 198.18C309.96 198.18 308.88 198.72 308.34 199.26H307.8C306.72 198.72 305.64 198.72 305.1 199.26C303.48 199.8 301.32 200.88 299.7 200.34H298.08C296.46 200.88 293.76 201.42 289.98 201.42C288.9 201.42 288.36 201.42 288.36 201.96C287.82 202.5 287.28 202.5 286.74 202.5C286.2 202.5 285.12 202.5 284.58 203.04C284.04 203.58 283.5 203.58 282.96 203.58C282.42 203.04 281.88 203.04 281.34 203.04C280.8 203.58 280.26 203.58 279.72 203.04H279.18C278.64 204.12 277.56 204.66 275.94 204.66H274.32C272.7 205.2 271.62 205.74 270.54 205.2C270.54 205.2 270 205.2 268.92 205.2C267.84 204.66 266.76 204.66 265.68 205.2C264.6 205.74 263.52 206.28 261.9 206.28C261.36 206.82 260.82 206.82 260.82 206.28C260.28 206.28 259.74 206.28 259.2 206.82C258.66 207.36 258.12 207.36 257.58 207.36C257.04 206.82 256.5 206.82 255.96 207.36C255.42 207.9 254.88 207.9 254.34 207.36C253.8 206.82 253.26 207.36 252.18 208.44H250.56C248.94 208.44 247.86 208.44 247.32 208.98C246.78 209.52 245.7 209.52 244.08 209.52C242.46 209.52 239.76 210.06 235.98 210.6C235.44 211.14 234.9 211.14 234.36 211.14C232.2 211.14 230.58 211.14 229.5 211.68C225.72 212.76 223.02 213.3 220.32 212.76H219.24C217.62 213.3 216.54 213.84 216 214.38C216 214.92 216.54 214.92 217.08 214.92C218.7 214.92 219.78 214.92 220.86 215.46C223.02 216 224.64 216.54 225.72 216.54C227.34 216.54 228.42 216.54 228.96 217.08C229.5 217.62 230.58 217.62 231.66 217.62C233.28 217.62 234.9 217.62 236.52 218.16C238.14 218.7 239.76 219.24 241.38 219.78L247.86 221.4C248.4 221.4 248.94 221.4 249.48 221.94C250.02 222.48 250.56 222.48 251.1 222.48C251.64 224.1 252.18 224.1 252.72 223.56C253.26 223.02 253.26 223.02 253.8 223.02C256.5 223.56 259.2 224.1 260.82 224.64C261.36 225.18 261.36 225.18 261.9 225.18C262.44 225.18 262.44 225.18 262.98 225.72C264.06 226.26 265.14 226.26 266.22 226.26C267.3 226.26 268.38 226.26 268.92 226.8C269.46 226.8 269.46 226.8 269.46 227.34C270.54 227.34 271.08 227.34 271.62 227.88C272.16 228.42 273.24 228.42 273.78 227.88C274.32 227.88 275.4 228.42 275.94 228.96C276.48 228.96 276.48 228.96 277.02 229.5C277.02 230.04 277.56 229.5 278.1 228.96L278.64 229.5C279.72 230.04 281.34 230.58 284.04 230.58C285.66 231.12 286.74 232.2 287.82 232.74H288.36C288.9 232.2 289.44 231.66 289.44 231.66C289.98 231.66 290.52 231.66 289.98 231.12C289.44 231.12 289.44 231.12 289.98 230.58V230.04C291.6 228.42 293.22 227.34 295.38 227.34C294.84 226.26 294.84 225.72 296.46 225.72C297 225.18 297.54 224.64 298.08 224.64C298.62 224.64 298.62 224.64 298.62 224.1C298.08 223.56 298.62 223.02 299.7 222.48C301.86 220.86 303.48 219.78 304.56 218.7C305.1 218.16 306.18 217.62 307.8 218.16C307.26 216 309.96 212.22 311.58 216C312.12 216.54 312.66 216.54 312.66 216.54C313.2 216 313.74 216 313.74 216C313.2 215.46 313.2 214.92 313.2 214.92C312.66 214.38 312.12 214.38 312.12 214.38C311.58 214.38 312.12 212.76 312.12 212.76C313.2 212.76 313.74 212.76 314.28 212.22C314.82 212.76 315.36 212.22 315.36 211.68C315.36 210.6 316.44 210.6 316.44 210.6C316.98 210.06 318.06 209.52 318.6 208.98C319.14 208.98 319.14 208.44 318.6 207.9C320.22 208.44 320.76 208.98 321.3 208.98C320.76 208.44 321.3 207.9 321.84 206.28C323.46 205.74 323.46 204.66 322.92 204.12V203.58C324 203.04 324.54 202.5 325.08 201.96C325.62 202.5 326.16 202.5 326.7 201.96C326.7 200.88 326.7 200.34 328.32 200.34C329.4 199.8 329.94 199.26 329.94 198.18C331.56 198.72 332.1 198.18 331.56 196.56L334.8 194.94ZM337.5 178.2C335.88 179.82 338.04 180.36 338.58 180.36C338.58 180.36 338.58 180.36 339.12 180.9C339.12 181.44 339.12 181.98 338.58 182.52C338.04 183.06 337.5 183.6 338.04 183.6C338.58 184.14 336.96 184.68 336.42 184.14C335.88 184.14 335.34 185.22 335.88 185.22H336.42C336.96 185.76 336.96 185.76 337.5 185.76C338.04 185.22 338.58 185.22 340.2 185.22C340.74 185.22 340.74 184.68 340.74 184.14C341.28 184.14 341.28 184.14 341.28 183.6C340.74 183.6 340.74 183.6 340.2 183.6H339.66C340.2 183.06 340.2 183.06 340.2 183.06C340.74 182.52 341.82 182.52 342.36 183.06C342.9 183.06 342.9 183.06 342.36 183.06C341.82 183.6 342.36 183.6 342.9 184.14H345.06C345.6 183.6 346.14 183.6 346.68 183.6C347.22 183.6 347.22 183.06 347.22 182.52C347.22 181.98 348.84 181.44 349.38 181.44C349.92 181.44 350.46 181.44 351 180.9C350.46 180.36 349.92 179.82 349.92 179.28C349.92 178.74 350.46 178.2 351.54 178.2H352.08C352.08 178.2 352.62 177.66 353.16 177.12C353.16 177.12 352.62 176.58 352.08 176.04H351C350.46 176.04 349.92 176.04 349.92 176.58C350.46 177.12 349.92 177.66 348.84 177.66C348.3 177.66 347.76 177.66 347.22 178.2C345.06 178.2 343.44 177.66 345.06 176.04C346.14 176.04 347.22 176.04 347.76 175.5H348.3C348.3 174.96 347.76 174.42 347.22 174.42L346.68 174.96C346.14 174.96 345.6 174.96 345.06 174.96C344.52 175.5 343.44 175.5 342.9 175.5C341.82 175.5 341.28 176.04 341.28 177.12C341.28 177.66 340.74 177.66 340.2 177.66C339.66 177.66 338.58 178.2 338.04 178.74C337.5 178.74 337.5 178.74 338.04 178.2C338.04 178.2 338.04 178.2 337.5 178.2ZM179.82 205.2C179.82 204.66 179.82 204.66 179.28 204.12C177.66 204.12 177.12 204.12 177.12 204.12C176.58 204.12 176.58 204.12 176.58 203.58C176.58 203.04 176.58 203.04 176.58 203.04C177.12 202.5 177.12 202.5 177.66 202.5C179.28 201.96 180.36 201.42 180.9 201.42C182.52 201.42 183.06 200.88 183.06 200.34C183.6 199.8 183.6 199.8 184.14 199.8C184.68 199.8 184.68 199.8 185.22 199.26C185.76 199.26 186.3 199.26 186.3 199.8C186.3 200.34 186.3 200.88 185.76 200.34C185.22 200.34 185.22 200.34 184.68 200.88C187.38 200.88 189 200.88 190.08 200.34C189.54 199.8 189 199.8 188.46 199.8C187.92 200.34 187.38 200.34 187.38 199.8C186.84 198.72 186.3 198.18 184.68 198.18H183.06C181.44 197.64 180.36 197.1 179.28 197.1C177.66 197.64 177.12 198.18 177.12 198.18C177.12 198.72 177.12 199.26 176.58 199.26C176.04 199.26 175.5 199.8 174.96 200.34C174.42 200.34 174.42 200.34 173.88 199.8C173.34 199.26 173.34 198.72 173.34 199.26C172.8 199.8 172.26 199.8 171.72 199.8C171.18 199.8 171.18 200.34 171.18 201.42C171.18 203.58 173.34 205.2 173.34 203.04C173.88 203.04 174.42 203.04 174.42 203.04C174.96 203.04 174.96 203.04 174.96 203.58C174.42 204.12 174.42 204.12 174.42 204.66C173.88 205.2 173.34 205.2 172.8 205.74C171.18 205.74 170.1 205.74 169.56 206.28C169.02 206.28 168.48 206.28 168.48 205.74C166.86 204.12 166.32 206.82 169.02 206.82H169.56C170.1 206.82 170.64 207.36 170.1 207.9H170.64C172.26 207.9 173.34 207.9 173.34 207.9C173.88 207.36 174.96 207.36 176.04 207.9C176.58 207.9 177.12 207.9 177.66 207.36C178.2 207.36 178.2 207.36 178.2 206.82C178.2 206.82 178.2 206.82 178.74 206.82C179.28 206.82 179.28 206.82 179.28 207.36C179.28 207.9 179.28 207.9 179.82 207.9C180.36 206.82 179.82 206.28 178.74 206.28C177.66 206.28 177.12 206.28 176.58 205.74C178.2 205.2 179.28 204.66 179.82 205.2ZM227.88 199.8C226.8 199.8 226.26 199.8 226.26 199.8H223.56C222.48 199.8 221.94 199.26 222.48 198.72C222.48 197.64 221.94 197.1 221.4 197.1C220.86 197.1 220.86 197.1 220.86 197.64C219.78 198.18 218.7 198.72 217.62 198.18C216 198.18 214.92 198.18 213.84 198.72C213.84 199.26 213.84 199.26 213.3 198.72C212.76 198.72 212.76 199.26 212.22 199.8H207.36C206.82 199.8 206.82 199.8 206.82 199.26C206.82 198.72 206.28 197.64 205.2 197.1C202.5 197.1 204.12 199.8 204.66 199.8C205.2 199.8 205.74 199.8 205.74 200.34C205.74 200.88 206.28 201.42 206.82 201.42C207.36 201.42 207.36 201.96 207.36 202.5L206.82 203.04C206.82 203.58 206.82 204.12 207.36 204.12C207.9 203.58 208.44 203.58 208.98 203.58C209.52 204.12 210.06 203.58 210.6 203.04C210.6 202.5 211.14 201.96 212.22 201.96C212.22 203.04 212.76 203.04 213.3 201.42C213.84 200.34 214.38 199.8 216 199.8C216.54 199.8 217.08 199.8 217.08 199.8C217.62 199.8 218.7 200.34 220.32 200.88C220.32 201.42 220.86 201.42 221.94 201.42H223.56C224.1 201.96 224.64 201.96 224.64 201.42C225.18 200.88 225.72 200.88 226.26 200.88C226.8 200.88 227.34 200.34 227.88 199.8ZM319.14 172.8C320.22 173.34 321.3 173.34 322.38 172.8C322.92 172.8 324 172.8 325.08 173.34C325.62 173.34 325.62 173.34 325.62 172.8C325.62 172.8 325.62 172.8 326.16 172.8C326.7 172.26 327.24 172.26 328.32 172.26C328.86 172.8 328.86 172.8 329.4 172.8C330.48 172.8 331.02 172.26 330.48 171.72C330.48 171.18 331.02 170.64 332.1 170.64C332.64 170.64 333.18 170.64 333.18 170.1C333.18 169.02 333.18 168.48 332.64 167.94H331.56C331.02 168.48 330.48 168.48 330.48 168.48C329.94 168.48 329.94 168.48 329.94 168.48C329.4 169.02 329.4 169.02 328.86 169.02C328.86 169.56 328.86 170.1 328.32 169.56C326.7 169.56 326.16 169.56 326.16 169.02C325.62 168.48 325.08 168.48 324.54 169.02C324 169.02 324 169.02 324 169.02C323.46 169.02 323.46 169.02 323.46 168.48C323.46 168.48 323.46 168.48 322.92 168.48C322.38 169.02 321.84 169.56 320.22 169.02C320.22 169.56 320.22 169.56 320.22 169.56C319.68 170.1 320.76 170.64 321.3 170.1C321.3 170.1 321.84 170.1 322.38 170.64C321.84 171.18 321.3 171.18 320.76 171.18C320.22 171.18 319.68 172.26 320.22 172.26C320.76 172.26 320.76 172.26 320.22 172.8H319.14ZM195.48 201.96C196.02 202.5 196.56 202.5 196.56 202.5C197.1 202.5 197.64 202.5 197.64 203.04C197.64 204.12 197.1 204.12 196.56 203.58C196.02 203.04 195.48 203.04 194.94 203.04C194.4 203.58 193.86 203.58 193.32 203.58C192.78 203.58 192.24 203.58 191.7 203.04C190.08 201.42 188.46 201.42 186.84 204.12H187.38C187.92 204.12 188.46 204.12 188.46 204.12L187.92 205.74V206.82C188.46 206.82 189 206.82 189 206.28C189 205.74 189.54 205.74 190.08 205.74C191.7 205.2 192.78 204.66 193.86 205.2H194.4C195.48 204.12 196.02 204.12 196.02 205.74C196.56 206.28 197.1 206.28 197.64 205.74C197.64 205.74 197.64 205.74 198.18 206.28C198.18 206.28 198.72 204.66 200.34 204.66H202.5C204.12 204.12 204.12 203.58 203.04 203.58C202.5 202.5 201.96 201.96 200.88 201.42C200.88 200.88 200.34 200.88 199.8 200.88C199.26 201.42 197.64 201.96 195.48 201.96ZM160.92 206.28C160.92 205.2 161.46 204.66 162 204.66C162.54 204.66 163.08 204.66 163.08 204.12C163.08 203.58 162.54 203.58 162 203.58H161.46C161.46 203.04 162 203.04 162.54 203.04L163.08 202.5C162.54 201.96 162.54 201.96 162.54 201.96C162 201.96 161.46 201.96 161.46 201.42C161.46 200.88 161.46 200.88 160.92 201.42C160.38 201.42 160.38 201.42 159.84 200.88C158.22 200.34 156.6 200.88 155.52 201.96C154.98 202.5 154.44 202.5 153.9 201.96C153.36 201.96 153.36 201.96 153.36 201.96C151.74 202.5 150.66 203.04 150.66 203.58V204.12C151.2 204.12 151.2 204.12 151.74 204.12C151.74 204.66 151.74 204.66 152.28 204.66V204.12C152.28 203.58 152.82 203.04 153.9 203.04C154.44 203.04 154.98 203.04 155.52 203.04C155.52 203.58 156.06 203.58 156.6 203.04C157.14 203.04 157.14 203.04 157.14 203.58C157.14 204.12 157.14 204.12 156.6 204.12C156.06 204.12 154.98 204.66 154.44 205.2C154.98 205.74 154.98 206.28 155.52 205.74C156.06 205.74 156.06 205.74 156.6 206.28H157.14C157.68 206.28 158.22 206.28 158.76 205.74C158.76 205.2 159.3 205.2 159.84 205.74C160.38 205.74 160.38 205.74 160.38 205.74C160.38 206.28 160.38 206.28 160.92 206.28ZM289.44 176.58C288.36 176.04 287.28 176.04 286.2 176.04C286.2 176.04 285.66 176.58 284.04 177.12C283.5 177.12 283.5 177.12 283.5 176.58C282.96 176.04 282.96 176.04 282.42 176.04C281.88 176.58 281.88 176.58 281.88 176.58C281.88 177.12 281.88 177.12 281.34 177.12C280.8 177.12 279.72 177.12 279.18 177.66C278.1 178.2 277.02 178.2 275.94 177.12C275.4 176.58 274.86 176.58 274.86 177.12C274.32 178.2 273.78 178.74 273.24 178.74C272.16 178.74 271.62 178.74 271.08 179.28C272.7 179.28 274.32 179.28 274.86 179.82H275.4C275.94 179.28 276.48 179.28 277.02 179.28C277.56 179.82 278.1 179.28 278.64 178.74H279.18C280.26 178.74 281.34 178.74 281.88 179.28C282.42 178.74 282.96 178.74 283.5 178.74C284.04 179.28 286.74 178.74 286.74 178.2C286.74 177.66 287.82 177.12 289.44 176.58ZM248.94 289.98C249.48 289.98 250.56 289.98 251.1 289.98C251.64 290.52 252.18 289.98 252.72 289.44H253.8C254.34 289.44 254.34 289.44 254.34 288.9C254.88 288.36 255.96 287.82 256.5 287.28C258.12 287.28 260.28 285.66 258.66 284.04C258.12 284.04 258.12 284.04 258.12 283.5C257.58 282.96 257.58 282.96 257.04 283.5C256.5 283.5 255.42 284.04 254.88 284.58C254.88 284.58 256.5 286.74 254.34 287.28H253.26C252.18 287.28 251.64 287.28 251.1 287.82C250.56 288.36 249.48 289.44 248.94 289.98ZM162.54 192.24C163.08 191.7 163.62 191.16 163.62 190.62C163.62 190.08 163.62 190.08 163.08 189.54L162.54 190.08V190.62C162 191.7 161.46 192.24 160.92 192.24C160.38 192.78 160.38 192.24 159.84 191.7H158.76C158.76 192.24 158.22 192.78 156.6 192.78C156.06 192.78 155.52 193.32 153.9 193.86C154.44 194.4 155.52 194.4 156.6 194.4C157.68 194.94 158.22 195.48 158.76 196.56C159.3 196.02 159.3 196.02 159.3 195.48C158.76 194.94 158.76 194.94 159.3 194.94C159.84 194.4 160.38 194.4 160.92 194.4C160.92 194.94 160.92 194.94 161.46 194.4C162 193.86 162 193.32 162.54 193.86C162.54 194.4 162.54 194.4 163.08 193.86C163.62 193.32 163.08 192.78 162.54 192.24ZM275.94 188.46C275.94 189 276.48 189 277.02 189C278.64 189.54 279.72 190.08 280.26 190.08C280.8 190.08 281.88 190.62 283.5 191.16C284.04 191.7 284.58 191.7 285.12 190.62C285.66 189.54 286.2 189 287.82 189C287.28 188.46 287.28 187.92 286.74 187.92C286.2 188.46 285.66 188.46 285.12 188.46C284.58 188.46 284.58 188.46 284.04 189C284.04 190.08 283.5 190.08 282.96 189.54C282.42 189 281.88 188.46 280.26 188.46C279.72 188.46 279.72 188.46 279.18 187.92C278.64 187.38 277.56 187.92 275.94 188.46ZM319.68 180.36C319.68 181.44 320.22 181.98 320.76 181.44C321.3 180.9 321.84 180.9 321.84 181.44C322.38 181.98 322.92 181.98 324 181.98C325.62 180.36 325.62 183.6 325.62 183.6C326.16 183.06 326.16 183.06 326.16 183.06C326.7 182.52 326.7 181.98 326.16 181.98C325.62 181.44 325.62 180.9 326.16 180.36C326.7 179.82 327.24 179.28 326.7 178.74H325.62C324.54 179.28 323.46 179.28 322.92 179.28C321.84 179.82 320.76 179.82 319.68 180.36ZM267.84 243.54C267.3 244.62 266.22 245.16 265.68 245.16C265.68 245.16 265.14 244.62 264.6 244.08C264.06 243.54 263.52 244.08 263.52 244.08C263.52 244.62 263.52 244.62 262.98 245.16C263.52 245.7 263.52 245.7 264.06 245.7H265.14C265.68 246.24 266.22 246.24 266.76 246.24C267.3 246.24 267.3 246.78 266.76 247.32C266.76 247.86 266.76 247.86 267.3 247.86C267.3 247.32 267.3 246.78 267.84 246.78C268.38 246.78 269.46 246.78 267.84 245.16C268.38 244.62 268.92 244.62 268.92 244.08C268.92 244.08 268.92 244.08 269.46 243.54C269.46 243 268.92 241.92 268.38 241.38C267.3 241.38 266.76 241.38 266.22 241.92V243C266.76 243.54 266.76 243.54 267.3 243C267.3 243 267.3 243 267.84 243.54ZM219.78 309.42C220.32 309.96 220.86 310.5 221.4 309.96C223.02 309.42 223.56 308.88 224.1 308.34C224.64 308.88 224.64 308.88 224.1 308.88C223.56 308.88 223.56 308.88 224.1 309.42C225.72 309.42 225.72 309.42 225.72 307.8C225.72 306.72 225.18 306.72 224.64 307.26C224.1 307.26 223.56 307.26 223.56 306.72C223.02 304.56 220.86 306.72 220.32 307.26C219.78 307.8 219.24 307.8 218.7 308.34L219.78 309.42ZM317.52 186.3C319.14 186.3 319.68 186.84 319.14 187.38C319.14 187.92 319.68 188.46 320.22 188.46C320.76 188.46 321.3 187.92 321.3 187.38C320.76 186.3 321.3 185.76 322.92 185.76C323.46 185.76 324 185.76 324.54 185.22C324.54 185.22 324.54 185.22 325.08 185.22H326.7C327.24 185.22 327.24 185.22 327.24 185.76C326.7 186.3 326.7 186.3 327.24 186.3C327.78 185.76 328.32 184.68 328.86 184.14C328.32 184.68 327.24 184.68 326.7 184.14C326.16 184.14 325.08 184.14 324.54 184.68C323.46 184.68 322.92 184.68 322.38 184.14C321.84 184.14 321.84 184.14 321.84 184.68C321.84 185.22 321.84 185.22 321.3 185.22C319.68 185.22 319.14 185.22 319.14 185.22C318.6 185.22 318.06 185.76 317.52 186.3ZM242.46 296.46C243 295.92 243.54 295.38 244.08 295.38H244.62C245.7 294.3 246.24 294.3 246.78 295.38C247.32 294.84 247.86 294.3 247.86 294.3C247.86 293.76 248.4 293.76 248.94 293.76C248.4 293.22 248.4 292.68 248.4 292.68C247.86 292.14 247.32 291.6 247.86 291.06V290.52H247.32C246.78 291.06 246.78 291.6 246.24 291.6C245.7 292.14 245.7 292.68 245.7 293.22C245.7 293.76 245.16 293.76 244.62 293.76C244.08 293.22 243.54 293.22 243.54 293.76C243 294.3 242.46 294.3 241.92 294.3C241.38 294.84 241.38 295.38 241.38 295.92C241.92 295.92 241.92 295.92 241.92 295.92C241.92 296.46 241.92 296.46 242.46 296.46ZM162 189C162.54 188.46 163.62 187.92 164.7 188.46C166.86 188.46 170.1 188.46 167.4 185.76C166.86 185.76 166.86 185.76 166.86 185.22C166.86 184.68 166.32 184.68 165.78 185.22C164.7 186.3 163.62 186.84 163.08 186.3C161.46 186.3 161.46 186.84 162 187.92V189ZM305.1 172.26C303.48 172.26 303.48 173.34 303.48 173.88C304.02 174.42 304.02 174.42 304.56 174.42H306.72C308.88 174.42 307.26 172.8 307.26 172.26C306.72 172.26 307.26 171.18 308.34 171.18C308.88 171.18 308.88 170.64 308.88 170.1C308.34 170.64 307.8 170.64 307.26 170.64H304.56C304.02 171.18 303.48 171.72 303.48 171.72C303.48 171.72 304.02 171.72 304.56 171.72C305.1 171.72 305.1 171.72 305.1 172.26ZM258.66 246.78C258.66 246.24 258.12 245.7 257.58 245.7C257.04 245.16 255.42 244.62 253.26 244.62C252.72 244.08 251.64 245.16 251.64 245.7C251.64 246.24 252.18 246.78 253.8 246.78C255.42 246.24 256.5 246.24 257.04 247.32C257.04 248.94 258.66 247.32 258.66 246.78ZM186.3 205.74C185.22 205.74 184.68 205.2 184.68 204.12C183.06 203.58 183.06 204.66 183.06 206.28C183.06 207.36 183.06 207.9 183.6 208.44H185.76C187.38 208.44 188.46 206.82 186.3 206.82C185.76 206.82 185.76 206.82 185.76 206.28C186.3 206.28 186.3 206.28 186.3 205.74ZM469.8 158.76C470.34 158.76 471.42 158.76 471.96 158.22C472.5 157.68 473.04 157.68 473.58 158.22C475.2 158.22 476.82 156.06 474.12 156.06C473.58 155.52 473.58 155.52 473.04 156.06C472.5 156.6 471.96 156.6 471.96 156.06C471.42 155.52 470.88 155.52 470.34 156.06C469.8 156.06 469.8 156.06 469.8 156.6V158.76ZM203.04 190.08C201.42 190.08 200.34 190.08 199.26 189.54C198.72 189.54 198.18 190.08 197.64 191.16H198.18C198.72 191.16 198.72 191.16 198.72 191.16C198.72 191.7 198.72 191.7 199.26 191.7C199.26 192.24 200.88 193.32 203.04 191.16V190.08ZM260.82 284.58C261.36 284.58 261.36 284.58 261.9 284.04C261.9 284.04 261.9 284.04 262.44 284.04C263.52 284.58 264.06 284.58 264.06 282.96C264.06 282.42 264.06 282.42 264.06 282.42C263.52 282.42 263.52 282.42 263.52 281.88C263.52 279.72 261.9 281.34 261.9 281.34C261.36 281.88 261.36 281.88 260.82 281.88C260.82 281.34 260.82 281.34 260.28 281.88C259.74 282.42 259.74 282.42 259.74 281.88C259.74 281.34 259.74 281.34 259.2 281.88V282.42C259.74 282.96 260.28 284.04 260.82 284.58ZM130.68 225.18C130.14 225.18 129.6 225.18 129.6 225.72C129.6 226.26 130.14 226.26 130.68 226.26C131.76 226.26 132.84 226.26 133.38 226.8C133.92 226.8 135 226.8 136.08 226.8C136.62 227.34 137.7 227.34 138.24 227.34H138.78C138.78 226.8 138.78 226.26 138.24 226.26H136.62C134.46 225.72 132.3 225.18 130.68 225.18ZM255.96 182.52C255.96 181.98 255.96 181.44 255.42 181.44C254.88 180.9 254.88 180.9 254.88 180.9C254.34 181.44 253.8 181.98 252.18 181.98C252.72 182.52 252.72 183.06 253.26 182.52C253.26 182.52 253.26 182.52 253.8 183.06C253.26 183.6 253.26 183.6 253.26 183.06C252.72 182.52 252.72 183.06 252.72 183.6C253.26 184.14 253.26 184.14 253.8 183.6C254.34 183.06 255.42 183.06 257.04 183.06C257.58 183.06 258.12 183.06 258.12 182.52C258.12 180.9 258.12 180.36 256.5 181.98L255.96 182.52ZM178.2 185.76C176.58 185.22 175.5 184.68 174.96 185.22C174.96 185.76 174.42 185.76 173.88 185.22C172.8 185.22 172.26 185.22 171.72 185.76C171.18 185.76 170.64 185.76 170.64 186.3H169.56L169.02 186.84C169.56 186.84 169.56 186.84 169.56 187.38C170.1 187.38 170.1 187.38 170.64 186.84C171.18 186.84 172.26 186.84 172.8 186.3C173.34 186.3 174.42 186.3 174.96 186.84C175.5 186.3 176.04 185.76 176.58 185.76C177.12 186.3 177.66 186.3 178.2 185.76ZM271.62 183.6C272.7 184.14 273.78 184.68 274.86 184.14C275.94 183.6 277.02 183.6 278.1 183.6C278.64 183.6 278.64 183.6 278.64 183.06C278.1 182.52 278.1 181.98 278.1 181.98C277.56 182.52 277.02 182.52 277.02 181.98C276.48 181.98 275.94 181.98 275.4 181.98C273.78 182.52 272.7 183.06 271.62 183.6ZM167.4 191.7C165.78 192.24 164.7 192.78 164.7 193.32C166.32 193.32 166.86 193.32 166.86 193.32C167.4 192.78 168.48 193.32 169.02 193.86L169.56 193.32C170.1 192.78 170.1 192.78 170.64 192.78C171.18 193.32 171.72 192.78 171.72 191.7H167.4ZM172.26 339.66C171.72 339.12 171.72 339.12 171.72 338.58C171.72 338.04 171.18 338.58 170.64 339.12C170.1 339.66 169.02 340.2 167.94 340.2C166.32 340.2 167.94 342.36 168.48 341.82C169.56 341.82 170.1 341.28 170.1 340.74C170.64 340.74 171.72 340.2 172.26 339.66ZM474.12 162.54C473.58 162 473.04 160.92 471.42 160.38C470.88 160.38 470.34 160.92 469.8 161.46C468.72 162 467.64 162 466.56 161.46C467.1 162.54 468.18 163.08 468.72 162.54C470.34 162 471.42 162 472.5 162.54C473.04 163.08 473.58 163.08 474.12 162.54ZM346.14 167.94C347.76 169.02 349.92 169.02 351.54 168.48C351.54 167.94 349.38 165.78 347.76 167.4H347.22C346.68 167.94 346.14 167.94 346.14 167.94ZM225.72 303.48C225.72 304.56 225.72 305.1 225.72 305.1C226.26 305.64 226.26 305.64 225.72 305.64C225.18 306.18 225.72 306.18 226.26 306.72C226.8 306.72 227.34 306.72 227.88 307.26L228.42 306.72C230.04 305.1 228.42 305.1 225.72 303.48ZM255.96 194.4C256.5 194.4 257.04 194.4 257.58 194.4C258.12 194.4 258.66 193.86 259.2 193.32H259.74V192.24H259.2C258.66 192.78 258.66 192.78 258.12 192.24C255.96 191.7 255.96 192.78 255.96 194.4ZM347.22 173.88C348.84 173.88 349.92 174.42 350.46 174.96H351.54C353.7 174.96 351.54 173.34 351.54 173.34C351 173.34 351 173.34 350.46 172.8C349.92 172.26 349.92 172.26 349.38 172.8C348.84 173.34 348.84 173.34 348.3 173.34C347.76 173.34 347.76 173.34 347.22 173.88ZM155.52 199.26C156.6 199.26 157.14 199.26 157.68 198.72C157.68 198.18 157.14 197.64 157.14 197.64C156.6 197.64 156.6 197.64 156.6 197.1C156.6 196.56 154.98 197.1 154.98 197.64V198.18C154.98 199.26 154.98 199.8 155.52 199.26ZM204.66 321.84C205.74 321.84 206.28 321.3 206.28 320.76C206.28 320.22 205.74 319.68 205.2 319.68H204.66C203.04 318.06 201.96 320.76 203.58 321.3C203.58 320.76 204.12 321.3 204.66 321.84ZM145.26 195.48C143.64 195.48 143.1 196.56 144.72 196.56C145.26 196.56 145.26 197.1 145.26 197.64C145.8 198.18 146.34 198.18 146.88 198.18C147.42 198.18 147.42 198.18 147.42 197.64C147.96 197.1 146.88 195.48 145.26 195.48ZM186.3 194.94C189 194.94 187.38 192.78 185.76 192.78H184.68C184.14 192.78 184.14 192.78 184.14 193.32C183.6 193.86 184.14 194.4 184.68 194.94H186.3ZM139.32 190.62C140.94 191.16 142.56 191.16 143.64 190.62C144.18 190.62 144.18 190.62 144.18 190.08C143.64 190.08 143.64 190.08 143.64 189.54H143.1C140.94 189.54 139.86 190.08 139.32 190.62ZM264.6 241.92C265.14 241.92 265.14 241.92 265.14 241.38C265.14 240.84 265.14 240.3 264.6 240.3H263.52C261.9 240.3 261.36 240.84 262.44 241.92C262.44 241.92 262.98 241.92 263.52 241.92H264.6ZM247.86 227.88C247.86 227.34 247.86 227.34 247.86 227.34C247.32 226.8 246.24 226.26 245.7 226.26C245.16 226.26 244.08 226.26 243.54 225.72C243 225.72 243 225.72 243 226.26C243 226.8 243.54 227.34 244.08 227.34C244.08 227.34 244.08 227.34 244.08 226.8C245.7 226.8 247.32 227.34 247.86 227.88ZM338.58 174.96C338.04 174.42 337.5 173.88 337.5 173.34C336.96 172.8 336.42 172.8 335.88 173.34V174.42C336.42 174.96 336.96 175.5 338.58 174.96ZM159.3 186.84C158.76 186.84 158.76 186.84 158.76 186.84C158.22 187.38 158.22 187.38 157.68 187.38C156.06 189 156.6 189 158.22 189C158.76 189 159.3 189 159.3 188.46C159.3 188.46 159.3 187.92 159.3 187.38V186.84ZM288.9 186.84C289.44 186.84 289.98 186.3 289.98 185.22C289.98 184.68 289.98 184.14 289.44 184.14C288.36 184.14 287.82 184.68 287.82 185.76C287.82 186.3 288.36 186.84 288.9 186.84ZM332.1 174.96C330.48 173.34 328.86 176.58 329.4 178.2C329.94 177.66 330.48 176.58 331.02 176.04C331.02 175.5 331.56 175.5 332.1 174.96ZM238.68 186.3C239.76 186.3 240.84 185.76 241.38 184.14C240.3 184.14 239.22 184.14 238.68 184.68C238.14 184.68 238.14 184.68 238.68 185.22C239.22 185.76 239.22 185.76 238.68 186.3ZM453.6 143.1C451.98 142.56 450.9 143.1 449.28 144.18C450.36 144.72 451.98 144.18 453.6 143.1ZM337.5 258.12C338.58 258.12 339.12 258.12 339.12 257.58C339.12 257.04 338.58 256.5 338.04 256.5C337.5 256.5 336.96 257.04 336.42 257.58V258.12H337.5ZM165.78 207.36C166.32 207.36 166.32 207.36 166.32 206.82L165.78 206.28H164.16C163.62 206.28 163.08 206.28 163.08 206.82C163.08 207.36 163.62 207.36 164.7 207.36H165.78ZM459.54 159.84C460.62 160.38 461.7 160.92 462.24 160.38C462.78 159.84 462.78 159.84 462.78 159.84C462.78 159.3 462.24 158.76 461.7 158.76C460.62 158.76 460.08 159.3 459.54 159.84ZM135 191.7C135.54 191.16 135.54 191.16 135.54 190.62C135.54 190.08 135 190.08 134.46 190.08C134.46 190.08 133.92 190.62 133.38 191.16C132.84 191.16 132.84 191.16 132.84 191.7C132.84 192.24 133.38 192.24 133.92 191.7H135ZM210.6 186.84C210.6 186.84 211.14 186.84 212.76 186.84C214.92 186.84 212.22 185.22 211.68 185.76C211.68 185.76 211.14 186.3 210.6 186.84ZM308.34 185.76C308.88 186.3 309.96 186.3 310.5 186.3C311.04 186.3 311.58 185.76 311.58 184.68C311.58 184.14 311.04 184.14 309.96 184.14H310.5C310.5 184.68 310.5 184.68 311.04 184.68C311.04 184.68 311.04 184.68 311.04 185.22C310.5 185.76 310.5 185.76 309.96 185.22C309.42 185.22 308.88 185.22 308.34 185.76ZM286.74 185.22C286.74 184.68 286.74 184.14 286.2 184.14C285.66 184.14 285.66 184.14 285.66 184.14C285.66 184.68 285.66 184.68 285.12 184.68L284.58 185.22C285.12 186.84 285.66 186.84 286.2 186.3C286.74 185.76 286.74 185.76 286.74 185.22ZM212.76 189C214.38 189 215.46 188.46 216 187.92C214.38 187.92 213.3 188.46 212.76 189ZM230.58 198.18C231.12 198.18 231.12 198.18 231.66 197.64C231.66 197.64 231.66 197.64 232.2 197.64C231.66 196.56 231.12 196.56 229.5 197.1C230.04 197.64 230.58 198.18 230.58 198.18ZM223.56 197.64C224.64 198.18 225.72 198.18 226.8 197.64C227.34 197.64 227.34 197.64 227.34 197.1H226.8C226.26 197.1 226.26 197.1 225.72 196.56C225.18 196.56 224.1 197.1 223.56 197.64ZM335.34 183.6C334.8 181.44 333.18 183.06 333.18 183.6C333.72 184.14 334.8 184.14 335.34 183.6ZM229.5 186.84C229.5 186.3 229.5 185.76 228.96 185.76C228.42 185.76 227.88 186.3 227.88 187.38C228.42 187.92 228.42 187.92 228.42 187.92C228.96 187.92 229.5 187.38 229.5 186.84ZM136.62 196.56C136.08 196.02 136.08 195.48 136.08 195.48C135.54 195.48 135.54 195.48 135 194.94H134.46C133.92 194.94 133.92 195.48 133.92 196.02L134.46 196.56H136.62ZM291.6 190.62C291.06 190.62 291.06 190.08 291.06 188.46C291.06 187.92 290.52 187.38 289.98 187.38C289.98 187.38 289.98 187.38 289.44 187.38C289.44 187.92 289.44 187.92 289.98 187.92C290.52 188.46 290.52 189 290.52 190.08V190.62H291.6ZM185.22 332.1C184.68 332.64 184.68 333.18 184.68 334.26L185.22 334.8C185.76 334.26 186.3 333.72 186.3 333.72C186.84 333.18 186.3 333.18 185.76 333.18C185.76 332.64 185.76 332.64 185.22 332.1ZM163.62 198.18C163.62 195.48 163.08 194.4 161.46 196.02C162 196.02 162.54 196.02 162.54 196.56C162.54 197.1 163.08 197.64 163.62 198.18ZM207.9 195.48C208.44 194.94 208.98 194.4 208.98 193.32H207.36C207.36 193.86 207.36 194.4 207.9 194.4C207.9 194.94 207.9 194.94 207.9 195.48ZM321.84 177.66C322.38 177.12 322.38 177.12 322.38 177.12C322.38 176.58 322.92 176.58 323.46 176.58C324 176.58 324 176.58 324 176.04V175.5C323.46 175.5 321.3 176.58 321.3 177.12C321.84 177.12 321.84 177.12 321.84 177.66ZM272.16 191.7C273.24 191.7 273.78 191.7 274.32 191.16C274.86 190.62 274.86 190.62 274.32 190.62C273.78 190.08 273.78 190.08 273.78 190.08L272.16 191.7ZM261.36 192.24C261.9 192.24 262.44 192.24 262.98 192.24C262.98 192.78 262.98 192.78 263.52 192.78C265.14 192.78 264.06 191.16 263.52 191.16C263.52 191.16 262.98 191.7 261.36 192.24ZM218.16 221.4C218.16 220.86 218.16 220.86 218.16 220.86C217.62 220.86 217.08 219.78 217.08 219.78C216.54 219.78 216.54 219.78 216.54 220.32C216.54 220.86 217.62 221.94 218.16 221.4ZM220.32 224.64C220.32 225.72 221.4 225.72 223.02 225.18C222.48 224.64 221.4 224.64 220.32 224.64ZM170.1 200.34C169.56 199.8 169.02 199.8 168.48 199.8C167.94 199.8 167.94 200.34 167.94 200.88V201.42C168.48 201.42 169.56 200.88 170.1 200.34ZM241.38 299.16V298.08C241.38 297.54 241.38 297.54 240.84 298.08C240.3 298.62 239.76 298.62 239.76 298.62C239.22 298.62 239.22 298.62 239.22 299.16H241.38ZM456.3 164.7C456.3 165.78 456.84 166.32 457.92 165.78C460.08 165.78 459 165.24 457.92 165.24C457.38 165.78 456.84 165.24 456.3 164.7ZM151.2 193.32C151.2 193.32 151.74 193.86 152.82 194.94C153.36 195.48 153.36 195.48 153.36 194.94C153.36 194.4 153.36 194.4 153.36 194.4C152.82 194.4 152.28 193.86 151.74 193.32C151.74 192.78 151.74 192.78 151.74 192.78C151.2 192.78 151.2 192.78 151.2 193.32ZM452.52 162C454.68 162.54 454.68 160.92 454.14 160.38C453.6 160.92 453.6 160.92 453.6 160.92C453.06 160.92 453.06 161.46 452.52 162ZM230.58 187.38C231.12 187.92 231.12 187.92 231.66 187.38C231.66 186.84 231.66 186.84 232.2 186.84C232.74 187.38 233.28 186.84 232.74 186.3C232.2 185.76 230.58 185.76 230.58 187.38ZM479.52 142.56C477.9 142.02 477.36 141.48 477.36 141.48H476.82V142.02C476.82 142.56 476.82 142.56 477.36 142.56H479.52ZM355.86 173.88C356.4 174.42 357.48 174.42 358.02 173.88C357.48 173.34 356.4 173.34 355.86 173.88ZM299.16 183.06C298.62 183.06 298.08 183.6 298.08 184.14C298.08 184.68 298.08 185.22 298.62 185.22C299.16 185.22 299.7 185.22 299.7 184.68C299.7 184.14 299.7 184.14 299.7 183.6C299.16 183.6 299.16 183.6 299.16 183.06ZM387.72 218.7C387.72 217.08 388.26 215.46 389.34 214.38V213.3C390.42 212.22 390.42 211.68 388.8 211.68C388.26 211.68 387.72 211.68 387.72 211.14C387.72 210.6 388.26 210.6 388.8 210.6C390.96 210.6 392.04 209.52 392.04 207.36C392.58 206.82 393.12 205.74 393.66 205.2C393.66 204.66 393.66 204.66 394.2 204.66C394.74 204.66 394.74 205.2 394.74 205.74C394.74 206.28 394.74 206.82 394.74 206.82C395.28 207.36 395.28 207.9 394.74 207.9C394.2 208.44 393.66 208.44 393.66 208.98C393.66 210.06 393.12 212.76 392.58 212.76C391.5 213.84 391.5 214.38 392.04 214.92C392.04 215.46 391.5 216 390.96 216C389.88 216 389.34 216.54 389.34 217.62C389.34 218.16 388.8 218.7 387.72 218.7ZM395.82 201.42C395.82 201.42 395.82 200.88 395.82 199.8L397.44 196.56V196.02C397.98 195.48 398.52 194.4 399.06 193.32C399.06 192.24 399.6 191.16 400.14 190.08H400.68C402.3 190.08 402.84 190.62 402.3 192.24C400.68 193.86 402.3 194.4 402.84 193.86C402.84 193.32 404.46 191.7 404.46 193.32C404.46 193.32 404.46 193.86 404.46 194.4C403.92 194.94 403.38 195.48 403.38 196.02C403.38 196.56 402.84 197.1 401.76 198.18H401.22V197.64C401.76 197.1 401.76 197.1 401.76 197.1C402.3 195.48 401.76 194.4 400.14 193.86C399.6 193.86 399.06 194.4 399.06 194.94C399.06 195.48 397.44 199.26 396.9 199.8C396.9 200.88 396.36 201.42 395.82 201.42ZM374.76 251.1C375.3 248.4 375.84 246.24 376.92 244.62C376.92 244.08 376.92 244.08 377.46 243.54C377.46 243 377.46 243 377.46 242.46C377.46 241.38 378 240.3 378.54 239.76C379.08 238.14 380.7 239.22 380.16 240.84C380.16 241.38 380.16 241.92 379.62 242.46C379.08 243 379.08 244.08 379.08 244.62C379.08 245.16 379.08 245.16 378.54 244.62C378 244.62 377.46 245.7 378 245.7C378.54 246.24 379.08 246.78 378.54 247.32C378 247.86 378 248.4 378 247.86C377.46 247.32 377.46 247.32 376.92 247.86C376.92 248.94 376.38 250.02 374.76 251.1ZM387.72 218.7C387.18 219.24 387.18 220.32 388.26 220.86C388.8 220.86 388.8 221.4 388.26 221.94C387.72 222.48 387.72 222.48 387.72 223.02C387.18 223.56 387.18 223.56 386.64 224.1L386.1 224.64C385.56 225.18 384.48 224.64 384.48 224.1C385.02 223.56 385.56 223.56 385.56 223.56C386.1 223.56 386.1 223.56 386.1 223.02C384.48 221.4 386.1 220.32 387.72 218.7ZM203.04 178.2C204.66 178.2 205.2 178.2 205.74 177.66H206.82C206.82 178.2 206.82 178.2 206.28 178.2C205.74 178.74 205.74 179.28 205.74 179.82C205.74 180.36 205.2 180.9 204.66 180.9C204.12 180.9 203.58 179.28 203.58 178.74C203.58 178.74 203.58 178.74 203.04 178.2ZM502.2 130.68C502.2 130.14 502.2 130.14 502.74 130.14C503.28 130.14 503.28 130.14 503.82 129.6C504.36 129.6 504.9 129.6 505.44 129.6C505.98 130.14 505.98 130.14 505.44 130.14C505.44 130.68 504.9 131.22 503.82 131.22C503.28 131.22 503.28 131.22 503.28 130.68C502.74 130.68 502.74 130.68 502.2 130.68ZM381.78 235.98C381.78 237.6 380.16 237.06 380.16 235.44C380.7 234.9 381.24 234.36 381.78 234.36C382.32 234.36 382.32 234.9 382.32 235.44L381.78 235.98ZM249.48 172.26C248.94 171.18 249.48 170.64 251.1 170.64V171.72C251.1 172.26 250.56 172.8 249.48 173.34V172.26ZM299.7 164.7C299.16 164.7 298.62 164.7 298.62 164.16C298.62 163.62 298.62 163.62 299.16 163.08C300.24 163.08 300.78 163.08 301.32 163.62V164.16C300.78 164.16 300.78 164.16 300.78 164.16C300.24 164.7 300.24 164.7 299.7 164.7ZM509.76 75.6C509.22 77.22 508.68 77.76 508.68 77.22C508.68 77.22 508.14 77.22 507.06 77.22V76.14C508.14 75.6 509.22 75.06 509.76 75.6ZM407.7 186.84C407.16 188.46 406.62 188.46 406.08 188.46C404.46 188.46 406.08 186.84 406.62 186.84C406.62 186.3 406.62 186.3 407.16 186.3L407.7 186.84ZM340.74 157.14C341.82 156.6 342.9 156.06 344.52 156.06C345.06 156.06 345.06 156.6 344.52 157.14C343.98 157.68 343.98 157.68 343.98 157.14H340.74ZM511.92 129.6C511.38 129.6 511.38 129.6 510.84 129.06L511.38 128.52C512.46 128.52 513 128.52 513 128.52C513.54 128.52 513.54 128.52 513.54 129.06C513.54 129.6 513 129.6 511.92 129.6ZM479.52 134.46C480.06 133.92 480.6 133.92 481.14 133.92C481.68 133.92 482.22 133.92 482.22 134.46C482.22 135 481.14 136.08 479.52 134.46ZM214.38 227.34C214.92 227.34 215.46 227.34 215.46 227.88C215.46 227.88 214.92 227.88 214.38 227.88C213.84 227.88 213.84 228.42 213.3 228.96H212.76V228.42C212.22 227.88 212.76 227.34 214.38 227.34ZM216.54 232.2C216 232.2 215.46 232.2 215.46 231.66V231.12C217.08 231.12 217.08 231.66 217.08 232.2H216.54ZM181.98 200.88C181.44 201.42 180.36 201.42 178.74 201.42C178.2 201.42 178.2 201.42 178.2 200.88V200.34C179.82 200.34 181.44 200.34 181.98 200.88Z" fill="#EF3537"/>
</svg>
