<svg width="589" height="335" viewBox="0 0 589 335" fill="none" xmlns="http://www.w3.org/2000/svg">
<path fill-rule="evenodd" clip-rule="evenodd" d="M456.779 0C461.185 3.83263 462.962 4.5712 468.099 7.00132C472.905 16.5459 477.032 11.0579 480.341 14.0469C481.611 15.1949 480.828 21.0518 482.778 23.0077C487.305 23.4937 489.046 23.0065 491.205 27.1601C491.423 30.4423 489.97 34.5101 487.985 37.1041C487.391 37.2322 486.902 37.3431 486.465 37.4551C484.396 46.1725 483.19 50.3419 477.736 57.8661C482.899 60.4488 490.953 64.1169 496.708 64.513L498.407 62.7631C500.931 63.0719 499.887 62.5608 501.68 64.2676L498.703 65.3138L498.267 66.239C501.819 69.6963 503.265 68.1168 507.295 66.5321L508.994 67.3619C508.15 68.5838 508.106 68.3765 506.678 69.1765C509.534 74.1863 514.924 73.4254 519.338 72.2521L521.279 73.4857C521.393 75.3105 521.296 75.7685 522.245 77.3774C530.926 78.9895 549.245 43.0849 565.491 34.8686C570.959 47.125 580.093 49.0998 582.139 53.2127C581.999 62.3043 563.864 88.1875 554.948 89.0031L554.268 89.8874C557.359 93.9265 561.896 94.5348 564.273 97.8361C563.028 98.6511 562.704 98.6836 562.104 100.036L563.994 101.837C572.779 101.508 571.629 105.267 573.353 111.295C573.553 111.996 579.84 118.809 580.833 119.902L579.065 122.267C579.745 132.503 584.951 146.017 589 155.283C585.604 168.689 585.586 174.266 583.74 187.073L582.556 187.545C575.356 184.538 569.567 171.742 564.621 166.023C562.018 163.014 558.848 166.283 552.832 161.458C505.799 123.766 444.668 103.752 385.167 97.4084C387.709 103.087 389.738 108.44 391.828 114.417C399.081 135.176 409.642 157.689 407.065 180.16C406.456 185.439 406.176 193.326 403.677 197.875L402.058 196.969C401.092 200.193 405.062 202.979 402.311 208.547C399.873 206.197 402.371 205.331 400.151 201.987C395.207 204.118 398.427 206.388 397.113 208.843C393.256 209.766 392.891 209.644 391.054 212.912C391.019 215.435 391.628 216.495 392.76 218.731L391.279 219.678C385.481 220.237 385.542 228.865 385.132 233.429C382.12 237.62 380.404 234.541 377.705 238.425C375.181 242.06 373.681 248.746 370.538 251.887C370.604 251.821 364.936 253.068 362.47 255.092C361.108 257.968 361.233 256.741 361.882 259.718C363.234 258.542 363.588 258.061 365.349 257.577L366.289 259.737C371.173 261.538 429.607 238.501 438.949 235.342C443.146 233.923 456.162 224.887 463.005 222.558C465.208 223.422 464.606 223.468 465.999 226.359C472.512 226.743 469.91 217.114 475.709 218.022C475.909 220.52 475.517 220.302 476.736 222.093C482.787 221.062 482.334 216.195 487.105 211.208C492.059 210.415 492.199 216.209 495.629 216.622C497.292 212.21 494.497 212.817 496.333 209.603C498.98 209.864 499.294 209.746 501.244 211.36C500.513 214.674 498.623 214.353 496.125 218.041L497.101 218.849C500.81 216.51 507.784 212.236 510.979 209.067C511.936 208.115 510.456 204.917 509.916 203.26C507.382 203.088 502.594 206.808 498.72 208.56C502.211 204.642 509.046 195.749 514.452 197.054C516.124 200.625 511.771 199.594 511.858 205.008L512.851 205.524C517.7 202.572 521.436 196.554 526.025 193.261C526.243 193.112 530.302 192.094 531.971 191.322C527.801 184.494 535.097 185.685 536.446 182.576C537.709 179.676 538.039 176.041 539.841 172.47C541.94 170.84 545.737 169.779 548.34 170.015C549.376 173.569 551.743 180.642 550.55 184.169C549.105 188.449 553.18 193.215 553.041 194.149C551.255 205.521 541.783 225.765 534.905 234.869C532.197 238.446 527.286 238.516 524.849 242.851L526.425 244.964L525.833 246.718L524.387 247.42L523.003 245.024C516.682 251.43 511.641 253.828 506.878 261.567L506.625 261.991C496.9 264.107 460.942 290.514 447.534 296.877C352.609 341.922 232.346 347.834 133.99 310.419C119.587 304.941 104.351 295.303 89.8872 289.3C85.8804 287.628 79.581 281.389 75.5168 279.148C65 273.654 58.4276 267.067 49.9673 259.437C35.9478 246.796 29.7739 229.044 18.895 215.654C15.8642 217.268 17.4516 220.864 14.2302 223.512C12.1484 220.991 13.4087 215.84 11.5568 213.105C9.57613 210.178 6.76696 210.257 4.72967 206.727C5.88498 203.801 6.56439 202.425 4.74335 199.874C-10.7867 178.115 15.4437 156.531 31.3543 144.611C33.5561 142.962 42.7595 135.395 45.5828 134.763C45.2921 136.636 45.0996 137.013 45.8768 138.776L48.1862 138.864C51.5895 137.051 52.9525 133.598 53.0543 133.557C62.3982 129.803 66.133 127.387 72.9904 120.019C71.6887 117.619 71.3022 116.873 70.5221 114.27L71.7904 113.49C73.2295 114.571 73.7372 117.292 74.3065 119.159L76.2518 119.51C79.1808 118.586 79.4346 118.287 81.3029 115.831C82.3746 109.886 78.339 110.336 76.7065 104.226L75.6381 104.081C75.357 106.44 75.2675 107.264 74.592 109.523C73.1428 108.864 72.7458 107.811 71.8622 106.408L71.4622 105.766L70.4041 105.981C69.5996 108.131 69.9418 109.994 70.0776 112.323L69.0469 112.345C60.174 104.936 52.8998 79.6386 49.0289 67.994C47.6323 63.7944 58.2708 64.7885 59.8626 62.395C60.3972 61.5905 60.3189 59.692 61.9053 57.9172C72.2111 59.6382 71.5215 54.9419 80.0533 50.6841C82.5355 49.4457 85.5343 50.5063 87.9573 48.3481C88.4361 46.175 88.458 44.9655 89.8735 43.354L90.9008 43.8208C93.2855 48.5708 93.8349 50.6171 95.275 55.7958C96.1535 54.5556 96.5734 53.3933 97.1706 52.0064C98.6064 53.3533 99.3572 57.9124 99.8526 60.1203C101.684 58.0948 100.152 56.2772 102.307 54.6491C109.698 59.0597 108.237 69.8602 116.16 74.934C117.358 75.7012 117.031 88.9079 122.836 92.3325L124.072 91.9576L124.289 89.8022C127.297 89.3232 135.142 88.9128 137.019 87.979C146.332 83.3419 163.733 71.5454 174.684 72.7871L176.769 75.9325C176.412 74.1034 175.993 72.9977 176.592 71.2417C179.981 68.0808 192.286 62.3951 193.261 69.5327L189.711 72.1924L190.066 73.3255C193.393 74.7599 195.284 75.3332 198.275 73.3971C197.684 70.1574 194.181 68.3642 194.052 67.7674C190.01 48.726 190.765 33.3151 181.626 15.4663C185.341 12.6482 185.68 11.1531 187.432 6.73721C194.381 3.02992 201.63 11.8298 207.028 15.9349C208.282 15.7743 208.579 15.4386 209.495 14.6007L210.096 15.7508C209.786 16.1559 207.964 18.7067 208.279 19.1552C215.851 29.9571 225.171 38.4427 219.183 52.4766C218.557 53.944 221.181 56.2774 222.47 57.6054C222.465 60.8025 220.869 63.1355 219.371 66.0601C223.603 69.5216 228.909 62.7312 231.465 61.1699C233.673 61.2982 237.851 60.8351 239.82 60.9876C250.098 61.7843 258.173 54.705 268.34 54.3049C274.82 58.5983 275.503 52.3823 279.444 52.2296C280.378 52.8137 281.594 53.7239 282.637 54.0987C283.802 54.5132 306.382 45.1644 309.787 44.0543L290.562 44.2553C295.11 42.8164 299.002 41.9016 303.45 41.1491C315.034 39.1901 313.403 11.2058 314.434 1.32052C346.186 5.27985 345.964 6.08091 343.167 36.9439C353.643 38.9938 353.907 41.6236 363.027 44.3644L363.591 43.492C361.059 42.6105 360.092 42.786 358.831 40.9038C361.063 38.8356 364.316 38.6396 367.036 39.694C367.518 41.5435 367.55 41.7883 367.586 43.7237L367.591 44.1974C375.284 49.5912 375.381 37.4895 383.965 39.7434C385.41 41.8793 385.107 40.8671 384.75 43.7902C381.398 46.2949 382.145 43.2368 377.357 44.0032L377.497 45.3356C379.578 46.3701 381.893 46.0856 384.305 46.0734L385.132 47.2951L384.262 49.5067L384.845 50.386C400.656 50.0075 388.998 37.6016 416.041 45.7292L416.294 46.3119C413.795 46.7415 409.634 47.1426 407.718 48.452C408.396 51.396 407.806 50.9691 409.679 52.4238C410.095 50.9459 409.95 51.2378 411.793 50.1525C414.108 50.8101 414.118 50.3864 415.249 51.9007L413.952 53.942C416.233 56.1645 421.335 58.3193 424.495 58.4999C426.602 56.4395 426.176 57.4222 426.628 54.7752C424.225 52.8061 423.738 55.6159 418.635 54.978L417.661 53.5024C420.047 51.082 423.006 53.927 425.697 51.2788C423.494 47.9123 421.527 50.6886 419.15 48.3992L420.124 46.9713C422.875 45.9872 427.194 47.2852 430.268 47.9119C440.446 31.5017 444.694 16.3842 456.779 0ZM232.716 112.651C163.637 132.918 100.406 159.405 48.0477 210.651C58.1701 230.05 74.154 236.662 93.7109 244.501C97.4948 246.196 102.329 248.844 106.316 248.732C107.642 247.95 108.035 247.894 108.813 246.569L109.934 246.908L109.227 250.148C114.431 251.54 119.821 250.509 124.982 251.613C141.61 255.171 157.098 262.441 174.354 262.47C177.572 262.475 178.624 264.521 182.092 263.027C182.344 260.953 179.12 245.971 178.415 242.18C176.069 229.563 177.344 187.742 185.461 178.659C191.37 176.787 191.494 182.104 195.297 176.352C194.048 176.3 192.799 176.272 191.55 176.267C187.43 160.624 201.467 172.459 199.497 156.624C199.431 156.015 216.213 142.454 216.862 141.2C222.147 130.989 226.795 122.483 233.665 113.415L233.29 112.749L232.716 112.651ZM311.886 168.265C285.459 181.979 268.281 197.479 258.356 226.715C257.776 228.423 257.609 229.175 257.821 230.943L258.688 231.883C288.084 228.974 285.14 206.643 306.5 192.975C308.168 186.849 313.674 173.411 312.229 168.664L311.886 168.265ZM71.1374 126.422C69.253 128.097 63.9466 131.942 63.5805 133.497C65.6848 133.659 65.7714 133.606 67.8025 132.919L70.1614 133.756L70.905 132.492L70.0281 132.655L70.2332 132.178C71.047 130.242 71.2684 129.486 71.7271 127.452L71.1374 126.422ZM83.1934 97.3863C86.3278 102.404 87.5771 103.696 86.1779 109.453L85.9899 110.206C82.2268 108.182 83.608 101.879 80.6277 101.694C79.697 104.392 79.9949 105.041 80.6636 107.864L81.7781 108.549L84.1609 113.309C86.9713 112.06 89.937 110.679 92.7657 109.523C90.6622 104.707 88.9815 98.2681 83.1934 97.3863ZM143.806 90.1856C139.442 91.116 131.827 92.343 129.311 96.0487C130.393 97.5309 129.658 96.9844 131.843 97.3403C135.641 95.726 146.295 93.001 146.292 89.901L145.854 90.5281L145.034 89.7937L143.806 90.1856ZM184.984 73.7242C181.892 73.6888 179.712 74.8278 176.769 75.9325C174.543 77.4625 168.472 76.7063 165.907 80.9999C166.72 83.4263 166.086 82.695 168.101 83.8948L171.947 82.7549C178.589 80.2128 180.336 79.9161 185.47 75.1453L184.984 73.7242ZM486.286 37.5045C485.18 37.798 484.375 38.106 482.908 38.7194C479.156 42.2629 477.284 49.3379 475.751 54.3151L476.353 54.6951C480.532 49.1839 482.927 43.5835 486.286 37.5045ZM409.393 53.3712C409.434 53.2429 409.472 53.123 409.506 53.01L408.832 52.7067L409.393 53.3712Z" fill="#F5F2EE"/>
</svg>
