<svg width="586" height="581" viewBox="0 0 586 581" fill="none" xmlns="http://www.w3.org/2000/svg">
<path fill-rule="evenodd" clip-rule="evenodd" d="M314.924 0.309961C322.515 -0.53172 336.677 0.549692 344.742 1.0844C383.399 3.64861 410.738 7.66683 442.332 30.5943C448.018 28.7508 449.13 30.7252 453.896 33.8241C515.818 74.0917 562.394 134.199 577.859 207.179C579.663 215.705 575.982 214.266 576.583 218.173C578.378 217.881 579.6 217.416 581.122 218.286C582.625 224.872 580.356 235.062 581.113 240.459C582.525 250.456 584.101 257.967 584.812 268.32L582.169 268.042L581.477 269.073C581.814 277.331 583.965 270.942 585.669 277.287C587.327 283.476 582.297 288.336 580.739 291.064C580.21 291.998 580.802 304.302 579.855 307.611C577.531 315.661 574.131 323.273 571.917 331.336C570.851 335.249 573.229 341.756 571.735 344.532L569.675 343.857C568.044 346.359 570.222 356.087 565.894 361.602C558.312 360.537 565.383 368.444 559.442 375.694C557.847 375.52 556.681 375.458 555.077 375.412L553.655 376.996C552.489 380.183 553.318 383.724 553.746 387.171C552.461 386.955 551.322 386.651 550.064 386.336C547.832 388.074 548.378 387.138 547.795 389.715C549.244 389.873 550.694 389.992 552.152 390.073C550.001 396.929 535.055 398.995 537.844 412.755L538.035 413.644C536.45 414.159 531.83 415.76 530.627 417.113C524.257 424.284 518.333 432.142 511.389 438.951L510.35 443.099C508.044 444.823 502.842 448.012 501.329 450.214C499.762 452.487 501.912 453.105 498.732 455.988L496.727 454.649C494.613 456.645 493.811 457.573 491.104 458.842L489.436 456.459C483.941 459.121 488.297 460.86 487.194 462.513C482.674 469.277 476.769 472.652 473.425 480.491L473.015 481.469C471.138 482.322 463.31 485.763 462.107 487.169C455.573 494.789 449.722 495.941 441.366 500.056C439.37 501.039 433.492 508.947 432.635 511.235C432.335 512.048 433.702 513.282 434.304 514.011C433.438 516.092 434.057 515.39 431.688 516.469L430.312 515.902C430.85 514.468 431.04 514.439 430.694 512.991C423.886 511.393 402.654 523.199 400.722 527.32C402.571 528.572 403.174 529.073 404.768 530.636L404.449 532.219C401.451 533.898 398.471 536.246 395.473 536.066L394.771 534.246L393.56 534.11C391.09 543.701 385.421 537.999 379.871 544.823L379.981 545.785L382.251 545.716C382.934 548.031 381.986 549.677 381.138 552.059C375.315 557.817 373.511 551.139 367.251 552.565L366.904 553.614L369.738 555.072L368.663 556.485C359.541 560.486 360.352 560.659 350.665 558.81C350.155 560.049 349.917 560.504 349.243 561.661C340.294 565.378 339.994 566.854 331.09 564.349C325.067 569.167 323.9 570.188 319.015 565.342L318.068 566.034L318.851 568.111C308.918 574.451 264.602 575.471 251.571 575.435C240.17 575.371 212.941 571.955 205.068 572.584L205.077 573.841C207.674 576.473 209.889 575.352 213.297 576.527C216.578 577.666 213.598 576.537 215.284 579.98L214.555 581C210.536 580.581 206.545 579.853 202.635 578.814C181.083 573.34 159.449 560.815 139.856 550.47C135.518 548.178 121.165 541.715 118.522 539.704C99.1302 524.948 70.1701 508.746 57.9042 487.94L57.639 487.488C55.5436 487.681 55.598 487.753 53.621 487.149C42.5215 471.811 33.6911 458.851 26.018 441.478C24.6875 438.473 18.2545 435.428 17.5342 432.109L19.3016 430.262C18.6452 426.068 11.7834 415.54 11.7191 412.656C11.628 408.179 5.9282 398.051 5.82368 397.59C-16.2387 295.502 26.6287 180.881 96.5155 106.518C119.817 81.5833 146.718 60.2598 176.317 43.2504C190.633 35.1452 192.009 34.0217 208.039 33.5326L208.868 33.0255C209.287 32.774 209.725 32.5481 210.126 32.2675C214.901 28.9209 232.297 28.57 239.687 26.7838C241.155 27.6528 241.374 27.9167 243.078 28.2501L244.581 24.7014L246.35 24.1348C248.427 25.4869 249.357 29.3085 251.353 32.3489L252.993 32.3995L253.631 31.3116L251.726 27.7474C253.348 25.892 256.556 25.0962 258.889 24.1579C263.19 22.4227 262.771 19.9292 264.603 16.0616C269.186 15.0288 271.474 15.9216 275.374 18.1385L276.158 18.5884C280.15 17.8588 286.328 17.124 289.235 14.6722C287.129 13.6247 281.562 14.5128 278.737 14.725C294.602 8.08999 316.099 8.6457 333.724 7.57359C314.796 2.79322 301.491 8.02364 282.254 8.27322C290.2 2.48903 305.018 1.30558 314.924 0.309961ZM285.296 520.023C285.906 523.389 285.989 524.232 287.656 527.386C291.538 529.874 292.669 529.335 297.025 528.035C294.519 522.56 290.481 524.164 285.296 520.023ZM235.225 94.9561C215.104 97.7289 198.254 117.972 183.846 131.599C179.682 135.544 173.248 144.899 168.227 147.838C168.765 143.94 171.243 141.529 170.477 139.515C162.403 141.192 144.132 161.707 138.218 168.39C130.618 176.978 123.127 189.626 118.169 199.972L118.925 200.641C122.178 203.5 122.944 203.811 127.072 204.992C132.722 212.487 132.322 229.141 132.769 239.013C149.855 259.924 174.551 274.565 187.564 293.898C192.558 301.314 196.066 309.629 197.898 318.38C198.663 321.934 199.52 330.509 200.623 333.815C200.768 334.242 202.154 334.573 203.028 337.074C198.627 359.039 187.637 393.097 176.747 412.259C189.551 422.278 201.79 428.28 217.172 433.784C224.845 436.526 234.021 438.786 241.056 442.529C266.691 456.158 284.526 478.618 303.945 499.379C304.82 500.319 304.857 500.592 305.431 501.771C309.204 505.917 318.207 518.336 321.178 520.68C328.048 514.829 321.423 466.172 317.395 457.682C298.814 418.561 315.811 386.37 320.65 346.846C269.426 351.753 241.048 329.456 215.422 285.4C215.222 285.055 215.696 282.588 215.814 282.07C217.454 280.903 217.974 280.837 219.833 280.261C221.109 275.142 216.498 276.027 218.366 269.459C220.799 260.894 226.986 252.769 229.137 244.396C226.449 248.71 225.046 252.472 220.9 254.651C220.144 250.587 234.031 227.085 237.867 223.303L238.669 223.409L239.736 224.843C243.572 220.612 253.888 204.204 254.535 198.461L253.961 197.476L250.644 202.604L249.486 202.774C255.054 182.572 252.148 183.582 265.972 169.505C268.998 166.431 276.67 132.265 278.529 126.776C279.258 123.84 278.493 121.259 276.917 119.158C266.811 113.632 242.9 114.34 239.372 111.346C239.9 108.95 240.647 108.193 242.059 106.118L242.087 104.2C239.07 101.297 235.225 100.067 233.475 97.4125C234.614 96.1418 235.052 96.5315 237.311 96.2673L237.047 95.2399L235.225 94.9561ZM378.105 476.888C378.688 481.778 379.854 488.166 384.228 491.221C383.107 485.74 382.661 480.362 378.105 476.888ZM193.092 446.351C195.889 450.864 205.768 459.955 211.026 457.964C211.226 449.425 199.908 448.165 193.092 446.351ZM529.049 139.901C526.843 136.241 524.547 135.239 520.501 135.943C467.883 144.375 407 194.622 443.825 251.565C435.724 276.774 425.754 283.336 416.259 303.786C397.122 345.007 436.727 396.201 451.061 432.777C452.264 436.868 452.984 442.166 455.736 444.676C458.533 445.099 459.527 444.828 461.959 442.924C545.233 377.87 585.385 233.477 529.049 139.901ZM391.379 221.016C389.593 225.7 388.919 228.925 389.94 233.941L390.905 235.138C394.231 230.907 394.25 225.468 391.379 221.016ZM327.881 176.367C326.569 184.755 318.878 199.299 320.783 203.462L321.147 203.197C324.191 196.638 330.989 184.573 329.194 178.012L327.881 176.367ZM432.755 63.5309C405.617 54.5868 373.157 47.9422 344.497 49.9288C364.062 57.0155 392.485 51.0063 415.376 62.5409C379.617 55.5114 319.135 48.729 287.021 70.0696C286.639 70.3201 286.265 70.5744 285.9 70.8331C289.773 72.0264 292.27 73.1305 295.633 75.4852C301.875 79.8609 304.974 74.9733 311.991 79.7182C311.617 81.5216 311.735 80.9554 310.067 82.4529C314.615 84.3622 316.711 79.221 320.547 87.083C322.242 90.5479 320.83 91.1782 324.247 93.2477L324.685 92.9265L324.994 89.5537L326.242 89.0697C329.651 91.6294 332.468 95.1996 335.694 97.517C347.021 105.652 378.069 109.27 391 102.652L391.319 101.259L388.603 97.7326L389.259 96.6997L389.697 96.6238C402.874 94.2653 407.613 86.1335 419.705 84.8719C421.255 84.7097 423.131 84.252 424.69 83.9369C430.376 74.4019 438.405 82.2464 443.617 74.4973L443.581 72.2939L440.665 71.1642C440.646 69.6396 440.71 69.6266 441.157 68.1501C439.197 65.8776 435.571 64.4573 432.755 63.5309ZM468.103 87.4779C464.858 88.5528 461.46 89.3356 458.999 91.6174L459.409 92.6548L460.694 92.8209C464.357 91.7278 466.38 91.3581 469.378 88.9652L469.442 87.6253L468.103 87.4779ZM279.13 68.1633C280.387 71.7859 284.789 75.8114 288.535 76.7525C287.514 72.7089 283.221 68.8619 279.13 68.1633ZM285.579 20.2462C283.1 19.5066 282.827 19.6487 280.184 19.9712C277.55 21.2564 275.746 21.5456 274.434 23.697C277.213 24.0842 277.578 23.8643 280.375 23.1921C283.082 22.1855 284.294 22.2966 285.579 20.2462ZM321.293 16.1122C318.305 14.7477 313.183 15.3373 309.902 15.8064L309.783 16.9218C313.848 18.0258 316.764 18.0291 320.983 17.847L321.293 16.1122Z" fill="#F5F2EE"/>
</svg>
