<svg width="225" height="367" viewBox="0 0 225 367" fill="none" xmlns="http://www.w3.org/2000/svg">
<path d="M56.8554 133.945C57.1022 134.881 55.6323 137.858 55.1854 138.959C53.835 136.713 55.3035 135.508 56.8554 133.945Z" fill="#F5F2EE"/>
<path fill-rule="evenodd" clip-rule="evenodd" d="M103.377 11.084C118.083 7.96777 145.481 -2.78012 160.109 0.677352C161.255 1.73335 159.429 1.747 160.017 3.36253C160.775 3.48971 161.113 3.47474 161.717 3.95961L161.595 4.6355C160.953 5.01476 160.257 5.29088 159.97 5.93023C161.063 6.7695 162.118 6.91178 163.465 7.25687L163.468 7.57136L161.61 7.80028L161.419 8.14217C162.623 9.00583 163.373 8.12631 164.792 8.98094C164.69 9.45544 164.529 9.86547 164.317 10.3019C164.792 11.3318 165.809 11.6451 166.888 12.1908L167.494 15.0861C168.603 15.4461 168.426 14.1449 170.199 13.4228L170.857 13.9099C171.53 13.8227 171.868 13.8153 172.533 13.8026L172.815 14.4905C172.543 15.5181 172.451 16.1004 172.477 17.1633C175.331 16.2787 173.882 14.8828 175.533 15.1536C175.384 15.8918 175.266 16.5323 175.156 17.2778C176.082 17.7326 176.35 17.0812 176.603 17.1892C181.4 19.2405 183.695 20.6242 180.588 25.9446C178.091 30.2226 174.713 34.7693 172.525 39.3097C169.424 45.2954 166.382 51.4612 163.236 57.4293C163.022 57.8341 161.203 59.1663 160.726 59.5117L160.865 60.0206L162.079 60.5291C162.131 61.7215 161.315 62.4376 160.602 63.2518C155.26 69.3509 153.312 77.7863 148.132 84.144C147.392 85.0525 146.138 88.5106 145.101 90.0446C148.72 92.7262 156.415 87.4974 159.427 88.9293C159.3 89.679 159.187 90.2836 159.012 91.0234L159.426 91.3146C161.362 90.9734 161.809 90.5025 162.523 88.688C164.241 89.1384 164.014 90.3877 164.434 90.4308C167.492 90.7451 180.102 86.863 182.396 87.5981C181.434 88.0643 178.739 89.2139 178.282 89.9782C180.471 90.779 182.696 87.2512 186.471 89.645C187.241 89.1139 187.306 89.0238 187.913 88.3014L188.456 88.503L188.769 89.6967L189.333 89.4427C189.927 87.3737 189.096 85.8553 189.923 85.4387C191.979 84.4023 196.554 84.7426 198.893 84.7737C200.689 83.4212 201.873 83.5122 202.835 82.3321L202.886 81.377L203.386 81.1586L203.959 81.7921C205.701 81.2694 207.479 80.1528 209.118 79.8995C209.091 80.3695 209.053 80.7881 209.004 81.2566C209.765 81.4952 209.938 81.5105 210.741 81.6138L210.638 81.9456L209.56 82.3667C210.493 83.66 211.383 82.401 212.418 83.6948C211.872 84.4825 211.8 84.2551 210.529 84.5444L210.75 85.0466C211.788 85.404 212.287 85.504 213.371 85.6969C213.288 86.2922 213.13 86.5786 212.898 87.12C213.682 88.0999 214.11 87.8421 215.703 88.0669C214.858 88.5853 214.682 88.8673 214.211 89.7358C213.934 91.9039 214.848 93.7682 215.825 95.6612L216.7 95.3294C217.886 96.5381 221.169 99.7089 222.811 100.019L223.533 99.3731C224.365 99.9565 224.893 101.277 224.982 102.279C225.317 106.036 220.819 108.11 218.786 110.517C209.065 122.023 200.839 134.604 191.893 146.69C191.262 147.542 190.123 147.597 189.401 148.319C188.183 149.766 188.179 152.005 186.763 153.315C185.802 153.306 184.15 153.023 183.705 153.601C182.548 155.102 182.864 158.16 181.733 159.163L180.607 159.011C179.308 160.187 177.885 163.892 176.331 165.456C173.465 168.339 171.963 168.875 171.171 173.074C170.982 174.073 164.914 176.987 165.791 178.965C165.807 179.02 165.739 180.091 165.761 180.072C163.312 182.364 160.68 185.527 158.738 188.048C157.969 188.246 158.016 188.217 157.234 188.037C156.635 189.413 156.653 190.648 155.782 191.579L154.88 190.957C153.728 191.704 153.985 192.046 154.395 193.331C153.615 194.923 152.139 196.605 151.004 198.015C150.276 197.692 150.615 197.916 150.075 197.152C148.497 199.439 148.981 203.141 146.783 203.963L145.532 203.294C144.435 204.606 145.073 205.889 144.141 207.728C142.361 211.242 139.178 211.544 139.043 215.267C129.453 226.99 121.5 239.589 111.957 250.705C111.536 250.629 111.125 250.564 110.697 250.549L110.54 251.055L111.297 251.479C110.979 253.359 98.2654 271.9 96.3785 273.256C95.9586 273.56 95.5712 273.852 95.0458 273.767C94.4417 273.671 93.979 273.195 93.5295 272.811C92.4141 273.068 92.8244 272.853 92.0271 273.71C92.5445 273.983 93.0581 274.259 93.5678 274.544L93.4621 275.239C92.3827 275.996 91.7634 276.496 90.7792 277.349C90.3321 276.968 90.2827 276.961 89.9661 276.473L89.6359 276.923C90.336 278.225 91.2497 280.089 89.5954 280.915C88.0358 280.473 88.9458 279.747 88.2136 280.035L88.9116 281.772L88.6785 282.268C87.4859 281.807 87.143 281.426 86.0863 281.68C85.6588 282.652 85.6512 282.287 85.8865 283.179C87.3017 284.42 87.1346 283.947 87.7196 285.588L87.603 285.285C87.9637 288.328 85.0066 290.573 82.4985 291.56L81.9595 292.398L82.2252 293.036C82.6816 292.701 83.0763 292.325 83.5875 292.19C83.1334 294.6 81.4683 296.075 79.536 297.444C79.2047 299.35 79.1998 300.922 77.4499 302.017C76.8787 301.771 76.8385 301.759 76.3426 301.39C75.3667 302.616 76.3958 304.073 75.5467 305.299C70.0311 313.253 65.2769 321.277 60.4188 329.628H60.4054C60.1622 330.086 59.9196 330.544 59.6777 331.004C58.1795 333.846 54.6642 336.847 53.1173 339.821C50.5028 344.972 48.7741 350.307 45.8836 355.353C44.6194 357.694 43.1191 360.807 41.3265 362.684C37.7632 366.407 32.7913 359.755 30.6227 359.749C28.7437 361.188 29.7546 363.868 28.6172 365.964C26.7477 367.466 21.3217 366.954 18.9454 366.743C17.6464 366.627 16.7223 365.562 15.8809 364.631C11.2488 363.463 6.57603 364.203 1.62833 362.963C-1.17756 358.422 0.341353 353.331 1.06229 348.287C2.43679 338.67 3.77012 328.253 6.36657 318.888C6.56807 318.161 6.77372 317.438 6.98172 316.717C13.1117 291.536 21.006 266.813 30.6084 242.732C35.1471 231.07 39.8923 219.468 44.7381 207.977C46.8535 202.96 45.9282 203.403 49.5689 200.835C49.0491 201.2 54.0323 190.743 54.4319 189.913C47.2266 190.372 37.2631 193.577 29.8955 194.615C26.2232 195.132 25.5137 197.877 23.3867 198.191C22.4456 197.666 22.097 196.797 21.5293 195.833L21.2272 195.8C20.7685 196.537 20.3187 197.28 19.8773 198.028L19.6756 197.797C19.7397 197.122 19.7574 197.103 19.6438 196.44C18.2 195.431 13.7225 195.377 13.3952 194.806C11.1174 190.826 9.35703 195.018 5.13703 192.04C4.68663 191.108 4.56526 190.652 3.7969 190.001C2.94337 190.292 2.69234 191.007 2.06617 191.892C0.502577 191.363 3.03202 190.715 1.61446 187.966C0.867687 187.757 0.74924 187.793 0.191866 187.24C0.752796 178.387 22.8428 138.77 27.9278 128.791L58.9359 66.7213C63.8723 57.1152 68.7465 47.477 73.5581 37.8074C75.249 34.398 79.6085 24.9763 81.423 22.2747C81.9512 22.3024 82.136 22.2927 82.6635 22.2447L83.0076 21.4374C81.9447 19.1436 82.1479 16.4204 84.6322 15.3747C90.2 13.0302 97.3556 12.3599 103.377 11.084ZM144.469 31.5469C143.816 31.2944 136.921 31.8255 136.15 32.1218C125.536 36.2068 114.767 38.8915 103.811 41.8774C94.9319 61.8233 85.2858 81.419 74.8952 100.619C71.3987 107.155 66.315 117.206 62.3644 123.319L61.8178 123.287L60.9658 122.294C60.5183 123.81 60.8402 123.906 61.272 125.369L60.8368 125.518C59.9966 124.474 59.7015 123.331 59.2452 122.057L58.8755 122.062C58.1912 123.963 58.3029 127.055 57.7191 128.367C55.626 133.069 53.1114 137.961 50.8828 142.611C50.2511 142.537 50.0578 142.486 49.4429 142.315C48.6877 143.185 48.906 142.78 48.7003 143.924C49.0825 144.632 49.2414 144.642 49.1697 145.194L49.152 145.312C46.5457 145.692 45.1263 147.995 45.6602 150.515C46.8665 149.272 46.826 147.717 48.5459 146.06L48.718 145.899C48.5632 147.913 47.5014 149.601 46.5633 151.399L46.8594 152.058C46.188 153.099 44.2729 156.451 43.1651 156.625C43.0899 155.446 44.8138 153.552 44.6972 152.085L44.3651 151.881C43.3567 153.251 41.4684 156.568 41.3628 158.246L41.7365 158.57L42.7172 157.822L43.2206 157.895C43.1162 158.644 42.4759 160.173 42.1808 160.925C47.9076 161.994 82.2477 148.242 89.7509 150.476C89.6874 153.05 91.839 152.633 94.2388 153.329C93.3963 154.356 92.9786 153.536 92.0432 155.027C93.3962 156.175 93.4562 154.909 95.4724 155.659L95.8244 156.494L95.5418 157.102L94.3996 157.378C95.211 158.343 95.6443 157.866 96.4058 159.217C95.885 160.334 95.7733 160.651 95.4927 161.852C98.5077 162.869 97.8114 163.041 98.1381 165.986C98.3546 167.939 98.472 169.944 98.634 171.905C99.3042 171.8 99.3272 171.755 99.9835 171.883L99.8598 172.551L98.6299 173.025C99.2746 173.434 99.5449 173.549 100.016 174.171L99.494 174.618C98.7301 174.386 98.4827 174.228 97.7254 174.482L97.7317 174.971C98.6272 175.474 99.0001 175.555 99.4059 176.433C98.2115 178.267 93.2255 177.905 90.714 178.622C85.4444 179.582 87.1828 184.096 85.4528 187.337C83.8057 190.422 81.0542 189.682 82.3666 194.367C81.509 197.342 79.5336 196.978 79.2039 198.497C77.7207 205.33 76.7794 210.843 72.116 216.423C70.9848 224.546 68.0752 227.545 65.2366 234.662L52.7668 266.55C48.6162 277.445 42.5613 293.255 41.2638 304.557L41.3594 304.595L41.4959 303.539L42.2306 303.581C44.0301 301.421 47.9834 294.627 49.5858 292.041C53.4876 285.8 57.4695 279.609 61.5299 273.471C76.9153 250.403 93.0415 227.839 109.884 205.814C114.129 200.277 121.797 189.41 126.174 184.724L127.201 184.881C127.947 184.133 127.06 182.949 127.736 181.815C129.474 178.898 132.092 175.988 134.18 173.288C143.526 161.199 152.682 148.959 162.126 136.93C164.41 134.022 170.912 127.213 172.085 124.668L171.869 124.704L171.935 124.609C176.202 122.985 177.189 117.98 180.77 115.301C182.983 115.223 184.47 114.651 184.984 112.358C184.094 112.547 183.422 113.043 182.633 113.518C168.615 110.902 132.22 130.276 116.54 118.188C116.32 118.018 115.072 113.81 114.856 113.096C115.857 112.338 116.191 112.179 116.626 111.024C116.412 109.868 116.647 110.202 115.867 109.551C115.06 109.89 114.817 110.006 113.967 110.178L113.577 109.42C113.894 108.467 114.144 108.055 113.95 107.111C113.372 107.248 112.965 107.333 112.369 107.428C111.914 105.292 112.952 106.864 112.783 104.74L112.199 104.407L110.532 105.2L110.296 104.819C110.619 103.964 110.679 103.759 110.837 102.86L110.468 102.66L109.172 104.547L108.882 104.363C108.226 100.879 113.15 99.0038 112.187 94.6017C112.419 93.5139 112.564 93.4181 113.435 92.7062L114.116 93.5821C115 92.9368 115.939 90.6328 116.694 89.4096C117.134 89.5968 117.169 89.6659 117.454 90.0368L117.717 90.385L118.449 89.6074L118.425 89.0404L117.299 89.0238L117.218 88.4635C117.697 87.2988 117.444 87.4019 118.314 86.8228L118.728 87.9276C119.235 87.5441 118.745 85.0291 119.444 83.4062C120.83 82.2249 120.362 82.5668 122.32 82.2586C123.23 81.4344 122.958 81.8643 123.168 80.348L122.608 80.2474L121.656 81.1563L121.763 80.7829L121.274 80.4722L121.179 79.8609L120.962 79.9314C120.442 80.5308 120.493 80.5151 119.774 80.8344L119.511 80.5904C120.053 79.5429 120.83 78.3842 120.808 77.2091C120.339 75.8165 120.51 75.0132 121.797 74.0379L122.359 74.5667C126.312 62.6817 135.566 49.5646 141.105 38.1073C142.061 36.1309 143.915 33.4895 144.469 31.5469ZM154.21 186.929C152.816 189.628 148.507 190.927 149.656 194.033L150.117 194.226C151.134 193.282 150.6 192.853 150.855 192.59C152.201 191.21 153.676 189.82 154.865 188.297C154.649 187.258 154.879 187.688 154.21 186.929ZM61.901 186.226C60.5956 187.438 58.7382 189.573 59.9596 191.365L60.1295 191.425C60.6415 190.292 62.1565 187.397 62.0795 186.418L61.901 186.226ZM74.0214 183.085C72.9071 184.787 72.2465 186.453 72.2941 188.526L72.7581 188.802C73.393 187.18 74.2761 185.236 74.4278 183.539L74.0214 183.085ZM154.279 175.458C152.899 176.796 149.995 178.928 150.705 180.998C152.382 179.269 154.28 177.806 154.279 175.458ZM172.745 164.339C170.912 165.317 167.087 168.226 167.953 170.672C169.298 168.81 170.937 166.729 172.835 165.129C172.805 164.865 172.775 164.602 172.745 164.339ZM205.734 108.647C202.983 111.026 202.653 111.493 200.655 114.583L200.806 115.522C201.872 114.69 205.638 110.565 205.874 109.31L205.734 108.647ZM130.575 86.6929C129.093 88.2747 127.906 90.1325 127.441 92.2765L127.698 92.5005C129.54 90.9783 130.347 89.6504 130.909 87.3182L130.575 86.6929ZM136.172 82.5265C134.486 84.4515 131.065 88.9217 130.958 91.4872L131.087 91.7537C132.955 90.1992 136.667 84.8392 136.172 82.5265ZM138.924 84.2048C138.413 85.6854 138.933 85.7376 138.544 87.1598C138.089 88.8239 137.521 89.1799 138.151 90.7873C139.82 89.5242 140.096 86.9275 140.111 84.8927C139.487 84.2229 139.858 84.4646 138.924 84.2048ZM125.898 80.1427C124.486 82.1515 120.228 87.5214 121.026 90.0307C122.325 88.0812 126.43 82.5404 125.898 80.1427ZM140.523 74.3869C139.597 75.9741 137.553 78.7686 137.248 80.2346C137.529 80.9396 137.31 80.7476 137.807 81.1511C139.626 79.1479 140.337 77.5376 140.87 74.8834L140.523 74.3869ZM172.477 17.1633C170.581 17.7966 168.151 21.3807 167.282 23.0767C166.89 23.8591 166.529 24.6572 166.199 25.468C166.709 26.5638 166.383 26.2806 167.346 26.6922C168.119 25.7557 169.163 23.9883 170.038 23.8273L169.806 25.8474C171.056 25.8588 170.92 24.3646 171.827 25.0083C171.638 25.9974 171.584 26.1058 170.967 26.9027C170.56 28.1231 170.275 28.2702 170.604 29.3342C172.85 28.0956 172.081 24.6573 176.312 22.2931C176.573 21.0389 176.65 20.8227 176.256 19.6184C174.857 20.1872 175.83 20.9988 174.027 21.7467C173.65 21.1568 173.716 20.4423 173.683 19.7115C172.073 19.4387 172.746 20.8293 171.746 19.9168C171.959 19.1724 172.377 17.8766 172.477 17.1633Z" fill="#F5F2EE"/>
</svg>
