<svg width="589" height="474" viewBox="0 0 589 474" fill="none" xmlns="http://www.w3.org/2000/svg">
<path d="M333.302 367.866C330.816 367.357 330.424 367.13 328.035 367.679C329.604 370.576 334.575 369.91 335.78 373.54L334.726 374.121C332.025 373.672 329.852 373.001 327.235 372.24L326.557 373.016L327.87 373.725C333.026 375.158 336.006 376.615 341.133 375.783L341.631 374.666C340.469 372.892 335.348 369.277 333.302 367.866Z" fill="#F5F2EE"/>
<path d="M197.227 293.75C193.648 293.345 194.627 292.98 191.578 294.334L191.642 295.313L193.545 295.509C195.964 297.426 195.481 297.629 198.16 297.952L198.672 296.693L197.227 293.75Z" fill="#F5F2EE"/>
<path d="M166.184 281.065C164.709 280.491 160.303 278.868 158.956 279.328C161.5 281.818 165.892 283.815 169.142 285.51C172.022 286.568 172.905 286.775 175.903 287.276L176.007 286.826C173.172 284.324 169.585 282.761 166.184 281.065Z" fill="#F5F2EE"/>
<path d="M148.354 270.57C146.32 271.22 147.105 270.634 145.89 272.35C147.429 276.306 152.495 277.515 156.225 278.367L156.437 275.797C154.09 272.214 151.742 272.372 148.354 270.57Z" fill="#F5F2EE"/>
<path d="M222.684 38.2272C222.132 40.347 220.971 41.3263 221.16 43.3821C223.648 44.9217 231.468 45.6995 235.162 46.3896C236.463 45.8059 236.653 45.8376 237.588 44.7226C234.43 42.2685 227.929 43.6303 224.286 41.0598L223.75 37.6304L222.684 38.2272Z" fill="#F5F2EE"/>
<path fill-rule="evenodd" clip-rule="evenodd" d="M295.085 7.35844C278.635 1.44057 261.128 -0.949879 243.693 0.339851C200.173 3.6108 162.504 29.8953 134.848 62.2722C125.037 73.8189 116.271 86.2146 108.66 99.3146C76.7832 92.7088 13.5975 76.0448 4.13463 122.633C2.99745 128.242 4.99258 131.06 0.0188129 134.85C-0.415635 140.091 6.87884 167.243 11.1321 172.461C13.0348 174.794 19.9625 179.493 20.5812 183.443C17.5589 184.162 18.2961 180.906 16.6804 183.525C17.5702 185.989 18.4569 188.018 18.729 190.622C19.7119 190.365 20.6929 190.086 21.6636 189.786C22.6525 192.146 22.6274 192.478 22.3479 195.034C21.4647 195.661 20.8575 195.997 20.401 197.018C23.8518 200.218 28.4944 199.297 30.1674 204.148C29.066 207.754 29.4049 206.874 26.8622 209.186C30.7484 213.282 37.906 221.749 43.7226 215.438C43.9621 217.985 44.2776 217.224 43.001 218.814C41.2746 218.88 40.178 218.61 38.9957 219.492L39.9777 221.108C42.0826 221.292 41.2801 221.381 43.3398 220.16L44.7239 224.308C49.2493 225.871 49.5716 220.873 52.3626 225.378L51.6308 226.122L47.6613 225.806C49.5029 230.472 54.368 228.038 58.0424 231.768C68.1359 242.006 65.8497 256.471 68.7914 269.461C69.4576 272.403 68.401 274.894 65.7082 276.222L66.1583 277.271L68.2959 276.829C77.396 282.854 73.4356 294.254 76.7376 301.153C79.8027 302.795 79.5028 302.017 80.5696 304.651C80.4297 305.825 80.2457 307.311 80.0261 309.11C82.2265 312.111 92.5306 333.727 92.1508 336.124C89.4929 335.661 89.4309 335.15 87.6169 336.343C87.2649 338.606 87.9707 339.384 89.0667 341.434C89.1822 341.592 89.2978 341.756 89.4133 341.925C89.7597 342.432 90.1054 342.981 90.449 343.546C91.4541 345.199 92.4434 346.979 93.3824 348.19C93.6382 348.52 93.8898 348.808 94.1378 349.038C94.224 349.119 94.3087 349.193 94.3938 349.259L94.6227 349.923C95.7298 353.069 96.3358 353.714 99.4372 355.238L98.6468 354.627C101.321 355.474 100.584 355.705 102.468 354.75C102.391 352.251 100.505 352.052 98.635 348.648L99.0993 347.095L100.13 347.253C106.228 351.756 106.936 356.025 104.174 362.95L103.853 363.764L105.124 364.301L108.368 362.012C112.885 361.855 114.513 365.869 115.399 369.564L115.593 370.38C124.495 374.769 116.826 375.688 116.587 380.109L118.539 381.543L119.411 381.288L119.044 379.54L120.34 379.004C121.168 377.843 121.065 377.783 122.361 377.248L123.79 377.846C123.937 379.11 124.124 380.369 124.345 381.62C125.412 381.196 126.33 380.856 127.408 380.482C128.45 382.552 128.409 383.273 130.177 384.447C131.159 383.272 130.575 383.791 132.309 383.191C135.671 386.218 135.997 392.539 139.166 394.385L140.659 392.732C142.881 393.754 143.998 395.398 145.635 397.269C143.561 402.163 148.909 401.04 153.214 403.54C157.692 406.142 157.915 408.455 161.173 412.018C161.119 412.051 162.551 411.264 162.509 411.333C163.747 410.124 168.818 415.109 169.811 415.944C188.046 431.273 210.389 440.886 232.151 450.087C232.102 450.061 235.176 448.936 235.505 448.814C240.246 449.658 241.82 456.391 246.138 454.368C250.265 452.432 251.623 453.448 255.453 455.292L255.543 456.377C248.867 462.278 230.316 450.081 222.415 450.47C222.382 452.461 225.578 455.456 227.125 458.432C219.245 461.318 191.339 442.032 184.41 445.348C197.705 456.898 248.617 470.747 267.104 471.467C269.716 472.161 283.699 470.219 285.272 470.849C296.705 475.436 310.215 469.218 320.504 470.392C326.47 477.819 331.449 471.074 338.547 469.887C341.585 469.377 355.12 468.516 356.451 467.529L355.12 466.564L355.367 465.585C358.003 463.813 359.297 462.546 361.807 464.897C384.01 460.078 432.958 426.332 452.342 412.858C470.618 419.246 491.613 420.483 510.942 422.704C513.007 423.046 516.941 420.344 518.626 420.398C559.118 421.679 576.593 372.717 587.84 341.584C590.433 334.407 586.846 319.629 586.462 311.99C586.165 306.05 589.206 304.27 586.638 297.727L585.509 297.492L584.012 299.777L583.035 299.302L582.865 296.342L580.374 295.514L579.894 294.381C582.036 292.945 582.788 296.018 585.058 295.384C585.294 291.905 583.803 292.563 582.491 288.332C583.332 287.325 584.021 287.119 585.198 286.686L584.982 284.737C582.674 281.712 584.423 285.042 579.846 283.482L579.013 281.53L580.937 280.714C581.006 280.357 581.075 280 581.144 279.643C567.391 244.636 533.089 217.325 497.223 207.476C487.692 204.86 480.164 205.258 471.373 201.964C471.339 201.948 471.176 199.479 469.696 198.177C468.602 198.91 468.451 199.455 467.848 200.617L467.628 201.047C465.475 199.746 464.015 195.706 463.087 193.27C463.735 190.6 464.438 188.33 462.376 186.1C461.889 187.491 461.755 188.388 460.598 189.279C458.699 187.303 455.306 176.589 454.402 176.242C449.702 175.253 450.267 169.82 451.461 165.69C454.751 154.301 444.23 149.073 438.382 139.599C438.834 137.736 438.883 137.554 438.829 135.649C435.305 134.622 435.173 134.459 433.945 131.271C434.199 129.285 434.361 129.184 435.51 127.446L435.825 126.984C433.71 122.272 429.024 122.195 424.524 121.489C421.645 119.093 421.73 117.172 421.135 113.314C418.996 111.275 414.851 111.118 414.636 110.842C410.731 105.718 394.153 86.2158 388.368 84.8741C389.336 86.9267 389.617 87.4514 390.144 89.6363L388.891 90.7847C385.633 91.7001 385.156 91.8509 381.792 91.4122C375.232 87.2389 380.571 85.2899 378.516 81.1514C377.239 78.5885 369.088 72.9072 366.144 71.9711L364.348 74.434L363.366 74.4761L362.812 72.7775C362.985 69.9377 364.076 68.595 365.562 66.2232L364.108 64.4395C358.726 63.2568 359.717 68.9297 351.176 60.7608C351.637 59.9291 352.144 59.1641 352.714 58.4027L351.202 57.5496C347.897 59.3838 348.106 59.0457 345.522 56.7924L349.145 56.9193L349.015 55.6224C347.367 54.0316 347.041 53.5582 344.845 53.0613L343.398 55.079C341.293 53.977 341.266 53.0987 339.84 50.8268L338.149 51.4122L339.559 53.2725L338.928 54.1739C336.294 53.829 331.945 51.6661 330.205 49.5886C331.482 47.8174 331.356 48.3503 334.119 47.6482C335.857 45.6427 335.328 46.5165 335.59 43.1675C338.685 42.1284 340.45 45.9087 344.534 44.7413L344.73 44.6821L344.495 44.5152C343.429 43.7377 343.869 43.7744 342.599 43.6756L342.76 41.8868L341.82 41.3617L341.505 42.3298L341.076 40.8736C344.831 41.1565 347.737 43.5428 349.474 42.784C344.996 34.4583 305.942 24.0889 300.604 17.3411C305.805 15.9979 307.259 17.6632 311.044 21.0978C322.26 20.9167 324.527 24.0577 334.656 27.7256C338.539 29.1326 339.941 28.7949 345.026 31.0858C346.002 29.5803 345.793 30.2733 345.345 28.0579L344.165 27.328L342.132 28.1849C335.584 23.0166 333.856 21.248 325.427 18.8855C315.092 15.9889 305.142 11.0278 295.085 7.35844ZM237.605 457.351C239.32 458.931 239.625 459.246 241.78 460.045C240.62 461.555 238.069 462.147 235.996 462.973C234.105 461.247 232.176 459.964 231.64 457.602C233.57 456.393 234.604 457.192 237.148 456.924L237.605 457.351ZM119.207 245.802C120.87 246.683 123.88 250.279 123.127 250.214C135.147 251.248 140.359 258.613 151.088 261.881C155.431 263.204 159.254 264.63 162.581 267.932L162.046 268.297L159.419 267.661L159.182 268.96C160.087 270.835 160.43 272.163 162.202 273.144C162.782 271.812 163.644 269.099 165.374 268.934C172.697 267.172 170.881 275.642 174.606 275.413C189.105 274.523 185.473 283.242 191.728 286.892C192.454 285.845 192.29 284.499 192.331 283.158C194.354 283.706 194.638 284.425 196.052 286.151C195.275 289.612 193.638 287.088 192.672 289.865C197.209 292.452 196.574 287.407 199.515 287.02C199.804 289.767 199.951 290.378 201.899 292.361C203.585 288.17 200.998 288.441 202.483 286.04C203.219 286.874 208.421 292.379 209.575 293.412C209.607 293.398 209.64 293.384 209.673 293.37C209.883 293.65 209.822 293.634 209.575 293.412C206.807 294.62 203.721 294.446 200.656 294.538C201.637 296.333 201.391 296.6 202.875 297.41C206.235 303.706 218.816 309.527 225.053 307.671L225.678 305.75C227.288 305.318 227.141 305.69 229.141 306.652C230.032 308.901 229.453 308.869 228.328 311.673L228.883 312.867C230.707 313.326 231.996 312.997 233.851 312.746C234.897 310.236 232.547 306.756 232.783 302.432L233.93 301.624C236.881 302.148 239.982 304.697 242.525 306.48C232.545 312.279 240.45 311.225 237.739 316.092L233.955 316.985C237.422 318.285 241.528 321.056 244.767 321.042L245.444 320.03L245.063 318.128C243.58 317.525 243.631 317.865 241.688 318.324C241.846 317.914 241.948 317.502 242.2 317.184L242.198 318.171C243.171 317.861 241.495 317.741 244.268 315.161C246.282 316.605 246.57 316.866 249.023 316.964C251.831 315.473 250.932 316.367 252.45 313.606C252.832 302.51 250.526 308.537 247.264 304.188L247.831 303.201C250.76 303.721 255.256 304.796 257.374 306.86C258.529 310.41 255.837 311.619 255.845 316.215C257.491 317.369 257.955 317.508 258.819 319.236L258.107 320.143C256.043 320.046 254.642 319.399 252.69 318.705C249.817 320.086 250.642 319.286 248.985 321.613L249.469 322.924C256.546 326.683 270.741 333.301 279.007 332.055C284.342 331.25 279.896 332.92 282.001 337.318C284.423 338.451 283.754 338.34 286.889 337.766C291.562 336.906 295.045 342.594 297.68 344.566C300.996 347.052 310.92 347.218 315.037 346.717C319.026 349.181 321.697 350.988 326.125 352.738C329.496 354.07 333.807 353.878 336.006 355.79C335.051 359.235 332.726 358.213 331.855 360.986C335.205 361.536 335.885 361.672 338.277 364.137L339.305 364.035C339.6 361.571 339.602 359.9 340.728 357.684L341.938 357.443C347.993 360.029 349.195 367.675 351.765 368.498C354.957 369.519 357.949 368.586 362.089 372.505C361.424 374.157 352.415 371.293 350.65 370.818C346.773 369.775 347.539 371.245 343.517 373.414C344.537 374.351 345.545 375.306 346.534 376.274L346.113 378.584C351.678 383.626 395.751 394.567 404.306 400.685C406.728 402.417 406.378 402.918 406.785 405.652C404.818 408.104 403.344 407.028 402.742 407.661C387.476 423.71 353.66 446.026 330.638 435.122C331.531 434.607 331.474 434.614 332.128 433.807C289.541 428.017 265.848 420.294 227.106 400.838C224.837 401.71 223.745 402.05 222.115 400.035L223.514 399.529C223.442 399.292 192 376.354 186.163 371.083C155.925 343.798 134.446 309.837 117.577 273.122C117.751 272.384 119.387 265.69 119.393 265.633C116.92 258.993 110.522 253.71 116.048 246.049L119.207 245.802ZM473.883 409.881C475.843 408.879 478.022 408.736 479.978 409.861C482.273 411.643 483.066 411.592 483.703 413.932C481.15 414.299 479 413.271 476.48 412.427L473.888 411.097L473.883 409.881ZM486.805 413.744C489.162 410.64 493.891 412.365 497.006 413.478L498.427 414.943C496.177 415.783 490.563 414.437 487.653 414.095L486.805 413.744ZM367.374 366.991C370.053 366.933 371.354 367.566 373.825 368.458C372.325 370.348 371.601 371.687 369.225 372.246C366.765 371.997 366.475 371.829 364.351 370.562C365.385 368.541 365.463 367.926 367.374 366.991ZM394.704 356.035C397.029 356.405 398.005 356.564 400.216 357.329L404.097 359.246L404.358 360.085C400.933 360.081 400.142 359.856 396.808 359.009L394.49 356.865L394.704 356.035ZM346.48 339.659C350.152 339.689 353.784 340.464 357.158 341.935L356.993 342.965C353.353 342.902 349.751 342.166 346.382 340.798L346.48 339.659ZM212.303 296.844C218.118 295.933 223.138 301.435 222.685 307.282C217.58 303.727 220.172 298.118 214.261 298.285L213.626 299.531C214.137 300.352 214.648 301.085 215.331 301.766C212.465 301.841 205.959 298.656 202.875 297.41C204.885 296.582 209.274 297.318 212.303 296.844ZM296.707 321.532C299.974 321.443 303.524 322.642 306.721 323.528C308.502 324.767 309.587 325.021 310.103 326.744C306.654 326.98 302.738 325.278 299.52 323.999L296.695 322.2L296.707 321.532ZM494.095 277.649C526.516 298.915 546.643 320.214 552.623 359.571C551.066 362.049 548.094 367.657 545.505 368.56L545.187 368.364C544.271 367.807 541.46 366.268 540.585 366.295C530.568 366.598 524.317 367.569 514.187 366.801C512.745 369.881 513.439 369.716 510.98 370.761L509.149 370.363L509.734 367.029C508.359 365.597 506.961 365.454 505.005 364.916C500.467 364.421 497.257 364.322 493.078 362.347L492.54 361.62C501.122 360.413 513.92 365.275 525.535 364.152C518.659 362.942 493.472 359.246 489.333 355.276C488.725 348.672 494.988 348.004 495.781 343.293L493.613 342.68C493.663 339.028 495.947 336.636 496.261 333.608C496.403 332.243 493.96 328.931 494.626 326.741C496.577 320.33 503.955 315.526 500.311 307.727C498.855 307.961 498.873 308.611 497.655 310.229L497.078 309.72C498.087 303.858 499.616 303.492 494.564 299.879C492.208 295.438 495.992 288.394 493.077 284.666C490.909 281.894 490.001 282.96 488.807 279.05L489.413 278.099L492.388 278.755L494.095 277.649ZM443.973 348.533C440.913 349.62 436.501 347.266 433.514 345.967L433.271 344.954C436.913 345.422 440.694 345.811 444.242 346.705L443.973 348.533ZM217.378 38.8362C228.304 35.6133 248.828 34.9596 258.419 41.8549L258.232 42.6984C256.43 42.4554 255.025 42.2964 253.207 42.201L253.42 43.3643L252.646 45.543L248.304 45.6962L247.574 46.5258C251.559 49.3539 262.485 49.4126 267.665 50.3087L268.148 50.3985L268.962 50.7401L268.963 50.7395C270.619 51.5623 274.514 53.0977 275.103 54.3999C270.732 59.7988 253.1 66.1553 251.761 73.2586C252.559 74.646 259.952 80.6296 262.781 84.0709C293.177 85.5522 305.654 87.8474 332.415 107.077C376.599 138.824 416.927 195.202 436.439 246.243C441.28 258.907 445.955 289.91 448.41 304.271C446.878 306.222 445.738 307.388 444.922 309.743L447.405 312.25C448.062 315.575 444.676 322.468 447.097 328.177C447.939 330.162 444.878 341.391 444.113 344.345C428.944 340.391 422.85 337.567 408.573 331.361C403.397 329.111 389.544 326.019 382.771 323.648C381.805 319.066 376.526 318.865 372.001 317.331C281.844 287.265 193.995 250.695 109.132 207.905C106.219 167.663 121.919 129.479 138.975 93.9777C143.982 83.5645 150.818 74.1604 158.648 65.7058C166.043 57.7151 175.662 54.2393 183.632 47.0085C184.962 47.0279 185.999 47.0751 187.332 47.1738C193.882 37.1166 195.062 44.4613 203.924 38.972C205.43 38.0415 208.554 35.8744 210.1 35.9204C209.009 37.8551 208.901 37.3665 208.992 39.2531C214.498 37.213 212.6 37.0328 217.378 38.8362ZM45.4708 209.122C47.9368 210.746 48.2087 211.422 49.6324 213.881C53.1056 215.958 56.0966 218.859 59.1142 221.569C54.2768 219.51 49.8639 216.163 45.2996 214.628L43.7226 215.438C42.3338 214.599 42.2991 214.433 41.2853 213.233C42.2529 210.957 41.7493 210.821 43.5462 209.068L45.4708 209.122ZM76.7609 124.977C77.3005 125.128 77.8451 125.292 78.3794 125.463L79.1675 127.238C77.2241 128.026 76.5903 128.164 74.5176 128.543L74.0413 129.848C75.7148 131.349 87.2723 132.057 89.8855 135.118C89.1535 145.415 83.3998 176.173 79.6557 185.666L78.8344 185.913L77.4781 184.567C72.8647 185.795 71.9864 187.233 68.0312 182.505C63.5357 177.123 60.8477 175.436 54.0864 173.764C53.3468 173.578 47.7783 165.152 46.707 163.899C3.43307 117.986 42.4788 137.466 45.5374 125.103C47.9685 123.386 47.4932 123.885 50.7464 123.52L52.1571 124.13C50.5783 125.869 48.5096 126.408 46.2688 127.295C49.7083 128.46 61.6905 129.515 64.7994 127.911C64.4396 127.147 64.0942 126.449 63.6988 125.7L64.4981 124.794C67.1953 125.939 65.5505 128.341 68.2544 126.94C72.3883 124.802 71.6254 123.557 76.7609 124.977ZM271.052 47.4669C271.546 47.6455 272.008 47.8354 272.432 48.0385C272.516 48.0791 272.599 48.1203 272.681 48.162C273.496 48.5792 274.15 49.0514 274.587 49.5949C273.888 48.7257 272.633 48.0383 271.052 47.4669ZM269.146 46.8694C264.659 45.6328 258.662 44.9579 254.73 43.7906C256.5 44.3159 258.687 44.7412 260.967 45.163C261.474 45.2567 261.985 45.3504 262.497 45.4448C264.033 45.7281 265.579 46.0194 267.037 46.3469C267.28 46.4015 267.52 46.4571 267.758 46.5138C268.234 46.6273 268.697 46.7458 269.146 46.8694ZM264.041 42.021C266.966 41.5172 270.726 43.2669 273.538 44.4313L273.117 45.9394C270.017 45.9702 266.489 44.75 263.456 43.8777L264.041 42.021ZM231.613 27.8944C223.866 35.0045 227.75 28.9317 218.505 29.1442L218.293 28.0939C221.713 26.1885 227.91 26.9427 231.613 27.8944Z" fill="#F5F2EE"/>
<path d="M200.454 439.401C203.242 442.464 205.991 444.428 210.092 444.725L211.939 445.07L211.6 444.142C207.689 441.561 205.677 440.911 201.367 439.316L200.454 439.401Z" fill="#F5F2EE"/>
<path d="M183.491 430.684L185.089 432.404C184.394 433.604 184.301 433.774 183.855 435.082L185.752 436.543L186.95 436.256L187.275 433.976L188.038 433.501C189.049 434.237 189.536 435.031 190.28 436.02C192.493 439.123 192.738 440.048 196.633 440.193L197.128 439.031C194.503 434.084 190.236 433.039 185.125 430.845L183.491 430.684Z" fill="#F5F2EE"/>
<path d="M62.7005 249.153C59.4538 252.4 60.8646 258.08 61.8919 261.988L62.8474 261.446C63.6606 259.064 62.8839 252.058 62.7005 249.153Z" fill="#F5F2EE"/>
</svg>
