<svg width="29" height="32" viewBox="0 0 29 32" fill="none" xmlns="http://www.w3.org/2000/svg">
<path fill-rule="evenodd" clip-rule="evenodd" d="M23.2267 0.00079614C23.5601 -0.00417638 23.9177 0.0141584 24.2994 0.0553976C24.6812 0.09664 25.0276 0.161899 25.3386 0.251139C25.4101 0.250072 25.4585 0.284463 25.4834 0.354504C25.6024 0.352768 25.746 0.397463 25.914 0.488775C26.1056 0.556316 26.2494 0.612913 26.3454 0.658417C26.4414 0.703925 26.5015 0.738328 26.5257 0.761439C26.5982 0.830758 26.7067 0.911141 26.851 1.00285C26.9466 1.02489 27.0431 1.10568 27.1405 1.24495C27.1888 1.29117 27.2133 1.32623 27.2137 1.34969L27.3225 1.45374L27.3242 1.55917C27.3717 1.55851 27.4078 1.58141 27.4323 1.62785L27.5059 1.76762C27.5545 1.83726 27.5908 1.87198 27.6147 1.87167C27.6388 1.89478 27.6513 1.91826 27.6516 1.94172C27.652 1.96512 27.6641 1.98839 27.6882 2.01143C27.7362 2.03419 27.7604 2.05734 27.7608 2.0808C27.7849 2.10391 27.8212 2.12673 27.8692 2.14948C27.8929 2.1492 27.9051 2.17268 27.9058 2.21954C27.9556 2.35951 28.0285 2.45217 28.1244 2.4977C28.2196 2.49627 28.2323 2.53141 28.1621 2.60278C28.139 2.65006 28.1514 2.69701 28.1997 2.74323C28.2961 2.81221 28.3689 2.89321 28.418 2.98636C28.4905 3.05568 28.5513 3.13706 28.6004 3.23018C28.7952 3.5089 28.8961 3.87128 28.9029 4.31706C28.9274 4.36361 28.9402 4.42221 28.9412 4.49254C28.942 4.53941 28.9547 4.58613 28.9792 4.63265C29.0048 4.74957 29.0067 4.87859 28.9851 5.01966C28.9631 5.13735 28.9411 5.26691 28.9195 5.40806C28.896 5.43184 28.8725 5.44409 28.8487 5.44446C28.8253 5.46823 28.8374 5.47985 28.8849 5.47914C28.9087 5.4788 28.9212 5.50194 28.9219 5.54885C28.8757 5.64342 28.8531 5.72605 28.8542 5.79645C28.8548 5.8434 28.8202 5.92613 28.7506 6.04439C28.8227 6.09024 28.8237 6.14876 28.7534 6.22021C28.7072 6.31472 28.6728 6.39743 28.6501 6.46815C28.6995 6.58475 28.6651 6.67929 28.5472 6.75146C28.5234 6.75181 28.5235 6.76346 28.5475 6.78648C28.5713 6.78613 28.5716 6.80963 28.5485 6.85688C28.5248 6.85707 28.4886 6.82258 28.4401 6.75317C28.3932 6.80077 28.3697 6.83616 28.37 6.85963C28.3703 6.88309 28.3828 6.90657 28.4069 6.92968C28.4545 6.92898 28.4784 6.94023 28.4788 6.96368C28.4791 6.98715 28.4674 6.99904 28.4436 6.9994C28.3967 7.04702 28.3616 7.09464 28.3386 7.14191C28.3155 7.18911 28.2801 7.21297 28.2325 7.21368L28.2332 7.24905C28.257 7.24873 28.2691 7.2603 28.2695 7.28373C28.317 7.28304 28.3409 7.29432 28.3413 7.31773C28.342 7.36463 28.3306 7.38843 28.3068 7.38882C28.2826 7.36571 28.2588 7.36603 28.2353 7.38985C28.2775 7.4302 28.2833 7.46211 28.2526 7.48566L28.2215 7.50489C28.1905 7.52845 28.1961 7.56058 28.2384 7.60104C28.1916 7.64862 28.1565 7.69599 28.1334 7.74321C28.1341 7.79014 28.1227 7.81394 28.0989 7.8143C28.0747 7.79119 28.0508 7.79151 28.0274 7.81533C28.0036 7.81569 28.0039 7.8276 28.0281 7.8507C28.0756 7.85001 28.0757 7.86157 28.0284 7.88572L28.0295 7.95612C28.0302 8.00301 28.0069 8.0268 27.9593 8.02755C27.911 7.98133 27.8868 7.97009 27.8872 7.99355C27.9117 8.04009 27.9002 8.06357 27.8526 8.06429C27.8285 8.04123 27.8285 8.05313 27.853 8.09967C27.7824 8.14758 27.7473 8.19499 27.748 8.24184C27.7483 8.2653 27.7372 8.301 27.7141 8.34829L27.6437 8.41972C27.6439 8.44305 27.6201 8.44344 27.5722 8.42075C27.548 8.39764 27.5362 8.40953 27.5369 8.45646C27.5618 8.52647 27.5625 8.57345 27.539 8.59726C27.5394 8.62068 27.5276 8.63262 27.5038 8.63297L27.5034 8.5976L27.432 8.59863L27.4326 8.634C27.433 8.65745 27.4569 8.66871 27.5045 8.668C27.5279 8.64421 27.5636 8.63197 27.6112 8.63126C27.6119 8.67817 27.6004 8.71355 27.577 8.73737C27.5536 8.76119 27.5303 8.79688 27.5072 8.84417C27.4603 8.89181 27.4371 8.93907 27.4378 8.986C27.4389 9.05635 27.4036 9.08049 27.3318 9.05811L27.2603 9.05914C27.2606 9.08255 27.2491 9.10612 27.2258 9.12988L27.2261 9.16525C27.2027 9.18897 27.1672 9.20127 27.1197 9.202C27.0721 9.20271 27.0486 9.22649 27.0493 9.27343C27.05 9.32034 27.098 9.34318 27.1933 9.34176C27.1706 9.41248 27.1473 9.45977 27.1239 9.48359C27.1001 9.48398 27.0529 9.50814 26.9823 9.55605C27.0068 9.60258 26.995 9.62642 26.9474 9.62713C26.9236 9.62754 26.8882 9.65134 26.8414 9.6989C26.8179 9.72272 26.7947 9.75842 26.7716 9.8057C26.7719 9.82917 26.7605 9.86457 26.7374 9.91182C26.7858 9.95803 26.7982 9.99308 26.7747 10.0169C26.7509 10.0173 26.7273 10.0292 26.7039 10.053C26.7043 10.0764 26.6925 10.0883 26.6687 10.0887C26.6449 10.089 26.6213 10.1132 26.5982 10.1604C26.5515 10.2079 26.516 10.2201 26.4918 10.1972C26.4677 10.1741 26.4673 10.1622 26.4912 10.1618C26.515 10.1615 26.5267 10.1496 26.5264 10.1261L26.4901 10.0914C26.371 10.0932 26.3357 10.1173 26.3841 10.1635C26.4327 10.2332 26.4216 10.2921 26.3509 10.34C26.3271 10.3404 26.3274 10.352 26.3516 10.3751C26.352 10.3985 26.3402 10.4223 26.3167 10.4462C26.2692 10.4469 26.2338 10.471 26.2107 10.5183C26.2114 10.5652 26.1882 10.6125 26.1413 10.6601C26.1177 10.6605 26.13 10.6837 26.1782 10.7298L26.1789 10.7652C26.1321 10.8128 26.1082 10.813 26.1074 10.7662L26.0349 10.6968C26.0111 10.6972 25.9872 10.7091 25.9638 10.7329C26.0359 10.7787 26.0368 10.8257 25.9662 10.8737C25.9186 10.8744 25.9189 10.8979 25.9672 10.9441C25.9917 10.9906 25.9684 11.0264 25.8975 11.0509C25.8498 11.0516 25.826 11.0638 25.8263 11.0873C25.8267 11.1106 25.8389 11.1223 25.8626 11.122C25.886 11.0982 25.8981 11.0978 25.8985 11.1213C25.8989 11.1448 25.875 11.157 25.8273 11.1577C25.756 11.1588 25.7085 11.171 25.6851 11.1948C25.6367 11.1486 25.6011 11.1493 25.578 11.1965L25.5075 11.2679C25.5555 11.2907 25.5911 11.29 25.6146 11.2662C25.6618 11.242 25.7096 11.2414 25.7576 11.2641C25.6872 11.3356 25.664 11.3713 25.6878 11.3709C25.6644 11.3947 25.6408 11.4066 25.617 11.407C25.6166 11.3837 25.6045 11.3839 25.5811 11.4077L25.367 11.4108C25.3673 11.4342 25.3912 11.4458 25.4388 11.4451C25.4871 11.4913 25.4757 11.5267 25.4046 11.5512C25.3333 11.5523 25.31 11.5878 25.3348 11.6577C25.3352 11.6812 25.3234 11.693 25.2996 11.6934L25.3003 11.7288C25.2769 11.7525 25.2651 11.7761 25.2654 11.7995C25.2652 11.7762 25.2894 11.7877 25.3376 11.8339L25.1266 12.0481C25.1031 12.072 25.0672 12.0726 25.0192 12.0499L24.9836 12.0502C24.936 12.0509 24.9124 12.0631 24.9128 12.0866L24.8054 12.0883L24.8061 12.1233C24.8537 12.1227 24.854 12.1461 24.8071 12.1937L24.8078 12.2291C24.8092 12.3229 24.7978 12.3699 24.774 12.3703C24.727 12.4179 24.6679 12.4423 24.5964 12.4434C24.5489 12.4441 24.5135 12.4564 24.4901 12.4801C24.5621 12.5259 24.6103 12.5604 24.6344 12.5835C24.611 12.6073 24.5874 12.6195 24.5636 12.6199C24.4207 12.622 24.374 12.6931 24.4237 12.8332C24.4725 12.9028 24.4492 12.9385 24.354 12.94C24.3064 12.9407 24.2589 12.9648 24.212 13.0124C24.1648 13.0365 24.1055 13.0491 24.0342 13.0502C24.0345 13.0737 23.9995 13.1212 23.9292 13.1927C23.9295 13.2162 23.9063 13.2635 23.8598 13.3345C23.8367 13.3818 23.8131 13.4056 23.7893 13.406C23.6234 13.4554 23.5295 13.539 23.5075 13.6567L23.3645 13.6587C23.3652 13.7056 23.3776 13.7291 23.4014 13.7288C23.4251 13.7285 23.4255 13.7517 23.4025 13.7988C23.379 13.8226 23.3672 13.8464 23.3676 13.8699C23.3914 13.8695 23.3799 13.8815 23.3327 13.9056C23.31 13.9763 23.2749 14.0239 23.2277 14.0481C23.2039 14.0485 23.1682 14.0607 23.121 14.0849L23.0153 14.192L22.9082 14.1937C22.8599 14.1475 22.8364 14.1713 22.8378 14.2652C22.7916 14.3597 22.733 14.4192 22.662 14.4437C22.5905 14.4448 22.5908 14.4802 22.6634 14.5495C22.6871 14.5491 22.6992 14.5605 22.6996 14.5838L22.6641 14.5845C22.6417 14.6787 22.571 14.7266 22.452 14.7284C22.3568 14.7298 22.2979 14.7778 22.2755 14.872C22.277 14.9658 22.2299 15.0134 22.1346 15.0148C22.1108 15.0152 22.064 15.0747 21.9944 15.193C21.9234 15.2176 21.8883 15.2533 21.889 15.3002C21.7938 15.3016 21.7467 15.3493 21.7481 15.443C21.7492 15.5134 21.7142 15.561 21.6431 15.5856C21.6193 15.5859 21.5958 15.5981 21.5723 15.622L21.5008 15.623C21.5261 15.7164 21.5028 15.7637 21.4314 15.7648C21.3363 15.7662 21.2892 15.802 21.2902 15.8723C21.2667 15.8961 21.2432 15.9083 21.2194 15.9087L21.1841 15.9444C21.1138 16.0158 21.0788 16.075 21.0795 16.122C21.0802 16.1689 21.0452 16.2165 20.9745 16.2645C20.9031 16.2656 20.8324 16.3135 20.7624 16.4084C20.7163 16.5028 20.6698 16.574 20.6229 16.6216C20.5764 16.6927 20.5289 16.7171 20.481 16.6944C20.4572 16.6948 20.4218 16.7186 20.3749 16.7662C20.3756 16.8131 20.3639 16.8369 20.34 16.8373C20.2452 16.8622 20.1866 16.9101 20.1639 16.9808C20.0701 17.076 19.9991 17.112 19.9512 17.0893C19.9519 17.1362 19.964 17.1597 19.9878 17.1594C20.0115 17.159 20.0118 17.1707 19.9885 17.1944C19.965 17.2182 19.9532 17.242 19.9536 17.2655C19.9539 17.2889 19.9304 17.3008 19.8828 17.3016C19.8351 17.3023 19.7877 17.3267 19.7408 17.3744C19.7171 17.3748 19.7056 17.3983 19.7063 17.4451C19.7066 17.4686 19.6834 17.5043 19.6365 17.5519C19.5651 17.553 19.5298 17.5768 19.5305 17.6237C19.5074 17.6709 19.4724 17.7186 19.4255 17.7662C19.3302 17.7676 19.2596 17.839 19.2141 17.9805L19.1433 18.0169C19.0712 17.971 19.0355 17.9833 19.0366 18.0536C19.0373 18.1005 19.0141 18.1362 18.9668 18.1604C18.9434 18.1842 18.9201 18.2197 18.8971 18.2669C18.8491 18.2442 18.8134 18.2564 18.7904 18.3036C18.7907 18.3271 18.7672 18.3393 18.7196 18.34C18.6957 18.3404 18.6722 18.3526 18.6488 18.3764L18.5413 18.3778C18.6135 18.4236 18.638 18.4587 18.6146 18.4825C18.5922 18.5767 18.533 18.6127 18.4374 18.5907C18.4137 18.591 18.4015 18.5794 18.4011 18.556C18.4007 18.5326 18.3769 18.5329 18.3296 18.557C18.33 18.5805 18.3189 18.6278 18.2961 18.6985L18.2253 18.7346C18.1553 18.8295 18.0968 18.8893 18.0495 18.9135C18.0261 18.9373 18.0261 18.9489 18.0499 18.9485C18.0737 18.9482 18.0858 18.9597 18.0861 18.9832L17.9076 18.986C17.908 19.0094 17.9204 19.0326 17.9445 19.0557C17.992 19.055 18.0041 19.0666 17.9808 19.0904C17.9815 19.1373 17.9697 19.1611 17.9459 19.1614C17.9218 19.1383 17.8861 19.1387 17.8388 19.1628C17.7436 19.1642 17.6965 19.2122 17.6979 19.306C17.6981 19.3294 17.6628 19.3417 17.5916 19.3428C17.5439 19.3435 17.5204 19.3789 17.5215 19.4492C17.5705 19.5424 17.5473 19.5661 17.4513 19.5206C17.3795 19.4982 17.3318 19.4992 17.3084 19.523L17.2728 19.5234C17.321 19.5696 17.2978 19.6169 17.2034 19.6652C17.1795 19.6656 17.1681 19.6894 17.1688 19.7363C17.1464 19.8304 17.0875 19.8784 16.9923 19.8798C16.9209 19.8809 16.8732 19.8931 16.8497 19.9169C16.8501 19.9404 16.8625 19.9639 16.8867 19.987C16.9104 19.9866 16.9107 19.9983 16.8873 20.022C16.8877 20.0455 16.84 20.058 16.7447 20.0594C16.7213 20.0832 16.7219 20.1068 16.7461 20.1298C16.6761 20.2248 16.5456 20.2736 16.3551 20.2765C16.3559 20.3234 16.38 20.3466 16.4277 20.3458L16.4294 20.4513C16.4297 20.4747 16.3941 20.4869 16.3227 20.488L16.2501 20.419C16.2033 20.4666 16.2157 20.5017 16.2874 20.5241C16.3112 20.5237 16.3233 20.535 16.3237 20.5584C16.3241 20.5819 16.3005 20.5941 16.2529 20.5948C16.2294 20.6186 16.2056 20.6309 16.1817 20.6312C16.158 20.6317 16.1465 20.6552 16.1472 20.702C16.1476 20.7254 16.1002 20.7495 16.0053 20.7744L15.8626 20.7768C15.8388 20.7772 15.827 20.8007 15.8277 20.8476C15.805 20.9183 15.7579 20.9543 15.6865 20.9554L15.7214 20.8843C15.6499 20.8854 15.6143 20.9095 15.615 20.9564C15.6153 20.9798 15.6275 20.9914 15.6512 20.9911C15.6747 20.9673 15.6986 20.967 15.7227 20.9901C15.6765 21.0846 15.5706 21.1682 15.405 21.2411C15.3098 21.2425 15.2623 21.2551 15.2627 21.2785C15.2634 21.3255 15.2399 21.3492 15.1922 21.35C15.1447 21.3507 15.1093 21.363 15.0859 21.3867C15.0862 21.4102 15.0624 21.4105 15.0144 21.3877C15.0151 21.4346 15.0272 21.4581 15.051 21.4578C15.0748 21.4574 15.0872 21.4806 15.0879 21.5275C15.041 21.5751 15.006 21.6227 14.983 21.67L14.8773 21.7772L14.8058 21.7782L14.7705 21.8139C14.6754 21.8153 14.6279 21.8279 14.6283 21.8513C14.581 21.8755 14.5221 21.9235 14.4518 21.9949C14.4514 21.9714 14.4275 21.9598 14.3799 21.9605C14.3568 22.0078 14.3215 22.0435 14.2742 22.0677C14.2508 22.0915 14.2276 22.1272 14.2045 22.1745C14.181 22.1983 14.1696 22.2221 14.1699 22.2456C14.1702 22.269 14.1469 22.3045 14.1002 22.352C14.0544 22.47 13.9837 22.5298 13.8885 22.5313C13.8412 22.5554 13.8297 22.5908 13.8543 22.6374C13.8784 22.6604 13.8908 22.6837 13.8912 22.7071L13.8197 22.7081C13.7956 22.685 13.7717 22.6857 13.7482 22.7095C13.7251 22.7567 13.6538 22.7812 13.5348 22.783C13.4396 22.7844 13.3565 22.7973 13.2854 22.8218C13.3099 22.8683 13.3339 22.8798 13.3573 22.8561C13.3807 22.8323 13.3928 22.8439 13.3935 22.8908C13.3355 22.9498 13.3096 23.0002 13.3162 23.0423L13.321 23.0598C13.3102 23.0549 13.2762 23.0815 13.2188 23.1398C13.195 23.1401 13.1589 23.1172 13.1107 23.0711C13.1117 23.1413 13.1002 23.1768 13.0765 23.1772C13.0293 23.2014 12.9818 23.2136 12.9342 23.2143C12.9104 23.2147 12.8868 23.2385 12.8637 23.2857C12.7685 23.2872 12.7211 23.3116 12.7218 23.3585L12.6862 23.3589C12.6628 23.3827 12.6389 23.3949 12.6151 23.3953C12.592 23.4425 12.5687 23.4779 12.5453 23.5017C12.5215 23.5022 12.4982 23.5261 12.4752 23.5732L12.4762 23.6436L12.5488 23.7129C12.5015 23.7371 12.4571 23.7613 12.4158 23.7854L12.1858 23.9296C12.1444 23.9537 12.1001 23.9779 12.0528 24.0021C12.0055 24.0263 11.9585 24.0623 11.9115 24.1099L11.7696 24.1824C11.7462 24.2061 11.7347 24.2297 11.7351 24.2531C11.7592 24.2762 11.7595 24.2997 11.7361 24.3235C11.6657 24.395 11.5471 24.4319 11.3804 24.4344C11.3573 24.4817 11.2984 24.5296 11.2039 24.578C11.1326 24.5791 11.1331 24.6145 11.2056 24.6837C11.2532 24.683 11.2774 24.6943 11.2778 24.7177C11.2547 24.765 11.1958 24.8129 11.1013 24.8613C11.0299 24.8623 10.9818 24.8514 10.9576 24.8283C10.9085 24.7352 10.8847 24.7355 10.8861 24.8293C10.8875 24.9231 10.8171 24.9827 10.6748 25.0083C10.6762 25.1021 10.6294 25.1616 10.5345 25.1865L10.4641 25.2579C10.3695 25.3063 10.2983 25.331 10.2506 25.3317C10.2277 25.379 10.2404 25.4257 10.2886 25.4719C10.337 25.5181 10.3373 25.5415 10.2897 25.5422C10.2662 25.5661 10.2548 25.5899 10.2551 25.6133L10.1836 25.6144C10.1603 25.6381 10.1602 25.6262 10.1833 25.579C10.1595 25.5793 10.1353 25.5681 10.1111 25.545L9.96812 25.5471C9.96847 25.5705 9.95665 25.5708 9.93255 25.5477C9.90876 25.5481 9.88517 25.56 9.86174 25.5838L9.86313 25.6896L9.86554 25.8304C9.84282 25.901 9.80712 25.9132 9.75882 25.8671C9.71083 25.8444 9.65167 25.8688 9.5813 25.9403C9.46331 26.0124 9.38028 26.0368 9.33229 26.0141C9.3568 26.0606 9.38069 26.0721 9.40412 26.0484C9.42793 26.0481 9.44035 26.0713 9.44108 26.1181C9.41799 26.1654 9.35912 26.2133 9.26459 26.2617L9.15891 26.3688L9.05357 26.476L8.94616 26.4777C8.89782 26.4315 8.85009 26.4205 8.80283 26.4447C8.7556 26.4689 8.70812 26.4811 8.66053 26.4818L8.62531 26.5175C8.67328 26.5403 8.67357 26.5638 8.62634 26.5879C8.60289 26.6117 8.60353 26.6471 8.62807 26.6937C8.65256 26.7402 8.65258 26.7518 8.62841 26.7287L8.55692 26.7297C8.55728 26.7532 8.56946 26.7647 8.59319 26.7644C8.61696 26.7641 8.62905 26.7757 8.62945 26.7991C8.5584 26.8236 8.49918 26.8481 8.45193 26.8723C8.42883 26.9195 8.39384 26.9671 8.34693 27.0148C8.34721 27.0382 8.31181 27.0504 8.24056 27.0515C8.19293 27.0522 8.16875 27.0291 8.16803 26.9821C8.14457 27.006 8.1207 27.0182 8.09688 27.0185C8.07309 27.0189 8.0495 27.0427 8.02643 27.09C8.02672 27.1134 8.00319 27.1253 7.95563 27.126C7.93184 27.1264 7.92037 27.1502 7.92109 27.1971C7.92148 27.2205 7.94539 27.2318 7.99293 27.2311C8.01674 27.2308 8.04093 27.2423 8.06511 27.2655C8.01825 27.313 7.97107 27.3488 7.92385 27.3729L7.81817 27.4801L7.74667 27.4815C7.74694 27.5048 7.72308 27.5052 7.67518 27.4825C7.62685 27.4363 7.5791 27.4251 7.53185 27.4492C7.50841 27.473 7.47305 27.4971 7.42582 27.5213C7.40237 27.5451 7.37849 27.5573 7.35468 27.5577C7.28405 27.6056 7.24898 27.6414 7.24934 27.6648C7.25076 27.7586 7.21544 27.7824 7.14331 27.7366C7.07186 27.7377 7.01268 27.774 6.96613 27.8451C6.96646 27.8685 6.95469 27.8805 6.9309 27.8808C6.90716 27.8812 6.89566 27.9048 6.89636 27.9516C6.96848 27.9974 7.00475 28.0322 7.00516 28.0556C7.00552 28.0791 6.9819 28.0913 6.93435 28.092C6.88711 28.1162 6.85145 28.1284 6.82763 28.1288L6.75718 28.2002C6.70884 28.154 6.66111 28.1431 6.61385 28.1672C6.59039 28.191 6.55475 28.2033 6.50713 28.204C6.45961 28.2047 6.43608 28.2167 6.43633 28.24C6.38977 28.3111 6.30706 28.3713 6.18869 28.42L6.11858 28.4914C6.11932 28.5383 6.15558 28.5731 6.22737 28.5955C6.1802 28.6196 6.1448 28.6435 6.12134 28.6672L6.01566 28.7747L5.90687 28.6707C5.88376 28.7179 5.83634 28.7421 5.76492 28.7431C5.74156 28.7669 5.73008 28.7905 5.73038 28.8139L5.83745 28.8125C5.81542 28.9301 5.75624 28.9546 5.65992 28.8856L5.55286 28.887C5.50595 28.9347 5.45854 28.9588 5.41091 28.9595C5.36364 28.9837 5.32867 29.0197 5.30557 29.067L5.19989 29.1741C5.12954 29.2455 5.07035 29.2697 5.02236 29.2469C4.9271 29.2483 4.8918 29.2724 4.91634 29.319L4.91737 29.3894C4.89356 29.3898 4.85825 29.4139 4.81134 29.4615L4.88387 29.5309L4.88491 29.6013L4.74296 29.6738C4.7195 29.6975 4.68383 29.7098 4.63624 29.7105C4.63516 29.6401 4.64663 29.5928 4.67008 29.569C4.59758 29.4997 4.56161 29.5004 4.56267 29.5707C4.53962 29.6179 4.51632 29.6417 4.49256 29.6422L4.38688 29.7493C4.3876 29.7962 4.36405 29.82 4.31642 29.8207C4.34059 29.8438 4.37655 29.8551 4.42418 29.8544L4.4601 29.854C4.4132 29.9017 4.36577 29.9258 4.31815 29.9265L4.24596 29.8925C4.2222 29.8929 4.19856 29.9048 4.17516 29.9286C4.17552 29.952 4.18794 29.9755 4.21212 29.9986C4.25965 29.9979 4.26003 30.0214 4.21315 30.069L4.0712 30.1415C4.04776 30.1653 4.01237 30.1891 3.96518 30.2132C3.96625 30.2836 3.93061 30.2843 3.85811 30.215C3.80976 30.1687 3.8212 30.1453 3.89265 30.1442L3.89196 30.1089C3.84433 30.1097 3.7736 30.1576 3.6799 30.2527C3.70406 30.2758 3.70435 30.2993 3.68093 30.3231C3.63263 30.277 3.58483 30.266 3.5376 30.2902L3.39669 30.433L3.39842 30.5388C3.39947 30.6091 3.36445 30.6564 3.29342 30.681C3.24651 30.7286 3.18734 30.765 3.11625 30.7895L2.97568 30.9323C2.9526 30.9795 2.91688 30.9801 2.86861 30.9341C2.84444 30.9109 2.85555 30.8752 2.90246 30.8276C2.92628 30.8272 2.93805 30.8154 2.93769 30.7919C2.91352 30.7689 2.87814 30.7814 2.83131 30.829C2.78405 30.8531 2.7847 30.9117 2.83373 31.0048C2.71581 31.077 2.68176 31.1831 2.7315 31.3231C2.78021 31.3928 2.76876 31.4282 2.69731 31.4292L2.698 31.4646L2.69903 31.535L2.62754 31.536C2.6034 31.513 2.57949 31.5014 2.5557 31.5017C2.55625 31.5371 2.54975 31.5594 2.53636 31.5683L2.50528 31.5773C2.49202 31.5863 2.48574 31.6087 2.48628 31.6439C2.53457 31.6901 2.52315 31.7255 2.45209 31.75C2.42905 31.7972 2.41789 31.8327 2.41824 31.8561C2.41856 31.8795 2.40678 31.9031 2.38336 31.9268C2.35991 31.9506 2.33637 31.9629 2.31256 31.9632C2.28874 31.9636 2.25311 31.9758 2.20584 32C2.15826 32.0007 2.13403 31.9775 2.13331 31.9306C2.13222 31.8603 2.0838 31.8024 1.98791 31.7569C1.89197 31.7114 1.83117 31.6418 1.8059 31.5484C1.75756 31.5022 1.69772 31.4794 1.6263 31.4804L1.62561 31.4454C1.6725 31.3978 1.66034 31.3743 1.589 31.3753C1.58824 31.3285 1.56398 31.3056 1.51647 31.3063C1.44469 31.2839 1.40811 31.2257 1.40664 31.1319C1.40557 31.0615 1.38105 31.0264 1.33343 31.0271C1.28547 31.0044 1.23737 30.9699 1.18906 30.9238C1.1649 30.9007 1.12887 30.8894 1.0813 30.8901C1.05749 30.8905 1.0454 30.8789 1.04504 30.8554C1.06838 30.8316 1.0681 30.8081 1.044 30.785C1.04472 30.8319 1.03294 30.8557 1.00912 30.8561C0.984223 30.7861 0.947959 30.7513 0.900326 30.7521C0.876526 30.7524 0.840474 30.7295 0.792224 30.6834C0.743872 30.6371 0.695188 30.5789 0.646476 30.5093C0.621952 30.4627 0.585283 30.4047 0.536647 30.3352C0.51212 30.2886 0.475835 30.2419 0.427509 30.1957L0.318716 30.0917C0.246268 30.0224 0.20934 29.9645 0.208542 29.9176C0.184022 29.871 0.171299 29.8124 0.170205 29.7421C0.192943 29.6713 0.17989 29.6009 0.131178 29.5312C0.178092 29.4836 0.213089 29.4245 0.235827 29.3537C0.258924 29.3064 0.293918 29.2588 0.34082 29.2112C0.434611 29.116 0.564851 29.0671 0.731438 29.0646L0.801894 28.9931C0.848802 28.9455 0.88444 28.9333 0.908615 28.9564C0.932431 28.956 0.967739 28.9319 1.01464 28.8843L1.0851 28.8128C1.15653 28.8118 1.18009 28.788 1.15556 28.7414C1.20274 28.7173 1.23815 28.6934 1.26159 28.6696L1.40319 28.5968C1.4984 28.5954 1.58118 28.5474 1.65117 28.4526C1.69844 28.4284 1.72199 28.4043 1.72163 28.3808C1.74544 28.3805 1.78107 28.3683 1.82835 28.3441C1.87598 28.3433 1.94696 28.307 2.0411 28.2352C2.06417 28.1881 2.08775 28.1761 2.1119 28.1992C2.13606 28.2223 2.17174 28.2216 2.21896 28.1975C2.24205 28.1502 2.22993 28.1271 2.18235 28.1277C2.1589 28.1516 2.1468 28.1516 2.14644 28.1281C2.21609 28.0097 2.31122 27.985 2.43137 28.0536C2.4065 27.9836 2.41773 27.9483 2.46522 27.9475C2.51249 27.9233 2.55925 27.8638 2.60544 27.7692L2.67589 27.6978L2.8883 27.5539C2.98276 27.5056 3.06525 27.4573 3.13593 27.4093C3.15938 27.3855 3.19504 27.3733 3.24265 27.3726C3.3141 27.3715 3.3494 27.3474 3.34868 27.3005L3.4181 27.1587C3.46537 27.1345 3.51245 27.0985 3.55936 27.0508C3.63039 27.0263 3.66539 26.979 3.66435 26.9087L3.66125 26.6975C3.63527 26.557 3.64447 26.3924 3.68922 26.204C3.71227 26.1568 3.71189 26.1217 3.68784 26.0986L3.72272 26.0629L3.72134 25.9571L3.75415 25.7806C3.72929 25.7106 3.72867 25.652 3.75173 25.6047L3.8923 25.4615L3.92822 25.4612C3.92786 25.4378 3.91566 25.4262 3.89196 25.4265C3.81979 25.3807 3.79463 25.3106 3.81701 25.2164C3.83973 25.1457 3.85053 25.0752 3.84947 25.0048C3.87257 24.9575 3.89547 24.8983 3.9182 24.8276C3.9413 24.7803 3.95212 24.698 3.95032 24.5807C3.9496 24.5338 3.96106 24.4984 3.98452 24.4746C4.00761 24.4273 4.00663 24.3804 3.9821 24.3338C3.98138 24.2869 4.00496 24.2631 4.05255 24.2624C4.0046 24.2396 3.98041 24.2165 3.98003 24.193C3.97967 24.1695 3.99145 24.1577 4.01525 24.1573C4.03835 24.11 4.04916 24.0393 4.04772 23.9454C4.07079 23.8982 4.08227 23.8628 4.08191 23.8393C4.08161 23.8158 4.10487 23.7804 4.15168 23.7328L4.15064 23.6624C4.17371 23.6152 4.17335 23.5917 4.1496 23.5921C4.12543 23.5689 4.12478 23.5336 4.14788 23.4863C4.14717 23.4394 4.15834 23.3924 4.18138 23.3451C4.15723 23.3221 4.15697 23.2985 4.18034 23.2747C4.22762 23.2506 4.26325 23.2384 4.28706 23.238C4.2867 23.2145 4.26284 23.2149 4.21557 23.239C4.19179 23.2394 4.19149 23.2158 4.21454 23.1686C4.23761 23.1214 4.23725 23.0979 4.2135 23.0982C4.18933 23.0751 4.20078 23.0513 4.24804 23.0271C4.29495 22.9795 4.2943 22.9445 4.24631 22.9217L4.24527 22.8513C4.2204 22.7813 4.24372 22.7456 4.31504 22.7445L4.35096 22.7438C4.35065 22.7205 4.36242 22.7085 4.38619 22.7081C4.36201 22.685 4.32603 22.6857 4.27877 22.7098C4.25519 22.7101 4.26689 22.6866 4.31366 22.6391C4.3133 22.6157 4.30116 22.6041 4.27739 22.6044C4.2276 22.4643 4.24986 22.3582 4.34405 22.2864C4.34369 22.263 4.35523 22.2511 4.37893 22.2507C4.30728 22.2283 4.29514 22.2052 4.34232 22.181C4.38919 22.1334 4.38846 22.0864 4.34025 22.0402L4.33956 22.0048L4.37548 22.0041C4.37584 22.0276 4.39905 21.9923 4.44524 21.8977L4.48047 21.862L4.47978 21.8266C4.43149 21.7804 4.40693 21.7457 4.40656 21.7222C4.43002 21.6984 4.44181 21.6746 4.44145 21.6511L4.43972 21.5457C4.43936 21.5223 4.41509 21.4874 4.36685 21.4413L4.36615 21.4059C4.41306 21.3583 4.42419 21.311 4.39966 21.2645C4.39899 21.2176 4.42222 21.1702 4.46908 21.1226C4.51588 21.075 4.51497 21.0164 4.46631 20.9468L4.46459 20.841C4.46433 20.8176 4.48761 20.7821 4.53435 20.7346L4.53401 20.6992C4.50917 20.6292 4.53173 20.5584 4.60204 20.487C4.57796 20.464 4.55427 20.4644 4.5309 20.488C4.55365 20.4174 4.60076 20.3816 4.67216 20.3805C4.59963 20.3112 4.56272 20.2411 4.56164 20.1707C4.56057 20.1004 4.57139 20.0299 4.5941 19.9592L4.59306 19.8888C4.61616 19.8415 4.62729 19.7942 4.62657 19.7473L4.62484 19.6419C4.64866 19.6415 4.66044 19.6177 4.65972 19.5708C4.6352 19.5242 4.64602 19.4538 4.69219 19.3592C4.71488 19.2886 4.71416 19.2416 4.69011 19.2184C4.64252 19.2192 4.64193 19.1956 4.68873 19.148C4.68765 19.0776 4.69912 19.0304 4.72258 19.0066C4.76869 18.9121 4.76739 18.83 4.71878 18.7603C4.71806 18.7134 4.72919 18.6661 4.75228 18.6189L4.75159 18.5838C4.77503 18.56 4.78648 18.5246 4.78578 18.4777L4.85762 18.5117C4.90524 18.511 4.92879 18.4872 4.92808 18.4403C4.92772 18.4168 4.90382 18.4056 4.85624 18.4063L4.78475 18.4073C4.7364 18.3611 4.74752 18.3138 4.81825 18.2658C4.91351 18.2644 4.9132 18.2409 4.81721 18.1954L4.81618 18.125L4.85175 18.1247L4.84968 17.9839C4.89731 17.9832 4.89666 17.9478 4.84795 17.8781L4.84761 17.8431C4.87105 17.8193 4.8946 17.8071 4.91841 17.8067C4.9422 17.8063 4.93001 17.7831 4.8818 17.737L4.91668 17.7009L4.91564 17.6305L4.87938 17.5962C4.87758 17.4789 4.92405 17.3959 5.01857 17.3476C4.8995 17.3493 4.85113 17.303 4.87351 17.2088C4.8966 17.1616 4.89596 17.1265 4.87178 17.1034C4.87106 17.0565 4.89435 17.0092 4.9412 16.9616L4.94017 16.8912C4.8666 16.7515 4.86474 16.6341 4.93464 16.5392L4.93429 16.5038C4.90942 16.4338 4.90849 16.3753 4.93153 16.328C4.95463 16.2807 4.96575 16.2334 4.96503 16.1865C4.98813 16.1392 5.01167 16.1154 5.03549 16.1151C5.05893 16.0913 5.07039 16.0559 5.06968 16.009C5.04586 16.0093 5.00894 15.9511 4.95951 15.8345L4.95605 15.5883C4.97879 15.5176 4.9896 15.4468 4.98852 15.3764L4.98714 15.306C4.98499 15.1653 5.05567 15.1055 5.19885 15.1268C5.17468 15.1037 5.13866 15.0924 5.09109 15.0931C5.04321 15.0704 5.01894 15.0356 5.01822 14.9887C5.04165 14.9649 5.05313 14.9295 5.05241 14.8826C5.02789 14.8361 5.05117 14.8123 5.12252 14.8112C5.02586 14.7188 5.01247 14.6133 5.08211 14.4949C5.12901 14.4473 5.12837 14.4119 5.08039 14.3891C5.0566 14.3895 5.0445 14.3663 5.04378 14.3194C5.09025 14.2484 5.10105 14.1778 5.07624 14.1079C5.05135 14.0378 5.06215 13.9671 5.10871 13.896L5.10698 13.7902C5.05908 13.7675 5.07048 13.7321 5.14117 13.6841C5.09285 13.6379 5.06831 13.6032 5.06795 13.5797C5.06616 13.4624 5.07698 13.3801 5.10007 13.3328C5.12349 13.3091 5.14742 13.3204 5.17191 13.3668L5.2434 13.3658C5.21859 13.2959 5.218 13.2608 5.24168 13.2604C5.28926 13.2597 5.32494 13.2474 5.3484 13.2236C5.32388 13.1771 5.2882 13.1774 5.24133 13.225C5.1937 13.2257 5.15775 13.2144 5.13358 13.1913C5.15689 13.1676 5.15656 13.1443 5.13254 13.1213C5.13218 13.0978 5.11976 13.0743 5.09558 13.0512L5.0942 12.9458C5.09312 12.8754 5.14024 12.851 5.23581 12.873C5.23504 12.8262 5.21087 12.8029 5.16328 12.8036C5.11568 12.8043 5.09148 12.7696 5.0904 12.6992L5.0866 12.453C5.08589 12.4062 5.09709 12.3707 5.12045 12.3469C5.14388 12.3231 5.15533 12.2876 5.15464 12.2408C5.10597 12.1712 5.11751 12.1474 5.18918 12.1697C5.23681 12.169 5.26069 12.1568 5.26033 12.1333C5.25963 12.0864 5.27108 12.051 5.29452 12.0272L5.33009 12.0268C5.32973 12.0034 5.31764 11.9918 5.29383 11.9922C5.26965 11.9691 5.25692 11.9221 5.25584 11.8517L5.25377 11.7109C5.13401 11.6658 5.07319 11.5963 5.07175 11.5025C5.09482 11.4552 5.09447 11.4202 5.07037 11.397L5.06865 11.2913C5.06685 11.1741 5.07771 11.1036 5.10111 11.0797C5.07657 11.0332 5.06352 10.9627 5.06208 10.8689C5.03613 10.7285 5.03421 10.5995 5.05621 10.4819L5.05414 10.3411C5.0296 10.2945 5.02896 10.2591 5.05241 10.2353L5.08764 10.1996C5.03938 10.1534 5.06256 10.1061 5.15706 10.0578L5.15533 9.95234C5.13152 9.95271 5.10797 9.97649 5.08488 10.0238C5.08519 10.0471 5.06135 10.0356 5.01304 9.98942C4.98893 9.96631 5.00035 9.93092 5.04723 9.88331C5.09335 9.78885 5.09242 9.74181 5.04481 9.74252C5.02036 9.69599 5.01967 9.64895 5.04274 9.60172C5.06544 9.53102 5.0645 9.47245 5.03998 9.4259C5.01587 9.40282 5.02765 9.3909 5.07521 9.39018C5.05106 9.36711 5.02715 9.35552 5.00337 9.35584C4.97955 9.3562 4.96713 9.33306 4.96641 9.28613C4.96534 9.21574 5.00065 9.18005 5.0721 9.17899C5.11969 9.17827 5.14326 9.16604 5.1429 9.14259C5.14216 9.09571 5.12976 9.0606 5.1056 9.03751L5.03411 9.03854C5.0337 9.01518 5.02161 9.00384 4.99784 9.0042C4.97367 8.98108 4.98544 8.96885 5.03307 8.96814C5.0807 8.96743 5.08037 8.95586 5.03238 8.93311C5.00828 8.91005 5.00824 8.8981 5.03204 8.89774C5.05582 8.89737 5.06762 8.88548 5.06726 8.86203L5.03134 8.86271C5.0076 8.86296 4.99512 8.82792 4.99404 8.75763L4.9937 8.7226C5.01743 8.72221 5.02894 8.70997 5.02858 8.68655L5.02824 8.65152L4.99232 8.6522C4.96861 8.65244 4.95643 8.62897 4.95571 8.58215C4.90843 8.60633 4.86136 8.64234 4.81445 8.68998C4.76721 8.71414 4.71975 8.72668 4.67216 8.72741C4.72039 8.7735 4.74433 8.78481 4.74399 8.76141L4.74468 8.79644L4.70877 8.79712L4.60343 8.90426C4.57961 8.90462 4.54396 8.92874 4.49705 8.97638C4.4733 8.97678 4.44964 8.98869 4.42625 9.01244L4.35476 9.01347L4.24942 9.12095C4.22597 9.14476 4.1903 9.15698 4.1427 9.1577L4.10678 9.15804C4.10714 9.18146 4.11932 9.19303 4.14304 9.19273C4.11959 9.21653 4.09605 9.22877 4.07224 9.22913C4.02462 9.22984 3.97721 9.24239 3.92995 9.26656C4.00124 9.2655 4.03721 9.2765 4.0377 9.29987C3.99079 9.34751 3.94339 9.37196 3.89575 9.37267C3.87198 9.37304 3.86017 9.38494 3.86053 9.40838L3.64847 9.55227C3.60158 9.59988 3.53087 9.64783 3.43641 9.69616C3.36497 9.69722 3.30611 9.74517 3.25992 9.8397C3.16538 9.88805 3.08266 9.94784 3.01229 10.0193C2.96537 10.0669 2.90653 10.1148 2.8358 10.1628C2.69402 10.2354 2.56483 10.3547 2.44829 10.5207L2.44933 10.5911C2.37833 10.6156 2.31938 10.6517 2.2725 10.6992C2.24941 10.7465 2.21439 10.7941 2.1675 10.8418C2.07368 10.937 1.95566 11.0209 1.81384 11.0935C1.74348 11.1649 1.66011 11.1662 1.56379 11.0972C1.51545 11.0511 1.46739 11.0282 1.41977 11.0289C1.34841 11.0299 1.31205 10.9952 1.31098 10.9249C1.28646 10.8784 1.26224 10.8551 1.23845 10.8555C1.23804 10.832 1.22563 10.7969 1.20115 10.7504C1.17706 10.7273 1.1649 10.7041 1.16454 10.6807C1.14001 10.6341 1.11548 10.5994 1.09132 10.5763C1.06679 10.5297 1.03052 10.4831 0.98218 10.4369C0.91037 10.4145 0.897304 10.356 0.943498 10.2614C0.990357 10.2138 0.989987 10.1787 0.942116 10.156C0.91794 10.1329 0.89375 10.1216 0.869933 10.122L0.833669 10.0873L0.797059 10.0172C0.796744 9.99382 0.832115 9.98158 0.903434 9.9805L0.939699 10.0152C0.93898 9.9683 0.926862 9.94481 0.903089 9.94513C0.879327 9.94548 0.867237 9.93414 0.866825 9.91079C0.795375 9.91185 0.75878 9.86522 0.757341 9.77136C0.710449 9.81898 0.675141 9.83118 0.650966 9.80811C0.626435 9.76155 0.601904 9.73838 0.578092 9.73874C0.482266 9.69332 0.410524 9.67109 0.362924 9.67177C0.171673 9.62769 0.0507923 9.51195 0.000281475 9.32494C-0.00186896 9.18421 0.00830633 9.06679 0.0306744 8.9726C0.053769 8.92532 0.0769857 8.88962 0.10044 8.8658C0.147282 8.81822 0.18235 8.77086 0.205434 8.72363C0.204714 8.6767 0.228257 8.65292 0.27589 8.6522C0.346935 8.62768 0.394045 8.60321 0.417493 8.5794L0.558406 8.43655C0.60526 8.38899 0.652438 8.36483 0.700009 8.36409C0.768551 8.36306 0.847455 8.31857 0.93659 8.23085C0.925095 8.22807 0.904929 8.21302 0.87615 8.18552C0.946487 8.11409 1.00536 8.07775 1.05298 8.077C1.17206 8.07522 1.24301 8.02733 1.26539 7.93311C1.26504 7.90968 1.27679 7.90967 1.30096 7.93277C1.32478 7.93242 1.33622 7.90862 1.3355 7.86169C1.33514 7.83825 1.34696 7.82635 1.37073 7.82597L1.40664 7.82528C1.45348 7.77776 1.50069 7.75357 1.54825 7.75283C1.59516 7.70519 1.64256 7.68108 1.6902 7.68037C1.73782 7.67964 1.78491 7.64363 1.83145 7.57254C1.85486 7.54879 1.87849 7.53687 1.90226 7.53648C1.92569 7.51268 1.93715 7.47724 1.93645 7.43037L2.00794 7.42934C2.00758 7.40587 2.01935 7.39364 2.04317 7.39328C2.09077 7.39254 2.13789 7.36842 2.18477 7.32082C2.2555 7.27283 2.31468 7.23683 2.36195 7.21265L2.4324 7.14122C2.47961 7.11704 2.50255 7.06972 2.50148 6.9994C2.57255 6.97487 2.63175 6.93885 2.67866 6.89122L2.89072 6.74699L3.03267 6.67453C3.08025 6.6738 3.10384 6.65001 3.10312 6.60311C3.12655 6.57933 3.15013 6.56706 3.17392 6.5667C3.22147 6.56599 3.24503 6.55405 3.24472 6.53065C3.26817 6.50684 3.30352 6.48269 3.35075 6.45853C3.39695 6.36396 3.46789 6.31607 3.56316 6.31465C3.68185 6.2894 3.77669 6.25274 3.8474 6.20476C3.91773 6.13333 3.95276 6.0857 3.9524 6.06224L4.02251 5.99081C4.11705 5.94246 4.28277 5.86948 4.5195 5.77207C4.56631 5.72454 4.60172 5.70072 4.62553 5.70029C4.64899 5.67647 4.67254 5.64078 4.69564 5.59349C4.74321 5.59273 4.79039 5.56861 4.83724 5.52104C5.07388 5.42366 5.23934 5.33906 5.33355 5.26726C5.38046 5.21962 5.41611 5.1955 5.43992 5.19514C5.48744 5.19441 5.52287 5.18216 5.5463 5.1584C5.80612 5.0137 6.06631 4.8806 6.3265 4.75936L6.36207 4.75902C6.38547 4.73525 6.40911 4.72303 6.43287 4.72262C6.48013 4.69845 6.51579 4.67466 6.53925 4.65085C6.5627 4.62703 6.59865 4.63794 6.647 4.68416L6.78964 4.6821C6.78891 4.63527 6.77678 4.61209 6.75303 4.61239C6.72924 4.61274 6.71715 4.60112 6.71677 4.5777C6.76402 4.55353 6.79935 4.5294 6.8228 4.50559C6.87005 4.48143 6.91749 4.46887 6.96509 4.46816L7.39059 4.25078C7.65078 4.12954 7.80473 4.06846 7.85236 4.06774C7.9227 3.99634 8.00548 3.95998 8.10068 3.95854C8.24285 3.90948 8.34942 3.86093 8.42015 3.81294C8.46707 3.7653 8.52623 3.74086 8.59768 3.73979C8.64494 3.71562 8.68058 3.7034 8.7044 3.70305L8.846 3.63059C8.91709 3.60606 9.00012 3.5694 9.09467 3.52104C9.23717 3.49543 9.36733 3.435 9.48494 3.33938L9.80476 3.22881C9.85195 3.20467 9.88734 3.18082 9.91079 3.15703C9.95802 3.13288 10.0055 3.12034 10.0531 3.1196C10.1479 3.09473 10.231 3.06995 10.3021 3.04543C10.3728 2.99743 10.4559 2.96111 10.5508 2.93622C10.5746 2.93581 10.6099 2.91169 10.6568 2.86411C10.7513 2.81579 10.8341 2.77944 10.9051 2.75491C10.9996 2.70656 11.0948 2.69339 11.1904 2.71541C11.238 2.7147 11.2619 2.70248 11.2615 2.67901C11.2608 2.63214 11.2723 2.60863 11.2961 2.60827C11.3675 2.6072 11.4267 2.5943 11.474 2.57015C11.545 2.54562 11.6045 2.52153 11.6518 2.49735L11.8649 2.42352L12.0784 2.35003L12.22 2.27757C12.2672 2.2534 12.3506 2.2402 12.4697 2.23842C12.5169 2.21428 12.588 2.18979 12.6828 2.16494C12.8011 2.11623 12.8721 2.0799 12.8955 2.05608C12.9907 2.05466 13.062 2.0421 13.1093 2.01796L13.322 1.9091C13.3459 1.90874 13.3573 1.88494 13.3566 1.83801L13.3562 1.80299C13.38 1.80264 13.3921 1.81422 13.3925 1.83767C13.4643 1.86004 13.5238 1.85907 13.5711 1.83492L13.7845 1.76143C13.808 1.73762 13.8671 1.72474 13.9624 1.72332C14.0335 1.69879 14.093 1.68625 14.1406 1.68554C14.2117 1.66102 14.2829 1.64815 14.3544 1.64708L14.4252 1.61102C14.449 1.61067 14.4846 1.59811 14.5319 1.57394C14.6499 1.5018 14.7686 1.46479 14.8876 1.46302C14.8883 1.50995 14.8766 1.53375 14.8527 1.5341L14.8534 1.56947L14.9605 1.56775C15.0558 1.56633 15.1028 1.53032 15.1018 1.45993C15.0773 1.4134 15.089 1.38989 15.1366 1.38918C15.1842 1.38845 15.2078 1.37623 15.2074 1.35278C15.2547 1.32863 15.291 1.36334 15.3162 1.45683C15.3624 1.36236 15.4092 1.31478 15.4568 1.31398L15.5988 1.24118L15.7407 1.16872C15.9073 1.16622 16.0261 1.14114 16.0968 1.09317C16.239 1.0441 16.3697 1.01871 16.4888 1.01693C16.4646 0.993823 16.4407 0.994143 16.4173 1.01796L16.3803 0.947908L16.5948 0.944817C16.6428 0.967546 16.6905 0.966924 16.7378 0.942757C16.8323 0.894435 16.9154 0.869647 16.9868 0.868581L17.2724 0.864117C17.3677 0.862695 17.4386 0.826663 17.4852 0.755601C17.5321 0.707971 17.6269 0.682883 17.7698 0.680739C17.8178 0.703492 17.8537 0.703182 17.8772 0.679365C17.9006 0.655567 17.936 0.64301 17.9836 0.642277C18.0074 0.641922 18.0074 0.630338 17.9832 0.60725C17.9829 0.583824 17.9947 0.583569 18.0188 0.606563L18.1262 0.605189C18.1734 0.58106 18.2209 0.580404 18.2688 0.603129C18.3165 0.602418 18.3521 0.589862 18.3756 0.566041L18.4464 0.529984C18.4943 0.552723 18.5421 0.552051 18.5893 0.527923C18.6363 0.480282 18.6837 0.455832 18.7313 0.455121C18.8031 0.4775 18.8862 0.46463 18.9807 0.416317C19.0752 0.367977 19.1703 0.354806 19.2659 0.376825C19.3612 0.375403 19.4563 0.350659 19.5509 0.302306L19.622 0.301276C19.6455 0.277455 19.6693 0.26523 19.6932 0.264875C19.7166 0.241087 19.7405 0.240746 19.7647 0.263845C19.7888 0.2869 19.8248 0.298208 19.8724 0.297498C19.9435 0.272991 20.0148 0.260103 20.0862 0.259037C20.1814 0.257594 20.2763 0.232505 20.3708 0.184175C20.4419 0.159667 20.5256 0.17027 20.6215 0.215768C20.6929 0.214688 20.7522 0.202125 20.7994 0.177993C20.7987 0.131069 20.8817 0.106311 21.0484 0.103818L21.37 0.09901C21.5605 0.0961663 21.7507 0.0698005 21.9405 0.0200268C22.0354 -0.00485679 22.1786 0.00478741 22.3698 0.0488729C22.4174 0.048152 22.4531 0.0359383 22.4765 0.0121285L22.6192 0.0100681C22.691 0.0324625 22.7508 0.0430547 22.7984 0.0423482C22.8695 0.0178272 22.9408 0.00530225 23.0122 0.00423019L23.1552 0.00182636L23.2267 0.00079614ZM19.4189 3.9843C19.2064 4.0153 19.0542 4.01549 18.9627 3.98498L18.8988 3.99426C18.8595 4.02194 18.8276 4.02634 18.8031 4.00799C18.7999 3.98661 18.7784 3.98968 18.7392 4.01726C18.6903 3.98049 18.6459 3.97617 18.6066 4.00387L18.4792 4.02242C18.4366 4.02862 18.4028 4.0226 18.3783 4.00421L18.187 4.03203C18.0774 4.02605 17.9694 4.03094 17.863 4.04645C17.7534 4.04048 17.6559 4.04365 17.5708 4.05607L17.4386 4.04233L17.3108 4.06088L17.0555 4.09831C16.9885 4.08613 16.9018 4.08761 16.7955 4.10312C16.7529 4.10932 16.7013 4.12797 16.6407 4.15875C16.5769 4.16805 16.5221 4.16509 16.4763 4.14982L16.1572 4.19652L15.902 4.23361C15.8169 4.24602 15.7194 4.2492 15.6098 4.24322C15.564 4.22795 15.5213 4.23407 15.482 4.26177C15.4395 4.26795 15.3954 4.26363 15.3497 4.24838C15.3073 4.25457 15.277 4.26987 15.2589 4.29439L15.1311 4.31328C15.0035 4.3319 14.906 4.33508 14.8389 4.32289L14.7802 4.36445C14.7409 4.39215 14.7087 4.39657 14.6842 4.37818C14.6597 4.35992 14.6278 4.36462 14.5885 4.39226L13.9824 4.48086L13.8546 4.4994L13.6951 4.52276L13.5994 4.53649C13.5388 4.5673 13.4764 4.58728 13.4125 4.59659C13.3456 4.58445 13.2818 4.59397 13.2212 4.62475L12.8064 4.68519C12.7426 4.6945 12.6802 4.71448 12.6196 4.74528C12.559 4.77605 12.4952 4.78561 12.4282 4.77344C12.3857 4.77965 12.3341 4.79794 12.2735 4.82873C12.2342 4.85643 12.1931 4.87335 12.1505 4.87955L11.8953 4.91699C11.8528 4.92319 11.8225 4.93847 11.8045 4.963L11.7406 4.97227C11.6523 4.96321 11.5777 4.9741 11.5171 5.0049L11.4536 5.01417C11.411 5.02038 11.37 5.03764 11.3306 5.06534L11.2028 5.08388C11.1571 5.06863 11.1252 5.07338 11.1072 5.09796L11.0433 5.10723C10.9647 5.16257 10.9146 5.1917 10.8934 5.1948L10.6703 5.22742C10.6309 5.25513 10.6004 5.27068 10.5791 5.27378C10.5578 5.27693 10.5275 5.29216 10.4883 5.3198C10.3819 5.33532 10.2682 5.37395 10.147 5.43553C10.0407 5.45105 9.96773 5.47273 9.9284 5.50043C9.88594 5.50663 9.85564 5.52194 9.83757 5.54645C9.81629 5.54955 9.78249 5.54353 9.73672 5.52825C9.71553 5.53139 9.696 5.54532 9.67801 5.5698C9.65995 5.5944 9.59753 5.61438 9.49116 5.6299C9.44864 5.63611 9.41837 5.65167 9.40032 5.67625C9.40998 5.74072 9.39025 5.75458 9.34127 5.71781C9.30516 5.76696 9.24463 5.79777 9.1596 5.81018C9.11063 5.77342 9.08929 5.77652 9.09571 5.81946C9.0564 5.84714 8.99422 5.86714 8.9092 5.87955L8.75931 5.96746C8.7232 6.01666 8.69424 6.04266 8.67297 6.04576C8.6517 6.04889 8.62141 6.06446 8.58213 6.09212C8.58534 6.11358 8.57802 6.13659 8.56003 6.16114C8.53876 6.16425 8.52468 6.14438 8.51824 6.10139C8.46089 6.15366 8.40198 6.19525 8.34141 6.22605C8.30949 6.2307 8.27921 6.24734 8.25092 6.27618L8.20948 6.32563C8.19534 6.34002 8.18017 6.34838 8.16423 6.3507C8.16101 6.32925 8.1505 6.33093 8.13246 6.35551C8.09317 6.3832 8.05525 6.42141 8.01917 6.47055C7.97985 6.49825 7.92827 6.51687 7.86445 6.52618L7.74667 6.60929L7.66551 6.71986C7.60169 6.72917 7.56061 6.74643 7.54256 6.77103C7.54896 6.81392 7.54136 6.83696 7.52011 6.84006C7.40542 6.94464 7.36104 7.08299 7.3868 7.25489L7.47003 7.37439C7.52546 7.45416 7.56376 7.49254 7.58504 7.48943C7.60114 7.59686 7.65162 7.64431 7.73666 7.63195L7.79572 7.5904C7.75961 7.63959 7.7753 7.67024 7.84234 7.68243C7.80305 7.7101 7.80763 7.74253 7.8565 7.77927C7.89905 7.77306 7.92524 7.80236 7.9349 7.86684C7.94457 7.93126 7.96188 7.97277 7.98636 7.99115C8.03528 8.02785 8.07045 8.04473 8.0917 8.04163L7.99603 8.05537C7.96638 8.14751 7.99392 8.18758 8.07892 8.17521C8.0949 8.17288 8.10689 8.18348 8.1145 8.20715L8.12693 8.26278C8.13454 8.28643 8.14619 8.29704 8.16216 8.29472L8.10794 8.36855L8.11277 8.40083C8.13727 8.41922 8.1405 8.4408 8.12244 8.46539L8.13695 8.56189C8.13936 8.57798 8.14687 8.5874 8.1594 8.58971H8.18806C8.20058 8.59201 8.20809 8.60111 8.21051 8.61718C8.19569 8.66324 8.20948 8.6831 8.25196 8.67693L8.31585 8.66766C8.32228 8.71059 8.31496 8.73388 8.29375 8.73703L8.29858 8.76896C8.34757 8.80574 8.37019 8.81347 8.36697 8.79197L8.43086 8.7827C8.4618 8.84408 8.50449 8.83794 8.55865 8.76416C8.57991 8.76107 8.6029 8.76878 8.62738 8.78716C8.65176 8.8054 8.67293 8.80228 8.69093 8.77789C8.68449 8.7349 8.71345 8.70856 8.77727 8.69925C8.78049 8.72075 8.77126 8.73324 8.74999 8.73634L8.75482 8.76828L8.75966 8.80056C8.78091 8.79746 8.79013 8.78527 8.78694 8.76381L8.84565 8.72226C8.86371 8.69766 8.89267 8.67132 8.932 8.64362L9.04977 8.56052C9.08587 8.51135 9.12535 8.48362 9.16789 8.47741L9.16305 8.44547L9.19483 8.44067C9.23416 8.41297 9.26473 8.39741 9.28601 8.39431C9.32846 8.38806 9.35719 8.36204 9.372 8.31601C9.4389 8.32816 9.48135 8.32196 9.49945 8.29747C9.55682 8.24518 9.59629 8.21748 9.61757 8.21436C9.66012 8.20816 9.69957 8.18045 9.73568 8.13126C9.75369 8.10673 9.77319 8.09286 9.7944 8.08971C9.87944 8.0773 9.93104 8.05865 9.94912 8.03408C9.99167 8.02787 10.0738 7.99404 10.195 7.93243L10.3864 7.90461L10.482 7.89053L10.8506 7.73806C10.9324 7.70415 11.0053 7.68247 11.0692 7.67316C11.1543 7.66074 11.2272 7.63906 11.2878 7.60825C11.3271 7.5806 11.359 7.57583 11.3835 7.59417C11.4047 7.59106 11.435 7.57581 11.4743 7.54816L11.5382 7.53889C11.5775 7.51118 11.6186 7.49427 11.6611 7.48806C11.6973 7.43887 11.7275 7.42331 11.752 7.4417L11.8794 7.42316C11.9187 7.39546 11.9614 7.38933 12.0072 7.40461C12.053 7.41987 12.0941 7.40262 12.1302 7.35345L12.1619 7.34898L12.2307 7.37199C12.2487 7.34739 12.2806 7.34262 12.3263 7.35791C12.3837 7.30561 12.4337 7.27621 12.4762 7.27C12.54 7.26069 12.5916 7.24239 12.631 7.21471C12.6948 7.2054 12.7282 7.21142 12.7315 7.23291C12.7985 7.24509 12.8396 7.22816 12.8544 7.18209L12.9183 7.17281C12.9544 7.12362 12.9863 7.11885 13.014 7.15874C13.0776 7.14945 13.1079 7.13413 13.1048 7.11272C13.1229 7.08813 13.1334 7.08643 13.1366 7.10791C13.243 7.09239 13.2945 7.07377 13.2913 7.05228L13.3552 7.04301C13.3765 7.0399 13.3889 7.04933 13.3922 7.07082C13.4165 7.08901 13.4361 7.07511 13.4509 7.02927C13.4721 7.02617 13.4951 7.0336 13.5196 7.05194C13.5652 7.06718 13.5988 7.07353 13.6201 7.07048C13.6382 7.04588 13.6687 7.03033 13.7113 7.02412C13.7506 6.99645 13.8128 6.97643 13.8978 6.96402L14.0891 6.93587C14.1891 6.87736 14.2744 6.8651 14.3447 6.89878L14.5043 6.87543C14.6106 6.85991 14.6941 6.83685 14.7547 6.80606L14.9142 6.78271C14.9387 6.80108 14.9935 6.80405 15.0786 6.79164C15.0967 6.76709 15.1375 6.75012 15.2012 6.74081C15.3353 6.76518 15.4239 6.77415 15.4665 6.76794L15.5621 6.7542C15.6014 6.72654 15.6439 6.72011 15.6896 6.73532L16.0087 6.68896C16.1364 6.67034 16.2552 6.66409 16.3648 6.67007C16.4072 6.66387 16.427 6.64993 16.4239 6.62852C16.4206 6.60704 16.4417 6.60399 16.4874 6.61925L16.5834 6.60517C16.6897 6.58966 16.7765 6.58784 16.8435 6.60002C16.9318 6.60908 17.0274 6.5951 17.1305 6.55812C17.1943 6.54881 17.3024 6.54427 17.4544 6.54404C17.6033 6.52233 17.7114 6.51746 17.7784 6.52962L17.8744 6.51554C17.9105 6.46646 17.9424 6.46195 17.9701 6.5018C18.0764 6.4863 18.1737 6.48278 18.2619 6.49184C18.347 6.47943 18.4445 6.47625 18.5541 6.48223C18.7062 6.482 18.8461 6.47268 18.9737 6.45407C19.1227 6.43234 19.275 6.43212 19.4303 6.45338C19.4728 6.4472 19.5064 6.45322 19.5308 6.47158L19.6265 6.45785C19.6657 6.43021 19.6871 6.4269 19.6904 6.44823L19.7861 6.43449C19.8105 6.45286 19.8441 6.45887 19.8866 6.45269C19.9291 6.44649 20.0161 6.44467 20.147 6.44754C20.2745 6.42896 20.3629 6.43825 20.4119 6.47502C20.4365 6.49335 20.5141 6.50408 20.6447 6.50695L20.9002 6.46952L21.2018 6.52447C21.3081 6.50895 21.3754 6.52098 21.4031 6.56087L21.4667 6.55159C21.5336 6.56377 21.5901 6.57753 21.6359 6.5928C21.6997 6.58349 21.7654 6.58509 21.8324 6.59727C21.8537 6.59419 21.8767 6.60156 21.9011 6.61993C21.9223 6.61691 21.9345 6.62631 21.9377 6.64775L22.0655 6.6292C22.1113 6.64448 22.1906 6.66566 22.3032 6.69308C22.4371 6.71741 22.5254 6.72671 22.5681 6.72055C22.5925 6.73892 22.6155 6.74629 22.6368 6.74322C22.7006 6.73391 22.7571 6.74771 22.806 6.78442C22.9465 6.85178 23.0489 6.88096 23.1127 6.87165L23.1863 6.92694C23.2075 6.92389 23.2303 6.93132 23.2547 6.9496L23.3186 6.94033C23.3218 6.96182 23.3447 6.96954 23.3873 6.96334C23.4511 6.95404 23.4648 6.97391 23.4287 7.02309C23.3926 7.07226 23.3689 7.13069 23.3572 7.19823C23.3424 7.24432 23.317 7.29223 23.2809 7.34143L23.1279 7.62714C23.0982 7.71931 23.058 7.81312 23.007 7.90839C22.9677 7.93607 22.9496 7.96074 22.9528 7.98222C22.956 8.00369 22.9382 8.0284 22.8989 8.05605C22.8841 8.10202 22.8675 8.13725 22.8495 8.16182C22.8283 8.16492 22.8101 8.18962 22.7953 8.23565C22.7231 8.33404 22.6671 8.39717 22.6278 8.42487C22.6066 8.42805 22.5993 8.45107 22.6057 8.4939C22.5483 8.54619 22.5121 8.59547 22.4973 8.64156L22.4161 8.75214C22.38 8.80133 22.3421 8.83982 22.3028 8.86752C22.2635 8.8952 22.2259 8.93377 22.1899 8.9829C22.1538 9.0321 22.1373 9.06752 22.1405 9.08902C22.0767 9.09832 22.0178 9.13992 21.9636 9.21367C21.9308 9.28436 21.8853 9.34578 21.8279 9.39808L21.6559 9.55502C21.5774 9.61034 21.529 9.65026 21.5109 9.67487C21.496 9.72093 21.4674 9.74728 21.4249 9.75351C21.4036 9.75661 21.396 9.7796 21.4024 9.82253C21.3599 9.82877 21.3099 9.85818 21.2525 9.91044C21.192 9.94123 21.1649 9.97807 21.1714 10.021C21.1173 10.0947 21.1008 10.1301 21.122 10.1271C21.0795 10.1333 21.0492 10.1486 21.0311 10.1731L20.9672 10.1828C20.9492 10.2073 20.9294 10.2212 20.9082 10.2243C20.8837 10.206 20.8854 10.2165 20.913 10.2563C20.8769 10.3054 20.8483 10.3318 20.827 10.3349C20.8058 10.338 20.786 10.3519 20.768 10.3764C20.7532 10.4224 20.7353 10.4471 20.7141 10.4503C20.6928 10.4534 20.6731 10.4672 20.655 10.4918L20.5369 10.5749C20.522 10.621 20.4753 10.6717 20.3967 10.7271L20.3328 10.7363C20.2999 10.807 20.2729 10.8438 20.2516 10.8469C20.2304 10.85 20.2122 10.8747 20.1974 10.9207C20.2006 10.9422 20.1917 10.9547 20.1705 10.9578L20.1656 10.9255C20.1624 10.9041 20.1427 10.9179 20.1066 10.9671L20.0796 11.0038C20.0339 10.9886 20.0033 11.0041 19.9885 11.0502C19.9917 11.0717 19.9706 11.0747 19.9249 11.0595L19.8928 11.0643L19.8707 11.1333C19.8739 11.1548 19.8844 11.1531 19.9025 11.1285C19.9089 11.1715 19.8803 11.1978 19.8165 11.2071C19.7984 11.2317 19.7681 11.2469 19.7256 11.2532C19.7044 11.2563 19.6846 11.2702 19.6666 11.2947C19.6305 11.3439 19.5926 11.3824 19.5533 11.4101C19.5745 11.407 19.5886 11.4269 19.5951 11.4698L19.5312 11.4795C19.5035 11.4396 19.4716 11.4441 19.4355 11.4932C19.3994 11.5424 19.3599 11.5701 19.3174 11.5763C19.2748 11.5825 19.2354 11.6102 19.1993 11.6594C19.2025 11.6809 19.186 11.7163 19.1499 11.7655C19.1287 11.7687 19.1092 11.7826 19.0912 11.8071L18.9952 11.8211C19.0048 11.8856 18.9778 11.9224 18.914 11.9317C18.847 11.9196 18.7986 11.9595 18.7689 12.0516C18.7573 12.1192 18.709 12.1594 18.6239 12.1718C18.5175 12.1873 18.4603 12.2396 18.4519 12.3287C18.4093 12.3349 18.3788 12.3501 18.3607 12.3747L18.3289 12.3795C18.2896 12.4072 18.2485 12.4241 18.206 12.4304C18.1848 12.4336 18.1669 12.4582 18.1521 12.5042C18.1096 12.5104 18.0898 12.5242 18.093 12.5457L18.0609 12.5502L18.007 12.624C17.9709 12.6732 17.9315 12.7009 17.8889 12.7071C17.8677 12.7102 17.8604 12.7335 17.8668 12.7765C17.8243 12.7827 17.7848 12.8104 17.7487 12.8596L17.7169 12.8641C17.6254 12.8335 17.5662 12.8751 17.5398 12.9887L17.4216 13.0718C17.3824 13.0995 17.3415 13.1164 17.299 13.1227L17.327 13.1436C17.2568 13.1441 17.1974 13.1665 17.1491 13.2106C17.113 13.2597 17.0663 13.3104 17.0089 13.3627C16.9696 13.3904 16.941 13.4167 16.9229 13.4413C16.926 13.4627 16.9063 13.4767 16.8639 13.4829C16.849 13.5288 16.8292 13.5427 16.8048 13.5244C16.7623 13.5306 16.732 13.5459 16.714 13.5705C16.7564 13.5643 16.7685 13.5734 16.7506 13.5979C16.708 13.6041 16.6778 13.6197 16.6597 13.6443C16.6417 13.6689 16.613 13.6949 16.5737 13.7226C16.5196 13.7964 16.462 13.8487 16.4014 13.8795C16.4046 13.901 16.3957 13.9135 16.3745 13.9166C16.3352 13.9443 16.3065 13.9703 16.2885 13.9949L16.1925 14.009C16.1383 14.0827 16.104 14.1429 16.0892 14.1889C16.0403 14.1522 16.0068 14.146 15.9887 14.1704L15.8706 14.2535C15.8525 14.2781 15.8222 14.2936 15.7797 14.2998C15.7617 14.3244 15.7419 14.3383 15.7207 14.3414C15.6994 14.3445 15.6797 14.3584 15.6616 14.383L15.6298 14.3874L15.5483 14.4983C15.5122 14.5475 15.4335 14.603 15.3124 14.6645C15.2764 14.7137 15.2477 14.7397 15.2264 14.7428C15.1053 14.8044 15.0283 14.8707 14.9954 14.9413L14.9633 14.9461C14.9664 14.9676 14.9467 14.9815 14.9042 14.9877C14.8618 14.9939 14.8314 15.0091 14.8134 15.0337C14.7592 15.1075 14.7109 15.1477 14.6683 15.1539C14.6323 15.2029 14.6158 15.2382 14.6189 15.2597C14.5765 15.2659 14.5571 15.2798 14.5602 15.3012L14.5012 15.3428C14.4374 15.3521 14.3963 15.369 14.3782 15.3936L14.324 15.4674C14.2847 15.4951 14.2544 15.5107 14.2331 15.5138C14.2119 15.5169 14.1832 15.543 14.1471 15.5921C14.0982 15.5554 14.0785 15.5693 14.0881 15.6336C14.0977 15.6981 14.078 15.712 14.029 15.6752C14.0078 15.6783 13.988 15.6922 13.97 15.7167L13.9382 15.7215C13.8989 15.7492 13.8703 15.7753 13.8522 15.7998C13.8554 15.8213 13.8373 15.846 13.798 15.8737C13.7554 15.8799 13.6982 15.9323 13.626 16.0306C13.6047 16.0337 13.585 16.0476 13.5669 16.0722L13.4712 16.0862C13.4287 16.0924 13.3997 16.1185 13.3849 16.1645C13.3669 16.1891 13.3382 16.2155 13.2989 16.2432C13.2596 16.2709 13.2217 16.3094 13.1856 16.3586C13.1464 16.3862 13.1055 16.4032 13.063 16.4094C13.0089 16.4831 12.9621 16.5338 12.9228 16.5615C12.8802 16.5677 12.8621 16.5924 12.8686 16.6353L12.8143 16.7092C12.8175 16.7306 12.7945 16.7229 12.7456 16.6862C12.7308 16.7321 12.7129 16.7568 12.6917 16.76L12.6645 16.7967L12.6102 16.8706C12.6135 16.8921 12.5937 16.9059 12.5512 16.9121L12.4334 16.9952L12.3153 17.0783L12.1975 17.1614L12.116 17.272C12.0767 17.2997 12.0464 17.3153 12.0252 17.3184C11.971 17.3922 11.9332 17.4307 11.9119 17.4338C11.8758 17.4829 11.8366 17.5107 11.7941 17.5169C11.7729 17.52 11.7425 17.5353 11.7033 17.5629C11.7393 17.5137 11.7418 17.4583 11.7109 17.397L11.6867 17.236C11.6983 17.1684 11.6979 17.0915 11.685 17.0055C11.6901 16.895 11.6861 16.7968 11.6732 16.7109C11.6571 16.6034 11.6518 16.4942 11.657 16.3836C11.6505 16.3407 11.6349 16.31 11.6104 16.2916L11.6007 16.227C11.6155 16.181 11.6183 16.1256 11.6086 16.0612L11.5506 15.6745C11.5655 15.6284 11.5606 15.5961 11.5361 15.5777C11.5297 15.5348 11.5354 15.5009 11.5534 15.4764C11.565 15.4088 11.5613 15.3103 11.542 15.1814C11.5471 15.0708 11.5402 14.9511 11.5209 14.8222C11.5229 14.6901 11.5156 14.5704 11.4995 14.463L11.485 14.3661C11.503 14.3415 11.5091 14.3078 11.5026 14.2648C11.4994 14.2433 11.4853 14.2235 11.4608 14.2051C11.4757 14.159 11.4708 14.1266 11.4463 14.1082C11.4399 14.0653 11.4443 14.0207 11.4591 13.9746L11.4494 13.9101C11.425 13.8917 11.4218 13.8704 11.4398 13.8459C11.4578 13.8213 11.4529 13.7889 11.4253 13.749L11.4011 13.5876C11.4191 13.5631 11.4264 13.5401 11.4232 13.5186L11.3893 13.293C11.3552 13.2101 11.3423 13.1241 11.3507 13.0351C11.3687 13.0106 11.3763 12.9875 11.3731 12.9661C11.3454 12.9262 11.33 12.8952 11.3268 12.8737C11.3448 12.8491 11.3505 12.8153 11.3441 12.7724L11.3247 12.6436C11.3396 12.5975 11.3331 12.5544 11.3054 12.5145C11.299 12.4716 11.3047 12.4378 11.3227 12.4132C11.3587 12.3641 11.3557 12.3425 11.3134 12.3486C11.2857 12.3088 11.2792 12.2659 11.294 12.2198C11.3056 12.1523 11.2975 12.0983 11.2698 12.0584L11.2457 11.8974C11.2328 11.8114 11.232 11.7345 11.2436 11.667L11.1711 11.1834C11.1827 11.1159 11.1854 11.0606 11.179 11.0176L11.1355 10.7274C11.1535 10.7028 11.1503 10.6812 11.1258 10.6628C11.1226 10.6414 11.1283 10.6076 11.1431 10.5615C11.1334 10.4971 11.1132 10.434 11.0823 10.3727C11.0694 10.2867 11.069 10.2098 11.0806 10.1422C11.0889 10.0532 11.0817 9.93343 11.0592 9.78304C11.074 9.73695 11.0691 9.70459 11.0447 9.6862L10.9614 9.56669L10.893 9.54368C10.8537 9.57139 10.8307 9.56366 10.8243 9.52068C10.8179 9.47777 10.8038 9.45782 10.7825 9.46092C10.7188 9.47024 10.6885 9.48581 10.6917 9.50728L10.6278 9.51656C10.5853 9.52277 10.5659 9.53664 10.5691 9.55811C10.5053 9.56741 10.4977 9.59038 10.5466 9.62713C10.4893 9.67937 10.4518 9.71792 10.4337 9.74252C10.4125 9.74561 10.4032 9.75787 10.4064 9.77926L10.4385 9.7748C10.4482 9.83925 10.4333 9.8855 10.394 9.91319L10.3891 9.88091L10.357 9.88537L10.2935 9.89464L10.3522 9.85309C10.3457 9.81021 10.332 9.79025 10.3107 9.79334L10.279 9.79815C10.2236 9.71843 10.1622 9.67232 10.0952 9.6601C10.074 9.66319 10.0648 9.67546 10.0679 9.69684L10.0362 9.70165C10.0394 9.72315 10.0623 9.73087 10.1049 9.72466C10.0443 9.75546 10.0186 9.80305 10.0282 9.86752C10.0314 9.88898 10.0241 9.91198 10.0061 9.93654C9.94234 9.94584 9.87693 9.94457 9.80994 9.93242C9.8035 9.88943 9.81077 9.86616 9.83204 9.86305L9.82721 9.83111C9.74213 9.84352 9.73891 9.82194 9.81754 9.76655L9.84448 9.72947C9.79565 9.69285 9.77456 9.69593 9.78093 9.73874C9.74486 9.78788 9.72837 9.82335 9.73154 9.84485C9.73476 9.86634 9.71501 9.88019 9.67248 9.8864L9.63103 9.82665C9.56721 9.83596 9.52291 9.8313 9.49841 9.81291C9.47072 9.77308 9.44449 9.74407 9.42001 9.72569L9.31951 9.70749C9.30147 9.73203 9.2817 9.74594 9.26045 9.74904L9.16478 9.76278C9.11908 9.74753 9.09933 9.76144 9.10572 9.80433L9.07395 9.80914C9.01012 9.81845 8.96905 9.83536 8.95099 9.85996C8.90846 9.86618 8.85684 9.88481 8.79627 9.91559C8.75378 9.92182 8.73561 9.94647 8.74204 9.98942L8.68816 10.0629C8.66689 10.066 8.65927 10.0893 8.66572 10.1323C8.64449 10.1355 8.64041 10.18 8.65328 10.2659C8.64616 10.5085 8.65111 10.7604 8.66848 11.0214C8.70712 11.2793 8.73503 11.5388 8.7524 11.7999L8.76691 11.8964C8.75208 11.9424 8.74967 11.9978 8.75931 12.0622C8.78703 12.1021 8.79349 12.1452 8.77865 12.1913L8.83184 12.5461C8.87747 12.5614 8.88235 12.5935 8.84634 12.6426L8.81906 12.6797C8.84675 12.7195 8.85322 12.7624 8.8384 12.8084C8.82035 12.833 8.82519 12.8654 8.85291 12.9053C8.85934 12.9483 8.8553 12.9928 8.84047 13.0389L8.86465 13.1999L8.9061 13.26C8.87006 13.3092 8.86435 13.3429 8.88883 13.3613L8.90333 13.4578C8.90977 13.5008 8.90377 13.5349 8.88572 13.5595C8.88897 13.581 8.90467 13.6117 8.93234 13.6515C8.91877 13.67 8.91704 13.6867 8.92751 13.7016L8.94961 13.7236C8.96435 13.7431 8.95596 13.7744 8.9244 13.8174C8.95205 13.8572 8.95688 13.8893 8.93891 13.9139L8.97759 14.1718C8.94794 14.2639 8.94844 14.3408 8.97931 14.4022L9.00349 14.5636C9.00668 14.5851 9.00103 14.6189 8.98622 14.6649C8.96819 14.6895 8.99114 14.6972 9.05495 14.6879C8.99115 14.6972 8.9622 14.7232 8.96861 14.7662C8.99632 14.8061 9.00278 14.8492 8.98795 14.8953C8.9912 14.9168 9.0069 14.9475 9.03457 14.9873C9.04101 15.0304 9.0447 15.1286 9.04597 15.282C9.06529 15.4109 9.06608 15.4878 9.04804 15.5124L9.08189 15.738C9.06706 15.7841 9.0659 15.8502 9.07878 15.9362C9.08521 15.9791 9.07951 16.0129 9.06151 16.0375C9.06473 16.059 9.08013 16.0897 9.10779 16.1295C9.11423 16.1725 9.10858 16.2066 9.09052 16.2312L9.11954 16.4245C9.10148 16.4491 9.10471 16.4707 9.12921 16.4891C9.15353 16.5074 9.14601 16.5304 9.10676 16.5581L9.14371 16.5856C9.15015 16.6285 9.14574 16.6731 9.13093 16.7191C9.11288 16.7437 9.12824 16.7747 9.17721 16.8115C9.13809 16.8391 9.1202 16.8636 9.12333 16.885L9.18585 17.3043C9.17424 17.3719 9.17504 17.4488 9.18792 17.5347C9.19756 17.5992 9.19676 17.6653 9.18516 17.7329C9.18843 17.7543 9.20218 17.7743 9.2266 17.7926C9.24785 17.7895 9.25998 17.7986 9.26321 17.8201L9.23144 17.8249C9.20695 17.8065 9.19772 17.8187 9.20415 17.8616C9.22348 17.9906 9.22751 18.089 9.2159 18.1566C9.22553 18.221 9.22437 18.2869 9.21279 18.3544L9.28048 18.806C9.28368 18.8275 9.27639 18.8505 9.25838 18.875C9.2371 18.8781 9.23872 18.8889 9.26321 18.9073C9.2909 18.9472 9.29896 19.0009 9.28739 19.0684L9.30673 19.1975C9.31959 19.2834 9.34879 19.3339 9.39445 19.3493C9.37644 19.3738 9.37816 19.3846 9.39929 19.3816C9.42056 19.3785 9.43302 19.3879 9.43624 19.4094L9.47285 19.4368C9.52506 19.4951 9.53474 19.5595 9.50187 19.6302C9.48703 19.6763 9.48783 19.7531 9.50394 19.8606C9.44011 19.8699 9.44496 19.9023 9.51844 19.9575L9.64312 20.1367C9.64956 20.1797 9.68464 20.1965 9.74846 20.1872C9.79744 20.224 9.83252 20.2408 9.8538 20.2377L9.92737 20.293C9.88482 20.2992 9.86832 20.3346 9.87798 20.3991L9.96121 20.5186C10.0037 20.5124 10.0267 20.5201 10.0299 20.5416C10.0544 20.5599 10.0863 20.5552 10.1256 20.5275C10.1108 20.5736 10.0854 20.6215 10.0493 20.6707L10.145 20.6566C10.163 20.632 10.1827 20.6182 10.204 20.6151C10.1679 20.6643 10.153 20.7105 10.1595 20.7535L10.1691 20.8177C10.1362 20.8884 10.1443 20.9423 10.1933 20.9791C10.2422 21.0158 10.2697 21.0557 10.2762 21.0986L10.2907 21.1954C10.3397 21.2322 10.3675 21.272 10.3739 21.3149C10.4049 21.3763 10.4343 21.4272 10.462 21.4671C10.5174 21.5467 10.5574 21.5956 10.5819 21.614C10.6243 21.6078 10.6473 21.6156 10.6506 21.637C10.6783 21.6769 10.7101 21.6722 10.7462 21.623C10.7643 21.5984 10.7946 21.5832 10.8371 21.577C10.8796 21.5707 10.9099 21.5552 10.9279 21.5306C10.9215 21.4877 10.9291 21.4647 10.9504 21.4616C10.9928 21.4553 11.0001 21.4324 10.9725 21.3925C10.9937 21.3894 11.003 21.3769 10.9998 21.3555C11.0177 21.331 11.0373 21.317 11.0585 21.3139C11.1191 21.2831 11.125 21.2494 11.0761 21.2126L11.1079 21.2081L11.1717 21.1985L11.1939 21.1295C11.2183 21.1479 11.2505 21.1431 11.2899 21.1154L11.3534 21.1061C11.3078 21.0909 11.3048 21.0696 11.3441 21.0419C11.3377 20.999 11.313 20.9805 11.2705 20.9866C11.2918 20.9835 11.3116 20.9697 11.3296 20.9451C11.3476 20.9205 11.3598 20.9296 11.3662 20.9726C11.3694 20.994 11.3816 21.0034 11.4028 21.0004C11.4666 20.9911 11.4972 20.9755 11.494 20.954C11.512 20.9295 11.5315 20.9156 11.5527 20.9125C11.574 20.9094 11.5937 20.8955 11.6118 20.8709C11.6021 20.8064 11.6186 20.771 11.6611 20.7648L11.725 20.7555C11.7611 20.7064 11.8003 20.6787 11.8428 20.6724C11.8937 20.5772 11.9619 20.5235 12.0469 20.511C12.1043 20.4587 12.1421 20.4202 12.1602 20.3956C12.1783 20.371 12.2085 20.3555 12.251 20.3493C12.2904 20.3216 12.3085 20.2969 12.3053 20.2754L12.3643 20.2339C12.3856 20.2307 12.4143 20.2047 12.4503 20.1556L12.5045 20.0818L12.6223 19.9987C12.6649 19.9925 12.7043 19.9647 12.7404 19.9156C12.801 19.8848 12.8389 19.8463 12.8537 19.8002C12.893 19.7725 12.9338 19.7556 12.9763 19.7493C12.9731 19.7278 12.9896 19.6924 13.0257 19.6432L12.9891 19.6158L13.053 19.6065C13.0955 19.6003 13.1258 19.5847 13.1438 19.5601C13.1831 19.5325 13.2134 19.5172 13.2347 19.5141L13.3528 19.431C13.3857 19.3603 13.4127 19.3232 13.4339 19.3201L13.5151 19.2095C13.5512 19.1603 13.5907 19.1326 13.6332 19.1264C13.6757 19.1202 13.7149 19.0924 13.751 19.0433C13.8148 19.034 13.8208 19.0002 13.7686 18.942C13.8781 18.948 13.96 18.9141 14.0142 18.8404C14.0322 18.8158 14.0625 18.8002 14.105 18.794C14.1018 18.7725 14.111 18.7604 14.1323 18.7572C14.1535 18.7541 14.1624 18.7416 14.1592 18.7202C14.1741 18.6741 14.2028 18.6481 14.2452 18.6419L14.3091 18.6326C14.324 18.5865 14.3421 18.5619 14.3633 18.5588L14.4176 18.4849L14.4815 18.4757C14.4995 18.4511 14.519 18.4372 14.5402 18.4341L14.5626 18.3647C14.6773 18.2603 14.7543 18.1943 14.7937 18.1666L14.8255 18.1618C14.8435 18.1372 14.8633 18.1234 14.8845 18.1202C14.9026 18.0956 14.9223 18.0818 14.9436 18.0787C14.9829 18.051 14.9994 18.0156 14.993 17.9726C15.0503 17.9203 15.1003 17.8912 15.1429 17.885C15.1822 17.8573 15.22 17.8188 15.2561 17.7696C15.2742 17.745 15.315 17.7281 15.3787 17.7188C15.4328 17.6451 15.4614 17.6189 15.4647 17.6402C15.4796 17.5941 15.5086 17.5681 15.5511 17.5619C15.6084 17.5096 15.6492 17.4927 15.6737 17.511C15.6853 17.4435 15.7124 17.4064 15.7549 17.4001C15.7729 17.3756 15.7943 17.3725 15.8188 17.3908C15.84 17.3877 15.8598 17.3739 15.8778 17.3493C15.8746 17.3279 15.8641 17.3296 15.846 17.3541C15.8248 17.3572 15.8215 17.3356 15.8364 17.2895L15.9003 17.2803L15.932 17.2755C15.9533 17.2723 15.9622 17.2602 15.959 17.2387C16.0015 17.2325 16.0213 17.2186 16.018 17.1972L16.0502 17.1924C16.0438 17.1495 16.0616 17.1251 16.104 17.1189C16.1466 17.1127 16.1877 17.0954 16.227 17.0677C16.2843 17.0154 16.3311 16.9647 16.3672 16.9156C16.3608 16.8726 16.3789 16.8479 16.4214 16.8417C16.5065 16.8293 16.5473 16.8124 16.544 16.7909C16.5834 16.7632 16.6015 16.7386 16.5983 16.7171C16.6131 16.671 16.6421 16.645 16.6846 16.6388C16.7059 16.6356 16.7362 16.6201 16.7754 16.5924C16.6839 16.5618 16.6807 16.5403 16.7658 16.5279L16.8932 16.5093L16.9253 16.5049C16.9221 16.4834 16.9097 16.4739 16.8884 16.477C16.9097 16.4739 16.9294 16.4601 16.9474 16.4355C16.99 16.4293 17.0097 16.4154 17.0065 16.3939C17.0245 16.3694 17.0532 16.3433 17.0925 16.3156C17.1531 16.2848 17.2409 16.2169 17.3557 16.1123L17.5325 15.9877C17.5686 15.9385 17.5992 15.9233 17.6237 15.9417C17.6661 15.9354 17.684 15.9108 17.6776 15.8678C17.7169 15.8401 17.7475 15.8246 17.7687 15.8215C17.7868 15.7969 17.8155 15.7708 17.8547 15.7432L17.9504 15.7291C17.9684 15.7046 17.9882 15.6906 18.0095 15.6875C18.0424 15.6169 18.1194 15.551 18.2405 15.4894C18.2947 15.4156 18.343 15.3754 18.3856 15.3692C18.4069 15.3661 18.425 15.3415 18.4398 15.2954C18.4334 15.2524 18.4515 15.2278 18.494 15.2215C18.5675 15.2767 18.5977 15.2614 18.5849 15.1755C18.6242 15.1478 18.662 15.1093 18.6981 15.0601C18.7407 15.0539 18.7891 15.0137 18.8432 14.94C18.8007 14.9462 18.7882 14.9371 18.8062 14.9125C18.8913 14.9001 18.9735 14.8662 19.0521 14.8108L19.106 14.737L19.1651 14.6955C19.2141 14.7322 19.2535 14.7045 19.2832 14.6123C19.2735 14.5479 19.3038 14.5323 19.374 14.566C19.3953 14.5629 19.4026 14.5399 19.3961 14.497C19.393 14.4755 19.4127 14.4616 19.4552 14.4554C19.5977 14.3907 19.7052 14.3093 19.7774 14.2109C19.7742 14.1894 19.7939 14.1756 19.8365 14.1694C19.8545 14.1448 19.874 14.1309 19.8952 14.1278C19.9165 14.1247 19.9362 14.1108 19.9543 14.0863L20.0085 14.0124C20.0478 13.9847 20.078 13.9692 20.0993 13.9661C20.1206 13.963 20.1509 13.9477 20.1902 13.92C20.1869 13.8986 20.2248 13.86 20.3034 13.8047L20.3304 13.7676C20.3517 13.7645 20.3714 13.7506 20.3894 13.726C20.4533 13.7167 20.4943 13.6998 20.5124 13.6752C20.5272 13.6292 20.5559 13.6031 20.5984 13.5969C20.6164 13.5724 20.624 13.5493 20.6208 13.5279L20.7386 13.4448L20.7707 13.44L20.7756 13.4722C20.7967 13.4691 20.8057 13.4566 20.8025 13.4352C20.8237 13.432 20.8221 13.4216 20.7977 13.4032C20.7912 13.3603 20.8002 13.3478 20.8246 13.3661C20.8459 13.363 20.8959 13.3339 20.9745 13.2786C21.017 13.2724 21.0335 13.2369 21.0239 13.1724C21.1057 13.1386 21.1451 13.1108 21.142 13.0893L21.1866 12.951L21.2598 13.0062C21.3236 12.9969 21.3509 12.9598 21.3413 12.8953C21.3168 12.8769 21.3152 12.8665 21.3365 12.8634C21.3577 12.8602 21.365 12.837 21.3586 12.794C21.4107 12.8523 21.441 12.837 21.4494 12.748L21.4446 12.7157C21.4658 12.7126 21.4799 12.7325 21.4863 12.7755L21.5181 12.7707C21.515 12.7493 21.5242 12.737 21.5454 12.7339L21.609 12.7246L21.6632 12.6508L21.6266 12.6233L21.6217 12.5911L21.6535 12.5863C21.6896 12.5371 21.7215 12.5326 21.7492 12.5725C21.7576 12.4835 21.7938 12.4342 21.8576 12.4249C21.8789 12.4218 21.8878 12.4093 21.8846 12.3878C21.9026 12.3632 21.9364 12.3695 21.9854 12.4063C22.0002 12.3602 22.0184 12.3356 22.0396 12.3325C22.0821 12.3262 22.1108 12.2999 22.1256 12.2538C22.1437 12.2293 22.1724 12.2032 22.2116 12.1755C22.269 12.1232 22.3085 12.0955 22.3297 12.0924L22.4109 11.9819C22.4289 11.9573 22.4665 11.9187 22.5238 11.8665C22.5206 11.845 22.5085 11.8356 22.4872 11.8387L22.4921 11.8709C22.4495 11.8771 22.4266 11.8694 22.4233 11.8479C22.4414 11.8234 22.4611 11.8095 22.4824 11.8064L22.4776 11.7744C22.5137 11.7253 22.558 11.7296 22.6102 11.7878C22.7249 11.6833 22.7914 11.6187 22.8095 11.5942C22.803 11.5512 22.8176 11.505 22.8537 11.4558C22.8505 11.4343 22.867 11.3988 22.9031 11.3497C22.9243 11.3466 22.9473 11.3543 22.9718 11.3727C22.9802 11.2837 23.0056 11.2361 23.0481 11.2298C23.0694 11.2267 23.077 11.2037 23.0706 11.1608C23.1002 11.0686 23.1559 11.0055 23.2377 10.9716C23.2687 11.0329 23.2795 11.0312 23.2699 10.9668C23.2877 10.9423 23.2845 10.9209 23.2602 10.9025C23.257 10.881 23.2642 10.8578 23.2823 10.8332C23.3216 10.8055 23.3502 10.7794 23.3683 10.7549C23.3831 10.7088 23.4134 10.6933 23.4591 10.7085L23.4446 10.612C23.4626 10.5875 23.4824 10.5736 23.5037 10.5705L23.5358 10.5657C23.5995 10.5563 23.6068 10.5334 23.5579 10.4966C23.5089 10.4599 23.5165 10.4366 23.5803 10.4273C23.6228 10.421 23.6423 10.4072 23.6391 10.3857L23.6712 10.3813C23.704 10.3106 23.7327 10.2843 23.7572 10.3026L23.8211 10.2933C23.8147 10.2505 23.822 10.2275 23.8432 10.2243C23.8825 10.1966 23.9095 10.1598 23.9243 10.1137C23.8999 10.0954 23.8772 10.0877 23.856 10.0907L23.9102 10.0169L23.9641 9.94307C24.0279 9.93376 24.0552 9.89691 24.0456 9.83249L24.1091 9.82322L24.2176 9.67555C24.2814 9.66624 24.3208 9.63854 24.3357 9.59245C24.3325 9.57095 24.3184 9.55109 24.2939 9.5327C24.2514 9.53884 24.2041 9.51262 24.1519 9.4544C24.1731 9.45134 24.1853 9.46076 24.1885 9.48222L24.2203 9.47741C24.2629 9.4712 24.2826 9.45735 24.2794 9.43586C24.2974 9.41126 24.3296 9.40649 24.3754 9.42178L24.4072 9.41731C24.404 9.39588 24.3917 9.38647 24.3706 9.3895C24.3577 9.30361 24.3831 9.25595 24.4469 9.24664C24.4894 9.24043 24.5197 9.22517 24.5377 9.20062C24.5558 9.17605 24.5403 9.14532 24.4914 9.10859C24.5126 9.10546 24.5216 9.09296 24.5184 9.0715C24.5364 9.04694 24.5651 9.02087 24.6044 8.99321C24.6012 8.97174 24.589 8.96231 24.5678 8.96539L24.5356 8.9702C24.5324 8.94871 24.5417 8.93656 24.5629 8.93345L24.5581 8.90117C24.5794 8.89808 24.5915 8.90716 24.5947 8.92865C24.616 8.92554 24.6357 8.91168 24.6538 8.88709C24.6654 8.81951 24.704 8.71494 24.7698 8.57357L24.7553 8.47707C24.7456 8.41261 24.7622 8.37718 24.8047 8.37096C24.8344 8.27877 24.846 8.21099 24.8396 8.168C24.8544 8.12197 24.8601 8.08817 24.8568 8.0667C24.8504 8.02374 24.8548 7.97918 24.8696 7.93311C24.9121 7.9269 24.9089 7.90532 24.86 7.86855C24.8387 7.87166 24.8371 7.86087 24.8551 7.83627C24.852 7.8149 24.8609 7.80265 24.8821 7.79953C24.9001 7.77493 24.8969 7.75336 24.8724 7.73497C24.8448 7.69521 24.8416 7.67356 24.8627 7.67041C24.8807 7.64582 24.8654 7.61514 24.8164 7.57838L24.8434 7.54163L24.8755 7.53682C24.8723 7.51541 24.8598 7.50625 24.8385 7.50935C24.8141 7.49096 24.7987 7.46024 24.7923 7.41732L24.7874 7.38504C24.781 7.34212 24.7672 7.32225 24.746 7.32529L24.8099 7.31602C24.7184 7.28545 24.6857 7.21328 24.7121 7.09967L24.7266 7.19617C24.7479 7.1931 24.76 7.20252 24.7633 7.22398L24.7729 7.2882C24.7942 7.2851 24.8034 7.27292 24.8002 7.25145L24.7809 7.12233C24.7776 7.10086 24.7513 7.07181 24.7025 7.03511C24.6812 7.03821 24.6688 7.02903 24.6655 7.00764C24.6836 6.98304 24.6803 6.96147 24.6558 6.94308C24.6526 6.92158 24.6602 6.89831 24.6783 6.87371L24.6638 6.77721C24.6393 6.75884 24.624 6.7281 24.6175 6.68518C24.593 6.66679 24.5789 6.64658 24.5757 6.62508C24.5692 6.58226 24.5479 6.58557 24.5118 6.6347L24.5021 6.57014C24.4893 6.4842 24.4602 6.43332 24.4144 6.41801L24.3999 6.32151C24.4553 6.40121 24.4985 6.47171 24.5294 6.53305C24.541 6.46555 24.5329 6.41185 24.5053 6.37199C24.4988 6.32911 24.485 6.30925 24.4638 6.31224L24.3719 5.69961C24.3687 5.67811 24.3546 5.65824 24.3302 5.63985C24.3057 5.62149 24.3025 5.59984 24.3205 5.57529C24.3353 5.5292 24.3184 5.48776 24.2694 5.45098L24.2328 5.42351C24.2508 5.39894 24.2475 5.37732 24.2231 5.35895C24.1741 5.32219 24.1358 5.28376 24.1081 5.24391C24.1016 5.20096 24.0738 5.16116 24.0248 5.1244C23.9791 5.10912 23.944 5.09197 23.9195 5.07358C23.8918 5.03371 23.8531 4.99565 23.8041 4.95888C23.7945 4.8944 23.7719 4.88668 23.7358 4.93587L23.6256 4.85311L23.6159 4.78855C23.6127 4.76706 23.6002 4.75798 23.579 4.76108L23.5838 4.79336C23.5529 4.73198 23.5162 4.70439 23.4736 4.7106C23.4001 4.65543 23.2962 4.61546 23.1621 4.59109C23.0642 4.51763 22.9834 4.48567 22.9196 4.49494C22.8739 4.47966 22.8388 4.4625 22.8143 4.44412C22.7866 4.40425 22.7512 4.38743 22.7086 4.39364C22.6874 4.39669 22.6646 4.38924 22.6402 4.37097C22.6157 4.35258 22.5803 4.33543 22.5346 4.32015C22.4921 4.32633 22.448 4.32201 22.4023 4.30675C22.3778 4.28836 22.3105 4.27599 22.2009 4.27001C22.1095 4.23948 22.0424 4.22741 21.9999 4.23361C21.9542 4.21833 21.9207 4.21231 21.8994 4.21541C21.8962 4.19392 21.8716 4.17541 21.8258 4.16012C21.7801 4.14485 21.7253 4.14188 21.6614 4.15119C21.6189 4.15738 21.5749 4.15271 21.5292 4.13746C21.5047 4.11908 21.4498 4.11614 21.3648 4.12853C21.2275 4.08267 21.0841 4.07074 20.9351 4.09247C20.8894 4.07721 20.8559 4.07117 20.8346 4.07427C20.8133 4.07734 20.7798 4.07099 20.7341 4.05573C20.7193 4.10182 20.7012 4.12645 20.6799 4.12956C20.6555 4.11119 20.6417 4.09127 20.6385 4.06981C20.5289 4.06383 20.4068 4.0485 20.2727 4.02413C20.2057 4.01198 20.1403 4.01071 20.0765 4.02001C20.0127 4.02932 19.9365 4.02943 19.8482 4.02035C19.8238 4.00201 19.8024 4.00505 19.7843 4.02963C19.7631 4.03267 19.7404 4.02495 19.716 4.00662C19.5819 3.98225 19.4828 3.97499 19.4189 3.9843Z" fill="#E6332B"/>
<path d="M5.44821 29.0646C5.47203 29.0642 5.49622 29.0758 5.52039 29.0989L5.44994 29.1703C5.35542 29.2187 5.29655 29.2666 5.27345 29.3139C5.22663 29.3614 5.20271 29.3617 5.20196 29.3149C5.24813 29.2204 5.28315 29.1612 5.30661 29.1374C5.32969 29.0901 5.37684 29.0657 5.44821 29.0646Z" fill="#E6332B"/>
</svg>
