<svg width="64" height="32" viewBox="0 0 64 32" fill="none" xmlns="http://www.w3.org/2000/svg">
<path d="M37.5712 0.00384312L51.1011 0.00106412C52.0627 0.0011259 53.0567 -0.0207129 54.0087 0.130491C55.3657 0.338903 56.6705 0.803943 57.8536 1.50069C60.2305 2.89788 61.9961 5.13663 62.8008 7.7737C62.9686 8.33972 63.0788 8.90345 63.1607 9.48683C63.186 9.66704 63.2144 9.85364 63.2617 10.0289V25.7123L59.5948 25.7142C58.8714 25.716 58.0543 25.7417 57.3439 25.7092C57.3022 26.155 57.3318 27.1802 57.3321 27.6547L57.3287 31.6366C55.5378 31.6811 53.5713 31.644 51.7662 31.644L43.0059 31.645C42.4907 31.6422 41.8284 31.6295 41.319 31.5696C38.8352 31.2845 36.5244 30.157 34.7705 28.3753C33.3671 26.9597 32.3799 25.1857 31.9163 23.247C31.5685 21.8088 31.6256 20.627 31.6259 19.1703L31.6305 5.93725L35.4874 5.9329C36.1364 5.93305 36.9216 5.95202 37.5576 5.91761C37.5697 5.61511 37.5576 5.3093 37.5622 5.00649C37.5873 3.34538 37.5236 1.66286 37.5712 0.00384312ZM42.0978 25.6685C43.1662 25.7219 44.3725 25.6947 45.4548 25.6947L55.0788 25.6941C55.6919 25.6941 56.7366 25.7241 57.3269 25.6728C57.3643 22.7547 57.3312 19.7655 57.3312 16.8418L57.3331 13.0262C57.3334 12.6647 57.3748 10.414 57.2555 10.2636L57.2172 10.2496C56.7913 10.6162 56.2186 11.2224 55.8068 11.6343L43.0207 24.4249C42.8298 24.6164 41.96 25.4223 41.9099 25.6052L41.9294 25.6512C41.9937 25.6604 42.0329 25.666 42.0978 25.6685ZM37.5879 21.4622L42.6745 16.3695C43.5181 15.5259 44.4497 14.5517 45.3041 13.742L50.3718 8.6732C51.2163 7.82902 52.265 6.84025 53.0459 5.98106C51.604 5.91492 50.0586 5.94297 48.6052 5.94278L41.636 5.94325L39.0252 5.94726C38.6218 5.9484 37.965 5.97132 37.5879 5.93768C37.5375 6.20281 37.5613 7.16082 37.5622 7.49075L37.5632 17.3746C37.5632 18.7029 37.5366 20.1464 37.5879 21.4622Z" fill="#CFC2C2"/>
<path d="M0 3.9767C0.436203 3.93914 1.11916 3.95581 1.57574 3.95544L6.29111 3.95483C6.60417 3.95504 7.25656 3.93808 7.52777 3.99943C7.76905 4.21278 8.36661 5.0257 8.61051 5.33528L20.6303 20.6397C20.9822 21.0829 21.3801 21.6204 21.7432 22.039L21.7469 5.98013C21.7467 5.3405 21.7285 4.58556 21.7558 3.95767C23.6716 3.95582 25.7733 3.91211 27.6793 3.96446L27.68 25.1495C27.6803 25.9635 27.7216 27.276 27.59 28.0189C27.4415 28.8152 27.0572 29.5485 26.4869 30.124C25.6767 30.932 24.5759 31.3806 23.4317 31.3691C22.3492 31.3552 21.318 30.9055 20.5717 30.1212C20.0012 29.5315 19.2013 28.4306 18.6719 27.7575L0.972389 5.22544C0.811353 5.02073 0.141881 4.12039 0 4.02427V3.9767Z" fill="#CFC2C2"/>
</svg>
